<?xml version="1.0" encoding="UTF-8"?><svg xmlns="http://www.w3.org/2000/svg" xmlns:xlink="http://www.w3.org/1999/xlink" contentScriptType="text/ecmascript" zoomAndPan="magnify" contentStyleType="text/css" enable-background="new 0 0 1584 648" version="1.1" width="500.0" xml:space="preserve" preserveAspectRatio="xMidYMid meet" viewBox="1231.9291 23.068998 95.45886 466.579" height="2443.8748" x="0px" y="0px"><g id="DECKS"><path fill="#FFFFFF" id="IDP-Deck04" d="M1319.945,486.648v-21.521h0.002l1.236-5.365   l1.02-4.535l0.727-4.01l0.51-3.777l0.512-4.387l0.291-4.385l0.145-4.686l-0.145-4.916l-0.219-5.365l-0.584-5.82l-0.582-5.219   l-0.725-5.518l-0.949-5.898l-1.236-6.953h-0.002V82.353c0-22.26-1.352-40.671-3.731-56.163l-73.135-0.121   c-2.367,15.468-3.709,34.082-3.709,56.284v311.94h-0.004l-1.238,6.953l-0.945,5.898l-0.729,5.518l-0.58,5.219l-0.582,5.82   l-0.219,5.365l-0.145,4.916l0.145,4.686l0.291,4.385l0.51,4.387l0.51,3.777l0.727,4.01l1.018,4.535l1.238,5.365h0.004v21.521   H1319.945z" stroke-width="0.6603" stroke="#939598"><path fill="#FFFFFF" id="IDP-Deck04" d="M1319.945,486.648v-21.521h0.002l1.236-5.365   l1.02-4.535l0.727-4.01l0.51-3.777l0.512-4.387l0.291-4.385l0.145-4.686l-0.145-4.916l-0.219-5.365l-0.584-5.82l-0.582-5.219   l-0.725-5.518l-0.949-5.898l-1.236-6.953h-0.002V82.353c0-22.26-1.352-40.671-3.731-56.163l-73.135-0.121   c-2.367,15.468-3.709,34.082-3.709,56.284v311.94h-0.004l-1.238,6.953l-0.945,5.898l-0.729,5.518l-0.58,5.219l-0.582,5.82   l-0.219,5.365l-0.145,4.916l0.145,4.686l0.291,4.385l0.51,4.387l0.51,3.777l0.727,4.01l1.018,4.535l1.238,5.365h0.004v21.521   H1319.945z" stroke-width="0.6603" stroke="#939598"/></path></g><g id="DECKS_PUBLIC"><path fill="none" d="M1255.65,29.23h47.945v15.854h-5.93l-1.635,2.993l6.308,3.801   l0.858,1.375c-1.643,6.144-0.254,9.375,0.145,10.943c0.398,1.565,3.111,7.573-0.713,14.847c-4.322,8.231-12.572,9.141-23.127,9.141   c-10.553,0-18.805-0.91-23.129-9.141c-3.822-7.274-1.109-13.282-0.711-14.847c0.398-1.568,1.607-4.877-0.031-11.019l1.072-1.198   l6.543-3.821l-1.869-3.217h-5.727V29.23z" stroke-width="0.6603" stroke="#939598"/><g><path fill="#FFFFFF" d="M1290.924,107.65    c-0.066,0.266-0.102,0.548-0.102,0.84c0,0.864,0.322,1.645,0.844,2.212c0.523,0.565,1.24,0.916,2.037,0.916    s1.375-0.461,1.848-0.974c0.471-0.512,0.523-1.158,0.523-1.868c0-0.709-0.354-0.843-0.744-1.27    c-0.586-0.634-0.928-0.993-2.648-0.521c-2.219,0.607-2.746,1.152-3.736,2.912c-0.994,1.758,0.061,3.701,1.072,4.445    c0.396,0.307,0.814,0.582,1.275,0.784c0.74,0.326,1.555,0.505,2.41,0.505c0.857,0,1.672-0.18,2.414-0.505    c0.74-0.326,1.408-0.797,1.969-1.379c0.561-0.583,1.014-1.276,1.328-2.046c0.312-0.77,0.488-1.617,0.488-2.506    c0-0.888-0.176-1.735-0.488-2.505c-0.314-0.77-1.066-2.615-1.066-2.615" stroke-width="0.3302" stroke="#939598" stroke-linejoin="round"/></g><g><line fill="none" x1="1295.857" x2="1299.193" y1="108.022" y2="106.208" stroke="#939598" stroke-width="0.3302"/></g><g><line fill="none" x1="1296.119" x2="1299.801" y1="108.738" y2="108.044" stroke="#939598" stroke-width="0.3302"/></g><g><line fill="none" x1="1296.012" x2="1299.855" y1="109.491" y2="109.985" stroke="#939598" stroke-width="0.3302"/></g><g><line fill="none" x1="1295.836" x2="1299.346" y1="110.199" y2="111.855" stroke="#939598" stroke-width="0.3302"/></g><g><line fill="none" x1="1295.435" x2="1298.326" y1="110.802" y2="113.482" stroke="#939598" stroke-width="0.3302"/></g><g><line fill="none" x1="1294.912" x2="1296.885" y1="111.294" y2="114.719" stroke="#939598" stroke-width="0.3302"/></g><g><line fill="none" x1="1294.248" x2="1295.152" y1="111.548" y2="115.453" stroke="#939598" stroke-width="0.3302"/></g><g><line fill="none" x1="1293.545" x2="1293.289" y1="111.667" y2="115.617" stroke="#939598" stroke-width="0.3302"/></g><g><line fill="none" x1="1292.828" x2="1291.463" y1="111.538" y2="115.196" stroke="#939598" stroke-width="0.3302"/></g><g><line fill="none" x1="1292.162" x2="1289.842" y1="111.203" y2="114.228" stroke="#939598" stroke-width="0.3302"/></g><polyline fill="none" stroke-width="0.3302" points="1298.348,104.073 1301.115,103.189    1302.611,107.045 1302.611,127.854 1308.566,127.854  " stroke="#939598" stroke-linejoin="round"/><path fill="none" d="M1274.732,118.935h-3.486v-12.679   c0,0-11.447-2.366-13.143-2.973l-1.635,3.336v21.173h-6.078" stroke-width="0.3302" stroke="#939598" stroke-linejoin="round"/><path fill="none" d="M1243.252,61.85l6.15-4.553   c1.549-2.002,4.949-4.12,6.229-4.12" stroke-width="0.3302" stroke="#939598" stroke-linejoin="round"/><path fill="none" d="M1303.197,53.253   c1.867,0,4.789,1.8,6.465,3.965l6.398,4.629" stroke-width="0.3302" stroke="#939598" stroke-linejoin="round"/><path fill="none" d="M1315.5,463.74L1315.5,463.74l1.02-1.785l0.873-2.496l0.729-3.178   l0.656-3.854l0.436-4.609l0.363-5.371l0.219-5.971v-4.057v-5.318v-4.158l-0.219-5.973l-0.363-5.289l-0.436-4.613l-0.656-3.93   l-0.729-3.178l-0.873-2.494l-1.02-1.764l0,0l-2.475-1.41l-4.209,0.004l0.023-295.018l6.623-4.914h1.107l0.008-12.012   c0-7.239-0.143-14.061-0.422-20.499" stroke-width="0.6603" stroke="#939598"/><path fill="none" d="M1243.922,464.473L1243.922,464.473l-1.02-1.789l-0.873-2.494   l-0.729-3.176l-0.654-3.855l-0.438-4.609l-0.361-5.369l-0.221-5.971v-4.059v-5.318v-4.156l0.221-5.973l0.361-5.291l0.438-4.613   l0.654-3.932l0.729-3.176l0.873-2.494l1.02-1.762l0,0l2.477-1.412l4.207,0.004l-0.023-295.017l-6.621-4.914h-1.111l-0.008-12.012   c0-7.239,0.131-14.795,0.41-21.234" stroke-width="0.6603" stroke="#939598"/><g><rect x="1246.889" stroke-linecap="round" y="104.07" fill="#FFFFFF" width="3.502" stroke-linejoin="round" height="0.959" stroke="#939598" stroke-width="0.3302"/></g><g><rect x="1246.889" stroke-linecap="round" y="105.029" fill="#FFFFFF" width="3.502" stroke-linejoin="round" height="0.959" stroke="#939598" stroke-width="0.3302"/></g><g><rect x="1246.889" stroke-linecap="round" y="105.988" fill="#FFFFFF" width="3.502" stroke-linejoin="round" height="0.959" stroke="#939598" stroke-width="0.3302"/></g><g><rect x="1246.889" stroke-linecap="round" y="106.948" fill="#FFFFFF" width="3.502" stroke-linejoin="round" height="0.959" stroke="#939598" stroke-width="0.3302"/></g><g><rect x="1246.889" stroke-linecap="round" y="107.907" fill="#FFFFFF" width="3.502" stroke-linejoin="round" height="0.958" stroke="#939598" stroke-width="0.3302"/></g><g><rect x="1246.889" stroke-linecap="round" y="108.865" fill="#FFFFFF" width="3.502" stroke-linejoin="round" height="0.961" stroke="#939598" stroke-width="0.3302"/></g><g><polygon fill="#FFFFFF" stroke-width="0.3302" points="    1246.889,98.378 1247.969,98.378 1249.266,99.337 1246.889,99.337   " stroke="#939598" stroke-linecap="round" stroke-linejoin="round"/></g><g><polygon fill="#FFFFFF" stroke-width="0.3302" points="    1246.889,99.337 1249.301,99.337 1250.488,100.296 1246.889,100.296   " stroke="#939598" stroke-linecap="round" stroke-linejoin="round"/></g><g><rect x="1246.889" stroke-linecap="round" y="100.296" fill="#FFFFFF" width="3.502" stroke-linejoin="round" height="0.959" stroke="#939598" stroke-width="0.3302"/></g><g><rect x="1246.889" stroke-linecap="round" y="101.255" fill="#FFFFFF" width="3.502" stroke-linejoin="round" height="2.828" stroke="#939598" stroke-width="0.3302"/></g><g><rect x="1308.99" stroke-linecap="round" y="103.122" fill="#FFFFFF" width="3.506" stroke-linejoin="round" height="0.96" stroke="#939598" stroke-width="0.3302"/></g><g><rect x="1308.99" stroke-linecap="round" y="104.083" fill="#FFFFFF" width="3.506" stroke-linejoin="round" height="0.958" stroke="#939598" stroke-width="0.3302"/></g><g><rect x="1308.99" stroke-linecap="round" y="105.041" fill="#FFFFFF" width="3.506" stroke-linejoin="round" height="0.959" stroke="#939598" stroke-width="0.3302"/></g><g><rect x="1308.99" stroke-linecap="round" y="106" fill="#FFFFFF" width="3.506" stroke-linejoin="round" height="0.959" stroke="#939598" stroke-width="0.3302"/></g><g><rect x="1308.99" stroke-linecap="round" y="106.959" fill="#FFFFFF" width="3.506" stroke-linejoin="round" height="0.959" stroke="#939598" stroke-width="0.3302"/></g><g><rect x="1308.99" stroke-linecap="round" y="107.918" fill="#FFFFFF" width="3.506" stroke-linejoin="round" height="0.959" stroke="#939598" stroke-width="0.3302"/></g><g><polygon fill="#FFFFFF" stroke-width="0.3302" points="    1312.496,97.43 1311.666,97.43 1310.367,98.39 1312.496,98.39   " stroke="#939598" stroke-linecap="round" stroke-linejoin="round"/></g><g><polygon fill="#FFFFFF" stroke-width="0.3302" points="    1312.496,98.39 1310.367,98.39 1308.99,99.349 1312.496,99.349   " stroke="#939598" stroke-linecap="round" stroke-linejoin="round"/></g><g><rect x="1308.99" stroke-linecap="round" y="99.349" fill="#FFFFFF" width="3.506" stroke-linejoin="round" height="0.959" stroke="#939598" stroke-width="0.3302"/></g><g><rect x="1308.99" stroke-linecap="round" y="100.308" fill="#FFFFFF" width="3.506" stroke-linejoin="round" height="2.827" stroke="#939598" stroke-width="0.3302"/></g><line fill="none" x1="1242.684" x2="1239.414" y1="94.063" y2="94.063" stroke="#939598" stroke-width="0.6603"/><line fill="none" x1="1316.57" x2="1319.867" y1="94.365" y2="94.365" stroke="#939598" stroke-width="0.6603"/><g><g><rect x="1293.57" y="370.758" fill="#FFFFFF" width="4.006" height="0.957" stroke="#939598" stroke-width="0.3302"/></g></g><g><g><rect x="1293.57" y="369.795" fill="#FFFFFF" width="4.006" height="0.963" stroke="#939598" stroke-width="0.3302"/></g></g><g><g><rect x="1293.57" y="368.838" fill="#FFFFFF" width="4.006" height="0.957" stroke="#939598" stroke-width="0.3302"/></g></g><g><g><rect x="1297.576" y="370.758" fill="#FFFFFF" width="3.012" height="0.957" stroke="#939598" stroke-width="0.3302"/></g></g><g><g><rect x="1297.576" y="369.795" fill="#FFFFFF" width="3.012" height="0.963" stroke="#939598" stroke-width="0.3302"/></g></g><g><g><rect x="1297.576" y="368.838" fill="#FFFFFF" width="3.012" height="0.957" stroke="#939598" stroke-width="0.3302"/></g></g><g><g><rect x="1293.57" y="367.879" fill="#FFFFFF" width="4.006" height="0.959" stroke="#939598" stroke-width="0.3302"/></g></g><g><g><rect x="1297.576" y="367.879" fill="#FFFFFF" width="3.012" height="0.959" stroke="#939598" stroke-width="0.3302"/></g></g><g><g><rect x="1293.57" y="366.92" fill="#FFFFFF" width="4.006" height="0.959" stroke="#939598" stroke-width="0.3302"/></g></g><g><g><rect x="1297.576" y="366.92" fill="#FFFFFF" width="3.012" height="0.959" stroke="#939598" stroke-width="0.3302"/></g></g><g><g><rect x="1293.57" y="365.961" fill="#FFFFFF" width="4.006" height="0.959" stroke="#939598" stroke-width="0.3302"/></g></g><g><g><rect x="1297.576" y="365.961" fill="#FFFFFF" width="3.012" height="0.959" stroke="#939598" stroke-width="0.3302"/></g></g><g><g><rect x="1290.559" y="370.758" fill="#FFFFFF" width="3.012" height="0.957" stroke="#939598" stroke-width="0.3302"/></g></g><g><g><rect x="1290.559" y="369.795" fill="#FFFFFF" width="3.012" height="0.963" stroke="#939598" stroke-width="0.3302"/></g></g><g><g><rect x="1290.559" y="368.838" fill="#FFFFFF" width="3.012" height="0.957" stroke="#939598" stroke-width="0.3302"/></g></g><g><g><rect x="1290.559" y="367.879" fill="#FFFFFF" width="3.012" height="0.959" stroke="#939598" stroke-width="0.3302"/></g></g><g><g><rect x="1290.559" y="366.92" fill="#FFFFFF" width="3.012" height="0.959" stroke="#939598" stroke-width="0.3302"/></g></g><g><g><rect x="1290.559" y="365.961" fill="#FFFFFF" width="3.012" height="0.959" stroke="#939598" stroke-width="0.3302"/></g></g><g><rect x="1290.559" y="371.705" fill="#FFFFFF" width="10.029" height="2.826" stroke="#939598" stroke-width="0.3302"/></g><g><g><rect x="1261.945" y="370.758" fill="#FFFFFF" width="4.006" height="0.957" stroke="#939598" stroke-width="0.3302"/></g></g><g><g><rect x="1261.945" y="369.795" fill="#FFFFFF" width="4.006" height="0.963" stroke="#939598" stroke-width="0.3302"/></g></g><g><g><rect x="1261.945" y="368.838" fill="#FFFFFF" width="4.006" height="0.957" stroke="#939598" stroke-width="0.3302"/></g></g><g><g><rect x="1265.951" y="370.758" fill="#FFFFFF" width="3.01" height="0.957" stroke="#939598" stroke-width="0.3302"/></g></g><g><g><rect x="1265.951" y="369.795" fill="#FFFFFF" width="3.01" height="0.963" stroke="#939598" stroke-width="0.3302"/></g></g><g><g><rect x="1265.951" y="368.838" fill="#FFFFFF" width="3.01" height="0.957" stroke="#939598" stroke-width="0.3302"/></g></g><g><g><rect x="1261.945" y="367.879" fill="#FFFFFF" width="4.006" height="0.959" stroke="#939598" stroke-width="0.3302"/></g></g><g><g><rect x="1265.951" y="367.879" fill="#FFFFFF" width="3.01" height="0.959" stroke="#939598" stroke-width="0.3302"/></g></g><g><g><rect x="1261.945" y="366.92" fill="#FFFFFF" width="4.006" height="0.959" stroke="#939598" stroke-width="0.3302"/></g></g><g><g><rect x="1265.951" y="366.92" fill="#FFFFFF" width="3.01" height="0.959" stroke="#939598" stroke-width="0.3302"/></g></g><g><g><rect x="1261.945" y="365.961" fill="#FFFFFF" width="4.006" height="0.959" stroke="#939598" stroke-width="0.3302"/></g></g><g><g><rect x="1265.951" y="365.961" fill="#FFFFFF" width="3.01" height="0.959" stroke="#939598" stroke-width="0.3302"/></g></g><g><g><rect x="1258.938" y="370.758" fill="#FFFFFF" width="3.008" height="0.957" stroke="#939598" stroke-width="0.3302"/></g></g><g><g><rect x="1258.938" y="369.795" fill="#FFFFFF" width="3.008" height="0.963" stroke="#939598" stroke-width="0.3302"/></g></g><g><g><rect x="1258.938" y="368.838" fill="#FFFFFF" width="3.008" height="0.957" stroke="#939598" stroke-width="0.3302"/></g></g><g><g><rect x="1258.938" y="367.879" fill="#FFFFFF" width="3.008" height="0.959" stroke="#939598" stroke-width="0.3302"/></g></g><g><g><rect x="1258.938" y="366.92" fill="#FFFFFF" width="3.008" height="0.959" stroke="#939598" stroke-width="0.3302"/></g></g><g><g><rect x="1258.938" y="365.961" fill="#FFFFFF" width="3.008" height="0.959" stroke="#939598" stroke-width="0.3302"/></g></g><g><rect x="1258.938" y="371.705" fill="#FFFFFF" width="10.023" height="2.826" stroke="#939598" stroke-width="0.3302"/></g><g><g><rect x="1292.363" y="122.66" fill="#FFFFFF" width="4.006" height="0.959" stroke="#939598" stroke-width="0.3302"/></g></g><g><g><rect x="1292.363" y="123.619" fill="#FFFFFF" width="4.006" height="0.959" stroke="#939598" stroke-width="0.3302"/></g></g><g><g><rect x="1292.363" y="124.579" fill="#FFFFFF" width="4.006" height="0.958" stroke="#939598" stroke-width="0.3302"/></g></g><g><g><rect x="1289.354" y="122.66" fill="#FFFFFF" width="3.01" height="0.959" stroke="#939598" stroke-width="0.3302"/></g></g><g><g><rect x="1289.354" y="123.619" fill="#FFFFFF" width="3.01" height="0.959" stroke="#939598" stroke-width="0.3302"/></g></g><g><g><rect x="1289.354" y="124.579" fill="#FFFFFF" width="3.01" height="0.958" stroke="#939598" stroke-width="0.3302"/></g></g><g><g><rect x="1292.363" y="125.537" fill="#FFFFFF" width="4.006" height="0.959" stroke="#939598" stroke-width="0.3302"/></g></g><g><g><rect x="1289.354" y="125.537" fill="#FFFFFF" width="3.01" height="0.959" stroke="#939598" stroke-width="0.3302"/></g></g><g><g><rect x="1292.363" y="126.496" fill="#FFFFFF" width="4.006" height="0.958" stroke="#939598" stroke-width="0.3302"/></g></g><g><g><rect x="1289.354" y="126.496" fill="#FFFFFF" width="3.01" height="0.958" stroke="#939598" stroke-width="0.3302"/></g></g><g><g><rect x="1292.363" y="127.455" fill="#FFFFFF" width="4.006" height="0.96" stroke="#939598" stroke-width="0.3302"/></g></g><g><g><rect x="1289.354" y="127.455" fill="#FFFFFF" width="3.01" height="0.96" stroke="#939598" stroke-width="0.3302"/></g></g><g><g><rect x="1296.369" y="122.66" fill="#FFFFFF" width="3.012" height="0.959" stroke="#939598" stroke-width="0.3302"/></g></g><g><g><rect x="1296.369" y="123.619" fill="#FFFFFF" width="3.012" height="0.959" stroke="#939598" stroke-width="0.3302"/></g></g><g><g><rect x="1296.369" y="124.579" fill="#FFFFFF" width="3.012" height="0.958" stroke="#939598" stroke-width="0.3302"/></g></g><g><g><rect x="1296.369" y="125.537" fill="#FFFFFF" width="3.012" height="0.959" stroke="#939598" stroke-width="0.3302"/></g></g><g><g><rect x="1296.369" y="126.496" fill="#FFFFFF" width="3.012" height="0.958" stroke="#939598" stroke-width="0.3302"/></g></g><g><g><rect x="1296.369" y="127.455" fill="#FFFFFF" width="3.012" height="0.96" stroke="#939598" stroke-width="0.3302"/></g></g><g><rect x="1289.354" y="119.845" fill="#FFFFFF" width="10.027" height="2.827" stroke="#939598" stroke-width="0.3302"/></g><g><g><rect x="1262.633" y="122.721" fill="#FFFFFF" width="4.008" height="0.959" stroke="#939598" stroke-width="0.3302"/></g></g><g><g><rect x="1262.633" y="123.68" fill="#FFFFFF" width="4.008" height="0.959" stroke="#939598" stroke-width="0.3302"/></g></g><g><g><rect x="1262.633" y="124.639" fill="#FFFFFF" width="4.008" height="0.959" stroke="#939598" stroke-width="0.3302"/></g></g><g><g><rect x="1259.623" y="122.721" fill="#FFFFFF" width="3.01" height="0.959" stroke="#939598" stroke-width="0.3302"/></g></g><g><g><rect x="1259.623" y="123.68" fill="#FFFFFF" width="3.01" height="0.959" stroke="#939598" stroke-width="0.3302"/></g></g><g><g><rect x="1259.623" y="124.639" fill="#FFFFFF" width="3.01" height="0.959" stroke="#939598" stroke-width="0.3302"/></g></g><g><g><rect x="1262.633" y="125.598" fill="#FFFFFF" width="4.008" height="0.959" stroke="#939598" stroke-width="0.3302"/></g></g><g><g><rect x="1259.623" y="125.598" fill="#FFFFFF" width="3.01" height="0.959" stroke="#939598" stroke-width="0.3302"/></g></g><g><g><rect x="1262.633" y="126.557" fill="#FFFFFF" width="4.008" height="0.959" stroke="#939598" stroke-width="0.3302"/></g></g><g><g><rect x="1259.623" y="126.557" fill="#FFFFFF" width="3.01" height="0.959" stroke="#939598" stroke-width="0.3302"/></g></g><g><g><rect x="1262.633" y="127.516" fill="#FFFFFF" width="4.008" height="0.958" stroke="#939598" stroke-width="0.3302"/></g></g><g><g><rect x="1259.623" y="127.516" fill="#FFFFFF" width="3.01" height="0.958" stroke="#939598" stroke-width="0.3302"/></g></g><g><g><rect x="1266.641" y="122.721" fill="#FFFFFF" width="3.01" height="0.959" stroke="#939598" stroke-width="0.3302"/></g></g><g><g><rect x="1266.641" y="123.68" fill="#FFFFFF" width="3.01" height="0.959" stroke="#939598" stroke-width="0.3302"/></g></g><g><g><rect x="1266.641" y="124.639" fill="#FFFFFF" width="3.01" height="0.959" stroke="#939598" stroke-width="0.3302"/></g></g><g><g><rect x="1266.641" y="125.598" fill="#FFFFFF" width="3.01" height="0.959" stroke="#939598" stroke-width="0.3302"/></g></g><g><g><rect x="1266.641" y="126.557" fill="#FFFFFF" width="3.01" height="0.959" stroke="#939598" stroke-width="0.3302"/></g></g><g><g><rect x="1266.641" y="127.516" fill="#FFFFFF" width="3.01" height="0.958" stroke="#939598" stroke-width="0.3302"/></g></g><g><rect x="1259.623" y="119.906" fill="#FFFFFF" width="10.027" height="2.828" stroke="#939598" stroke-width="0.3302"/></g><rect x="1257.287" y="341.475" fill="#FFFFFF" width="4.777" height="14.424" stroke="#939598" stroke-width="0.3302"/><rect x="1297.104" y="341.434" fill="#FFFFFF" width="4.777" height="14.424" stroke="#939598" stroke-width="0.3302"/><path fill="#FFFFFF" d="M1282.014,349.873c0-3.303,0.947-6.578,2.336-8.494   c0.834-1.148,2.727-1.213,2.727-1.213h2.725v17.553h-5.996C1283.805,357.719,1282.014,354.4,1282.014,349.873z" stroke-width="0.6603" stroke="#939598"/><path fill="#FFFFFF" d="M1277.17,349.873c0-3.303-0.945-6.578-2.336-8.494   c-0.832-1.148-2.727-1.213-2.727-1.213h-2.725v17.553h5.996C1275.379,357.719,1277.17,354.4,1277.17,349.873z" stroke-width="0.6603" stroke="#939598"/><path fill="none" d="M1289.787,356.938h-2.637c-1.178,0-2.135-1.367-2.135-3.055l0,0   c0-1.688,0.957-3.059,2.135-3.059h2.637V356.938z" stroke-width="0.3302" stroke="#939598"/><path fill="none" d="M1269.387,356.938h2.639c1.178,0,2.135-1.367,2.135-3.055l0,0   c0-1.688-0.957-3.059-2.135-3.059h-2.639V356.938z" stroke-width="0.3302" stroke="#939598"/><path fill="none" d="M1289.787,349.041h-2.637c-1.178,0-2.135-1.367-2.135-3.057l0,0   c0-1.688,0.957-3.057,2.135-3.057h2.637V349.041z" stroke-width="0.3302" stroke="#939598"/><path fill="none" d="M1269.387,349.041h2.639c1.178,0,2.135-1.367,2.135-3.057l0,0   c0-1.688-0.957-3.057-2.135-3.057h-2.639V349.041z" stroke-width="0.3302" stroke="#939598"/><g><line fill="none" x1="1274.812" x2="1271.668" y1="325.387" y2="326.355" stroke="#939598" stroke-width="0.3302"/></g><g><line fill="none" x1="1274.656" x2="1271.387" y1="324.502" y2="325.207" stroke="#939598" stroke-width="0.3302"/></g><g><line fill="none" x1="1274.553" x2="1271.201" y1="323.609" y2="324.041" stroke="#939598" stroke-width="0.3302"/></g><g><line fill="none" x1="1274.398" x2="1271.109" y1="322.725" y2="322.861" stroke="#939598" stroke-width="0.3302"/></g><g><line fill="none" x1="1274.479" x2="1271.109" y1="321.826" y2="321.68" stroke="#939598" stroke-width="0.3302"/></g><g><line fill="none" x1="1274.496" x2="1271.205" y1="320.928" y2="320.498" stroke="#939598" stroke-width="0.3302"/></g><g><line fill="none" x1="1274.684" x2="1271.393" y1="320.053" y2="319.332" stroke="#939598" stroke-width="0.3302"/></g><g><line fill="none" x1="1274.777" x2="1271.674" y1="319.148" y2="318.186" stroke="#939598" stroke-width="0.3302"/></g><g><line fill="none" x1="1275.557" x2="1272.641" y1="317.26" y2="315.693" stroke="#939598" stroke-width="0.3302"/></g><g><line fill="none" x1="1275.971" x2="1273.201" y1="316.479" y2="314.676" stroke="#939598" stroke-width="0.3302"/></g><g><line fill="none" x1="1276.391" x2="1273.84" y1="315.684" y2="313.707" stroke="#939598" stroke-width="0.3302"/></g><path fill="none" d="M1274.082,313.086c-0.676,0.92-1.246,1.932-1.707,3.006l-0.66,1.854   c-0.449,1.576-0.664,3.256-0.588,4.996c0.051,1.186,0.244,2.32,0.541,3.414c0.633,2.527,2.029,4.363,2.758,5.24l0.414,0.494   l2.285-2.49c-0.465-0.561-1.098-1.555-1.457-2.207c0.41-0.48,0.396-1.213-0.051-1.666c-0.225-0.227-0.516-0.338-0.805-0.34   l0.041-0.012c-0.223-0.828-0.369-1.693-0.408-2.594c-0.055-1.223,0.086-2.404,0.375-3.521c0.291-0.02,0.574-0.148,0.785-0.389   c0.424-0.48,0.395-1.209-0.041-1.668c0.318-0.67,0.895-1.701,1.328-2.291l-2.426-2.346L1274.082,313.086z" stroke-width="0.3302" stroke="#939598"/><line fill="none" x1="1275.658" x2="1272.838" y1="327.336" y2="329.078" stroke="#939598" stroke-width="0.3302"/><line fill="none" x1="1276.119" x2="1273.455" y1="328.092" y2="330.062" stroke="#939598" stroke-width="0.3302"/><line fill="none" x1="1276.578" x2="1274.148" y1="328.857" y2="330.988" stroke="#939598" stroke-width="0.3302"/><g><line fill="none" x1="1284.504" x2="1287.648" y1="325.387" y2="326.355" stroke="#939598" stroke-width="0.3302"/></g><g><line fill="none" x1="1284.658" x2="1287.928" y1="324.502" y2="325.207" stroke="#939598" stroke-width="0.3302"/></g><g><line fill="none" x1="1284.76" x2="1288.113" y1="323.609" y2="324.041" stroke="#939598" stroke-width="0.3302"/></g><g><line fill="none" x1="1284.918" x2="1288.207" y1="322.725" y2="322.861" stroke="#939598" stroke-width="0.3302"/></g><g><line fill="none" x1="1284.838" x2="1288.205" y1="321.826" y2="321.68" stroke="#939598" stroke-width="0.3302"/></g><g><line fill="none" x1="1284.816" x2="1288.109" y1="320.928" y2="320.498" stroke="#939598" stroke-width="0.3302"/></g><g><line fill="none" x1="1284.633" x2="1287.922" y1="320.053" y2="319.332" stroke="#939598" stroke-width="0.3302"/></g><g><line fill="none" x1="1284.539" x2="1287.641" y1="319.148" y2="318.186" stroke="#939598" stroke-width="0.3302"/></g><g><line fill="none" x1="1283.758" x2="1286.672" y1="317.26" y2="315.693" stroke="#939598" stroke-width="0.3302"/></g><g><line fill="none" x1="1283.342" x2="1286.113" y1="316.479" y2="314.676" stroke="#939598" stroke-width="0.3302"/></g><g><line fill="none" x1="1282.926" x2="1285.477" y1="315.684" y2="313.707" stroke="#939598" stroke-width="0.3302"/></g><path fill="none" d="M1285.232,313.086c0.676,0.92,1.246,1.932,1.709,3.006l0.658,1.854   c0.447,1.576,0.666,3.256,0.588,4.996c-0.053,1.186-0.244,2.32-0.539,3.414c-0.633,2.527-2.031,4.363-2.76,5.24l-0.412,0.494   l-2.287-2.49c0.467-0.561,1.1-1.555,1.457-2.207c-0.41-0.48-0.398-1.213,0.051-1.666c0.227-0.227,0.514-0.338,0.807-0.34   l-0.045-0.012c0.223-0.828,0.371-1.693,0.412-2.594c0.055-1.223-0.088-2.404-0.377-3.521c-0.289-0.02-0.574-0.148-0.785-0.389   c-0.42-0.48-0.395-1.209,0.041-1.668c-0.316-0.67-0.895-1.701-1.326-2.291l2.424-2.346L1285.232,313.086z" stroke-width="0.3302" stroke="#939598"/><line fill="none" x1="1283.656" x2="1286.477" y1="327.336" y2="329.078" stroke="#939598" stroke-width="0.3302"/><line fill="none" x1="1283.199" x2="1285.859" y1="328.092" y2="330.062" stroke="#939598" stroke-width="0.3302"/><line fill="none" x1="1282.736" x2="1285.168" y1="328.857" y2="330.988" stroke="#939598" stroke-width="0.3302"/><rect x="1259.357" y="138.96" fill="#FFFFFF" width="4.777" height="14.425" stroke="#939598" stroke-width="0.3302"/><rect x="1295.287" y="138.96" fill="#FFFFFF" width="4.779" height="14.425" stroke="#939598" stroke-width="0.3302"/><path fill="#FFFFFF" d="M1289.08,153.19v-16.048h-3.951   c-0.959,2.274-2.863,2.719-5.441,2.719c-2.58,0-4.482-0.445-5.443-2.719h-3.926v16.046c2.373,1.122,5.699,2.633,9.383,2.633   S1286.707,154.311,1289.08,153.19z" stroke-width="0.6603" stroke="#939598"/><polyline fill="none" stroke-width="0.3302" points="1269.902,365.605 1271.096,365.629 1272.592,371.43    1272.945,374.109 1274.91,376.527 1274.033,386.686 1275.627,387.129 1272.633,401.232 1261.725,401.232 1261.725,402.49    1259.49,402.49 1259.49,395.617 1258.281,395.617 1258.281,392.418 1259.508,392.418 1259.508,388.66 1250.627,388.66  " stroke="#939598"/><path fill="#FFFFFF" d="M1273.117,462.668   c0.479,3.299,3.213,5.828,6.518,5.828c3.307,0,6.035-2.525,6.52-5.818v-2.781c0.34,0.066,0.685,0.107,1.043,0.107   c2.971,0,5.383-2.504,5.383-5.588c0-2.125-1.15-3.959-2.832-4.904c-0.613-0.197-1.193-0.529-1.676-1.033   c-0.801-0.83-1.201-1.92-1.201-3.012c0-1.088,0.398-2.176,1.201-3.008c0.793-0.822,1.832-1.236,2.869-1.242   c2.258-2.387,3.834-5.471,4.354-8.93c-0.658-0.639-1.078-1.541-1.078-2.551c0-1.016,0.424-1.922,1.09-2.56   c-0.494-3.272-1.92-6.219-3.99-8.543c-0.227,0.039-0.459,0.068-0.689,0.068c-1.051,0-2.098-0.416-2.898-1.246   c-0.799-0.832-1.199-1.922-1.199-3.01c0-1.088,0.4-2.18,1.199-3.012c0.145-0.148,0.303-0.268,0.461-0.389l-0.129-0.109   c-2.422-1.039-5.275-1.65-8.344-1.65c-3.072,0-5.93,0.613-8.355,1.654l-0.131,0.109c0.146,0.115,0.297,0.225,0.432,0.361   c0.799,0.834,1.199,1.922,1.199,3.012c0,0.006-0.002,0.014-0.002,0.02l0.002,0.004l-0.002,0.002   c-0.006,1.08-0.404,2.16-1.197,2.982c-0.803,0.832-1.852,1.248-2.896,1.248c-0.215,0-0.43-0.029-0.641-0.064   c-2.115,2.371-3.559,5.395-4.029,8.746c0.561,0.623,0.91,1.457,0.91,2.377c0,0.914-0.344,1.736-0.898,2.359   c0.494,3.547,2.094,6.711,4.406,9.145c0.961,0.062,1.904,0.457,2.639,1.219c0.801,0.832,1.201,1.92,1.201,3.008   c0,1.092-0.4,2.182-1.201,3.012c-0.484,0.504-1.064,0.836-1.676,1.033c-1.682,0.945-2.832,2.779-2.832,4.904   c0,3.084,2.41,5.588,5.381,5.588c0.373,0,0.738-0.041,1.092-0.117V462.668z" stroke-width="0.6603" stroke="#939598" stroke-linejoin="round"/><line fill="none" x1="1274.039" x2="1274.039" y1="462.539" y2="462.539" stroke="#000000" stroke-width="0.3302"/><g><path fill="#FFFFFF" d="M1276.004,453.182    c0.166,0.229,0.305,0.48,0.42,0.738c0.119,0.254,0.211,0.523,0.271,0.805c0.062,0.277,0.094,0.566,0.094,0.863    s-0.031,0.586-0.094,0.865c-0.061,0.275-0.152,0.547-0.271,0.803c-0.115,0.256-0.258,0.5-0.424,0.727    c-0.166,0.23-0.355,0.441-0.562,0.637c-0.209,0.193-0.439,0.369-0.686,0.521c-0.244,0.154-0.506,0.287-0.783,0.395    c-0.277,0.109-0.567,0.197-0.867,0.252c-0.299,0.059-0.611,0.088-0.93,0.088c-0.32,0-0.631-0.029-0.932-0.088    c-0.301-0.055-0.59-0.143-0.865-0.252c-0.275-0.108-0.539-0.24-0.785-0.395l-1.361,2.787c0.281,0.15,0.57,0.287,0.873,0.406    c0.473,0.182,0.969,0.328,1.48,0.424c0.514,0.1,1.045,0.152,1.59,0.152c0.543,0,1.074-0.053,1.588-0.152    c0.514-0.096,1.01-0.242,1.48-0.424c0.474-0.186,0.922-0.412,1.338-0.676c0.422-0.262,0.812-0.562,1.168-0.893    c0.053-0.051,0.102-0.105,0.152-0.156c0.523-0.352,1.146-0.562,1.818-0.562c0.637,0,1.227,0.197,1.736,0.518    c0.068,0.066,0.127,0.135,0.195,0.201c0.355,0.33,0.746,0.631,1.168,0.893c0.418,0.264,0.865,0.49,1.338,0.676    c0.475,0.182,0.967,0.328,1.482,0.424c0.512,0.1,1.043,0.152,1.588,0.152s1.076-0.053,1.588-0.152    c0.516-0.096,1.01-0.242,1.482-0.424c0.301-0.119,0.594-0.256,0.873-0.406l-1.361-2.787c-0.248,0.154-0.508,0.287-0.787,0.395    c-0.275,0.109-0.564,0.197-0.863,0.252c-0.301,0.059-0.611,0.088-0.932,0.088c-0.318,0-0.631-0.029-0.932-0.088    c-0.299-0.055-0.592-0.143-0.867-0.252c-0.274-0.108-0.537-0.24-0.781-0.395c-0.246-0.152-0.477-0.328-0.684-0.521    c-0.211-0.195-0.398-0.406-0.566-0.637c-0.166-0.227-0.307-0.471-0.424-0.727c-0.117-0.256-0.209-0.527-0.27-0.803    c-0.061-0.279-0.094-0.568-0.094-0.865s0.033-0.586,0.094-0.863c0.061-0.281,0.152-0.551,0.27-0.805    c0.117-0.258,0.254-0.51,0.42-0.738c-1.029-0.801-2.307-1.291-3.691-1.291C1278.312,451.891,1277.031,452.381,1276.004,453.182z" stroke-width="0.3302" stroke="#939598" stroke-linejoin="round"/></g><g><g><path fill="none" d="M1282.863,454.105c-0.922-0.586-2.006-0.93-3.164-0.93     c-1.166,0-2.256,0.346-3.182,0.938" stroke-width="0.3302" stroke="#939598"/></g></g><g><g><path fill="none" d="M1282.652,455.264c-0.877-0.508-1.881-0.807-2.953-0.807     c-1.08,0-2.098,0.303-2.977,0.818" stroke-width="0.3302" stroke="#939598"/></g></g><g><path fill="none" d="M1282.746,456.59c-0.9-0.535-1.939-0.848-3.047-0.848    c-1.129,0-2.182,0.324-3.09,0.873" stroke-width="0.3302" stroke="#939598"/></g><g><line fill="none" x1="1283.977" x2="1281.896" y1="458.525" y2="461.082" stroke="#939598" stroke-width="0.3302"/></g><g><line fill="none" x1="1284.701" x2="1283.185" y1="459.115" y2="461.85" stroke="#939598" stroke-width="0.3302"/></g><g><line fill="none" x1="1285.502" x2="1284.535" y1="459.629" y2="462.43" stroke="#939598" stroke-width="0.3302"/></g><g><line fill="none" x1="1286.434" x2="1285.938" y1="459.762" y2="462.852" stroke="#939598" stroke-width="0.3302"/></g><g><line fill="none" x1="1287.355" x2="1287.396" y1="459.811" y2="462.908" stroke="#939598" stroke-width="0.3302"/></g><g><line fill="none" x1="1288.277" x2="1288.846" y1="459.75" y2="462.787" stroke="#939598" stroke-width="0.3302"/></g><g><line fill="none" x1="1289.152" x2="1290.252" y1="459.443" y2="462.383" stroke="#939598" stroke-width="0.3302"/></g><g><line fill="none" x1="1275.455" x2="1277.535" y1="458.525" y2="461.082" stroke="#939598" stroke-width="0.3302"/></g><g><line fill="none" x1="1274.73" x2="1276.248" y1="459.115" y2="461.85" stroke="#939598" stroke-width="0.3302"/></g><g><line fill="none" x1="1273.93" x2="1274.896" y1="459.629" y2="462.43" stroke="#939598" stroke-width="0.3302"/></g><g><line fill="none" x1="1272.996" x2="1273.496" y1="459.762" y2="462.852" stroke="#939598" stroke-width="0.3302"/></g><g><line fill="none" x1="1272.078" x2="1272.039" y1="459.811" y2="462.908" stroke="#939598" stroke-width="0.3302"/></g><g><line fill="none" x1="1271.154" x2="1270.588" y1="459.75" y2="462.787" stroke="#939598" stroke-width="0.3302"/></g><g><line fill="none" x1="1270.279" x2="1269.18" y1="459.443" y2="462.383" stroke="#939598" stroke-width="0.3302"/></g><g><path fill="#FFFFFF" d="M1275.885,462.186    c-0.207,0.129-0.623,0.24-0.877,0.33c-0.252,0.098-0.523,0.172-0.814,0.229c-0.289,0.057-0.598,0.094-0.918,0.109    c-0.32,0.018-0.654,0.109-0.998,0.08c-0.346-0.027-0.705,0.045-1.068-0.012c-0.363-0.055-0.717-0.135-1.055-0.23    c-0.34-0.094-0.756-0.207-1.062-0.336c-0.309-0.127-0.598-0.271-0.863-0.428l-1.395,2.355c0.287,0.158,0.586,0.309,0.896,0.451    c0.488,0.217,1.096,0.412,1.633,0.574c0.537,0.164,1.096,0.297,1.676,0.393c0.574,0.098,1.137,0.09,1.684,0.135    c0.547,0.047,1.078-0.045,1.586-0.072c0.51-0.029,0.996-0.092,1.457-0.189c0.463-0.096,0.895-0.131,1.295-0.293L1275.885,462.186z    " stroke-width="0.3302" stroke="#939598" stroke-linejoin="round"/></g><g><line fill="none" x1="1273.029" x2="1273.029" y1="465.641" y2="465.641" stroke="#939598" stroke-width="0.3302"/></g><g><line fill="none" x1="1275.037" x2="1275.943" y1="462.457" y2="465.512" stroke="#939598" stroke-width="0.3302"/></g><g><line fill="none" x1="1274.17" x2="1274.826" y1="462.721" y2="465.732" stroke="#939598" stroke-width="0.3302"/></g><g><line fill="none" x1="1273.225" x2="1273.365" y1="462.912" y2="465.85" stroke="#939598" stroke-width="0.3302"/></g><g><line fill="none" x1="1272.16" x2="1272.133" y1="462.891" y2="465.82" stroke="#939598" stroke-width="0.3302"/></g><g><line fill="none" x1="1271.105" x2="1270.59" y1="462.861" y2="465.67" stroke="#939598" stroke-width="0.3302"/></g><g><line fill="none" x1="1270.059" x2="1269.365" y1="462.65" y2="465.328" stroke="#939598" stroke-width="0.3302"/></g><g><line fill="none" x1="1268.99" x2="1267.809" y1="462.272" y2="464.781" stroke="#939598" stroke-width="0.3302"/></g><g><path fill="#FFFFFF" d="M1283.514,462.186    c0.205,0.129,0.623,0.24,0.873,0.33c0.254,0.098,0.525,0.172,0.814,0.229c0.291,0.057,0.6,0.094,0.918,0.109    c0.32,0.018,0.656,0.109,1,0.08c0.346-0.027,0.705,0.045,1.068-0.012c0.365-0.055,0.717-0.135,1.055-0.23    c0.338-0.094,0.756-0.207,1.062-0.336c0.307-0.127,0.594-0.271,0.863-0.428l1.395,2.355c-0.287,0.158-0.586,0.309-0.898,0.451    c-0.484,0.217-1.092,0.412-1.633,0.574c-0.535,0.164-1.096,0.297-1.674,0.393c-0.576,0.098-1.139,0.09-1.684,0.135    c-0.547,0.047-1.078-0.045-1.586-0.072c-0.51-0.029-0.998-0.092-1.459-0.189c-0.459-0.096-0.893-0.131-1.293-0.293    L1283.514,462.186z" stroke-width="0.3302" stroke="#939598" stroke-linejoin="round"/></g><g><line fill="none" x1="1286.365" x2="1286.365" y1="465.641" y2="465.641" stroke="#939598" stroke-width="0.3302"/></g><g><line fill="none" x1="1284.357" x2="1283.453" y1="462.457" y2="465.512" stroke="#939598" stroke-width="0.3302"/></g><g><line fill="none" x1="1285.225" x2="1284.57" y1="462.721" y2="465.732" stroke="#939598" stroke-width="0.3302"/></g><g><line fill="none" x1="1286.174" x2="1286.033" y1="462.912" y2="465.85" stroke="#939598" stroke-width="0.3302"/></g><g><line fill="none" x1="1287.236" x2="1287.262" y1="462.891" y2="465.82" stroke="#939598" stroke-width="0.3302"/></g><g><line fill="none" x1="1288.291" x2="1288.809" y1="462.861" y2="465.67" stroke="#939598" stroke-width="0.3302"/></g><g><line fill="none" x1="1289.336" x2="1290.029" y1="462.65" y2="465.328" stroke="#939598" stroke-width="0.3302"/></g><g><line fill="none" x1="1290.406" x2="1291.586" y1="462.272" y2="464.781" stroke="#939598" stroke-width="0.3302"/></g><polygon fill="none" stroke-width="0.3302" points="1256.938,375.07 1256.938,368.152 1251.562,368.152    1251.562,382.568 1258.104,382.568  " stroke="#939598"/><polyline fill="none" stroke-width="0.3302" points="1289.412,365.605 1288.221,365.629 1286.725,371.43    1286.367,374.109 1284.406,376.527 1285.281,386.686 1283.688,387.129 1286.682,401.232 1297.588,401.232 1297.588,402.49    1299.824,402.49 1299.824,395.617 1301.035,395.617 1301.035,392.418 1299.809,392.418 1299.809,387.42 1308.688,387.42  " stroke="#939598"/><polygon fill="none" stroke-width="0.3302" points="1302.205,375.129 1302.205,368.213 1308.803,368.213    1308.803,387.42 1300.158,387.42  " stroke="#939598"/><path fill="none" d="M1308.803,308.941h-2.453l-3.291,3.404h-8.158l-4.008-4.156v-6.852   h-1.721v-2.465h-4.436v-1.066h0.002v-11.43c0,0,2.922-0.365,4.439-1.822c1.17,2.549,3.797,7.826,11.742,7.826h2.393v-6.795h5.49" stroke-width="0.3302" stroke="#939598"/><path fill="none" d="M1293.15,339.762c0.758,0.789,2.57,0.605,3.27-1.092   c0.701-1.699,5.482-2.73,5.482,0.119v10.438l1.586,2.365v5.965l5.314-0.012" stroke-width="0.3302" stroke="#939598"/><path fill="none" d="M1265.699,339.762c-0.762,0.789-2.572,0.605-3.271-1.092   c-0.703-1.699-4.439-3.4-6.658,0.848c0,0,1.518,0.486,1.518,1.957c0,1.199-1.168,2.289-1.168,4.717s1.053,2.428,1.053,5.096   c0,2.67-1.402,1.822-1.402,3.641c0,1.82,0,2.67,0,2.67h-5.377" stroke-width="0.3302" stroke="#939598"/><path fill="none" d="M1250.393,267.75h5.668c0,5.098,0.486,6.131,2.277,10.98l-0.525,0.607   c1.621,2.225,8.893,7.402,11.74,7.402v-0.85h4.791v11.91l0,0v1.072h-4.027v2.486h-0.705l-0.584,1.461h-9.053l-0.41-0.586   l-2.768-1.08l0,0c-0.02-1.164-0.953-2.064-2.076-2.064c-1.135,0-2.057,0.955-2.057,2.133c0,1.182,0.922,2.135,2.057,2.135   c0.236,0,0.414,0.016,0.623-0.059l0,0c1.828,0.426,1.791,2.123,1.791,2.123c-0.641-0.24-0.666-0.545-1.658-0.545   s-1.928-0.303-2.512,0c-0.316,0.166-0.818,0.67-1.344,0.67h-1.229" stroke-width="0.3302" stroke="#939598"/><path fill="none" d="M1263.246,320.484c0-1.85-1.447-3.352-3.227-3.352l0,0   c-1.783,0-3.227,1.502-3.227,3.352v3.664c0,1.85,1.443,3.35,3.227,3.35l0,0c1.779,0,3.227-1.5,3.227-3.35V320.484z" stroke-width="0.3302" stroke="#939598"/><path fill="none" d="M1262.5,320.908c0-1.424-1.111-2.578-2.48-2.578l0,0   c-1.373,0-2.482,1.154-2.482,2.578v2.816c0,1.424,1.109,2.578,2.482,2.578l0,0c1.369,0,2.48-1.154,2.48-2.578V320.908z" stroke-width="0.3302" stroke="#939598"/><path fill="none" d="M1308.803,227.081h-5.605c0-3.482-2.504-4.817-3.385-4.817v-3.961   h-11.354v-9.155l0.02-1.116v-18.885l2.959-4.933h17.412" stroke-width="0.3302" stroke="#939598"/><polyline fill="none" stroke-width="0.3302" points="1308.842,209.044 1299.828,209.044 1299.828,222.263  " stroke="#939598"/><rect x="1250.414" y="209.108" fill="none" width="8.158" height="9.239" stroke="#939598" stroke-width="0.3302"/><path fill="none" d="M1279.699,314.586   c-0.799,0-1.537-0.228-2.195-0.592l-0.611,0.918c-0.434,0.59-1.01,1.621-1.328,2.291c0.436,0.459,0.465,1.188,0.041,1.668   c-0.211,0.24-0.494,0.369-0.785,0.389c-0.289,1.117-0.43,2.299-0.375,3.521c0.039,0.9,0.186,1.766,0.408,2.594l-0.041,0.012   c0.289,0.002,0.58,0.113,0.805,0.34c0.447,0.453,0.461,1.186,0.051,1.666c0.359,0.652,0.992,1.646,1.457,2.207l0.645,0.9   c0.588-0.281,1.236-0.445,1.93-0.445c0.68,0,1.322,0.158,1.906,0.432l0.584-0.887c0.467-0.561,1.1-1.555,1.457-2.207   c-0.41-0.48-0.398-1.213,0.051-1.666c0.227-0.227,0.514-0.338,0.807-0.34l-0.045-0.012c0.223-0.828,0.371-1.693,0.412-2.594   c0.055-1.223-0.088-2.404-0.377-3.521c-0.289-0.02-0.574-0.148-0.785-0.389c-0.42-0.48-0.395-1.209,0.041-1.668   c-0.316-0.67-0.895-1.701-1.326-2.291l-0.658-0.85C1281.143,314.387,1280.445,314.586,1279.699,314.586z" stroke-width="0.6603" stroke="#939598" stroke-linejoin="round"/><path fill="none" d="M1295.254,151.939l-0.447,0.23c-0.726,0.746-1.178,1.78-1.178,2.924   c0,2.273,1.777,4.118,3.965,4.118c2.191,0,3.965-1.845,3.965-4.118c0-0.781-0.219-1.501-0.582-2.123v-3.52h7.836" stroke-width="0.3302" stroke="#939598"/><polygon fill="none" stroke-width="0.3302" points="1300.801,136.528 1300.801,142.898 1308.803,142.898    1308.803,137.621 1302.963,137.621 1302.963,136.528  " stroke="#939598"/><polygon fill="none" stroke-width="0.3302" points="1256.158,137.621 1250.414,137.621 1250.414,142.797    1258.494,142.797 1258.494,136.407 1256.158,136.407  " stroke="#939598"/><rect x="1274.732" y="119.149" fill="none" width="9.93" height="8.765" stroke="#939598" stroke-width="0.6603"/><path fill="none" d="M1284.098,118.871v-0.907c0,0,4.408-0.263,6.133-3.397" stroke-width="0.3302" stroke="#939598"/><path fill="none" d="M1278.086,146.814   c-0.225,1.672-0.242,5.764-0.883,6.58c-0.467,0.668-1.895-1.93-1.895-3.437l-0.002-0.002v-2.165   c-0.561-0.581-1.32-0.718-2.094-0.718c-0.891,0-1.484,0.209-2.025,0.772v2.126c0,1.436,0.318,2.79,0.871,4.004   c1.016,0.442,2.141,0.866,3.352,1.204c-1.314-1.308-2.137-3.157-2.137-5.212" stroke-width="0.3302" stroke="#939598" stroke-linejoin="round"/><path fill="none" d="M1286.041,149.967   c0,2.055-0.822,3.904-2.137,5.212c1.211-0.337,2.334-0.761,3.352-1.204c0.553-1.214,0.871-2.568,0.871-4.004v-2.126   c-0.57-0.594-1.213-0.835-2.104-0.835c-0.775,0-1.363,0.175-1.947,0.781v2.162l-0.002,0.002c0,1.511-0.971,3.5-1.92,3.401   c-0.518-0.746-0.617-3.679-0.758-5.595c0.023-0.007,0.051-0.015,0.072-0.021h-0.074c-0.025-0.364-0.055-0.69-0.088-0.957   c0.014-0.004,0.031-0.007,0.047-0.011h-0.049c-0.002-0.017-0.004-0.037-0.006-0.054" stroke-width="0.3302" stroke="#939598" stroke-linejoin="round"/><rect x="1275.885" fill="#FFFFFF" width="7.557" y="154.702" height="2.238"/><path fill="none" d="M1277.537,152.786   c0.555,0.212,1.318,0.424,2.162,0.424c0.842,0,1.607-0.212,2.158-0.423" stroke-width="0.3302" stroke="#939598" stroke-linejoin="round"/><g><path fill="none" d="M1277.627,151.782    c0.541,0.2,1.27,0.394,2.072,0.394s1.535-0.195,2.074-0.396" stroke-width="0.3302" stroke="#939598" stroke-linejoin="round"/></g><g><path fill="none" d="M1277.715,150.779    c0.526,0.188,1.221,0.365,1.984,0.365c0.766,0,1.465-0.179,1.992-0.368" stroke-width="0.3302" stroke="#939598" stroke-linejoin="round"/></g><g><path fill="none" d="M1277.803,149.776    c0.516,0.174,1.174,0.334,1.896,0.334c0.727,0,1.395-0.163,1.91-0.339" stroke-width="0.3302" stroke="#939598" stroke-linejoin="round"/></g><g><path fill="none" d="M1277.893,148.772    c0.5,0.164,1.125,0.305,1.807,0.305c0.689,0,1.322-0.145,1.828-0.311" stroke-width="0.3302" stroke="#939598" stroke-linejoin="round"/></g><g><path fill="none" d="M1277.98,147.769    c0.486,0.15,1.078,0.275,1.719,0.275c0.65,0,1.254-0.129,1.746-0.283" stroke-width="0.3302" stroke="#939598" stroke-linejoin="round"/></g><path fill="none" d="M1278.068,146.765   c0.473,0.139,1.029,0.245,1.631,0.245c0.611,0,1.184-0.112,1.662-0.254" stroke-width="0.3302" stroke="#939598" stroke-linejoin="round"/><line fill="#FFFFFF" x1="1275.309" x2="1271.188" y1="149.957" y2="149.971" stroke-linejoin="round" stroke="#939598" stroke-width="0.3302"/><line fill="#FFFFFF" x1="1275.34" x2="1271.273" y1="150.605" y2="151.223" stroke-linejoin="round" stroke="#939598" stroke-width="0.3302"/><line fill="#FFFFFF" x1="1275.471" x2="1271.529" y1="151.239" y2="152.449" stroke-linejoin="round" stroke="#939598" stroke-width="0.3302"/><line fill="#FFFFFF" x1="1275.699" x2="1271.949" y1="151.843" y2="153.625" stroke-linejoin="round" stroke="#939598" stroke-width="0.3302"/><line fill="#FFFFFF" x1="1275.943" x2="1273.02" y1="152.447" y2="154.399" stroke-linejoin="round" stroke="#939598" stroke-width="0.3302"/><line fill="#FFFFFF" x1="1276.309" x2="1274.229" y1="152.985" y2="154.854" stroke-linejoin="round" stroke="#939598" stroke-width="0.3302"/><line fill="#FFFFFF" x1="1284.004" x2="1288.127" y1="149.957" y2="149.971" stroke-linejoin="round" stroke="#939598" stroke-width="0.3302"/><line fill="#FFFFFF" x1="1283.977" x2="1288.041" y1="150.605" y2="151.223" stroke-linejoin="round" stroke="#939598" stroke-width="0.3302"/><line fill="#FFFFFF" x1="1283.842" x2="1287.787" y1="151.239" y2="152.449" stroke-linejoin="round" stroke="#939598" stroke-width="0.3302"/><line fill="#FFFFFF" x1="1283.617" x2="1287.367" y1="151.843" y2="153.625" stroke-linejoin="round" stroke="#939598" stroke-width="0.3302"/><line fill="#FFFFFF" x1="1283.371" x2="1286.295" y1="152.447" y2="154.399" stroke-linejoin="round" stroke="#939598" stroke-width="0.3302"/><line fill="#FFFFFF" x1="1283.008" x2="1285.086" y1="152.985" y2="154.854" stroke-linejoin="round" stroke="#939598" stroke-width="0.3302"/><line fill="#FFFFFF" x1="1276.727" x2="1275.41" y1="153.485" y2="155.179" stroke-linejoin="round" stroke="#939598" stroke-width="0.3302"/><line fill="#FFFFFF" x1="1282.588" x2="1283.904" y1="153.485" y2="155.179" stroke-linejoin="round" stroke="#939598" stroke-width="0.3302"/><g><path fill="none" d="M1284.848,234.327    c3.67,3.811,3.275,9.978,0.072,13.305c-1.256,1.304-1.881,2.884-2.328,4.082l-2.615-1.051c0.426-1.148,1.227-3.288,2.961-5.09    c1.078-1.12,1.721-2.833,1.721-4.582c0-1.77-0.635-3.405-1.795-4.604L1284.848,234.327z" stroke-width="0.3302" stroke="#939598" stroke-linejoin="round"/></g><g><line fill="none" x1="1282.863" x2="1284.848" y1="236.386" y2="234.327" stroke-linejoin="round" stroke="#939598" stroke-width="0.3302"/></g><g><line fill="none" x1="1283.51" x2="1285.781" y1="237.256" y2="235.549" stroke-linejoin="round" stroke="#939598" stroke-width="0.3302"/></g><g><line fill="none" x1="1284.012" x2="1286.516" y1="238.222" y2="236.914" stroke-linejoin="round" stroke="#939598" stroke-width="0.3302"/></g><g><line fill="none" x1="1284.357" x2="1287.031" y1="239.258" y2="238.378" stroke-linejoin="round" stroke="#939598" stroke-width="0.3302"/></g><g><line fill="none" x1="1284.545" x2="1287.318" y1="240.337" y2="239.913" stroke-linejoin="round" stroke="#939598" stroke-width="0.3302"/></g><g><line fill="none" x1="1284.56" x2="1287.363" y1="241.434" y2="241.473" stroke-linejoin="round" stroke="#939598" stroke-width="0.3302"/></g><g><line fill="none" x1="1284.41" x2="1287.172" y1="242.521" y2="243.02" stroke-linejoin="round" stroke="#939598" stroke-width="0.3302"/></g><g><line fill="none" x1="1284.094" x2="1286.742" y1="243.567" y2="244.519" stroke-linejoin="round" stroke="#939598" stroke-width="0.3302"/></g><g><line fill="none" x1="1283.621" x2="1286.094" y1="244.549" y2="245.926" stroke-linejoin="round" stroke="#939598" stroke-width="0.3302"/></g><g><line fill="none" x1="1281.789" x2="1284.084" y1="247.177" y2="248.762" stroke="#939598" stroke-width="0.3302"/></g><g><g><line fill="none" x1="1283.588" x2="1281.185" y1="249.747" y2="248.339" stroke="#939598" stroke-width="0.3302"/></g></g><g><g><line fill="none" x1="1283.088" x2="1280.582" y1="250.731" y2="249.502" stroke="#939598" stroke-width="0.3302"/></g></g><path fill="none" d="M1280.939,241.874c1.404-4.108,0.969-7.989-0.969-8.669   c-1.941-0.679-4.65,2.105-6.055,6.214c-1.402,4.108-0.967,7.989,0.973,8.666C1276.828,248.763,1279.537,245.981,1280.939,241.874z" stroke-width="0.3302" stroke="#939598"/><path fill="none" d="M1243.736,463.74c6.98,9.645,19.285,15.629,36.42,15.629   c16.197,0,28.367-5.824,35.344-15.629" stroke-width="0.3302" stroke="#939598"/><polyline fill="none" stroke-width="0.3302" points="1278,172.335 1278,199.601 1280.375,199.601    1280.375,209.125 1270.875,209.125 1270.875,199.21 1257.125,199.21 1257.125,208.995 1250.5,208.995 1250.5,152.375    1258.185,152.375  " stroke="#939598"/><polyline fill="none" stroke-width="0.3302" points="1258.185,152.19 1258.5,155.245 1264.625,165.551    1269.625,165.551 1272.625,168.75  " stroke="#939598"/></g><g id="SYMBOLS_AND_VENUES"><path d="M1254.92,373.211h-0.287c0.275-0.121,0.469-0.402,0.469-0.73c0-0.434-0.342-0.787-0.76-0.787   c-0.422,0-0.758,0.353-0.758,0.787c0,0.328,0.191,0.609,0.467,0.73h-0.299c-0.387,0-0.701,0.326-0.701,0.727v1.82   c0,0.51,0.275,0.719,0.678,0.803v2.533h1.229v-2.537c0.395-0.084,0.666-0.295,0.666-0.799v-1.82   C1255.623,373.537,1255.307,373.211,1254.92,373.211z"/><path d="M1306.305,377.627h0.469l-0.469-1.457h-0.527c0.276-0.117,0.471-0.397,0.471-0.73c0-0.432-0.342-0.787-0.76-0.787   c-0.422,0-0.76,0.355-0.76,0.787c0,0.334,0.191,0.613,0.467,0.73h-0.527l-0.467,1.457h0.467l-0.467,1.939h0.654l0.252,2.486h0.76   l0.25-2.486h0.656L1306.305,377.627z"/><g><g><g><path d="M1260.405,343.459h0.556v0.523h-0.556V343.459z"/></g></g></g><g><g><g><path d="M1257.92,346.613v-0.686l2.211-0.488v-0.009l-2.211-0.55v-0.65l3.041,0.833v0.772L1257.92,346.613z"/></g></g></g><g><g><g><path d="M1260.961,348.543h-3.041v-1.719h0.468v1.061h0.75v-0.978h0.467v0.978h0.889v-1.096h0.468V348.543z"/></g></g></g><g><g><g><path d="M1260.961,350.479h-3.041v-0.659h2.535v-0.986h0.506V350.479z"/></g></g></g><g><g><g><path d="M1260.961,352.665h-3.041v-1.719h0.468v1.061h0.75v-0.978h0.467v0.978h0.889v-1.096h0.468V352.665z"/></g></g></g><g><g><g><path d="M1254.014,253.553c0-0.834,0-1.628,1.049-1.628c0.648,0,0.91,0.371,0.885,1.047h-0.623c0-0.419-0.072-0.575-0.262-0.575      c-0.357,0-0.404,0.349-0.404,1.156c0,0.807,0.047,1.156,0.404,1.156c0.295,0,0.282-0.393,0.291-0.642h0.627      c0,0.843-0.324,1.113-0.918,1.113C1254.014,255.181,1254.014,254.377,1254.014,253.553z"/></g></g></g><g><g><g><path d="M1256.15,255.128l0.842-3.15h0.838l0.825,3.15h-0.669l-0.169-0.698h-0.867l-0.173,0.698H1256.15z M1257.375,252.584      h-0.008l-0.291,1.361h0.606L1257.375,252.584z"/></g></g></g><g><g><g><path d="M1259.776,255.181c-0.788,0-0.935-0.48-0.901-1.026h0.636c0,0.302,0.013,0.555,0.362,0.555      c0.215,0,0.32-0.144,0.32-0.357c0-0.567-1.28-0.603-1.28-1.541c0-0.493,0.228-0.886,1.002-0.886      c0.619,0,0.927,0.288,0.885,0.947h-0.619c0-0.236-0.038-0.476-0.295-0.476c-0.206,0-0.328,0.117-0.328,0.336      c0,0.598,1.28,0.545,1.28,1.536C1260.838,255.084,1260.261,255.181,1259.776,255.181z"/></g></g></g><g><g><g><path d="M1261.289,255.128v-3.15h0.636v3.15H1261.289z"/></g></g></g><g><g><g><path d="M1262.462,255.128v-3.15h0.859l0.809,2.182h0.008v-2.182h0.594v3.15h-0.838l-0.829-2.304h-0.009v2.304H1262.462z"/></g></g></g><g><g><g><path d="M1265.232,253.553c0-0.834,0-1.628,1.049-1.628s1.049,0.794,1.049,1.628c0,0.824,0,1.628-1.049,1.628      S1265.232,254.377,1265.232,253.553z M1266.686,253.553c0-0.808-0.046-1.156-0.404-1.156c-0.357,0-0.404,0.349-0.404,1.156      c0,0.807,0.047,1.156,0.404,1.156C1266.64,254.709,1266.686,254.359,1266.686,253.553z"/></g></g></g><g><g><g><path d="M1254.671,259.496h-0.636v-3.15h1.175c0.434,0,0.712,0.287,0.712,0.824c0,0.401-0.152,0.703-0.564,0.772v0.009      c0.139,0.018,0.552,0.053,0.552,0.62c0,0.2,0.013,0.794,0.071,0.925h-0.623c-0.084-0.192-0.067-0.406-0.067-0.611      c0-0.375,0.033-0.693-0.455-0.693h-0.164V259.496z M1254.671,257.707h0.282c0.253,0,0.324-0.262,0.324-0.463      c0-0.301-0.122-0.414-0.324-0.414h-0.282V257.707z"/></g></g></g><g><g><g><path d="M1256.355,257.921c0-0.834,0-1.628,1.049-1.628s1.049,0.794,1.049,1.628c0,0.824,0,1.628-1.049,1.628      S1256.355,258.745,1256.355,257.921z M1257.809,257.921c0-0.808-0.046-1.156-0.404-1.156c-0.357,0-0.404,0.349-0.404,1.156      s0.047,1.156,0.404,1.156C1257.763,259.077,1257.809,258.729,1257.809,257.921z"/></g></g></g><g><g><g><path d="M1259.515,258.405l-0.796-2.06h0.695l0.455,1.331l0.483-1.331h0.649l-0.852,2.06v1.091h-0.636V258.405z"/></g></g></g><g><g><g><path d="M1260.83,259.496l0.842-3.15h0.838l0.825,3.15h-0.669l-0.169-0.698h-0.867l-0.173,0.698H1260.83z M1262.055,256.952      h-0.008l-0.291,1.361h0.606L1262.055,256.952z"/></g></g></g><g><g><g><path d="M1263.635,259.496v-3.15h0.636v2.627h0.952v0.523H1263.635z"/></g></g></g><g><g><g><path d="M1265.498,259.496v-3.15h1.659v0.484h-1.023v0.776h0.943v0.484h-0.943v0.921h1.057v0.484H1265.498z"/></g></g></g><g><g><path d="M1273.59,242.088v-3.15h1.129c0.484,0,0.885,0.144,0.885,0.815c0,0.362-0.173,0.624-0.519,0.694v0.009     c0.451,0.065,0.568,0.366,0.568,0.798c0,0.799-0.669,0.834-0.938,0.834H1273.59z M1274.227,240.225h0.425     c0.139,0,0.333-0.096,0.333-0.401c0-0.231-0.152-0.401-0.366-0.401h-0.392V240.225z M1274.227,241.604h0.354     c0.135,0,0.438-0.004,0.438-0.445c0-0.279-0.101-0.449-0.421-0.449h-0.37V241.604z"/></g></g><g><g><path d="M1275.92,242.088l0.842-3.15h0.838l0.825,3.15h-0.669l-0.169-0.698h-0.867l-0.173,0.698H1275.92z M1277.145,239.544     h-0.008l-0.291,1.361h0.606L1277.145,239.544z"/></g></g><g><g><path d="M1279.344,242.088h-0.636v-3.15h1.175c0.434,0,0.712,0.287,0.712,0.824c0,0.401-0.151,0.703-0.564,0.772v0.009     c0.139,0.018,0.552,0.053,0.552,0.62c0,0.2,0.013,0.794,0.071,0.925h-0.623c-0.084-0.192-0.067-0.406-0.067-0.611     c0-0.375,0.033-0.693-0.455-0.693h-0.164V242.088z M1279.344,240.299h0.282c0.253,0,0.324-0.262,0.324-0.463     c0-0.301-0.122-0.414-0.324-0.414h-0.282V240.299z"/></g></g><g><g><g><path d="M1288.33,170.606c-0.787,0-0.935-0.48-0.901-1.025h0.636c0,0.301,0.013,0.554,0.362,0.554      c0.215,0,0.32-0.144,0.32-0.358c0-0.567-1.28-0.602-1.28-1.541c0-0.493,0.228-0.886,1.002-0.886      c0.619,0,0.927,0.288,0.885,0.947h-0.619c0-0.235-0.038-0.476-0.295-0.476c-0.206,0-0.328,0.118-0.328,0.336      c0,0.598,1.28,0.545,1.28,1.536C1289.392,170.51,1288.814,170.606,1288.33,170.606z"/></g></g></g><g><g><g><path d="M1289.812,168.979c0-0.834,0-1.628,1.049-1.628c0.648,0,0.91,0.371,0.885,1.047h-0.623c0-0.419-0.072-0.576-0.262-0.576      c-0.357,0-0.404,0.349-0.404,1.157c0,0.807,0.047,1.156,0.404,1.156c0.295,0,0.282-0.393,0.291-0.642h0.627      c0,0.842-0.324,1.113-0.918,1.113C1289.812,170.606,1289.812,169.803,1289.812,168.979z"/></g></g></g><g><g><g><path d="M1293.566,168.664v-1.261h0.636v3.151h-0.636v-1.405h-0.729v1.405h-0.636v-3.151h0.636v1.261H1293.566z"/></g></g></g><g><g><g><path d="M1294.721,168.979c0-0.834,0-1.628,1.048-1.628c1.049,0,1.049,0.794,1.049,1.628c0,0.825,0,1.627-1.049,1.627      C1294.721,170.606,1294.721,169.803,1294.721,168.979z M1296.173,168.979c0-0.808-0.046-1.157-0.404-1.157      c-0.357,0-0.404,0.349-0.404,1.157c0,0.807,0.047,1.156,0.404,1.156C1296.127,170.135,1296.173,169.786,1296.173,168.979z"/></g></g></g><g><g><g><path d="M1297.289,168.979c0-0.834,0-1.628,1.049-1.628s1.049,0.794,1.049,1.628c0,0.825,0,1.627-1.049,1.627      S1297.289,169.803,1297.289,168.979z M1298.742,168.979c0-0.808-0.046-1.157-0.404-1.157c-0.357,0-0.404,0.349-0.404,1.157      c0,0.807,0.047,1.156,0.404,1.156C1298.696,170.135,1298.742,169.786,1298.742,168.979z"/></g></g></g><g><g><g><path d="M1299.893,170.554v-3.151h0.859l0.809,2.182h0.008v-2.182h0.594v3.151h-0.838l-0.829-2.304h-0.009v2.304H1299.893z"/></g></g></g><g><g><g><path d="M1302.693,170.554v-3.151h1.659v0.484h-1.023v0.777h0.943v0.484h-0.943v0.921h1.057v0.484H1302.693z"/></g></g></g><g><g><g><path d="M1305.419,170.554h-0.636v-3.151h1.175c0.434,0,0.712,0.288,0.712,0.825c0,0.402-0.152,0.703-0.564,0.772v0.009      c0.139,0.018,0.552,0.052,0.552,0.62c0,0.201,0.013,0.794,0.071,0.925h-0.623c-0.084-0.192-0.067-0.406-0.067-0.611      c0-0.375,0.033-0.694-0.455-0.694h-0.164V170.554z M1305.419,168.765h0.282c0.253,0,0.324-0.262,0.324-0.463      c0-0.301-0.122-0.415-0.324-0.415h-0.282V168.765z"/></g></g></g><g><g><g><path d="M1293.59,174.921v-3.151h1.129c0.484,0,0.885,0.144,0.885,0.816c0,0.362-0.173,0.624-0.519,0.694v0.008      c0.451,0.065,0.568,0.367,0.568,0.799c0,0.798-0.669,0.833-0.938,0.833H1293.59z M1294.227,173.058h0.425      c0.139,0,0.333-0.096,0.333-0.402c0-0.231-0.152-0.401-0.366-0.401h-0.392V173.058z M1294.227,174.437h0.354      c0.135,0,0.438-0.004,0.438-0.445c0-0.279-0.101-0.449-0.421-0.449h-0.37V174.437z"/></g></g></g><g><g><g><path d="M1295.92,174.921l0.842-3.151h0.838l0.825,3.151h-0.669l-0.169-0.698h-0.867l-0.173,0.698H1295.92z M1297.145,172.376      h-0.008l-0.291,1.362h0.606L1297.145,172.376z"/></g></g></g><g><g><g><path d="M1299.344,174.921h-0.636v-3.151h1.175c0.434,0,0.712,0.288,0.712,0.825c0,0.402-0.151,0.703-0.564,0.772v0.009      c0.139,0.018,0.552,0.052,0.552,0.62c0,0.201,0.013,0.794,0.071,0.925h-0.623c-0.084-0.192-0.067-0.406-0.067-0.611      c0-0.375,0.033-0.694-0.455-0.694h-0.164V174.921z M1299.344,173.132h0.282c0.253,0,0.324-0.262,0.324-0.463      c0-0.301-0.122-0.415-0.324-0.415h-0.282V173.132z"/></g></g></g><g><g><g><path d="M1300.224,343.42h0.556v0.523h-0.556V343.42z"/></g></g></g><g><g><g><path d="M1297.738,346.572v-0.686l2.211-0.488v-0.009l-2.211-0.55v-0.65l3.041,0.833v0.772L1297.738,346.572z"/></g></g></g><g><g><g><path d="M1300.779,348.502h-3.041v-1.719h0.468v1.061h0.75v-0.978h0.467v0.978h0.889v-1.096h0.468V348.502z"/></g></g></g><g><g><g><path d="M1300.779,350.436h-3.041v-0.659h2.535v-0.986h0.506V350.436z"/></g></g></g><g><g><g><path d="M1300.779,352.624h-3.041v-1.719h0.468v1.061h0.75v-0.978h0.467v0.978h0.889v-1.096h0.468V352.624z"/></g></g></g><g><g><g><path d="M1262.476,140.948h0.556v0.523h-0.556V140.948z"/></g></g></g><g><g><g><path d="M1259.99,144.102v-0.685l2.211-0.489v-0.009l-2.211-0.55v-0.65l3.041,0.834v0.772L1259.99,144.102z"/></g></g></g><g><g><g><path d="M1263.031,146.033h-3.041v-1.719h0.468v1.06h0.75v-0.978h0.467v0.978h0.889v-1.095h0.468V146.033z"/></g></g></g><g><g><g><path d="M1263.031,147.966h-3.041v-0.659h2.535v-0.986h0.506V147.966z"/></g></g></g><g><g><g><path d="M1263.031,150.155h-3.041v-1.719h0.468v1.06h0.75v-0.978h0.467v0.978h0.889v-1.095h0.468V150.155z"/></g></g></g><g><g><g><path d="M1298.403,140.948h0.556v0.523h-0.556V140.948z"/></g></g></g><g><g><g><path d="M1295.92,144.102v-0.685l2.211-0.489v-0.009l-2.211-0.55v-0.65l3.041,0.834v0.772L1295.92,144.102z"/></g></g></g><g><g><g><path d="M1298.961,146.033h-3.041v-1.719h0.468v1.06h0.75v-0.978h0.467v0.978h0.889v-1.095h0.468V146.033z"/></g></g></g><g><g><g><path d="M1298.961,147.966h-3.041v-0.659h2.535v-0.986h0.506V147.966z"/></g></g></g><g><g><g><path d="M1298.961,150.155h-3.041v-1.719h0.468v1.06h0.75v-0.978h0.467v0.978h0.889v-1.095h0.468V150.155z"/></g></g></g><path d="M1255.064,211.453h-0.289c0.275-0.119,0.471-0.401,0.471-0.727c0-0.438-0.342-0.789-0.76-0.789   c-0.42,0-0.76,0.352-0.76,0.789c0,0.325,0.193,0.607,0.469,0.727h-0.297c-0.389,0-0.701,0.326-0.701,0.728v1.818   c0,0.511,0.271,0.72,0.676,0.804v2.535h1.227V214.8c0.395-0.086,0.666-0.296,0.666-0.802v-1.818   C1255.766,211.779,1255.451,211.453,1255.064,211.453z"/><path d="M1252.678,139.787v0.242c-0.092-0.231-0.312-0.393-0.568-0.393c-0.342,0-0.615,0.286-0.615,0.639   c0,0.352,0.273,0.639,0.615,0.639c0.256,0,0.477-0.163,0.568-0.394v0.25c0,0.325,0.254,0.589,0.568,0.589h1.418   c0.395,0,0.561-0.23,0.623-0.568h1.979v-1.032h-1.979c-0.066-0.334-0.23-0.561-0.623-0.561h-1.418   C1252.932,139.197,1252.678,139.461,1252.678,139.787z"/><path d="M1305.088,216.33h0.467l-0.467-1.457h-0.525c0.273-0.12,0.467-0.4,0.467-0.729c0-0.436-0.34-0.788-0.76-0.788   c-0.418,0-0.76,0.352-0.76,0.788c0,0.328,0.193,0.608,0.469,0.729h-0.527l-0.469,1.457h0.469l-0.469,1.94h0.656l0.25,2.488h0.76   l0.254-2.488h0.652L1305.088,216.33z"/><path d="M1304.221,139.59v-0.393l-1.135,0.393v0.443c-0.094-0.232-0.311-0.394-0.566-0.394c-0.34,0-0.615,0.286-0.615,0.639   c0,0.352,0.275,0.639,0.615,0.639c0.256,0,0.473-0.163,0.566-0.394v0.443l1.135,0.392v-0.392l1.516,0.392v-0.549l1.939-0.212   v-0.639l-1.939-0.211v-0.55L1304.221,139.59z"/><g><g><g><path d="M1280.746,316.08h-3.041v-1.061l2.068-0.493v-0.009l-2.068-0.523v-1.025h3.041v0.642h-2.346v0.009l2.346,0.606v0.628      l-2.346,0.576v0.009h2.346V316.08z"/></g></g></g><g><g><g><path d="M1277.705,316.607h2.156c0.455,0,0.936,0.266,0.936,1.069c0,0.724-0.362,1.073-0.936,1.073h-2.156v-0.659h2.114      c0.375,0,0.522-0.166,0.522-0.405c0-0.288-0.186-0.42-0.522-0.42h-2.114V316.607z"/></g></g></g><g><g><g><path d="M1280.746,320.519v0.659h-3.041v-1.218c0-0.449,0.278-0.737,0.796-0.737c0.388,0,0.679,0.157,0.746,0.585h0.008      c0.018-0.145,0.051-0.572,0.599-0.572c0.193,0,0.767-0.013,0.893-0.074v0.646c-0.186,0.087-0.392,0.069-0.59,0.069      c-0.362,0-0.669-0.035-0.669,0.472v0.17H1280.746z M1279.02,320.519v-0.292c0-0.262-0.253-0.336-0.446-0.336      c-0.291,0-0.4,0.126-0.4,0.336v0.292H1279.02z"/></g></g></g><g><g><g><path d="M1277.705,321.475h0.506v0.733h2.535v0.658h-2.535v0.733h-0.506V321.475z"/></g></g></g><g><g><g><path d="M1280.746,326.26h-3.041v-0.891l2.106-0.838v-0.009h-2.106v-0.615h3.041v0.869l-2.224,0.859v0.009h2.224V326.26z"/></g></g></g><g><g><g><path d="M1280.746,328.446h-3.041v-1.719h0.468v1.061h0.75v-0.978h0.467v0.978h0.889v-1.096h0.468V328.446z"/></g></g></g><g><g><g><path d="M1279.226,330.904c-0.804,0-1.57,0-1.57-1.087c0-0.672,0.357-0.942,1.011-0.916v0.646c-0.404,0-0.557,0.074-0.557,0.271      c0,0.371,0.337,0.419,1.116,0.419s1.116-0.048,1.116-0.419c0-0.306-0.379-0.292-0.619-0.301v-0.65      c0.812,0,1.074,0.336,1.074,0.951C1280.797,330.904,1280.021,330.904,1279.226,330.904z"/></g></g></g><g><path d="M1271.205,60.057v0.517h-0.723v2.59h-0.649v-2.59h-0.724v-0.517H1271.205z"/></g><g><path d="M1272.921,61.301v-1.244h0.65v3.107h-0.65v-1.386h-0.744v1.386h-0.649v-3.107h0.649v1.244H1272.921z"/></g><g><path d="M1274.133,63.164v-3.107h1.695v0.478h-1.046v0.766h0.964v0.478h-0.964v0.908h1.08v0.478H1274.133z"/></g><g><path d="M1277.241,63.164v-3.107h0.649v2.59h0.973v0.517H1277.241z"/></g><g><path d="M1279.719,62.088l-0.813-2.031h0.71l0.465,1.312l0.494-1.312h0.663l-0.869,2.031v1.076h-0.649V62.088z"/></g><g><path d="M1282.174,63.164h-0.65v-3.107h1.201c0.443,0,0.727,0.284,0.727,0.813c0,0.396-0.154,0.693-0.576,0.762v0.008    c0.142,0.018,0.563,0.052,0.563,0.611c0,0.198,0.013,0.783,0.073,0.912h-0.637c-0.086-0.189-0.069-0.4-0.069-0.603    c0-0.37,0.035-0.684-0.464-0.684h-0.168V63.164z M1282.174,61.4h0.288c0.258,0,0.331-0.258,0.331-0.456    c0-0.297-0.125-0.409-0.331-0.409h-0.288V61.4z"/></g><g><path d="M1283.928,63.164v-3.107h0.649v3.107H1283.928z"/></g><g><path d="M1285.093,61.611c0-0.822,0-1.605,1.071-1.605c0.662,0,0.93,0.366,0.903,1.033h-0.637c0-0.413-0.073-0.568-0.267-0.568    c-0.366,0-0.413,0.344-0.413,1.141c0,0.796,0.047,1.14,0.413,1.14c0.301,0,0.288-0.387,0.297-0.632h0.641    c0,0.83-0.331,1.097-0.938,1.097C1285.093,63.216,1285.093,62.424,1285.093,61.611z"/></g><g><path d="M1272.639,64.357v0.517h-0.723v2.59h-0.649v-2.59h-0.724v-0.517H1272.639z"/></g><g><path d="M1274.354,65.601v-1.244h0.65v3.107h-0.65v-1.386h-0.744v1.386h-0.649v-3.107h0.649v1.244H1274.354z"/></g><g><path d="M1275.566,67.464v-3.107h1.695v0.478h-1.046v0.766h0.964v0.478h-0.964v0.908h1.08v0.478H1275.566z"/></g><g><path d="M1277.479,67.464l0.86-3.107h0.856l0.844,3.107h-0.685l-0.172-0.688h-0.887l-0.176,0.688H1277.479z M1278.731,64.955    h-0.008l-0.297,1.343h0.619L1278.731,64.955z"/></g><g><path d="M1282.193,64.357v0.517h-0.723v2.59h-0.649v-2.59h-0.724v-0.517H1282.193z"/></g><g><path d="M1283.131,67.464h-0.65v-3.107h1.201c0.443,0,0.727,0.284,0.727,0.813c0,0.396-0.154,0.693-0.576,0.762v0.008    c0.142,0.018,0.563,0.052,0.563,0.611c0,0.198,0.013,0.783,0.073,0.912h-0.637c-0.086-0.189-0.069-0.4-0.069-0.603    c0-0.37,0.035-0.684-0.464-0.684h-0.168V67.464z M1283.131,65.7h0.288c0.258,0,0.331-0.258,0.331-0.456    c0-0.297-0.125-0.409-0.331-0.409h-0.288V65.7z"/></g><g><path d="M1284.885,67.464v-3.107h1.695v0.478h-1.046v0.766h0.964v0.478h-0.964v0.908h1.08v0.478H1284.885z"/></g><g><path d="M1256.945,185.182c0-0.84,0-1.64,0.992-1.64c0.613,0,0.86,0.374,0.836,1.055h-0.589c0-0.422-0.068-0.58-0.247-0.58    c-0.339,0-0.383,0.352-0.383,1.165c0,0.812,0.044,1.164,0.383,1.164c0.278,0,0.267-0.396,0.274-0.646h0.594    c0,0.849-0.307,1.121-0.868,1.121C1256.945,186.82,1256.945,186.012,1256.945,185.182z"/></g><g><path d="M1260.501,184.865v-1.271h0.601v3.173h-0.601v-1.415h-0.689v1.415h-0.602v-3.173h0.602v1.271H1260.501z"/></g><g><path d="M1261.599,185.182c0-0.84,0-1.64,0.992-1.64c0.991,0,0.991,0.8,0.991,1.64c0,0.83,0,1.639-0.991,1.639    C1261.599,186.82,1261.599,186.012,1261.599,185.182z M1262.973,185.182c0-0.813-0.044-1.165-0.382-1.165    c-0.339,0-0.383,0.352-0.383,1.165c0,0.812,0.044,1.164,0.383,1.164C1262.929,186.346,1262.973,185.994,1262.973,185.182z"/></g><g><path d="M1264.067,183.595h1.083c0.55,0,0.765,0.369,0.765,0.949c0,0.36-0.096,0.932-0.8,0.932h-0.446v1.292h-0.602V183.595z     M1264.669,184.988h0.334c0.18,0,0.303-0.216,0.303-0.427c0-0.259-0.063-0.479-0.334-0.479h-0.303V184.988z"/></g><g><path d="M1267.061,186.82c-0.744,0-0.884-0.483-0.852-1.033h0.601c0,0.304,0.013,0.559,0.343,0.559    c0.203,0,0.303-0.145,0.303-0.36c0-0.571-1.211-0.606-1.211-1.552c0-0.496,0.215-0.892,0.948-0.892    c0.585,0,0.876,0.29,0.836,0.954h-0.585c0-0.238-0.036-0.479-0.279-0.479c-0.195,0-0.311,0.118-0.311,0.339    c0,0.602,1.211,0.549,1.211,1.547C1268.064,186.724,1267.519,186.82,1267.061,186.82z"/></g><g><path d="M1258.401,188.967c0.004-0.295-0.04-0.554-0.358-0.554c-0.375,0-0.375,0.558-0.375,1.173c0,0.994,0.088,1.17,0.431,1.17    c0.1,0,0.207-0.027,0.299-0.062v-0.703h-0.327v-0.487h0.928v1.608c-0.163,0.035-0.573,0.105-0.812,0.105    c-1.011,0-1.127-0.461-1.127-1.666c0-0.799,0.036-1.612,1.02-1.612c0.59,0,0.956,0.364,0.92,1.028H1258.401z"/></g><g><path d="M1260.112,191.164h-0.601v-3.173h1.11c0.411,0,0.674,0.29,0.674,0.831c0,0.404-0.144,0.707-0.534,0.777v0.009    c0.132,0.018,0.521,0.053,0.521,0.624c0,0.202,0.013,0.8,0.068,0.932h-0.59c-0.079-0.193-0.063-0.408-0.063-0.615    c0-0.378,0.032-0.699-0.43-0.699h-0.156V191.164z M1260.112,189.362h0.268c0.238,0,0.307-0.264,0.307-0.466    c0-0.303-0.116-0.418-0.307-0.418h-0.268V189.362z"/></g><g><path d="M1261.74,191.164v-3.173h0.602v3.173H1261.74z"/></g><g><path d="M1262.853,191.164v-3.173h0.602v2.646h0.899v0.527H1262.853z"/></g><g><path d="M1264.623,191.164v-3.173h0.602v2.646h0.899v0.527H1264.623z"/></g><g><path d="M1266.39,191.164v-3.173h1.569v0.487h-0.968v0.783h0.892v0.487h-0.892v0.927h0.999v0.488H1266.39z"/></g><g><path d="M1253.519,333.893v-3.173h1.067c0.458,0,0.836,0.146,0.836,0.821c0,0.365-0.163,0.629-0.489,0.699v0.009    c0.426,0.065,0.537,0.369,0.537,0.804c0,0.805-0.633,0.84-0.888,0.84H1253.519z M1254.12,332.016h0.402    c0.131,0,0.314-0.096,0.314-0.404c0-0.232-0.144-0.404-0.347-0.404h-0.37V332.016z M1254.12,333.404h0.334    c0.128,0,0.415-0.004,0.415-0.447c0-0.281-0.096-0.453-0.398-0.453h-0.351V333.404z"/></g><g><path d="M1255.919,332.307c0-0.84,0-1.64,0.992-1.64c0.991,0,0.991,0.8,0.991,1.64c0,0.83,0,1.639-0.991,1.639    C1255.919,333.945,1255.919,333.137,1255.919,332.307z M1257.293,332.307c0-0.813-0.044-1.165-0.382-1.165    c-0.339,0-0.383,0.352-0.383,1.165c0,0.812,0.044,1.164,0.383,1.164C1257.249,333.471,1257.293,333.119,1257.293,332.307z"/></g><g><path d="M1258.388,333.893v-3.173h0.602v2.646h0.899v0.527H1258.388z"/></g><g><path d="M1260.154,333.893v-3.173h1.569v0.487h-0.968v0.783h0.892v0.487h-0.892v0.927h0.999v0.488H1260.154z"/></g><g><path d="M1262.737,333.893h-0.601v-3.173h1.11c0.411,0,0.674,0.29,0.674,0.831c0,0.404-0.144,0.707-0.534,0.777v0.009    c0.132,0.018,0.521,0.053,0.521,0.624c0,0.202,0.013,0.8,0.068,0.932h-0.59c-0.079-0.193-0.063-0.408-0.063-0.615    c0-0.378,0.032-0.699-0.43-0.699h-0.156V333.893z M1262.737,332.091h0.268c0.238,0,0.307-0.264,0.307-0.466    c0-0.303-0.116-0.418-0.307-0.418h-0.268V332.091z"/></g><g><path d="M1264.337,332.307c0-0.84,0-1.64,0.992-1.64c0.991,0,0.991,0.8,0.991,1.64c0,0.83,0,1.639-0.991,1.639    C1264.337,333.945,1264.337,333.137,1264.337,332.307z M1265.711,332.307c0-0.813-0.044-1.165-0.382-1.165    c-0.339,0-0.383,0.352-0.383,1.165c0,0.812,0.044,1.164,0.383,1.164C1265.667,333.471,1265.711,333.119,1265.711,332.307z"/></g><g><path d="M1267.582,333.945c-0.744,0-0.884-0.483-0.852-1.033h0.601c0,0.304,0.013,0.559,0.343,0.559    c0.203,0,0.303-0.145,0.303-0.36c0-0.571-1.211-0.606-1.211-1.552c0-0.496,0.215-0.892,0.948-0.892    c0.585,0,0.876,0.29,0.836,0.954h-0.585c0-0.238-0.036-0.479-0.279-0.479c-0.195,0-0.311,0.118-0.311,0.339    c0,0.602,1.211,0.549,1.211,1.547C1268.586,333.849,1268.04,333.945,1267.582,333.945z"/></g><g><path d="M1307.865,355.187v0.601h-3.173v-1.11c0-0.411,0.29-0.674,0.831-0.674c0.404,0,0.707,0.144,0.777,0.534h0.009    c0.018-0.132,0.053-0.521,0.624-0.521c0.202,0,0.8-0.013,0.932-0.068v0.59c-0.193,0.079-0.408,0.063-0.615,0.063    c-0.378,0-0.699-0.032-0.699,0.43v0.156H1307.865z M1306.063,355.187v-0.268c0-0.238-0.264-0.307-0.466-0.307    c-0.303,0-0.418,0.116-0.418,0.307v0.268H1306.063z"/></g><g><path d="M1306.279,353.587c-0.84,0-1.64,0-1.64-0.992c0-0.613,0.374-0.86,1.055-0.836v0.589c-0.422,0-0.58,0.068-0.58,0.247    c0,0.339,0.352,0.383,1.165,0.383c0.812,0,1.164-0.044,1.164-0.383c0-0.278-0.396-0.267-0.646-0.274v-0.594    c0.849,0,1.121,0.307,1.121,0.868C1307.918,353.587,1307.109,353.587,1306.279,353.587z"/></g><g><path d="M1306.279,350.485c-0.84,0-1.64,0-1.64-0.992c0-0.991,0.8-0.991,1.64-0.991c0.83,0,1.639,0,1.639,0.991    C1307.918,350.485,1307.109,350.485,1306.279,350.485z M1306.279,349.111c-0.813,0-1.165,0.044-1.165,0.382    c0,0.339,0.352,0.383,1.165,0.383c0.812,0,1.164-0.044,1.164-0.383C1307.443,349.155,1307.092,349.111,1306.279,349.111z"/></g><g><path d="M1307.865,348.017h-3.173v-0.812l2.197-0.765v-0.008h-2.197v-0.562h3.173v0.792l-2.32,0.785v0.008h2.32V348.017z"/></g><g><path d="M1307.865,345.357h-3.173v-0.602h2.646v-0.899h0.527V345.357z"/></g><g><path d="M1307.865,343.591h-3.173v-0.602h3.173V343.591z"/></g><g><path d="M1307.865,342.479h-3.173v-0.812l2.197-0.765v-0.008h-2.197v-0.562h3.173v0.792l-2.32,0.785v0.008h2.32V342.479z"/></g><g><path d="M1307.865,339.823h-3.173v-1.569h0.487v0.968h0.783v-0.892h0.487v0.892h0.927v-0.999h0.488V339.823z"/></g><g><g><g><g><path d="M1302.264,317.97h-3.041v-1.061l2.068-0.493v-0.009l-2.068-0.523v-1.025h3.041v0.642h-2.346v0.008l2.346,0.607v0.628       l-2.346,0.576v0.009h2.346V317.97z"/></g></g></g></g><g><g><g><g><path d="M1299.223,318.498h2.156c0.455,0,0.936,0.266,0.936,1.069c0,0.724-0.362,1.073-0.936,1.073h-2.156v-0.659h2.114       c0.375,0,0.522-0.166,0.522-0.405c0-0.288-0.186-0.42-0.522-0.42h-2.114V318.498z"/></g></g></g></g><g><g><g><g><path d="M1302.264,321.839h-3.041v-0.658h3.041V321.839z"/></g></g></g></g><g><g><g><g><path d="M1302.264,323.623v0.659h-3.041v-1.218c0-0.449,0.278-0.737,0.796-0.737c0.388,0,0.679,0.157,0.746,0.585h0.008       c0.018-0.145,0.051-0.572,0.599-0.572c0.193,0,0.767-0.013,0.893-0.074v0.646c-0.186,0.087-0.392,0.069-0.59,0.069       c-0.362,0-0.669-0.035-0.669,0.472v0.17H1302.264z M1300.537,323.623v-0.292c0-0.262-0.253-0.336-0.446-0.336       c-0.291,0-0.4,0.126-0.4,0.336v0.292H1300.537z"/></g></g></g></g><g><g><g><g><path d="M1302.264,327.177l-3.041-0.872v-0.869l3.041-0.855v0.694l-0.674,0.175v0.898l0.674,0.179V327.177z M1299.809,325.907       v0.009l1.313,0.301v-0.628L1299.809,325.907z"/></g></g></g></g><g><g><g><g><path d="M1299.223,327.479h2.156c0.455,0,0.936,0.266,0.936,1.069c0,0.724-0.362,1.073-0.936,1.073h-2.156v-0.659h2.114       c0.375,0,0.522-0.166,0.522-0.405c0-0.288-0.186-0.42-0.522-0.42h-2.114V327.479z"/></g></g></g></g><g><g><g><g><path d="M1302.264,329.901v0.93c0,0.057,0.009,0.122,0.013,0.188c0.009,0.065,0.017,0.132,0.017,0.192       c0,0.974-0.492,1.096-1.55,1.096c-0.804,0-1.57,0-1.57-1.087s0.767-1.087,1.57-1.087c0.653,0,0.939,0.122,1.149,0.385       l0.009-0.009c-0.025-0.097-0.105-0.267-0.105-0.332v-0.275H1302.264z M1300.743,330.801c-0.779,0-1.116,0.048-1.116,0.419       s0.337,0.419,1.116,0.419c0.758,0,1.095-0.048,1.095-0.419S1301.501,330.801,1300.743,330.801z"/></g></g></g></g><g><g><g><g><path d="M1302.264,335.185l-3.041-0.872v-0.869l3.041-0.855v0.694l-0.674,0.175v0.898l0.674,0.179V335.185z M1299.809,333.915       v0.009l1.313,0.301v-0.628L1299.809,333.915z"/></g></g></g></g><g><g><g><g><path d="M1306.471,322.531v0.659h-3.041v-1.218c0-0.449,0.278-0.737,0.796-0.737c0.388,0,0.679,0.157,0.746,0.585h0.008       c0.018-0.145,0.051-0.572,0.599-0.572c0.193,0,0.767-0.013,0.893-0.074v0.646c-0.186,0.087-0.392,0.069-0.59,0.069       c-0.362,0-0.669-0.035-0.669,0.472v0.17H1306.471z M1304.744,322.531v-0.292c0-0.262-0.253-0.336-0.446-0.336       c-0.291,0-0.4,0.126-0.4,0.336v0.292H1304.744z"/></g></g></g></g><g><g><g><g><path d="M1306.469,326.086l-3.041-0.873v-0.868l3.041-0.855v0.694l-0.674,0.175v0.898l0.674,0.179V326.086z M1304.014,324.816       v0.009l1.313,0.301v-0.628L1304.014,324.816z"/></g></g></g></g><g><g><g><g><path d="M1306.469,328.508h-3.041v-1.17c0-0.502,0.14-0.917,0.788-0.917c0.35,0,0.603,0.18,0.669,0.537h0.009       c0.063-0.467,0.354-0.589,0.771-0.589c0.771,0,0.805,0.693,0.805,0.973V328.508z M1304.671,327.849v-0.441       c0-0.144-0.093-0.345-0.388-0.345c-0.224,0-0.388,0.157-0.388,0.38v0.406H1304.671z M1306.001,327.849v-0.367       c0-0.14-0.004-0.453-0.43-0.453c-0.27,0-0.434,0.104-0.434,0.437v0.384H1306.001z"/></g></g></g></g><g><g><g><path d="M1274.721,428.279v-2.622h0.983l0.457,1.783h0.008l0.485-1.783h0.95v2.622h-0.595v-2.022h-0.008l-0.562,2.022h-0.582      l-0.534-2.022h-0.008v2.022H1274.721z"/></g></g></g><g><g><g><path d="M1277.879,428.279l0.809-2.622h0.805l0.793,2.622h-0.644l-0.161-0.581h-0.833l-0.166,0.581H1277.879z M1279.056,426.162      h-0.008l-0.279,1.133h0.582L1279.056,426.162z"/></g></g></g><g><g><g><path d="M1280.572,428.279v-2.622h0.61v2.622H1280.572z"/></g></g></g><g><g><g><path d="M1281.7,428.279v-2.622h0.825l0.776,1.815h0.008v-1.815h0.57v2.622h-0.805l-0.797-1.917h-0.008v1.917H1281.7z"/></g></g></g><g><g><g><path d="M1273.283,429.283h1.02c0.801,0,0.95,0.479,0.95,1.297c0,0.402,0.068,1.325-0.975,1.325h-0.995V429.283z       M1273.895,431.502h0.295c0.372,0,0.444-0.25,0.444-0.907c0-0.483,0-0.908-0.425-0.908h-0.314V431.502z"/></g></g></g><g><g><g><path d="M1275.742,431.905v-2.622h0.61v2.622H1275.742z"/></g></g></g><g><g><g><path d="M1276.87,431.905v-2.622h0.825l0.776,1.815h0.008v-1.815h0.57v2.622h-0.805l-0.797-1.918h-0.008v1.918H1276.87z"/></g></g></g><g><g><g><path d="M1279.563,431.905v-2.622h0.61v2.622H1279.563z"/></g></g></g><g><g><g><path d="M1280.691,431.905v-2.622h0.825l0.776,1.815h0.008v-1.815h0.57v2.622h-0.805l-0.797-1.918h-0.008v1.918H1280.691z"/></g></g></g><g><g><g><path d="M1284.719,430.09c0.004-0.244-0.04-0.458-0.363-0.458c-0.381,0-0.381,0.461-0.381,0.97c0,0.82,0.089,0.966,0.438,0.966      c0.101,0,0.21-0.021,0.303-0.051v-0.581h-0.331v-0.403h0.941v1.329c-0.165,0.029-0.582,0.088-0.824,0.088      c-1.027,0-1.145-0.382-1.145-1.377c0-0.661,0.036-1.333,1.035-1.333c0.599,0,0.971,0.302,0.934,0.851H1284.719z"/></g></g></g><g><g><g><path d="M1274.883,435.529h-0.611v-2.622h1.129c0.416,0,0.683,0.24,0.683,0.687c0,0.334-0.146,0.585-0.541,0.643v0.008      c0.133,0.014,0.529,0.043,0.529,0.516c0,0.167,0.012,0.66,0.068,0.77h-0.598c-0.081-0.16-0.065-0.338-0.065-0.509      c0-0.312,0.032-0.577-0.437-0.577h-0.157V435.529z M1274.883,434.04h0.271c0.243,0,0.312-0.218,0.312-0.385      c0-0.25-0.117-0.345-0.312-0.345h-0.271V434.04z"/></g></g></g><g><g><g><path d="M1276.504,434.219c0-0.694,0-1.355,1.007-1.355s1.007,0.661,1.007,1.355c0,0.686,0,1.354-1.007,1.354      S1276.504,434.904,1276.504,434.219z M1277.898,434.219c0-0.672-0.044-0.963-0.388-0.963s-0.389,0.291-0.389,0.963      c0,0.671,0.045,0.962,0.389,0.962S1277.898,434.89,1277.898,434.219z"/></g></g></g><g><g><g><path d="M1278.975,434.219c0-0.694,0-1.355,1.007-1.355s1.007,0.661,1.007,1.355c0,0.686,0,1.354-1.007,1.354      S1278.975,434.904,1278.975,434.219z M1280.369,434.219c0-0.672-0.044-0.963-0.388-0.963s-0.389,0.291-0.389,0.963      c0,0.671,0.045,0.962,0.389,0.962S1280.369,434.89,1280.369,434.219z"/></g></g></g><g><g><g><path d="M1281.461,435.529v-2.622h0.983l0.457,1.783h0.008l0.485-1.783h0.95v2.622h-0.595v-2.022h-0.008l-0.562,2.022h-0.582      l-0.534-2.022h-0.008v2.022H1281.461z"/></g></g></g></g><g id="ICONS"><g><path fill="#0089CF" d="M1307.685,179.788c0,2.478-2.01,4.488-4.49,4.488c-2.478,0-4.485-2.011-4.485-4.488    c0-2.479,2.007-4.49,4.485-4.49C1305.675,175.299,1307.685,177.309,1307.685,179.788z"/></g><g><g><path fill="#FFFFFF" d="M1305.624,177.792c0,0-1.556,1.622-2.019,2.085c-0.289,0.293-0.349,0.424-0.349,0.771     c0,0.215,0,1.465,0,1.765c0.15,0.029,0.143,0.175,0.089,0.212c0.206,0.154,0.218,0.168,0.602,0.215     c0.303,0.034,0.292,0.162,0.216,0.162h-2.137c-0.077,0-0.089-0.128,0.216-0.162c0.384-0.047,0.394-0.061,0.601-0.215     c-0.052-0.037-0.06-0.182,0.089-0.212c0-0.3,0-1.55,0-1.765c0-0.347-0.059-0.479-0.351-0.771c-0.463-0.463-2.02-2.085-2.02-2.085     H1305.624z"/></g></g><g><g><polygon fill="#0089CF" points="1304.708,177.525 1302.945,179.682 1302.993,179.719 1303.027,179.716 1304.791,177.559    "/></g></g><g><g><path fill="#0089CF" d="M1303.339,179.468c-0.25-0.045-0.425-0.241-0.391-0.433c0.036-0.194,0.268-0.317,0.516-0.273     c0.251,0.045,0.427,0.24,0.393,0.434C1303.822,179.391,1303.589,179.512,1303.339,179.468z"/></g></g><g><path fill="#0089CF" d="M1283.47,80.498c0,2.479-2.01,4.489-4.491,4.489c-2.477,0-4.486-2.01-4.486-4.489    c0-2.477,2.009-4.483,4.486-4.483C1281.46,76.016,1283.47,78.021,1283.47,80.498z"/></g><g><path fill="#FFFFFF" d="M1276.639,83.323c-0.014-0.012-0.025-0.025-0.039-0.038C1276.614,83.298,1276.625,83.311,1276.639,83.323z    "/></g><g><path fill="#FFFFFF" d="M1276.742,83.417c-0.019-0.014-0.038-0.03-0.054-0.047C1276.705,83.387,1276.724,83.402,1276.742,83.417z"/></g><g><path fill="#FFFFFF" d="M1276.552,83.23c-0.018-0.019-0.037-0.043-0.056-0.063C1276.514,83.187,1276.534,83.211,1276.552,83.23z"/></g><g><path fill="#FFFFFF" d="M1276.472,83.139c-0.027-0.035-0.053-0.066-0.082-0.102C1276.418,83.072,1276.446,83.104,1276.472,83.139z    "/></g><g><path fill="#FFFFFF" d="M1276.764,83.434c0.129,0.104,0.265,0.168,0.424,0.195l0.043-0.005c-0.02-0.001-0.039-0.004-0.059-0.008    C1277.018,83.594,1276.886,83.529,1276.764,83.434z"/></g><g><path fill="#FFFFFF" d="M1278.231,79.341c-0.148,0.033-0.313,0.065-0.486,0.09c-0.44,0.116-0.712,0.908-0.312,1.463    c0.41,0.567,0.033,0.712-0.161,0.706c0,0.145,0,0.328,0,0.328s0.568-0.098,0.851,0.614c-0.211-0.219-0.685-0.356-0.94-0.267    c-0.064,0.21-0.115,0.437,0.131,0.61c0.225,0.16,0.211,0.645-0.083,0.687c0.014,0.003,0.058,0.058,0.09,0.058    c0.398,0,0.639-0.218,0.93-0.592c0.289-0.375,0.75-0.615,0.735-1.222c-0.011-0.397-0.167-0.181,0.12-1.221    c-0.058-0.116-0.185-0.298-0.492-0.674C1278.429,79.698,1278.308,79.505,1278.231,79.341z M1277.789,81.609    c0.212-0.139,0.664-0.01,0.768,0.449C1278.387,81.864,1278.079,81.647,1277.789,81.609z M1278.567,80.804    c-0.018,0.052-0.071,0.057-0.121,0.042c-0.164-0.045-0.24-0.083-0.486-0.043c-0.029,0.004-0.062,0.001-0.093-0.011    c-0.102-0.033-0.16-0.136-0.122-0.241c0.034-0.104,0.145-0.144,0.254-0.155c0.201-0.021,0.413,0.115,0.502,0.206    C1278.579,80.681,1278.582,80.76,1278.567,80.804z M1278.135,80.176c-0.136-0.042-0.279-0.024-0.432,0.014    c0.052-0.211,0.251-0.26,0.431-0.213c0.178,0.047,0.36,0.171,0.508,0.532C1278.43,80.317,1278.272,80.219,1278.135,80.176z"/></g><g><path fill="#FFFFFF" d="M1276.644,80.395c-0.198-0.021-0.413,0.115-0.501,0.206c-0.081,0.081-0.085,0.159-0.068,0.203    c0.016,0.052,0.071,0.057,0.121,0.042c0.163-0.045,0.242-0.083,0.486-0.043c0.031,0.004,0.062,0.001,0.095-0.011    c0.102-0.033,0.159-0.136,0.123-0.241C1276.864,80.446,1276.752,80.406,1276.644,80.395z"/></g><g><path fill="#FFFFFF" d="M1276.509,79.977c-0.181,0.047-0.36,0.171-0.509,0.532c0.212-0.192,0.369-0.289,0.506-0.332    c0.136-0.042,0.28-0.024,0.432,0.014C1276.885,79.979,1276.686,79.93,1276.509,79.977z"/></g><g><path fill="#FFFFFF" d="M1276.1,82.058c0.169-0.194,0.478-0.411,0.767-0.449C1276.657,81.47,1276.203,81.599,1276.1,82.058z"/></g><g><path fill="#FFFFFF" d="M1280.787,79.685c0.031,0.049,0.049,0.097,0.052,0.141C1280.836,79.783,1280.819,79.735,1280.787,79.685z"/></g><g><path fill="#FFFFFF" d="M1279.121,80.54c-0.059-0.158-0.154-0.332-0.398-0.625c-0.194-0.231-0.323-0.429-0.398-0.597    c-0.03,0.007-0.061,0.015-0.095,0.023c0.077,0.164,0.198,0.357,0.383,0.579c0.308,0.376,0.434,0.558,0.492,0.674l0.003-0.008    C1279.113,80.568,1279.117,80.553,1279.121,80.54z"/></g><g><path fill="#FFFFFF" d="M1279.735,81.034c0.075-0.246,0.268-0.568,0.519-0.721C1280.002,80.27,1279.641,80.571,1279.735,81.034z"/></g><g><path fill="#FFFFFF" d="M1279.219,79.902c0.018-0.004,0.034-0.011,0.053-0.021c0.143-0.09,0.208-0.146,0.453-0.174    c0.031-0.004,0.06-0.015,0.088-0.035c0.091-0.061,0.119-0.177,0.054-0.265c-0.062-0.091-0.18-0.097-0.289-0.081    c-0.167,0.028-0.313,0.172-0.392,0.284C1279.208,79.689,1279.22,79.786,1279.219,79.902z"/></g><g><path fill="#FFFFFF" d="M1279.145,79.876c0.018,0.024,0.045,0.032,0.075,0.027c0.001-0.116-0.011-0.213-0.033-0.293    c-0.014,0.016-0.025,0.035-0.033,0.05C1279.099,79.758,1279.117,79.837,1279.145,79.876z"/></g><g><path fill="#FFFFFF" d="M1279.075,79.377c0.13-0.115,0.245-0.167,0.35-0.2c0.139-0.043,0.251-0.037,0.441,0.063    c-0.149-0.451-0.66-0.236-0.848,0.079C1279.039,79.336,1279.057,79.353,1279.075,79.377z"/></g><g><path fill="#FFFFFF" d="M1279.075,79.377c-0.018-0.024-0.037-0.042-0.058-0.057c-0.034,0.058-0.057,0.121-0.066,0.181    C1278.995,79.453,1279.035,79.411,1279.075,79.377z"/></g><g><path fill="#FFFFFF" d="M1277.293,83.724c-0.388,0-0.747-0.222-1.07-0.663c-0.071-0.097-0.153-0.187-0.24-0.278    c-0.25-0.266-0.505-0.538-0.481-1.024c0.007-0.12,0.024-0.189,0.038-0.247c0.033-0.13,0.054-0.224-0.129-0.959    c-0.188-0.759-0.065-1.114,0.074-1.279c0.101-0.123,0.241-0.181,0.398-0.172c0.106,0.006,0.26,0.044,0.438,0.088    c0.216,0.054,0.461,0.116,0.658,0.13l0.132,0.009c0.367,0.03,0.716,0.057,1.087-0.081c0.052-0.015,0.106,0.009,0.124,0.06    c0.019,0.05-0.008,0.103-0.057,0.124c-0.413,0.151-0.795,0.12-1.169,0.092l-0.131-0.011c-0.215-0.015-0.467-0.077-0.691-0.134    c-0.162-0.04-0.315-0.079-0.403-0.084c-0.064-0.005-0.16,0.01-0.237,0.103c-0.091,0.106-0.213,0.393-0.036,1.108    c0.187,0.75,0.174,0.875,0.129,1.05c-0.014,0.054-0.026,0.112-0.031,0.213c-0.021,0.403,0.197,0.633,0.428,0.88    c0.087,0.093,0.178,0.189,0.255,0.298c0.294,0.395,0.607,0.595,0.941,0.582c0.336-0.01,0.576-0.199,0.775-0.618    c0.024-0.048,0.082-0.069,0.129-0.046c0.049,0.023,0.068,0.082,0.045,0.129c-0.146,0.307-0.403,0.714-0.943,0.729    C1277.313,83.724,1277.303,83.724,1277.293,83.724z"/></g><g><path fill="#FFFFFF" d="M1281.075,82.182c-0.26,0-0.545-0.095-0.856-0.282c-0.091-0.056-0.192-0.107-0.288-0.152    c-0.336-0.168-0.686-0.34-0.853-0.812c-0.036-0.101-0.049-0.168-0.061-0.218c-0.028-0.13-0.041-0.191-0.509-0.823    c-0.464-0.627-0.487-1.005-0.423-1.209c0.047-0.151,0.155-0.26,0.302-0.313c0.097-0.033,0.251-0.054,0.43-0.082    c0.224-0.033,0.476-0.068,0.663-0.134c0.587-0.202,0.977-0.381,1.189-0.548c0.043-0.031,0.104-0.023,0.136,0.019    c0.032,0.04,0.025,0.102-0.017,0.134c-0.232,0.179-0.638,0.366-1.246,0.577c-0.204,0.073-0.467,0.11-0.697,0.144    c-0.163,0.025-0.316,0.046-0.398,0.073c-0.062,0.024-0.143,0.069-0.179,0.189c-0.042,0.13-0.047,0.443,0.392,1.036    c0.496,0.666,0.509,0.738,0.543,0.896c0.01,0.048,0.023,0.102,0.054,0.193c0.143,0.399,0.441,0.546,0.756,0.704    c0.101,0.049,0.203,0.101,0.303,0.163c0.423,0.254,0.792,0.313,1.095,0.177c0.306-0.138,0.453-0.405,0.477-0.871    c0.002-0.052,0.047-0.094,0.101-0.092c0.053,0.004,0.095,0.049,0.091,0.102c-0.015,0.338-0.097,0.813-0.591,1.038    C1281.361,82.151,1281.223,82.182,1281.075,82.182z"/></g><g><path fill="#FFFFFF" d="M1280.517,78.947c-0.283-0.485,0.469-0.732,0.804-0.507c-0.278-0.003-0.436,0.063-0.558,0.138    C1280.641,78.65,1280.568,78.742,1280.517,78.947z M1280.874,79.197c-0.107,0.026-0.209-0.03-0.235-0.138    c-0.025-0.106,0.046-0.197,0.131-0.268c0.156-0.123,0.41-0.122,0.534-0.096c0.111,0.024,0.156,0.088,0.167,0.135    c0.011,0.051-0.03,0.086-0.081,0.099c-0.161,0.049-0.249,0.061-0.432,0.223C1280.935,79.177,1280.907,79.189,1280.874,79.197z     M1281.339,79.798c0.212-0.138,0.664-0.007,0.765,0.452C1281.936,80.056,1281.629,79.837,1281.339,79.798z M1281.445,81.95    c0.33-0.055,0.543-0.442,0.653-0.904c0.111-0.461,0.432-0.868,0.17-1.414c-0.174-0.358-0.226-0.099-0.391-1.176    c-0.166-1.077-0.599-1.213-0.858-1.083c-0.196,0.098-0.488,0.361-0.859,0.591c-0.354,0.288-0.279,1.121,0.314,1.461    c0.018,0.011,0.034,0.021,0.052,0.033c0.006,0.004,0.01,0.009,0.016,0.011c0.009,0.006,0.02,0.013,0.03,0.018    c0.006,0.005,0.011,0.009,0.018,0.014c0.009,0.005,0.018,0.011,0.025,0.016c0.006,0.006,0.013,0.01,0.018,0.014    c0.008,0.005,0.015,0.011,0.021,0.016c0.006,0.005,0.011,0.009,0.016,0.013c0.006,0.009,0.01,0.013,0.018,0.018    c0.005,0.005,0.01,0.009,0.016,0.014c0.005,0.009,0.009,0.011,0.013,0.016c0.005,0.004,0.011,0.009,0.015,0.013    c0.004,0.005,0.006,0.009,0.011,0.015c0.005,0.005,0.01,0.009,0.015,0.014c0.001,0.004,0.005,0.006,0.006,0.011    c0.005,0.005,0.01,0.01,0.015,0.016c0.001,0.004,0.004,0.004,0.006,0.009c0.031,0.049,0.049,0.097,0.052,0.141l0,0    c0.001,0.007,0.003,0.015,0.003,0.021c0,0.143-0.128,0.245-0.225,0.288c0.059,0.13,0.149,0.336,0.149,0.336    s0.309,0.052,0.823-0.415c0.039,0.249-0.124,0.686-0.684,0.814c0.008,0.167,0.062,0.367,0.307,0.384    C1281.458,81.275,1281.695,81.657,1281.445,81.95z"/></g><g><path fill="#0089CF" d="M1283.469,401.568c0,2.477-2.009,4.488-4.487,4.488c-2.48,0-4.489-2.012-4.489-4.488    c0-2.478,2.009-4.488,4.489-4.488C1281.461,397.08,1283.469,399.09,1283.469,401.568z"/></g><g><path fill="#FFFFFF" d="M1277.417,400.041c0.035,0,0.062-0.031,0.062-0.062l0.017-1.163h0.061l0.047,1.163    c0,0.032,0.027,0.062,0.063,0.062c0.033,0,0.062-0.031,0.062-0.062l-0.001-1.163h0.062l0.089,1.783c0,0,0.054,0.338-0.222,0.397    c0,0,0.003,0.313-0.141,0.313c-0.047,0.528,0.002,1.591,0.111,2.333c0.061,0.415,0.138,1.053-0.211,1.053    c-0.351,0-0.271-0.638-0.211-1.053c0.108-0.742,0.157-1.805,0.11-2.333c-0.143,0-0.14-0.313-0.14-0.313    c-0.275-0.059-0.224-0.397-0.224-0.397l0.091-1.783h0.062l-0.001,1.163c0,0.032,0.027,0.062,0.063,0.062    c0.034,0,0.062-0.031,0.062-0.062l0.047-1.163h0.062l0.017,1.163C1277.355,400.01,1277.382,400.041,1277.417,400.041z"/></g><g><path fill="#FFFFFF" d="M1278.973,401.467c-0.048,0.526,0.002,2.061,0.112,2.799c0.06,0.418,0.138,1.052-0.211,1.052    c-0.351,0-0.274-0.634-0.212-1.052c0.109-0.737,0.159-2.273,0.112-2.799c-0.024-0.11-0.044-0.284-0.198-0.34    c-0.156-0.053-0.134-2.974,0.498-3.212c0,0,0.124,0.017,0.113,0.238c-0.011,0.221,0.062,2.799,0.062,2.799    s0.022,0.145-0.057,0.222C1279.191,401.175,1278.979,401.32,1278.973,401.467z"/></g><g><path fill="#FFFFFF" d="M1280.303,401.309c0.047,0.528-0.003,1.591-0.112,2.333c-0.061,0.415-0.138,1.053,0.211,1.053    c0.35,0,0.272-0.638,0.212-1.053c-0.11-0.742-0.159-1.805-0.112-2.333c0.143,0,0.141-0.313,0.141-0.313    c0.268-0.122,0.437-0.355,0.394-1.059c-0.035-0.588-0.269-1.063-0.635-1.063c-0.365,0-0.599,0.475-0.634,1.063    c-0.042,0.704,0.126,0.937,0.395,1.059C1280.163,400.995,1280.16,401.309,1280.303,401.309L1280.303,401.309z"/></g><g><path fill="#0089CF" d="M1264.876,311.413c0,2.478-2.01,4.488-4.49,4.488c-2.478,0-4.485-2.011-4.485-4.488    c0-2.479,2.007-4.49,4.485-4.49C1262.866,306.923,1264.876,308.934,1264.876,311.413z"/></g><g><g><path fill="#FFFFFF" d="M1262.815,309.416c0,0-1.556,1.622-2.019,2.085c-0.289,0.293-0.349,0.424-0.349,0.772     c0,0.215,0,1.465,0,1.765c0.15,0.029,0.143,0.175,0.089,0.212c0.206,0.154,0.218,0.168,0.602,0.215     c0.303,0.034,0.292,0.162,0.216,0.162h-2.137c-0.077,0-0.089-0.128,0.216-0.162c0.384-0.047,0.394-0.061,0.601-0.215     c-0.052-0.037-0.06-0.182,0.089-0.212c0-0.3,0-1.55,0-1.765c0-0.347-0.059-0.479-0.351-0.772c-0.463-0.463-2.02-2.085-2.02-2.085     H1262.815z"/></g></g><g><g><polygon fill="#0089CF" points="1261.9,309.149 1260.136,311.306 1260.184,311.343 1260.219,311.341 1261.982,309.183    "/></g></g><g><g><path fill="#0089CF" d="M1260.53,311.093c-0.25-0.045-0.425-0.241-0.391-0.433c0.036-0.194,0.268-0.317,0.516-0.273     c0.251,0.045,0.427,0.24,0.392,0.434C1261.013,311.015,1260.781,311.137,1260.53,311.093z"/></g></g><g><path fill="#0089CF" d="M1283.302,273.994c0,2.386-1.934,4.32-4.32,4.32c-2.386,0-4.32-1.934-4.32-4.32    c0-2.386,1.934-4.32,4.32-4.32C1281.367,269.674,1283.302,271.608,1283.302,273.994z"/></g><g><g><path fill="#FFFFFF" d="M1280.779,276.566c-0.065,0.234-0.309,0.372-0.543,0.307l-2.485-0.69     c-0.234-0.065-0.372-0.309-0.307-0.543l1.117-4.02c0.065-0.234,0.309-0.372,0.543-0.307l2.485,0.69     c0.234,0.065,0.372,0.309,0.307,0.543L1280.779,276.566z"/></g></g><g><path fill="#0089CF" d="M1280.354,276.987c-0.048,0-0.097-0.007-0.144-0.02l-2.485-0.69c-0.286-0.08-0.455-0.378-0.375-0.664    l1.117-4.021c0.064-0.232,0.278-0.395,0.52-0.395c0.048,0,0.097,0.007,0.144,0.02l2.485,0.69c0.286,0.08,0.455,0.377,0.375,0.664    l-1.117,4.021C1280.809,276.824,1280.595,276.987,1280.354,276.987z M1278.986,271.394c-0.154,0-0.29,0.103-0.331,0.251    l-1.117,4.02c-0.051,0.182,0.057,0.372,0.239,0.423l2.485,0.69c0.18,0.05,0.373-0.061,0.423-0.239l1.117-4.021    c0.051-0.182-0.057-0.372-0.239-0.423l-2.485-0.69C1279.048,271.398,1279.017,271.394,1278.986,271.394z"/></g><g><g><path fill="#FFFFFF" d="M1280.813,275.88c0.019,0.242-0.164,0.455-0.406,0.474l-2.572,0.201     c-0.242,0.019-0.455-0.164-0.474-0.405l-0.326-4.16c-0.019-0.242,0.164-0.455,0.405-0.474l2.572-0.201     c0.242-0.019,0.455,0.164,0.474,0.405L1280.813,275.88z"/></g></g><g><path fill="#0089CF" d="M1277.802,276.655c-0.28,0-0.516-0.218-0.537-0.497l-0.326-4.16c-0.023-0.296,0.199-0.556,0.495-0.579    l2.572-0.201c0.297-0.022,0.557,0.203,0.58,0.496l0.326,4.16c0.011,0.143-0.034,0.282-0.128,0.392    c-0.094,0.11-0.224,0.176-0.367,0.188l-2.572,0.201C1277.83,276.655,1277.816,276.655,1277.802,276.655z M1280.048,271.412    c-0.009,0-0.018,0-0.027,0.001l-2.572,0.201c-0.189,0.015-0.33,0.18-0.315,0.369l0.326,4.16c0.015,0.186,0.181,0.329,0.369,0.315    l2.572-0.201c0.091-0.007,0.174-0.049,0.234-0.12c0.06-0.07,0.089-0.158,0.082-0.249l-0.326-4.16    C1280.376,271.551,1280.226,271.412,1280.048,271.412z"/></g><g><g><path fill="#FFFFFF" d="M1280.607,275.176c0.1,0.221,0.002,0.484-0.219,0.584l-2.348,1.069c-0.221,0.101-0.484,0.002-0.584-0.219     l-1.729-3.798c-0.101-0.221-0.002-0.484,0.219-0.584l2.348-1.069c0.221-0.101,0.484-0.002,0.584,0.219L1280.607,275.176z"/></g></g><g><path fill="#0089CF" d="M1277.859,276.966c-0.212,0-0.405-0.124-0.492-0.316l-1.729-3.798c-0.123-0.271-0.003-0.591,0.267-0.714    l2.348-1.069c0.07-0.032,0.145-0.048,0.222-0.048c0.212,0,0.405,0.124,0.492,0.316l1.729,3.798    c0.123,0.271,0.003,0.591-0.267,0.714l-2.348,1.069C1278.011,276.95,1277.936,276.966,1277.859,276.966z M1278.476,271.218    c-0.049,0-0.096,0.01-0.141,0.031l-2.348,1.069c-0.172,0.078-0.249,0.282-0.17,0.454l1.729,3.798    c0.056,0.122,0.178,0.201,0.313,0.201c0.049,0,0.096-0.01,0.141-0.031l2.348-1.069c0.172-0.078,0.249-0.282,0.17-0.454    l-1.729-3.798C1278.734,271.297,1278.611,271.218,1278.476,271.218z"/></g><g><path fill="#0089CF" d="M1278.665,275.049l0.558-0.254c-0.451,0.099-0.666-0.197-0.832-0.562c0.071,0.051,0.254,0.13,0.521,0.009    c0.515-0.234,0.356-0.713,0.148-0.949c-0.28-0.318-0.946-0.185-1.444-0.549c-0.052,0.615-0.59,1.03-0.534,1.45    c0.042,0.312,0.299,0.746,0.813,0.512c0.267-0.121,0.327-0.311,0.335-0.399c0.166,0.365,0.249,0.721-0.122,0.996L1278.665,275.049    z"/></g><g><path fill="#0089CF" d="M1272.296,233.327c0,2.478-2.01,4.488-4.49,4.488c-2.478,0-4.485-2.011-4.485-4.488    c0-2.479,2.007-4.49,4.485-4.49C1270.286,228.837,1272.296,230.848,1272.296,233.327z"/></g><g><g><path fill="#FFFFFF" d="M1270.235,231.33c0,0-1.555,1.622-2.019,2.085c-0.289,0.293-0.349,0.424-0.349,0.771     c0,0.215,0,1.465,0,1.765c0.15,0.029,0.143,0.175,0.089,0.212c0.206,0.154,0.218,0.168,0.602,0.215     c0.303,0.034,0.292,0.162,0.216,0.162h-2.137c-0.077,0-0.089-0.128,0.216-0.162c0.384-0.047,0.394-0.061,0.601-0.215     c-0.052-0.037-0.06-0.182,0.089-0.212c0-0.3,0-1.55,0-1.765c0-0.347-0.059-0.479-0.351-0.771c-0.463-0.464-2.02-2.085-2.02-2.085     H1270.235z"/></g></g><g><g><polygon fill="#0089CF" points="1269.32,231.063 1267.557,233.22 1267.605,233.258 1267.639,233.255 1269.403,231.097    "/></g></g><g><g><path fill="#0089CF" d="M1267.95,233.007c-0.25-0.045-0.425-0.241-0.391-0.433c0.036-0.194,0.268-0.317,0.516-0.273     c0.251,0.045,0.427,0.24,0.393,0.434C1268.433,232.929,1268.201,233.051,1267.95,233.007z"/></g></g><g><path fill="#0089CF" d="M1296.8,332.494c0,2.478-2.01,4.488-4.49,4.488c-2.478,0-4.485-2.011-4.485-4.488    c0-2.479,2.007-4.49,4.485-4.49C1294.79,328.004,1296.8,330.015,1296.8,332.494z"/></g><g><g><path fill="#FFFFFF" d="M1294.739,330.497c0,0-1.555,1.622-2.019,2.085c-0.289,0.293-0.349,0.424-0.349,0.771     c0,0.215,0,1.465,0,1.765c0.15,0.029,0.143,0.175,0.089,0.211c0.206,0.154,0.218,0.168,0.602,0.215     c0.303,0.034,0.292,0.162,0.216,0.162h-2.137c-0.077,0-0.089-0.128,0.216-0.162c0.384-0.047,0.394-0.061,0.601-0.215     c-0.052-0.037-0.06-0.182,0.089-0.211c0-0.3,0-1.55,0-1.765c0-0.347-0.059-0.479-0.351-0.771c-0.463-0.463-2.02-2.085-2.02-2.085     H1294.739z"/></g></g><g><g><polygon fill="#0089CF" points="1293.824,330.23 1292.061,332.387 1292.109,332.424 1292.143,332.422 1293.907,330.264    "/></g></g><g><g><path fill="#0089CF" d="M1292.454,332.174c-0.25-0.045-0.425-0.241-0.391-0.433c0.036-0.194,0.268-0.317,0.516-0.273     c0.251,0.045,0.427,0.24,0.393,0.434C1292.937,332.096,1292.705,332.218,1292.454,332.174z"/></g></g><g><path fill="#0089CF" d="M1267.187,175.791c0,2.477-2.009,4.489-4.487,4.489c-2.48,0-4.489-2.012-4.489-4.489    c0-2.478,2.009-4.488,4.489-4.488C1265.179,171.303,1267.187,173.313,1267.187,175.791z"/></g><g><path fill="#FFFFFF" d="M1261.135,174.264c0.035,0,0.062-0.031,0.062-0.062l0.017-1.163h0.061l0.047,1.163    c0,0.032,0.027,0.062,0.063,0.062c0.033,0,0.062-0.031,0.062-0.062l-0.001-1.163h0.062l0.089,1.783c0,0,0.054,0.338-0.222,0.397    c0,0,0.003,0.313-0.141,0.313c-0.047,0.528,0.002,1.591,0.111,2.333c0.061,0.415,0.138,1.053-0.211,1.053    c-0.351,0-0.272-0.638-0.211-1.053c0.108-0.742,0.157-1.805,0.11-2.333c-0.143,0-0.14-0.313-0.14-0.313    c-0.275-0.059-0.224-0.397-0.224-0.397l0.091-1.783h0.062l-0.001,1.163c0,0.032,0.027,0.062,0.063,0.062    c0.034,0,0.062-0.031,0.062-0.062l0.046-1.163h0.062l0.017,1.163C1261.073,174.233,1261.1,174.264,1261.135,174.264z"/></g><g><path fill="#FFFFFF" d="M1262.691,175.69c-0.048,0.526,0.002,2.061,0.112,2.799c0.06,0.418,0.138,1.052-0.211,1.052    c-0.351,0-0.274-0.634-0.212-1.052c0.109-0.737,0.159-2.273,0.112-2.799c-0.024-0.11-0.044-0.283-0.198-0.34    c-0.156-0.053-0.134-2.974,0.498-3.212c0,0,0.124,0.017,0.113,0.238c-0.011,0.221,0.062,2.799,0.062,2.799    s0.022,0.145-0.057,0.222C1262.909,175.398,1262.697,175.543,1262.691,175.69z"/></g><g><path fill="#FFFFFF" d="M1264.021,175.531c0.047,0.528-0.002,1.591-0.112,2.333c-0.061,0.415-0.138,1.053,0.211,1.053    c0.35,0,0.272-0.638,0.212-1.053c-0.11-0.742-0.159-1.805-0.112-2.333c0.143,0,0.141-0.313,0.141-0.313    c0.268-0.122,0.437-0.355,0.394-1.059c-0.035-0.588-0.269-1.063-0.635-1.063c-0.365,0-0.599,0.475-0.634,1.063    c-0.043,0.704,0.126,0.937,0.394,1.059C1263.881,175.218,1263.877,175.531,1264.021,175.531L1264.021,175.531z"/></g></g></svg>