<?xml version="1.0" encoding="UTF-8"?><svg xmlns="http://www.w3.org/2000/svg" xmlns:xlink="http://www.w3.org/1999/xlink" contentScriptType="text/ecmascript" zoomAndPan="magnify" contentStyleType="text/css" enable-background="new 0 0 1584 648" version="1.1" width="500.0" xml:space="preserve" preserveAspectRatio="xMidYMid meet" viewBox="256.714 22.623 97.59003 466.98907" height="2392.6064" x="0px" y="0px"><g id="DECKS"><path fill="#FFFFFF" id="IDP-Deck13" d="M309.976,286.687   l11.204-2.125l0.502-0.524l1.455-1.52l1.972,0.715c4.04,1.466,5.246,5.236,5.37,5.661l0.038,0.128l0.026,0.131l3.363,16.407   l0.777,3.789c8.06,14.54,12.783,34.251,12.783,54.037v80.337c0,11.456-4.432,22.227-12.48,30.327   c-8.049,8.102-18.749,12.562-30.131,12.562c-11.383,0-22.082-4.461-30.131-12.562c-8.049-8.101-12.481-18.871-12.481-30.327   v-80.337c0-19.739,4.7-39.402,12.722-53.933l0.798-3.894l3.363-16.407l0.026-0.131l0.038-0.128c0.125-0.425,1.33-4.195,5.371-5.661   l1.973-0.715l1.453,1.52l0.557,0.581l5.846,2.604L309.976,286.687z M351.257,119.843l-0.293-42.811c0,0,0.293-15.143-6.741-27.295   c0,0-11.314-23.885-38.714-24.114c-27.4,0.229-38.714,24.114-38.714,24.114c-7.034,12.152-6.741,27.295-6.741,27.295l-0.293,42.811   c-0.293,10.095,0.879,11.123,0.879,11.123c7.914,6.543,19.931,5.141,19.931,5.141c9.965-13.18,24.913-12.245,24.913-12.245h0.051   c0,0,14.948-0.935,24.913,12.245c0,0,12.017,1.402,19.931-5.141C350.378,130.966,351.55,129.938,351.257,119.843z" stroke-width="0.6667" stroke="#939598" stroke-linejoin="round"><path fill="#FFFFFF" id="IDP-Deck13" d="M309.976,286.687   l11.204-2.125l0.502-0.524l1.455-1.52l1.972,0.715c4.04,1.466,5.246,5.236,5.37,5.661l0.038,0.128l0.026,0.131l3.363,16.407   l0.777,3.789c8.06,14.54,12.783,34.251,12.783,54.037v80.337c0,11.456-4.432,22.227-12.48,30.327   c-8.049,8.102-18.749,12.562-30.131,12.562c-11.383,0-22.082-4.461-30.131-12.562c-8.049-8.101-12.481-18.871-12.481-30.327   v-80.337c0-19.739,4.7-39.402,12.722-53.933l0.798-3.894l3.363-16.407l0.026-0.131l0.038-0.128c0.125-0.425,1.33-4.195,5.371-5.661   l1.973-0.715l1.453,1.52l0.557,0.581l5.846,2.604L309.976,286.687z M351.257,119.843l-0.293-42.811c0,0,0.293-15.143-6.741-27.295   c0,0-11.314-23.885-38.714-24.114c-27.4,0.229-38.714,24.114-38.714,24.114c-7.034,12.152-6.741,27.295-6.741,27.295l-0.293,42.811   c-0.293,10.095,0.879,11.123,0.879,11.123c7.914,6.543,19.931,5.141,19.931,5.141c9.965-13.18,24.913-12.245,24.913-12.245h0.051   c0,0,14.948-0.935,24.913,12.245c0,0,12.017,1.402,19.931-5.141C350.378,130.966,351.55,129.938,351.257,119.843z" stroke-width="0.6667" stroke="#939598" stroke-linejoin="round"/></path></g><g id="DECKS_PUBLIC"><path fill="#FFFFFF" d="M310.224,286.866v19.356h-2.419   c0-0.002,0.001-0.004,0.001-0.005c0-1.472-1.186-2.664-2.647-2.664c-1.461,0-2.645,1.193-2.645,2.664c0,0.001,0,0.003,0,0.005   h-7.876v-19c-2.281,0-4.126,0.468-7.051,0.831l-1.682-1.758c-2.613,0.947-3.364,3.516-3.364,3.516l-3.363,16.406h1.762   c-9.256,13.886-15.216,35.082-15.216,57.169v80.337c0,21.89,17.631,39.635,39.379,39.635c21.747,0,39.378-17.745,39.378-39.635   v-80.337c0-22.089-5.961-43.283-15.219-57.169h1.724l-3.363-16.406c0,0-0.749-2.568-3.363-3.516l-1.681,1.758   C319.673,287.468,312.505,286.866,310.224,286.866z" stroke-width="0.6667" stroke="#939598" stroke-linejoin="round"/><path fill="#FFFFFF" d="M310.168,285.665v19.356h-2.42   c0-0.002,0.001-0.003,0.001-0.006c0-1.471-1.185-2.663-2.647-2.663c-1.462,0-2.646,1.192-2.646,2.663c0,0.003,0,0.004,0,0.006   h-7.877v-19.001c-2.281,0-4.126,0.469-7.051,0.832l-1.682-1.757c-2.614,0.948-3.363,3.515-3.363,3.515l-3.364,16.405h1.764   c-9.257,13.887-15.217,35.082-15.217,57.17v80.338c0,21.889,17.631,39.633,39.379,39.633c21.748,0,39.377-17.744,39.377-39.633   v-80.338c0-22.088-5.96-43.284-15.218-57.17h1.725l-3.363-16.405c0,0-0.749-2.567-3.363-3.515l-1.682,1.757   C319.617,286.27,312.449,285.665,310.168,285.665z" stroke-width="0.6667" stroke="#939598" stroke-linejoin="round"/><g><g><rect x="287.374" y="319.692" fill="#FFFFFF" width="3.852" height="0.893" stroke="#939598" stroke-width="0.3333"/></g></g><g><g><rect x="287.374" y="318.798" fill="#FFFFFF" width="3.852" height="0.894" stroke="#939598" stroke-width="0.3333"/></g></g><g><g><rect x="287.374" y="317.906" fill="#FFFFFF" width="3.852" height="0.892" stroke="#939598" stroke-width="0.3333"/></g></g><g><g><rect x="291.225" y="319.692" fill="#FFFFFF" width="2.893" height="0.893" stroke="#939598" stroke-width="0.3333"/></g></g><g><g><rect x="291.225" y="318.798" fill="#FFFFFF" width="2.893" height="0.894" stroke="#939598" stroke-width="0.3333"/></g></g><g><g><rect x="291.225" y="317.906" fill="#FFFFFF" width="2.893" height="0.892" stroke="#939598" stroke-width="0.3333"/></g></g><g><g><rect x="287.374" y="317.012" fill="#FFFFFF" width="3.852" height="0.894" stroke="#939598" stroke-width="0.3333"/></g></g><g><g><rect x="291.225" y="317.012" fill="#FFFFFF" width="2.893" height="0.894" stroke="#939598" stroke-width="0.3333"/></g></g><g><g><rect x="287.374" y="316.119" fill="#FFFFFF" width="3.852" height="0.893" stroke="#939598" stroke-width="0.3333"/></g></g><g><g><rect x="291.225" y="316.119" fill="#FFFFFF" width="2.893" height="0.893" stroke="#939598" stroke-width="0.3333"/></g></g><g><g><rect x="287.374" y="315.226" fill="#FFFFFF" width="3.852" height="0.893" stroke="#939598" stroke-width="0.3333"/></g></g><g><g><rect x="291.225" y="315.226" fill="#FFFFFF" width="2.893" height="0.893" stroke="#939598" stroke-width="0.3333"/></g></g><g><g><rect x="284.48" y="319.692" fill="#FFFFFF" width="2.894" height="0.893" stroke="#939598" stroke-width="0.3333"/></g></g><g><g><rect x="284.48" y="318.798" fill="#FFFFFF" width="2.894" height="0.894" stroke="#939598" stroke-width="0.3333"/></g></g><g><g><rect x="284.48" y="317.906" fill="#FFFFFF" width="2.894" height="0.892" stroke="#939598" stroke-width="0.3333"/></g></g><g><g><rect x="284.48" y="317.012" fill="#FFFFFF" width="2.894" height="0.894" stroke="#939598" stroke-width="0.3333"/></g></g><g><g><rect x="284.48" y="316.119" fill="#FFFFFF" width="2.894" height="0.893" stroke="#939598" stroke-width="0.3333"/></g></g><g><g><rect x="284.48" y="315.226" fill="#FFFFFF" width="2.894" height="0.893" stroke="#939598" stroke-width="0.3333"/></g></g><g><rect x="284.48" y="320.586" fill="#FFFFFF" width="9.638" height="2.633" stroke="#939598" stroke-width="0.3333"/></g><rect x="282.604" y="290.657" fill="#FFFFFF" width="4.593" height="13.437" stroke="#939598" stroke-width="0.3333"/><path fill="none" d="M294.675,304.804h2.535c1.134,0,2.052-1.274,2.052-2.847l0,0   c0-1.571-0.918-2.846-2.052-2.846h-2.535V304.804z" stroke-width="0.3333" stroke="#939598"/><path fill="none" d="M294.675,297.447h2.535c1.134,0,2.052-1.274,2.052-2.846l0,0   c0-1.573-0.918-2.848-2.052-2.848h-2.535V297.447z" stroke-width="0.3333" stroke="#939598"/><path fill="none" d="M294.675,297.447h2.535c1.134,0,2.052-1.274,2.052-2.846l0,0   c0-1.573-0.918-2.848-2.052-2.848h-2.535V297.447z" stroke-width="0.3333" stroke="#939598"/><g><g><rect x="321.284" y="319.659" fill="#FFFFFF" width="2.588" height="0.893" stroke="#939598" stroke-width="0.3333"/></g></g><g><g><rect x="321.284" y="318.766" fill="#FFFFFF" width="2.588" height="0.893" stroke="#939598" stroke-width="0.3333"/></g></g><g><g><rect x="321.284" y="317.872" fill="#FFFFFF" width="2.588" height="0.893" stroke="#939598" stroke-width="0.3333"/></g></g><g><g><rect x="321.284" y="316.979" fill="#FFFFFF" width="2.588" height="0.894" stroke="#939598" stroke-width="0.3333"/></g></g><g><g><rect x="323.872" y="319.659" fill="#FFFFFF" width="2.586" height="0.893" stroke="#939598" stroke-width="0.3333"/></g></g><g><g><rect x="323.872" y="318.766" fill="#FFFFFF" width="2.586" height="0.893" stroke="#939598" stroke-width="0.3333"/></g></g><g><g><rect x="323.872" y="317.872" fill="#FFFFFF" width="2.586" height="0.893" stroke="#939598" stroke-width="0.3333"/></g></g><g><g><rect x="323.872" y="316.979" fill="#FFFFFF" width="2.586" height="0.894" stroke="#939598" stroke-width="0.3333"/></g></g><g><g><rect x="321.284" y="316.084" fill="#FFFFFF" width="2.588" height="0.895" stroke="#939598" stroke-width="0.3333"/></g></g><g><g><rect x="321.284" y="315.191" fill="#FFFFFF" width="2.588" height="0.893" stroke="#939598" stroke-width="0.3333"/></g></g><g><g><rect x="323.872" y="316.084" fill="#FFFFFF" width="2.586" height="0.895" stroke="#939598" stroke-width="0.3333"/></g></g><g><g><rect x="323.872" y="315.191" fill="#FFFFFF" width="2.586" height="0.893" stroke="#939598" stroke-width="0.3333"/></g></g><g><rect x="321.284" y="320.552" fill="#FFFFFF" width="5.174" height="2.655" stroke="#939598" stroke-width="0.3333"/></g><path fill="none" d="M282.54,289.811l-3.363,16.406h1.762   c-5.558,8.337-9.912,19.32-12.518,31.538c2.521,8.521,7.877,15.812,14.984,20.744c5.798-2.757,13.385-4.432,21.696-4.432   c8.31,0,15.898,1.675,21.695,4.432c7.107-4.932,12.464-12.222,14.985-20.743c-2.606-12.219-6.962-23.202-12.521-31.539h1.724   l-3.363-16.406c0,0-0.749-2.568-3.363-3.516l-1.681,1.758c-2.905-0.584-10.073-1.187-12.354-1.187v19.356h-2.419   c0-0.002,0.001-0.004,0.001-0.005c0-1.472-1.186-2.664-2.647-2.664c-1.461,0-2.645,1.193-2.645,2.664c0,0.001,0,0.003,0,0.005   h-7.876v-19c-2.281,0-4.126,0.468-7.051,0.831l-1.682-1.758C283.29,287.242,282.54,289.811,282.54,289.811z" stroke-width="0.3333" stroke="#939598" stroke-linejoin="round"/><g><path fill="#FFFFFF" d="M286.715,357.134v-8.407h-8.184v5.75    c1.51,1.469,3.138,2.816,4.875,4.02C284.447,358.002,285.565,357.556,286.715,357.134z" stroke-width="0.3333" stroke="#939598"/></g><g><path fill="#FFFFFF" d="M286.715,348.728v8.407c2.992-1.098,6.322-1.94,9.904-2.457v-5.95    H286.715z" stroke-width="0.3333" stroke="#939598"/></g><path fill="#FFFFFF" d="M308.671,416.824v-7.357c1.875,0.196,9.243,0.933,10.478,1.497   c0.519,0.911,1.815,2.808,1.366,4.277L308.671,416.824z" stroke-width="0.3333" stroke="#939598"/><path fill="#FFFFFF" d="M305.102,416.334c-6.394,0-12.102-1.047-15.866-2.689   c-0.933,1.949-1.457,4.273-1.457,7.02c0,7.491,3.443,24.934,17.388,24.934c14.693,0,17.388-20.155,17.388-24.934   c0-2.77-0.536-5.109-1.482-7.069C317.31,415.266,311.555,416.334,305.102,416.334z" stroke-width="0.3333" stroke="#939598"/><path fill="#FFFFFF" d="M292.128,410.731c-0.422,0.082-0.756,0.146-0.89,0.166   c-0.119,0.016-0.232,0.073-0.317,0.159c-0.431,0.435-1.176,2.34-1.475,3.139l1.05,0.399c0.381-1.015,0.889-2.206,1.138-2.619   c0.173-0.031,0.403-0.075,0.707-0.134c1.907-0.368,6.373-1.232,9.475-1.232v-1.13C298.608,409.478,294.067,410.356,292.128,410.731   z" stroke-width="0.3333" stroke="#939598"/><g><path fill="#FFFFFF" d="M296.059,426.784v-11.204c-2.644-0.465-4.971-1.127-6.823-1.935    c-0.933,1.949-1.457,4.273-1.457,7.02c0,2.622,0.425,6.464,1.572,10.351h6.708V426.784z" stroke-width="0.3333" stroke="#939598"/></g><g><path fill="#FFFFFF" d="M303.95,426.784v-10.473c-2.818-0.057-5.489-0.307-7.891-0.73    v11.204H303.95z" stroke-width="0.3333" stroke="#939598"/></g><g><path fill="#FFFFFF" d="M303.998,416.312v10.472h7.668v-10.841    c-2.063,0.251-4.266,0.391-6.564,0.391C304.728,416.334,304.365,416.319,303.998,416.312z" stroke-width="0.3333" stroke="#939598"/></g><g><path fill="#FFFFFF" d="M303.998,426.784v-10.472c-0.017-0.001-0.033-0.001-0.048-0.001    v10.473H303.998z" stroke-width="0.3333" stroke="#939598"/></g><rect x="275.62" y="369.885" fill="#FFFFFF" width="51.745" height="27.864" stroke="#939598" stroke-width="0.3333"/><path fill="#FFFFFF" d="M305.425,383.817c0-2.186-1.761-3.96-3.933-3.96   c-2.173,0-3.934,1.774-3.934,3.96c0,2.188,1.761,3.959,3.934,3.959C303.664,387.776,305.425,386.005,305.425,383.817z" stroke-width="0.3333" stroke="#939598"/><path fill="#FFFFFF" d="M286.036,379.866l-10.416-2.4v12.709l10.491-2.399   c2.173,0,3.933-1.771,3.933-3.959c0-2.186-1.76-3.96-3.933-3.96C286.084,379.858,286.06,379.866,286.036,379.866z" stroke-width="0.3333" stroke="#939598"/><line fill="#FFFFFF" x1="286.11" x2="286.11" y1="387.776" y2="379.858" stroke="#939598" stroke-width="0.3333"/><path fill="#FFFFFF" d="M316.906,379.866l10.415-2.4v12.709l-10.491-2.399   c-2.171,0-3.932-1.771-3.932-3.959c0-2.186,1.761-3.96,3.932-3.96C316.856,379.858,316.88,379.866,316.906,379.866z" stroke-width="0.3333" stroke="#939598"/><line fill="#FFFFFF" x1="316.83" x2="316.83" y1="387.776" y2="379.858" stroke="#939598" stroke-width="0.3333"/><line fill="#FFFFFF" x1="301.492" x2="301.492" y1="397.749" y2="369.951" stroke="#939598" stroke-width="0.3333"/><g><path fill="#FFFFFF" d="M332.222,358.198c2.49-2.156,4.702-4.628,6.572-7.357    l-2.313-2.024c-1.849,2.666-4.025,5.084-6.472,7.196L332.222,358.198z" stroke-width="0.3333" stroke="#939598"/></g><g><line fill="none" x1="332.915" x2="330.625" y1="357.575" y2="355.524" stroke="#939598" stroke-width="0.3333"/></g><g><line fill="none" x1="333.539" x2="331.25" y1="356.92" y2="354.87" stroke="#939598" stroke-width="0.3333"/></g><g><line fill="none" x1="334.17" x2="331.881" y1="356.296" y2="354.249" stroke="#939598" stroke-width="0.3333"/></g><g><line fill="none" x1="334.799" x2="332.509" y1="355.665" y2="353.615" stroke="#939598" stroke-width="0.3333"/></g><g><line fill="none" x1="336.558" x2="334.269" y1="353.685" y2="351.635" stroke="#939598" stroke-width="0.3333"/></g><g><line fill="none" x1="337.184" x2="334.894" y1="353.03" y2="350.979" stroke="#939598" stroke-width="0.3333"/></g><g><line fill="none" x1="337.724" x2="335.435" y1="352.317" y2="350.267" stroke="#939598" stroke-width="0.3333"/></g><g><line fill="none" x1="338.261" x2="335.972" y1="351.593" y2="349.544" stroke="#939598" stroke-width="0.3333"/></g><path fill="none" d="M294.636,287.222c1.681-0.147,11.965-0.565,15.587-0.356" stroke-width="0.3333" stroke="#939598"/><g><g><path fill="#FFFFFF" d="M340.302,341.859c1.254,6.97,1.933,14.235,1.933,21.527     l1.171,82.994c0,9.983-5.035,16.713-12.046,23.772c-7.014,7.059-16.339,10.947-26.257,10.947     c-9.918,0-19.244-3.889-26.257-10.947c-7.013-7.059-12.086-12.834-12.086-22.818l1.21-83.947c0-7.292,0.679-14.558,1.933-21.527     c-0.565-1.331-1.065-2.699-1.48-4.104c-1.732,8.132-2.698,16.805-2.698,25.631v80.337c0,21.89,17.631,39.635,39.379,39.635     c21.747,0,39.378-17.745,39.378-39.635v-80.337c0-8.827-0.967-17.5-2.698-25.63C341.366,339.16,340.866,340.527,340.302,341.859z     " stroke-width="0.3333" stroke="#939598"/></g></g><g><g><path fill="#FFFFFF" d="M305.102,481.098c-0.802,0-1.598-0.035-2.392-0.086v2.266     c0.792,0.049,1.588,0.08,2.392,0.08c0.735,0,1.466-0.024,2.191-0.064v-2.268C306.566,481.07,305.835,481.098,305.102,481.098z" stroke-width="0.3333" stroke="#939598"/></g></g><g><g><path fill="#FFFFFF" d="M300.462,480.799v2.275c0.745,0.089,1.493,0.159,2.248,0.203     v-2.266C301.956,480.964,301.208,480.891,300.462,480.799z" stroke-width="0.3333" stroke="#939598"/></g></g><g><g><path fill="#FFFFFF" d="M298.215,480.452v2.29c0.742,0.132,1.491,0.243,2.247,0.333     v-2.275C299.708,480.705,298.959,480.59,298.215,480.452z" stroke-width="0.3333" stroke="#939598"/></g></g><g><g><path fill="#FFFFFF" d="M295.968,479.961v2.315c0.742,0.177,1.491,0.331,2.247,0.466     v-2.29C297.46,480.311,296.71,480.152,295.968,479.961z" stroke-width="0.3333" stroke="#939598"/></g></g><g><g><path fill="#FFFFFF" d="M293.721,479.308v2.361c0.74,0.225,1.49,0.425,2.247,0.607     v-2.315C295.21,479.771,294.463,479.547,293.721,479.308z" stroke-width="0.3333" stroke="#939598"/></g></g><g><g><path fill="#FFFFFF" d="M291.474,478.5v2.418c0.739,0.274,1.489,0.521,2.248,0.752     v-2.361C292.962,479.063,292.213,478.795,291.474,478.5z" stroke-width="0.3333" stroke="#939598"/></g></g><g><g><path fill="#FFFFFF" d="M289.227,477.531v2.463c0.738,0.33,1.485,0.642,2.246,0.924     V478.5C290.715,478.2,289.964,477.883,289.227,477.531z" stroke-width="0.3333" stroke="#939598"/></g></g><g><g><path fill="#FFFFFF" d="M286.979,476.352v2.555c0.735,0.387,1.484,0.748,2.248,1.087     v-2.463C288.463,477.167,287.717,476.767,286.979,476.352z" stroke-width="0.3333" stroke="#939598"/></g></g><g><g><path fill="#FFFFFF" d="M284.731,474.979v2.669c0.732,0.446,1.484,0.86,2.248,1.259     v-2.555C286.215,475.92,285.465,475.466,284.731,474.979z" stroke-width="0.3333" stroke="#939598"/></g></g><g><g><path fill="#FFFFFF" d="M282.484,473.36v2.799c0.734,0.519,1.48,1.021,2.248,1.489     v-2.669C283.965,474.47,283.216,473.926,282.484,473.36z" stroke-width="0.3333" stroke="#939598"/></g></g><g><g><path fill="#FFFFFF" d="M280.236,471.479v2.974c0.728,0.597,1.479,1.162,2.248,1.706     v-2.799C281.715,472.762,280.962,472.141,280.236,471.479z" stroke-width="0.3333" stroke="#939598"/></g></g><g><g><path fill="#FFFFFF" d="M278.845,470.151c-0.29-0.293-0.572-0.58-0.855-0.868v3.169     c0.724,0.693,1.471,1.365,2.247,2.001v-2.974C279.765,471.049,279.299,470.608,278.845,470.151z" stroke-width="0.3333" stroke="#939598"/></g></g><g><g><path fill="#FFFFFF" d="M275.742,466.941v3.186c0.717,0.806,1.468,1.58,2.248,2.324     v-3.169C277.211,468.49,276.462,467.713,275.742,466.941z" stroke-width="0.3333" stroke="#939598"/></g></g><g><g><path fill="#FFFFFF" d="M273.495,464.41v2.955c0.707,0.955,1.46,1.875,2.247,2.763     v-3.186C274.953,466.095,274.202,465.254,273.495,464.41z" stroke-width="0.3333" stroke="#939598"/></g></g><g><g><path fill="#FFFFFF" d="M271.247,461.488v2.478c0.694,1.173,1.44,2.31,2.248,3.399     v-2.955C272.686,463.446,271.933,462.477,271.247,461.488z" stroke-width="0.3333" stroke="#939598"/></g></g><g><g><path fill="#FFFFFF" d="M269,457.632v1.924c0.66,1.52,1.411,2.993,2.247,4.409v-2.478     C270.387,460.248,269.634,458.967,269,457.632z" stroke-width="0.3333" stroke="#939598"/></g></g><g><g><path fill="#FFFFFF" d="M338.756,461.401v2.91c0.837-1.382,1.582-2.824,2.247-4.311v-2.6     C340.364,458.78,339.609,460.107,338.756,461.401z" stroke-width="0.3333" stroke="#939598"/></g></g><g><g><path fill="#FFFFFF" d="M336.51,464.47v3.156c0.8-1.065,1.553-2.17,2.246-3.315v-2.91     C338.067,462.442,337.317,463.462,336.51,464.47z" stroke-width="0.3333" stroke="#939598"/></g></g><g><g><path fill="#FFFFFF" d="M334.262,467.096v3.264c0.79-0.876,1.537-1.79,2.248-2.733     v-3.156C335.8,465.354,335.049,466.227,334.262,467.096z" stroke-width="0.3333" stroke="#939598"/></g></g><g><g><path fill="#FFFFFF" d="M332.014,469.479v3.166c0.777-0.735,1.53-1.492,2.247-2.285     v-3.264C333.54,467.893,332.791,468.686,332.014,469.479z" stroke-width="0.3333" stroke="#939598"/></g></g><g><g><path fill="#FFFFFF" d="M331.359,470.151c-0.518,0.521-1.051,1.017-1.592,1.504v2.955     c0.773-0.627,1.523-1.283,2.248-1.965v-3.166C331.796,469.703,331.581,469.925,331.359,470.151z" stroke-width="0.3333" stroke="#939598"/></g></g><g><g><path fill="#FFFFFF" d="M327.519,473.515v2.786c0.77-0.536,1.52-1.1,2.248-1.691v-2.955     C329.039,472.307,328.289,472.927,327.519,473.515z" stroke-width="0.3333" stroke="#939598"/></g></g><g><g><path fill="#FFFFFF" d="M325.272,475.107v2.657c0.767-0.462,1.515-0.951,2.247-1.463     v-2.786C326.788,474.076,326.038,474.606,325.272,475.107z" stroke-width="0.3333" stroke="#939598"/></g></g><g><g><path fill="#FFFFFF" d="M323.025,476.464v2.546c0.763-0.393,1.514-0.805,2.247-1.246     v-2.657C324.538,475.587,323.789,476.04,323.025,476.464z" stroke-width="0.3333" stroke="#939598"/></g></g><g><g><path fill="#FFFFFF" d="M320.777,477.621v2.464c0.763-0.334,1.51-0.693,2.248-1.074     v-2.546C322.287,476.875,321.54,477.264,320.777,477.621z" stroke-width="0.3333" stroke="#939598"/></g></g><g><g><path fill="#FFFFFF" d="M318.53,478.577v2.414c0.761-0.277,1.509-0.584,2.247-0.906     v-2.464C320.04,477.965,319.288,478.282,318.53,478.577z" stroke-width="0.3333" stroke="#939598"/></g></g><g><g><path fill="#FFFFFF" d="M316.282,479.374v2.354c0.758-0.225,1.51-0.467,2.248-0.736     v-2.414C317.79,478.867,317.042,479.133,316.282,479.374z" stroke-width="0.3333" stroke="#939598"/></g></g><g><g><path fill="#FFFFFF" d="M314.035,480.012v2.309c0.757-0.177,1.507-0.373,2.247-0.594     v-2.354C315.54,479.61,314.792,479.824,314.035,480.012z" stroke-width="0.3333" stroke="#939598"/></g></g><g><g><path fill="#FFFFFF" d="M311.787,480.487v2.291c0.757-0.131,1.506-0.284,2.248-0.457     v-2.309C313.292,480.195,312.542,480.349,311.787,480.487z" stroke-width="0.3333" stroke="#939598"/></g></g><g><g><path fill="#FFFFFF" d="M309.54,480.824v2.276c0.756-0.084,1.504-0.195,2.247-0.322     v-2.291C311.043,480.622,310.295,480.733,309.54,480.824z" stroke-width="0.3333" stroke="#939598"/></g></g><g><g><path fill="#FFFFFF" d="M307.293,481.026v2.268c0.755-0.042,1.503-0.109,2.247-0.193     v-2.276C308.795,480.913,308.047,480.983,307.293,481.026z" stroke-width="0.3333" stroke="#939598"/></g></g><g><g><path fill="#FFFFFF" d="M266.82,442.98h-1.097v0.743c0,0.51,0.02,1.015,0.038,1.52h1.027     L266.82,442.98z" stroke-width="0.3333" stroke="#939598"/></g></g><g><g><polygon fill="#FFFFFF" stroke-width="0.3333" points="266.854,440.719 265.723,440.719 265.723,442.98      266.82,442.98    " stroke="#939598"/></g></g><g><g><polygon fill="#FFFFFF" stroke-width="0.3333" points="266.886,438.456 265.723,438.456 265.723,440.719      266.854,440.719    " stroke="#939598"/></g></g><g><g><polygon fill="#FFFFFF" stroke-width="0.3333" points="266.919,436.194 265.723,436.194 265.723,438.456      266.886,438.456    " stroke="#939598"/></g></g><g><g><polygon fill="#FFFFFF" stroke-width="0.3333" points="266.951,433.932 265.723,433.932 265.723,436.194      266.919,436.194    " stroke="#939598"/></g></g><g><g><polygon fill="#FFFFFF" stroke-width="0.3333" points="266.983,431.67 265.723,431.67 265.723,433.932      266.951,433.932    " stroke="#939598"/></g></g><g><g><polygon fill="#FFFFFF" stroke-width="0.3333" points="267.017,429.409 265.723,429.409 265.723,431.67      266.983,431.67    " stroke="#939598"/></g></g><g><g><polygon fill="#FFFFFF" stroke-width="0.3333" points="267.049,427.147 265.723,427.147 265.723,429.409      267.017,429.409    " stroke="#939598"/></g></g><g><g><polygon fill="#FFFFFF" stroke-width="0.3333" points="267.082,424.885 265.723,424.885 265.723,427.147      267.049,427.147    " stroke="#939598"/></g></g><g><g><polygon fill="#FFFFFF" stroke-width="0.3333" points="267.115,422.622 265.723,422.622 265.723,424.885      267.082,424.885    " stroke="#939598"/></g></g><g><g><polygon fill="#FFFFFF" stroke-width="0.3333" points="267.147,420.361 265.723,420.361 265.723,422.622      267.115,422.622    " stroke="#939598"/></g></g><g><g><polygon fill="#FFFFFF" stroke-width="0.3333" points="267.181,418.099 265.723,418.099 265.723,420.361      267.147,420.361    " stroke="#939598"/></g></g><g><g><polygon fill="#FFFFFF" stroke-width="0.3333" points="267.213,415.836 265.723,415.836 265.723,418.099      267.181,418.099    " stroke="#939598"/></g></g><g><g><polygon fill="#FFFFFF" stroke-width="0.3333" points="267.245,413.575 265.723,413.575 265.723,415.836      267.213,415.836    " stroke="#939598"/></g></g><g><g><polygon fill="#FFFFFF" stroke-width="0.3333" points="267.277,411.311 265.723,411.311 265.723,413.575      267.245,413.575    " stroke="#939598"/></g></g><g><g><polygon fill="#FFFFFF" stroke-width="0.3333" points="267.31,409.05 265.723,409.05 265.723,411.311      267.277,411.311    " stroke="#939598"/></g></g><g><g><polygon fill="#FFFFFF" stroke-width="0.3333" points="267.344,406.788 265.723,406.788 265.723,409.05      267.31,409.05    " stroke="#939598"/></g></g><g><g><polygon fill="#FFFFFF" stroke-width="0.3333" points="267.375,404.526 265.723,404.526 265.723,406.788      267.344,406.788    " stroke="#939598"/></g></g><g><g><polygon fill="#FFFFFF" stroke-width="0.3333" points="267.409,402.264 265.723,402.264 265.723,404.526      267.375,404.526    " stroke="#939598"/></g></g><g><g><polygon fill="#FFFFFF" stroke-width="0.3333" points="267.441,400.002 265.723,400.002 265.723,402.264      267.409,402.264    " stroke="#939598"/></g></g><g><g><polygon fill="#FFFFFF" stroke-width="0.3333" points="267.474,397.741 265.723,397.741 265.723,400.002      267.441,400.002    " stroke="#939598"/></g></g><g><g><polygon fill="#FFFFFF" stroke-width="0.3333" points="267.506,395.478 265.723,395.478 265.723,397.741      267.474,397.741    " stroke="#939598"/></g></g><g><g><polygon fill="#FFFFFF" stroke-width="0.3333" points="267.539,393.216 265.723,393.216 265.723,395.478      267.506,395.478    " stroke="#939598"/></g></g><g><g><polygon fill="#FFFFFF" stroke-width="0.3333" points="267.571,390.954 265.723,390.954 265.723,393.216      267.539,393.216    " stroke="#939598"/></g></g><g><g><polygon fill="#FFFFFF" stroke-width="0.3333" points="267.604,388.693 265.723,388.693 265.723,390.954      267.571,390.954    " stroke="#939598"/></g></g><g><g><polygon fill="#FFFFFF" stroke-width="0.3333" points="267.636,386.43 265.723,386.43 265.723,388.693      267.604,388.693    " stroke="#939598"/></g></g><g><g><polygon fill="#FFFFFF" stroke-width="0.3333" points="267.67,384.169 265.723,384.169 265.723,386.43      267.636,386.43    " stroke="#939598"/></g></g><g><g><polygon fill="#FFFFFF" stroke-width="0.3333" points="267.701,381.906 265.723,381.906 265.723,384.169      267.67,384.169    " stroke="#939598"/></g></g><g><g><polygon fill="#FFFFFF" stroke-width="0.3333" points="267.735,379.645 265.723,379.645 265.723,381.906      267.701,381.906    " stroke="#939598"/></g></g><g><g><polygon fill="#FFFFFF" stroke-width="0.3333" points="267.768,377.382 265.723,377.382 265.723,379.645      267.735,379.645    " stroke="#939598"/></g></g><g><g><polygon fill="#FFFFFF" stroke-width="0.3333" points="267.8,375.121 265.723,375.121 265.723,377.382      267.768,377.382    " stroke="#939598"/></g></g><g><g><polygon fill="#FFFFFF" stroke-width="0.3333" points="267.833,372.858 265.723,372.858 265.723,375.121      267.8,375.121    " stroke="#939598"/></g></g><g><g><polygon fill="#FFFFFF" stroke-width="0.3333" points="267.865,370.597 265.723,370.597 265.723,372.858      267.833,372.858    " stroke="#939598"/></g></g><g><g><polygon fill="#FFFFFF" stroke-width="0.3333" points="267.898,368.335 265.723,368.335 265.723,370.597      267.865,370.597    " stroke="#939598"/></g></g><g><g><polygon fill="#FFFFFF" stroke-width="0.3333" points="267.931,366.072 265.723,366.072 265.723,368.335      267.898,368.335    " stroke="#939598"/></g></g><g><g><polygon fill="#FFFFFF" stroke-width="0.3333" points="267.963,363.811 265.723,363.811 265.723,366.072      267.931,366.072    " stroke="#939598"/></g></g><g><g><path fill="#FFFFFF" d="M267.969,363.386c0-0.614,0.012-1.225,0.022-1.838h-2.241     c-0.01,0.613-0.026,1.224-0.026,1.838v0.425h2.24L267.969,363.386z" stroke-width="0.3333" stroke="#939598"/></g></g><g><g><path fill="#FFFFFF" d="M268.047,359.286H265.8c-0.026,0.753-0.042,1.506-0.051,2.261     h2.241C268.002,360.794,268.022,360.04,268.047,359.286z" stroke-width="0.3333" stroke="#939598"/></g></g><g><g><path fill="#FFFFFF" d="M268.147,357.023h-2.254c-0.04,0.752-0.067,1.507-0.093,2.263     h2.247C268.073,358.531,268.107,357.777,268.147,357.023z" stroke-width="0.3333" stroke="#939598"/></g></g><g><g><path fill="#FFFFFF" d="M268.286,354.761h-2.249c-0.052,0.753-0.106,1.506-0.145,2.262     h2.254C268.187,356.269,268.231,355.515,268.286,354.761z" stroke-width="0.3333" stroke="#939598"/></g></g><g><g><path fill="#FFFFFF" d="M268.465,352.501h-2.248c-0.067,0.751-0.126,1.504-0.18,2.26     h2.249C268.34,354.006,268.397,353.252,268.465,352.501z" stroke-width="0.3333" stroke="#939598"/></g></g><g><g><path fill="#FFFFFF" d="M268.695,350.238h-2.264c-0.082,0.751-0.146,1.507-0.214,2.263     h2.248C268.533,351.744,268.613,350.991,268.695,350.238z" stroke-width="0.3333" stroke="#939598"/></g></g><g><g><path fill="#FFFFFF" d="M268.967,347.976h-2.264c-0.094,0.753-0.191,1.504-0.271,2.262     h2.264C268.779,349.482,268.87,348.729,268.967,347.976z" stroke-width="0.3333" stroke="#939598"/></g></g><g><g><path fill="#FFFFFF" d="M269.279,345.715h-2.269c-0.109,0.75-0.212,1.503-0.307,2.261     h2.264C269.063,347.219,269.168,346.466,269.279,345.715z" stroke-width="0.3333" stroke="#939598"/></g></g><g><g><path fill="#FFFFFF" d="M269.634,343.452h-2.28c-0.121,0.751-0.233,1.505-0.344,2.264     h2.269C269.391,344.957,269.508,344.203,269.634,343.452z" stroke-width="0.3333" stroke="#939598"/></g></g><g><g><path fill="#FFFFFF" d="M269.902,341.858c-0.094-0.22-0.174-0.447-0.263-0.668h-1.894     c-0.136,0.75-0.266,1.505-0.392,2.262h2.28C269.72,342.921,269.806,342.387,269.902,341.858z" stroke-width="0.3333" stroke="#939598"/></g></g><g><g><path fill="#FFFFFF" d="M343.389,445.243h1.053c0.018-0.505,0.039-1.009,0.039-1.52     v-0.743h-1.123L343.389,445.243z" stroke-width="0.3333" stroke="#939598"/></g></g><g><g><polygon fill="#FFFFFF" stroke-width="0.3333" points="343.357,442.98 344.48,442.98 344.48,440.719      343.325,440.719    " stroke="#939598"/></g></g><g><g><polygon fill="#FFFFFF" stroke-width="0.3333" points="343.325,440.719 344.48,440.719 344.48,438.456      343.293,438.456    " stroke="#939598"/></g></g><g><g><polygon fill="#FFFFFF" stroke-width="0.3333" points="343.293,438.456 344.48,438.456 344.48,436.194      343.262,436.194    " stroke="#939598"/></g></g><g><g><polygon fill="#FFFFFF" stroke-width="0.3333" points="343.262,436.194 344.48,436.194 344.48,433.932      343.229,433.932    " stroke="#939598"/></g></g><g><g><polygon fill="#FFFFFF" stroke-width="0.3333" points="343.229,433.932 344.48,433.932 344.48,431.67      343.197,431.67    " stroke="#939598"/></g></g><g><g><polygon fill="#FFFFFF" stroke-width="0.3333" points="343.197,431.67 344.48,431.67 344.48,429.409      343.167,429.409    " stroke="#939598"/></g></g><g><g><polygon fill="#FFFFFF" stroke-width="0.3333" points="343.167,429.409 344.48,429.409 344.48,427.147      343.134,427.147    " stroke="#939598"/></g></g><g><g><polygon fill="#FFFFFF" stroke-width="0.3333" points="343.134,427.147 344.48,427.147 344.48,424.885      343.102,424.885    " stroke="#939598"/></g></g><g><g><polygon fill="#FFFFFF" stroke-width="0.3333" points="343.102,424.885 344.48,424.885 344.48,422.622      343.07,422.622    " stroke="#939598"/></g></g><g><g><polygon fill="#FFFFFF" stroke-width="0.3333" points="343.07,422.622 344.48,422.622 344.48,420.361      343.038,420.361    " stroke="#939598"/></g></g><g><g><polygon fill="#FFFFFF" stroke-width="0.3333" points="343.038,420.361 344.48,420.361 344.48,418.099      343.007,418.099    " stroke="#939598"/></g></g><g><g><polygon fill="#FFFFFF" stroke-width="0.3333" points="343.007,418.099 344.48,418.099 344.48,415.836      342.974,415.836    " stroke="#939598"/></g></g><g><g><polygon fill="#FFFFFF" stroke-width="0.3333" points="342.974,415.836 344.48,415.836 344.48,413.575      342.942,413.575    " stroke="#939598"/></g></g><g><g><polygon fill="#FFFFFF" stroke-width="0.3333" points="342.942,413.575 344.48,413.575 344.48,411.311      342.91,411.311    " stroke="#939598"/></g></g><g><g><polygon fill="#FFFFFF" stroke-width="0.3333" points="342.91,411.311 344.48,411.311 344.48,409.05      342.878,409.05    " stroke="#939598"/></g></g><g><g><polygon fill="#FFFFFF" stroke-width="0.3333" points="342.878,409.05 344.48,409.05 344.48,406.788      342.846,406.788    " stroke="#939598"/></g></g><g><g><polygon fill="#FFFFFF" stroke-width="0.3333" points="342.846,406.788 344.48,406.788 344.48,404.526      342.815,404.526    " stroke="#939598"/></g></g><g><g><polygon fill="#FFFFFF" stroke-width="0.3333" points="342.815,404.526 344.48,404.526 344.48,402.264      342.782,402.264    " stroke="#939598"/></g></g><g><g><polygon fill="#FFFFFF" stroke-width="0.3333" points="342.782,402.264 344.48,402.264 344.48,400.002      342.75,400.002    " stroke="#939598"/></g></g><g><g><polygon fill="#FFFFFF" stroke-width="0.3333" points="342.75,400.002 344.48,400.002 344.48,397.741      342.718,397.741    " stroke="#939598"/></g></g><g><g><polygon fill="#FFFFFF" stroke-width="0.3333" points="342.718,397.741 344.48,397.741 344.48,395.478      342.688,395.478    " stroke="#939598"/></g></g><g><g><polygon fill="#FFFFFF" stroke-width="0.3333" points="342.688,395.478 344.48,395.478 344.48,393.216      342.656,393.216    " stroke="#939598"/></g></g><g><g><polygon fill="#FFFFFF" stroke-width="0.3333" points="342.656,393.216 344.48,393.216 344.48,390.954      342.624,390.954    " stroke="#939598"/></g></g><g><g><polygon fill="#FFFFFF" stroke-width="0.3333" points="342.624,390.954 344.48,390.954 344.48,388.693      342.591,388.693    " stroke="#939598"/></g></g><g><g><polygon fill="#FFFFFF" stroke-width="0.3333" points="342.591,388.693 344.48,388.693 344.48,386.43      342.559,386.43    " stroke="#939598"/></g></g><g><g><polygon fill="#FFFFFF" stroke-width="0.3333" points="342.559,386.43 344.48,386.43 344.48,384.169      342.528,384.169    " stroke="#939598"/></g></g><g><g><polygon fill="#FFFFFF" stroke-width="0.3333" points="342.528,384.169 344.48,384.169 344.48,381.906      342.495,381.906    " stroke="#939598"/></g></g><g><g><polygon fill="#FFFFFF" stroke-width="0.3333" points="342.495,381.906 344.48,381.906 344.48,379.645      342.463,379.645    " stroke="#939598"/></g></g><g><g><polygon fill="#FFFFFF" stroke-width="0.3333" points="342.463,379.645 344.48,379.645 344.48,377.382      342.431,377.382    " stroke="#939598"/></g></g><g><g><polygon fill="#FFFFFF" stroke-width="0.3333" points="342.431,377.382 344.48,377.382 344.48,375.121      342.399,375.121    " stroke="#939598"/></g></g><g><g><polygon fill="#FFFFFF" stroke-width="0.3333" points="342.399,375.121 344.48,375.121 344.48,372.858      342.368,372.858    " stroke="#939598"/></g></g><g><g><polygon fill="#FFFFFF" stroke-width="0.3333" points="342.368,372.858 344.48,372.858 344.48,370.597      342.336,370.597    " stroke="#939598"/></g></g><g><g><polygon fill="#FFFFFF" stroke-width="0.3333" points="342.336,370.597 344.48,370.597 344.48,368.335      342.304,368.335    " stroke="#939598"/></g></g><g><g><polygon fill="#FFFFFF" stroke-width="0.3333" points="342.304,368.335 344.48,368.335 344.48,366.072      342.271,366.072    " stroke="#939598"/></g></g><g><g><polygon fill="#FFFFFF" stroke-width="0.3333" points="342.271,366.072 344.48,366.072 344.48,363.811      342.239,363.811    " stroke="#939598"/></g></g><g><g><path fill="#FFFFFF" d="M342.234,363.386l0.005,0.425h2.241v-0.425     c0-0.615-0.018-1.225-0.026-1.838h-2.242C342.222,362.16,342.234,362.772,342.234,363.386z" stroke-width="0.3333" stroke="#939598"/></g></g><g><g><path fill="#FFFFFF" d="M342.213,361.547h2.242c-0.011-0.755-0.027-1.509-0.051-2.261     h-2.247C342.182,360.04,342.202,360.794,342.213,361.547z" stroke-width="0.3333" stroke="#939598"/></g></g><g><g><path fill="#FFFFFF" d="M342.156,359.286h2.247c-0.026-0.756-0.053-1.511-0.093-2.263     h-2.254C342.097,357.777,342.129,358.531,342.156,359.286z" stroke-width="0.3333" stroke="#939598"/></g></g><g><g><path fill="#FFFFFF" d="M342.056,357.023h2.254c-0.039-0.756-0.092-1.509-0.146-2.262     h-2.247C341.971,355.515,342.016,356.269,342.056,357.023z" stroke-width="0.3333" stroke="#939598"/></g></g><g><g><path fill="#FFFFFF" d="M341.918,354.761h2.247c-0.053-0.756-0.113-1.509-0.18-2.26     h-2.247C341.806,353.252,341.863,354.006,341.918,354.761z" stroke-width="0.3333" stroke="#939598"/></g></g><g><g><path fill="#FFFFFF" d="M341.738,352.501h2.247c-0.066-0.756-0.132-1.512-0.214-2.263     h-2.263C341.591,350.991,341.67,351.744,341.738,352.501z" stroke-width="0.3333" stroke="#939598"/></g></g><g><g><path fill="#FFFFFF" d="M341.508,350.238h2.263c-0.081-0.758-0.176-1.509-0.27-2.262     h-2.264C341.334,348.729,341.424,349.482,341.508,350.238z" stroke-width="0.3333" stroke="#939598"/></g></g><g><g><path fill="#FFFFFF" d="M341.237,347.976h2.264c-0.096-0.758-0.2-1.511-0.309-2.261     h-2.268C341.034,346.466,341.14,347.219,341.237,347.976z" stroke-width="0.3333" stroke="#939598"/></g></g><g><g><path fill="#FFFFFF" d="M340.924,345.715h2.268c-0.109-0.758-0.222-1.513-0.343-2.264     h-2.278C340.696,344.203,340.813,344.957,340.924,345.715z" stroke-width="0.3333" stroke="#939598"/></g></g><g><g><path fill="#FFFFFF" d="M340.302,341.859c0.095,0.528,0.18,1.062,0.269,1.593h2.278     c-0.125-0.757-0.254-1.512-0.391-2.262h-1.893C340.474,341.413,340.395,341.639,340.302,341.859z" stroke-width="0.3333" stroke="#939598"/></g></g><g><path fill="#FFFFFF" d="M305.79,35.283    c0.023,0,0.045,0.002,0.068,0.002c0.023,0,0.045-0.002,0.068-0.002H305.79z" stroke-width="0.3562" stroke="#939598" stroke-linejoin="round"/></g><g><path fill="#FFFFFF" d="M348.569,121.68l-0.274-42.306    c0,0,0.274-12.945-6.294-23.332c0,0-10.563-20.417-36.144-20.613c-25.581,0.196-36.144,20.613-36.144,20.613    c-6.567,10.388-6.294,23.332-6.294,23.332l-0.274,42.306c-0.274,8.63,0.821,9.509,0.821,9.509    c7.388,5.593,17.466,3.253,17.466,3.253c9.304-11.267,24.401-10.467,24.401-10.467h0.047c0,0,15.098-0.799,24.401,10.467    c0,0,10.077,2.341,17.466-3.253C347.748,131.188,348.842,130.309,348.569,121.68z" stroke-width="0.3562" stroke="#939598" stroke-linejoin="round"/></g><path fill="#FFFFFF" d="M304.644,71.791c0,0,2.024-0.001,2.498-0.001   c3.074,0.001,14.946,2.045,20.388,32.594l-1.57,0.571c0,0,3.569,14.417-2.569,23.268l-0.856,0.856c0,0-5.827-4.496-16.701-4.52   c-10.859-0.024-16.462,4.52-16.462,4.52l-0.856-0.856c-6.138-8.85-2.569-23.268-2.569-23.268l-1.57-0.571   C289.749,74.213,301.396,71.846,304.644,71.791z" stroke-width="0.7125" stroke="#939598"/><g><polygon fill="#FFFFFF" stroke-width="0.4345" points="280.181,135.509 280.181,132.239 272.178,132.239     272.178,135.509 280.181,135.509   " stroke="#939598"/></g><g><line fill="#FFFFFF" x1="279.174" x2="279.174" y1="135.509" y2="132.239" stroke="#939598" stroke-width="0.4345"/></g><g><line fill="#FFFFFF" x1="278.167" x2="278.167" y1="135.509" y2="132.239" stroke="#939598" stroke-width="0.4345"/></g><g><line fill="#FFFFFF" x1="277.161" x2="277.161" y1="135.509" y2="132.239" stroke="#939598" stroke-width="0.4345"/></g><g><line fill="#FFFFFF" x1="276.154" x2="276.154" y1="135.509" y2="132.239" stroke="#939598" stroke-width="0.4345"/></g><g><line fill="#FFFFFF" x1="275.147" x2="275.147" y1="135.509" y2="132.239" stroke="#939598" stroke-width="0.4345"/></g><g><line fill="#FFFFFF" x1="274.14" x2="274.14" y1="135.509" y2="132.239" stroke="#939598" stroke-width="0.4345"/></g><g><line fill="#FFFFFF" x1="273.185" x2="273.185" y1="135.509" y2="132.239" stroke="#939598" stroke-width="0.4345"/></g><g><polygon fill="#FFFFFF" stroke-width="0.4345" points="339.642,135.509 339.642,132.239 331.639,132.239     331.639,135.509 339.642,135.509   " stroke="#939598"/></g><g><line fill="#FFFFFF" x1="338.636" x2="338.636" y1="135.509" y2="132.239" stroke="#939598" stroke-width="0.4345"/></g><g><line fill="#FFFFFF" x1="337.629" x2="337.629" y1="135.509" y2="132.239" stroke="#939598" stroke-width="0.4345"/></g><g><line fill="#FFFFFF" x1="336.623" x2="336.623" y1="135.509" y2="132.239" stroke="#939598" stroke-width="0.4345"/></g><g><line fill="#FFFFFF" x1="335.616" x2="335.616" y1="135.509" y2="132.239" stroke="#939598" stroke-width="0.4345"/></g><g><line fill="#FFFFFF" x1="334.608" x2="334.608" y1="135.509" y2="132.239" stroke="#939598" stroke-width="0.4345"/></g><g><line fill="#FFFFFF" x1="333.602" x2="333.602" y1="135.509" y2="132.239" stroke="#939598" stroke-width="0.4345"/></g><g><line fill="#FFFFFF" x1="332.646" x2="332.646" y1="135.509" y2="132.239" stroke="#939598" stroke-width="0.4345"/></g><g><g><g><rect x="316.37" y="463.602" fill="#FFFFFF" width="2.926" stroke-linejoin="round" height="0.873" stroke="#939598" stroke-width="0.25"/></g></g></g><g><g><g><rect x="316.37" y="462.731" fill="#FFFFFF" width="2.926" stroke-linejoin="round" height="0.871" stroke="#939598" stroke-width="0.25"/></g></g></g><g><g><g><rect x="316.37" y="461.86" fill="#FFFFFF" width="2.926" stroke-linejoin="round" height="0.871" stroke="#939598" stroke-width="0.25"/></g></g></g><g><g><g><rect x="316.37" y="460.989" fill="#FFFFFF" width="2.926" stroke-linejoin="round" height="0.871" stroke="#939598" stroke-width="0.25"/></g></g></g><g><g><g><rect x="316.37" y="460.116" fill="#FFFFFF" width="2.926" stroke-linejoin="round" height="0.873" stroke="#939598" stroke-width="0.25"/></g></g></g><g><g><g><rect x="316.37" y="459.245" fill="#FFFFFF" width="2.926" stroke-linejoin="round" height="0.871" stroke="#939598" stroke-width="0.25"/></g></g></g><g><g><g><rect x="316.37" y="465.346" fill="#FFFFFF" width="2.926" stroke-linejoin="round" height="0.871" stroke="#939598" stroke-width="0.25"/></g></g></g><g><g><g><rect x="316.37" y="464.475" fill="#FFFFFF" width="2.926" stroke-linejoin="round" height="0.871" stroke="#939598" stroke-width="0.25"/></g></g></g><g><g><g><rect x="291.537" y="463.602" fill="#FFFFFF" width="2.926" stroke-linejoin="round" height="0.873" stroke="#939598" stroke-width="0.25"/></g></g></g><g><g><g><rect x="291.537" y="462.731" fill="#FFFFFF" width="2.926" stroke-linejoin="round" height="0.871" stroke="#939598" stroke-width="0.25"/></g></g></g><g><g><g><rect x="291.537" y="461.86" fill="#FFFFFF" width="2.926" stroke-linejoin="round" height="0.871" stroke="#939598" stroke-width="0.25"/></g></g></g><g><g><g><rect x="291.537" y="460.989" fill="#FFFFFF" width="2.926" stroke-linejoin="round" height="0.871" stroke="#939598" stroke-width="0.25"/></g></g></g><g><g><g><rect x="291.537" y="460.116" fill="#FFFFFF" width="2.926" stroke-linejoin="round" height="0.873" stroke="#939598" stroke-width="0.25"/></g></g></g><g><g><g><rect x="291.537" y="459.245" fill="#FFFFFF" width="2.926" stroke-linejoin="round" height="0.871" stroke="#939598" stroke-width="0.25"/></g></g></g><g><g><g><rect x="291.537" y="465.346" fill="#FFFFFF" width="2.926" stroke-linejoin="round" height="0.871" stroke="#939598" stroke-width="0.25"/></g></g></g><g><g><g><rect x="291.537" y="464.475" fill="#FFFFFF" width="2.926" stroke-linejoin="round" height="0.871" stroke="#939598" stroke-width="0.25"/></g></g></g><g><path fill="#FFFFFF" d="M304.624,448.891c-0.117,0.117-0.251,0.221-0.406,0.297    c-0.749,0.357-1.631,0.014-1.973-0.77c-0.342-0.785-0.014-1.711,0.734-2.07c0.748-0.358,1.631-0.014,1.973,0.771    c0.122,0.279,0.156,0.576,0.117,0.861l2.791,0.355c0.099-0.809,0.003-1.65-0.344-2.447c-0.99-2.27-3.546-3.268-5.709-2.228    c-2.164,1.035-3.116,3.717-2.126,5.986c0.99,2.269,3.547,3.268,5.709,2.23c0.651-0.312,1.176-0.785,1.589-1.338L304.624,448.891z" stroke-width="0.3292" stroke="#939598"/></g><g><line fill="#FFFFFF" x1="304.265" x2="305.546" y1="449.141" y2="451.777" stroke="#939598" stroke-width="0.3292"/></g><g><line fill="#FFFFFF" x1="303.65" x2="303.751" y1="449.318" y2="452.264" stroke="#939598" stroke-width="0.3292"/></g><g><line fill="#FFFFFF" x1="302.991" x2="301.927" y1="449.273" y2="451.91" stroke="#939598" stroke-width="0.3292"/></g><g><line fill="#FFFFFF" x1="302.151" x2="299.537" y1="448.283" y2="449.213" stroke="#939598" stroke-width="0.3292"/></g><g><line fill="#FFFFFF" x1="302.149" x2="299.334" y1="447.602" y2="447.277" stroke="#939598" stroke-width="0.3292"/></g><g><line fill="#FFFFFF" x1="302.312" x2="299.93" y1="446.949" y2="445.436" stroke="#939598" stroke-width="0.3292"/></g><g><line fill="#FFFFFF" x1="302.761" x2="301.212" y1="446.455" y2="444.027" stroke="#939598" stroke-width="0.3292"/></g><g><line fill="#FFFFFF" x1="304.127" x2="305.157" y1="446.346" y2="443.576" stroke="#939598" stroke-width="0.3292"/></g><g><line fill="#FFFFFF" x1="304.647" x2="306.699" y1="446.715" y2="444.658" stroke="#939598" stroke-width="0.3292"/></g><g><line fill="#FFFFFF" x1="305.053" x2="307.66" y1="447.25" y2="446.322" stroke="#939598" stroke-width="0.3292"/></g><text font-family="'UniversLTStd-BoldCn'" font-size="3.8504px" transform="matrix(0.907 0 0 1 296.3094 471.1908)">FLOWRIDER</text><path fill="none" d="M333.498,410.995h-3.739l-0.196,3.766l2.349,1.685v3.469l-3.132,1.586   l-0.392,6.442c0,0,4.894,2.676-3.132,9.614c0,0-7.243,2.676-1.566,7.136c0,0,3.132,1.685-2.349,1.883c0,0-5.285,0.297-3.328,6.343   l0.587,0.991c0,0,2.899,3.591,8.566,0.591c0,0,4.333-10,15.833-10.667l-0.201-33.056H340" stroke-width="0.5" stroke="#939598"/><g><path fill="#FFFFFF" d="M266.719,442.045c0.874-0.034,1.843-0.037,2.46-0.019    c0.616,0.019,1.587,0.081,2.465,0.168l0.182,6.68l-4.924-0.149L266.719,442.045z" stroke-width="0.5" stroke="#939598"/></g><g><ellipse transform="matrix(0.192 -0.9814 0.9814 0.192 -203.8004 647.8455)" fill="#FFFFFF" rx="2.385" cx="291.521" ry="2.785" cy="447.686" stroke="#939598" stroke-width="0.5"/></g><g><g><path fill="#FFFFFF" d="M275.542,430.811c-0.037,5.07-5.315,11.775-5.315,11.775     l0.267,5.083l-2.362-0.036l-0.191-5.759c0,0,6.598-9.629,5.512-13.228" stroke-width="0.5" stroke="#939598"/></g></g><g><g><path fill="#FFFFFF" d="M284.065,419.115c4.192,1.803,6.1,6.129,4.261,9.661     c-1.839,3.533-6.728,4.935-10.921,3.131c-4.192-1.803-6.1-6.129-4.261-9.661C274.984,418.713,279.873,417.311,284.065,419.115z      M275.133,423.101c-1.357,2.607,0.051,5.799,3.145,7.13c3.094,1.331,6.702,0.296,8.06-2.311c1.357-2.607-0.051-5.799-3.145-7.13     C280.099,419.46,276.491,420.494,275.133,423.101z" stroke-width="0.5" stroke="#939598"/></g></g><g><g><g><path fill="#FFFFFF" d="M292.167,445.794l-1.133-3.02c0,0,0.897-9.897-2.284-17.962l-4.124-3.533      c5.234,3.545,4.858,21.841,4.858,21.841l1.517,4.151L292.167,445.794z"/></g></g></g><g><g><g><path fill="#FFFFFF" d="M292.292,446.232l-1.133-3.02c0,0,0.705-11.233-2.476-19.298       M286.438,424c3.375,5.188,3.172,19.559,3.172,19.559l1.517,4.151" stroke-width="0.5" stroke="#939598"/></g></g></g><g><rect x="296.315" y="462.799" fill="#FFFFFF" width="17.435" height="17.141" stroke="#939598" stroke-width="0.3106"/></g><g><path fill="#FFFFFF" d="M298.735,485.075c2.242,0.178,4.723,0.275,6.3,0.275    c1.576,0,4.058-0.098,6.301-0.275v-19.681h-12.601V485.075z" stroke-width="0.2216" stroke="#939598"/></g></g><g id="SYMBOLS_AND_VENUES"><g><path d="M286.315,301.264h-2.919v-1.605h0.449v0.99h0.72v-0.912h0.449v0.912h0.854v-1.022h0.449V301.264z"/></g><g><path d="M286.315,299.226h-2.919v-0.615h2.434v-0.921h0.485V299.226z"/></g><g><path d="M286.315,297.423h-2.919v-1.604h0.449v0.989h0.72v-0.913h0.449v0.913h0.854v-1.022h0.449V297.423z"/></g><g><path d="M283.396,295.625v-0.64l2.123-0.456v-0.008l-2.123-0.514V293.4l2.919,0.778v0.722L283.396,295.625z"/></g><g><path d="M285.782,292.687h0.534v0.489h-0.534V292.687z"/></g><path d="M290.618,351.227v-0.452l-1.347,0.452v0.509c-0.11-0.266-0.371-0.453-0.673-0.453c-0.404,0-0.73,0.33-0.73,0.735   c0,0.405,0.327,0.735,0.73,0.735c0.303,0,0.563-0.188,0.673-0.453v0.509l1.347,0.452v-0.452l1.797,0.452v-0.631l2.301-0.244v-0.735   l-2.301-0.244v-0.632L290.618,351.227z"/><path d="M280.512,351.454v0.278c-0.109-0.266-0.371-0.454-0.674-0.454c-0.404,0-0.729,0.33-0.729,0.735   c0,0.406,0.326,0.735,0.729,0.735c0.303,0,0.565-0.187,0.674-0.453v0.288c0,0.374,0.302,0.678,0.674,0.678h1.684   c0.47,0,0.666-0.265,0.742-0.654h2.347v-1.186h-2.349c-0.077-0.384-0.273-0.645-0.74-0.645h-1.684   C280.814,350.775,280.512,351.078,280.512,351.454z"/><g><path d="M296.014,395.764c0,0.762-0.445,0.904-0.95,0.871v-0.615c0.279,0,0.514-0.012,0.514-0.35c0-0.208-0.133-0.311-0.332-0.311    c-0.526,0-0.558,1.238-1.427,1.238c-0.457,0-0.821-0.219-0.821-0.969c0-0.6,0.267-0.896,0.877-0.855v0.599    c-0.219,0-0.441,0.036-0.441,0.285c0,0.2,0.109,0.317,0.312,0.317c0.554,0,0.505-1.238,1.423-1.238    C295.925,394.736,296.014,395.295,296.014,395.764z"/></g><g><path d="M293.046,394.295v-1.107c0-0.562,0.34-0.782,0.874-0.782c0.332,0,0.857,0.098,0.857,0.819v0.455h1.189v0.615H293.046z     M294.328,393.68v-0.342c0-0.184-0.198-0.31-0.392-0.31c-0.239,0-0.441,0.065-0.441,0.343v0.309H294.328z"/></g><g><path d="M294.506,392.066c-0.772,0-1.508,0-1.508-1.016c0-1.014,0.736-1.014,1.508-1.014c0.765,0,1.508,0,1.508,1.014    C296.014,392.066,295.271,392.066,294.506,392.066z M294.506,390.66c-0.748,0-1.071,0.045-1.071,0.391    c0,0.347,0.323,0.392,1.071,0.392s1.072-0.045,1.072-0.392C295.578,390.705,295.254,390.66,294.506,390.66z"/></g><g><path d="M295.966,388.948v0.615h-2.919v-1.137c0-0.419,0.267-0.688,0.764-0.688c0.372,0,0.651,0.146,0.716,0.546h0.008    c0.017-0.134,0.049-0.534,0.574-0.534c0.186,0,0.736-0.012,0.857-0.068v0.603c-0.178,0.081-0.376,0.065-0.566,0.065    c-0.348,0-0.643-0.033-0.643,0.439v0.159H295.966z M294.308,388.948v-0.272c0-0.244-0.243-0.314-0.429-0.314    c-0.279,0-0.384,0.119-0.384,0.314v0.272H294.308z"/></g><g><path d="M293.046,385.537h0.485v0.685h2.434v0.615h-2.434v0.685h-0.485V385.537z"/></g><g><path d="M296.014,384.457c0,0.762-0.445,0.904-0.95,0.871v-0.615c0.279,0,0.514-0.012,0.514-0.35c0-0.208-0.133-0.311-0.332-0.311    c-0.526,0-0.558,1.238-1.427,1.238c-0.457,0-0.821-0.219-0.821-0.969c0-0.6,0.267-0.896,0.877-0.855v0.599    c-0.219,0-0.441,0.036-0.441,0.285c0,0.2,0.109,0.317,0.312,0.317c0.554,0,0.505-1.238,1.423-1.238    C295.925,383.43,296.014,383.988,296.014,384.457z"/></g><g><path d="M294.506,382.118c-0.772,0-1.508,0-1.508-1.015c0-0.627,0.343-0.88,0.97-0.855v0.604c-0.388,0-0.534,0.068-0.534,0.252    c0,0.346,0.323,0.391,1.071,0.391s1.072-0.045,1.072-0.391c0-0.285-0.364-0.273-0.594-0.281v-0.607    c0.78,0,1.031,0.314,1.031,0.889C296.014,382.118,295.271,382.118,294.506,382.118z"/></g><g><path d="M294.506,379.855c-0.772,0-1.508,0-1.508-1.014c0-1.015,0.736-1.015,1.508-1.015c0.765,0,1.508,0,1.508,1.015    C296.014,379.855,295.271,379.855,294.506,379.855z M294.506,378.45c-0.748,0-1.071,0.045-1.071,0.392    c0,0.346,0.323,0.391,1.071,0.391s1.072-0.045,1.072-0.391C295.578,378.495,295.254,378.45,294.506,378.45z"/></g><g><path d="M293.046,375.354h2.07c0.437,0,0.897,0.248,0.897,0.998c0,0.676-0.348,1.002-0.897,1.002h-2.07v-0.615h2.03    c0.36,0,0.501-0.154,0.501-0.379c0-0.269-0.178-0.391-0.501-0.391h-2.03V375.354z"/></g><g><path d="M295.966,374.252v0.615h-2.919v-1.137c0-0.419,0.267-0.688,0.764-0.688c0.372,0,0.651,0.146,0.716,0.545h0.008    c0.017-0.134,0.049-0.533,0.574-0.533c0.186,0,0.736-0.012,0.857-0.068v0.602c-0.178,0.082-0.376,0.066-0.566,0.066    c-0.348,0-0.643-0.033-0.643,0.439v0.158H295.966z M294.308,374.252v-0.272c0-0.244-0.243-0.313-0.429-0.313    c-0.279,0-0.384,0.118-0.384,0.313v0.272H294.308z"/></g><g><path d="M293.046,370.842h0.485v0.684h2.434v0.615h-2.434v0.686h-0.485V370.842z"/></g><g><path d="M300.939,348.418h-0.61v-2.941h1.128c0.417,0,0.684,0.27,0.684,0.771c0,0.374-0.146,0.655-0.542,0.722v0.008    c0.133,0.016,0.53,0.049,0.53,0.578c0,0.188,0.012,0.742,0.069,0.863h-0.599c-0.081-0.179-0.064-0.379-0.064-0.57    c0-0.35,0.032-0.647-0.437-0.647h-0.158V348.418z M300.939,346.748h0.271c0.243,0,0.312-0.244,0.312-0.432    c0-0.281-0.117-0.387-0.312-0.387h-0.271V346.748z"/></g><g><path d="M302.56,346.947c0-0.777,0-1.52,1.007-1.52s1.007,0.742,1.007,1.52c0,0.771,0,1.52-1.007,1.52    S302.56,347.718,302.56,346.947z M303.955,346.947c0-0.754-0.044-1.079-0.388-1.079s-0.388,0.325-0.388,1.079    s0.044,1.08,0.388,1.08S303.955,347.701,303.955,346.947z"/></g><g><path d="M305.03,346.947c0-0.777,0-1.52,1.007-1.52c0.623,0,0.874,0.347,0.849,0.979h-0.599c0-0.392-0.069-0.538-0.25-0.538    c-0.344,0-0.388,0.325-0.388,1.079s0.044,1.08,0.388,1.08c0.283,0,0.271-0.367,0.279-0.6h0.603c0,0.787-0.312,1.039-0.881,1.039    C305.03,348.467,305.03,347.718,305.03,346.947z"/></g><g><path d="M308.604,345.477h0.671l-0.817,1.32l0.817,1.621h-0.688l-0.7-1.507h-0.008v1.507h-0.611v-2.941h0.611v1.26h0.008    L308.604,345.477z"/></g><g><path d="M310.423,346.947c0-0.777,0-1.52,1.007-1.52c0.623,0,0.874,0.347,0.849,0.979h-0.599c0-0.392-0.069-0.538-0.25-0.538    c-0.344,0-0.388,0.325-0.388,1.079s0.044,1.08,0.388,1.08c0.283,0,0.271-0.367,0.279-0.6h0.603c0,0.787-0.312,1.039-0.881,1.039    C310.423,348.467,310.423,347.718,310.423,346.947z"/></g><g><path d="M312.703,348.418v-2.941h0.61v2.453h0.914v0.488H312.703z"/></g><g><path d="M314.494,348.418v-2.941h0.61v2.941H314.494z"/></g><g><path d="M315.605,348.418v-2.941h0.982l0.457,2.001h0.008l0.485-2.001h0.95v2.941h-0.594v-2.269h-0.008l-0.562,2.269h-0.582    l-0.534-2.269H316.2v2.269H315.605z"/></g><g><path d="M318.993,348.418v-2.941h1.084c0.465,0,0.849,0.135,0.849,0.762c0,0.339-0.166,0.583-0.498,0.648v0.008    c0.433,0.062,0.546,0.342,0.546,0.746c0,0.745-0.643,0.777-0.902,0.777H318.993z M319.604,346.679h0.408    c0.133,0,0.319-0.089,0.319-0.374c0-0.217-0.146-0.375-0.352-0.375h-0.376V346.679z M319.604,347.967h0.339    c0.129,0,0.421-0.005,0.421-0.416c0-0.261-0.097-0.42-0.404-0.42h-0.356V347.967z"/></g><g><path d="M321.455,348.418v-2.941h0.61v2.941H321.455z"/></g><g><path d="M322.583,348.418v-2.941h0.825l0.776,2.037h0.008v-2.037h0.57v2.941h-0.805l-0.797-2.15h-0.008v2.15H322.583z"/></g><g><path d="M326.61,346.381c0.004-0.272-0.041-0.513-0.364-0.513c-0.38,0-0.38,0.517-0.38,1.088c0,0.921,0.089,1.083,0.437,1.083    c0.101,0,0.21-0.023,0.303-0.057v-0.652h-0.332v-0.451h0.942v1.49c-0.166,0.033-0.583,0.098-0.825,0.098    c-1.027,0-1.144-0.428-1.144-1.543c0-0.742,0.036-1.496,1.035-1.496c0.598,0,0.97,0.338,0.934,0.953H326.61z"/></g><g><path d="M308.958,349.546h0.626l0.38,2.065h0.008l0.461-2.065h0.72l0.437,2.065h0.008l0.364-2.065h0.598l-0.647,2.941h-0.675    l-0.457-2.151h-0.008l-0.505,2.151h-0.663L308.958,349.546z"/></g><g><path d="M312.587,352.487l0.809-2.941h0.804l0.793,2.941h-0.643l-0.162-0.651h-0.833l-0.166,0.651H312.587z M313.764,350.112    h-0.008l-0.279,1.271h0.583L313.764,350.112z"/></g><g><path d="M315.284,352.487v-2.941h0.61v2.452h0.914v0.489H315.284z"/></g><g><path d="M317.079,352.487v-2.941h0.61v2.452h0.914v0.489H317.079z"/></g><g><path d="M298.741,62.073c-0.69,0-0.819-0.408-0.79-0.871h0.558c0,0.256,0.011,0.471,0.317,0.471c0.188,0,0.281-0.123,0.281-0.304    c0-0.482-1.123-0.512-1.123-1.309c0-0.419,0.199-0.753,0.879-0.753c0.543,0,0.812,0.245,0.775,0.805h-0.543    c0-0.2-0.033-0.404-0.258-0.404c-0.182,0-0.288,0.1-0.288,0.286c0,0.508,1.122,0.463,1.122,1.305    C299.671,61.992,299.166,62.073,298.741,62.073z"/></g><g><path d="M301.869,59.352v1.898c0,0.4-0.225,0.823-0.904,0.823c-0.613,0-0.908-0.319-0.908-0.823v-1.898h0.558v1.861    c0,0.33,0.141,0.46,0.343,0.46c0.244,0,0.355-0.163,0.355-0.46v-1.861H301.869z"/></g><g><path d="M302.323,62.029v-2.677h0.753l0.709,1.854h0.008v-1.854h0.521v2.677h-0.734l-0.728-1.958h-0.008v1.958H302.323z"/></g><g><path d="M305.607,59.352h0.93c0.731,0,0.868,0.49,0.868,1.324c0,0.412,0.062,1.354-0.89,1.354h-0.908V59.352z M306.165,61.617    h0.27c0.339,0,0.405-0.256,0.405-0.927c0-0.493,0-0.927-0.388-0.927h-0.287V61.617z"/></g><g><path d="M307.847,62.029v-2.677h1.455v0.412h-0.897v0.66h0.827v0.412h-0.827v0.782h0.927v0.412H307.847z"/></g><g><path d="M309.665,60.69c0-0.708,0-1.383,0.919-1.383c0.569,0,0.798,0.315,0.775,0.89h-0.546c0-0.356-0.063-0.49-0.229-0.49    c-0.313,0-0.354,0.297-0.354,0.983s0.041,0.982,0.354,0.982c0.259,0,0.248-0.333,0.255-0.545h0.551    c0,0.715-0.285,0.945-0.806,0.945C309.665,62.073,309.665,61.391,309.665,60.69z"/></g><g><path d="M312.925,59.352h0.613l-0.746,1.202l0.746,1.476h-0.628l-0.639-1.372h-0.008v1.372h-0.558v-2.677h0.558v1.146h0.008    L312.925,59.352z"/></g><g><path d="M280.334,442.648v0.462h-0.587v2.314h-0.528v-2.314h-0.587v-0.462H280.334z"/></g><g><path d="M281.727,443.76v-1.111h0.528v2.776h-0.528v-1.238h-0.604v1.238h-0.527v-2.776h0.527v1.111H281.727z"/></g><g><path d="M282.711,445.425v-2.776h1.376v0.427h-0.849v0.685h0.783v0.427h-0.783v0.812h0.877v0.427H282.711z"/></g><g><path d="M275.341,446.499h0.951c0.482,0,0.671,0.323,0.671,0.831c0,0.315-0.084,0.814-0.703,0.814h-0.391v1.131h-0.528V446.499z     M275.869,447.718h0.293c0.157,0,0.266-0.188,0.266-0.373c0-0.227-0.056-0.419-0.294-0.419h-0.265V447.718z"/></g><g><path d="M277.279,449.275v-2.776h1.376v0.427h-0.849v0.685h0.783v0.427h-0.783v0.812h0.877v0.427H277.279z"/></g><g><path d="M279.542,449.275h-0.528v-2.776h0.975c0.36,0,0.59,0.254,0.59,0.727c0,0.354-0.125,0.619-0.468,0.681v0.008    c0.116,0.016,0.458,0.046,0.458,0.546c0,0.177,0.01,0.7,0.06,0.815h-0.518c-0.07-0.169-0.056-0.357-0.056-0.538    c0-0.331,0.028-0.611-0.377-0.611h-0.136V449.275z M279.542,447.699h0.234c0.21,0,0.269-0.231,0.269-0.408    c0-0.265-0.101-0.365-0.269-0.365h-0.234V447.699z"/></g><g><path d="M280.957,449.275v-2.776h1.311v0.427h-0.783v0.712h0.748v0.427h-0.748v1.211H280.957z"/></g><g><path d="M282.518,449.275v-2.776h1.376v0.427h-0.849v0.685h0.783v0.427h-0.783v0.812h0.877v0.427H282.518z"/></g><g><path d="M284.239,447.888c0-0.734,0-1.435,0.87-1.435c0.538,0,0.754,0.327,0.733,0.923h-0.517c0-0.369-0.059-0.508-0.216-0.508    c-0.297,0-0.335,0.308-0.335,1.02c0,0.711,0.038,1.019,0.335,1.019c0.245,0,0.234-0.346,0.241-0.565h0.521    c0,0.742-0.269,0.98-0.762,0.98C284.239,449.321,284.239,448.614,284.239,447.888z"/></g><g><path d="M287.708,446.499v0.462h-0.587v2.314h-0.528v-2.314h-0.587v-0.462H287.708z"/></g><g><path d="M276.993,453.172c-0.653,0-0.775-0.423-0.748-0.903h0.528c0,0.266,0.01,0.488,0.3,0.488c0.178,0,0.266-0.127,0.266-0.315    c0-0.5-1.062-0.53-1.062-1.357c0-0.435,0.189-0.78,0.832-0.78c0.514,0,0.769,0.254,0.733,0.834h-0.514    c0-0.207-0.031-0.419-0.244-0.419c-0.171,0-0.273,0.104-0.273,0.296c0,0.527,1.062,0.48,1.062,1.354    C277.874,453.088,277.395,453.172,276.993,453.172z"/></g><g><path d="M279.752,450.35v0.462h-0.587v2.314h-0.528v-2.314h-0.587v-0.462H279.752z"/></g><g><path d="M279.972,451.738c0-0.735,0-1.435,0.87-1.435s0.87,0.699,0.87,1.435c0,0.727,0,1.434-0.87,1.434    S279.972,452.465,279.972,451.738z M281.177,451.738c0-0.712-0.039-1.02-0.335-1.02c-0.297,0-0.335,0.308-0.335,1.02    c0,0.711,0.038,1.019,0.335,1.019C281.139,452.757,281.177,452.449,281.177,451.738z"/></g><g><path d="M282.647,453.126h-0.528v-2.776h0.975c0.36,0,0.59,0.254,0.59,0.727c0,0.354-0.125,0.619-0.468,0.681v0.008    c0.116,0.016,0.458,0.046,0.458,0.546c0,0.177,0.01,0.7,0.06,0.815h-0.518c-0.07-0.169-0.056-0.357-0.056-0.538    c0-0.331,0.028-0.611-0.377-0.611h-0.136V453.126z M282.647,451.55h0.234c0.21,0,0.269-0.231,0.269-0.408    c0-0.265-0.101-0.365-0.269-0.365h-0.234V451.55z"/></g><g><path d="M284.061,453.126v-2.776h0.849l0.395,1.888h0.007l0.419-1.888h0.821v2.776h-0.514v-2.142h-0.007l-0.485,2.142h-0.503    l-0.461-2.142h-0.007v2.142H284.061z"/></g><g><g><path d="M334.895,439.593l-2.776-0.698v-0.695l2.776-0.686v0.556l-0.615,0.14v0.721l0.615,0.143V439.593z M332.653,438.576v0.007     l1.2,0.241v-0.503L332.653,438.576z"/></g></g><g><g><path d="M332.119,437.257v-0.881c0-0.691,0.508-0.821,1.373-0.821c0.427,0,1.403-0.06,1.403,0.843v0.859H332.119z      M334.468,436.729v-0.256c0-0.321-0.266-0.384-0.961-0.384c-0.511,0-0.961,0-0.961,0.366v0.273H334.468z"/></g></g><g><g><path d="M332.119,435.336v-0.549l2.019-0.391v-0.008l-2.019-0.44v-0.521l2.776,0.668v0.618L332.119,435.336z"/></g></g><g><g><path d="M334.895,433.191h-2.776v-1.377h0.427v0.85h0.685v-0.783h0.427v0.783h0.812v-0.878h0.427V433.191z"/></g></g><g><g><path d="M334.895,431.441h-2.776v-0.713l1.923-0.671v-0.007h-1.923v-0.492h2.776v0.695l-2.03,0.688v0.007h2.03V431.441z"/></g></g><g><g><path d="M332.119,427.613h0.461v0.587h2.315v0.528h-2.315v0.587h-0.461V427.613z"/></g></g><g><g><path d="M332.119,425.665h1.969c0.416,0,0.854,0.213,0.854,0.855c0,0.58-0.331,0.86-0.854,0.86h-1.969v-0.528h1.931     c0.342,0,0.477-0.133,0.477-0.324c0-0.231-0.169-0.336-0.477-0.336h-1.931V425.665z"/></g></g><g><g><path d="M334.895,424.719v0.528h-2.776v-0.976c0-0.359,0.254-0.59,0.727-0.59c0.354,0,0.619,0.125,0.68,0.468h0.008     c0.016-0.115,0.046-0.458,0.546-0.458c0.177,0,0.7-0.01,0.815-0.06v0.518c-0.169,0.07-0.357,0.056-0.538,0.056     c-0.331,0-0.612-0.027-0.612,0.378v0.136H334.895z M333.318,424.719v-0.233c0-0.21-0.23-0.27-0.408-0.27     c-0.265,0-0.365,0.102-0.365,0.27v0.233H333.318z"/></g></g><g><g><path d="M334.895,423.294h-2.776v-1.376h0.427v0.849h0.685v-0.782h0.427v0.782h0.812v-0.877h0.427V423.294z"/></g></g><g><g><path d="M335.969,435.607v-0.881c0-0.692,0.508-0.821,1.373-0.821c0.427,0,1.403-0.06,1.403,0.843v0.859H335.969z      M338.319,435.08v-0.256c0-0.321-0.266-0.384-0.961-0.384c-0.511,0-0.961,0-0.961,0.366v0.273H338.319z"/></g></g><g><g><path d="M335.969,431.778h1.969c0.416,0,0.854,0.213,0.854,0.856c0,0.58-0.331,0.859-0.854,0.859h-1.969v-0.527h1.931     c0.342,0,0.477-0.133,0.477-0.325c0-0.23-0.169-0.335-0.477-0.335h-1.931V431.778z"/></g></g><g><g><path d="M338.746,431.347h-2.776v-0.713l1.923-0.671v-0.007h-1.923v-0.493h2.776v0.695l-2.03,0.688v0.007h2.03V431.347z"/></g></g><g><g><path d="M338.746,429.021h-2.776v-1.376h0.427v0.849h0.685v-0.782h0.427v0.782h0.812v-0.877h0.427V429.021z"/></g></g><g><g><path d="M338.792,426.59c0,0.653-0.423,0.775-0.903,0.748v-0.528c0.265,0,0.488-0.01,0.488-0.3c0-0.179-0.127-0.266-0.315-0.266     c-0.5,0-0.53,1.062-1.357,1.062c-0.435,0-0.78-0.189-0.78-0.832c0-0.514,0.254-0.769,0.834-0.733v0.514     c-0.208,0-0.419,0.031-0.419,0.244c0,0.171,0.104,0.272,0.296,0.272c0.527,0,0.48-1.062,1.354-1.062     C338.707,425.709,338.792,426.188,338.792,426.59z"/></g></g><g><path d="M296.519,472.19v-2.776h1.311v0.427h-0.783v0.712h0.748v0.427h-0.748v1.211H296.519z"/></g><g><path d="M298.083,472.19v-2.776h0.528v2.315h0.79v0.461H298.083z"/></g><g><path d="M299.606,470.803c0-0.735,0-1.435,0.87-1.435s0.87,0.699,0.87,1.435c0,0.727,0,1.434-0.87,1.434    S299.606,471.529,299.606,470.803z M300.812,470.803c0-0.712-0.039-1.02-0.335-1.02c-0.297,0-0.335,0.308-0.335,1.02    c0,0.711,0.038,1.019,0.335,1.019C300.773,471.821,300.812,471.514,300.812,470.803z"/></g><g><path d="M301.541,469.414h0.542l0.329,1.949h0.007l0.398-1.949h0.622l0.377,1.949h0.007l0.314-1.949h0.517l-0.559,2.776h-0.583    l-0.395-2.03h-0.007l-0.437,2.03H302.1L301.541,469.414z"/></g><g><path d="M305.386,472.19h-0.528v-2.776h0.975c0.36,0,0.59,0.254,0.59,0.727c0,0.354-0.125,0.619-0.468,0.681v0.008    c0.116,0.016,0.458,0.046,0.458,0.546c0,0.177,0.01,0.7,0.06,0.815h-0.518c-0.07-0.169-0.056-0.357-0.056-0.538    c0-0.331,0.028-0.611-0.377-0.611h-0.136V472.19z M305.386,470.614h0.234c0.21,0,0.269-0.231,0.269-0.408    c0-0.265-0.101-0.365-0.269-0.365h-0.234V470.614z"/></g><g><path d="M306.811,472.19v-2.776h0.527v2.776H306.811z"/></g><g><path d="M307.792,469.414h0.881c0.692,0,0.821,0.508,0.821,1.373c0,0.427,0.06,1.403-0.842,1.403h-0.86V469.414z M308.319,471.764    h0.255c0.322,0,0.384-0.266,0.384-0.961c0-0.512,0-0.962-0.367-0.962h-0.272V471.764z"/></g><g><path d="M309.915,472.19v-2.776h1.376v0.427h-0.849v0.685h0.783v0.427h-0.783v0.812h0.877v0.427H309.915z"/></g><g><path d="M312.178,472.19h-0.528v-2.776h0.975c0.36,0,0.59,0.254,0.59,0.727c0,0.354-0.125,0.619-0.468,0.681v0.008    c0.116,0.016,0.458,0.046,0.458,0.546c0,0.177,0.01,0.7,0.06,0.815h-0.518c-0.07-0.169-0.056-0.357-0.056-0.538    c0-0.331,0.028-0.611-0.377-0.611h-0.136V472.19z M312.178,470.614h0.234c0.21,0,0.269-0.231,0.269-0.408    c0-0.265-0.101-0.365-0.269-0.365h-0.234V470.614z"/></g></g><g id="ICONS"><g><g><g><path fill="#0089CF" d="M314.021,376.374c0,2.476-2.009,4.487-4.489,4.487c-2.476,0-4.487-2.011-4.487-4.487      c0-2.477,2.01-4.487,4.487-4.487C312.012,371.887,314.021,373.897,314.021,376.374z"/></g></g></g><g><path fill="#FFFFFF" d="M311.045,376.85c0,0-0.178,0.009-0.285-0.071c-0.107-0.076-0.153-0.167-0.237-0.176    c-0.086-0.006-0.131,0.054-0.178,0.138c-0.045,0.086-0.154,0.13-0.199,0.13c-0.047,0-0.3,0.138-0.377,0.138    c-0.077,0-0.3,0.039-0.462,0.169c-0.162,0.131-0.139-0.129-0.154-0.205c-0.015-0.079-0.054-0.324-0.094-0.462    c-0.038-0.139,0.101-0.054,0.078-0.363c0,0,0.015-0.083-0.085-0.254c0,0,0.038-0.052,0.023-0.107    c-0.017-0.054-0.132-0.191-0.162-0.462c-0.03-0.271-0.047-0.423-0.054-0.507c-0.009-0.084-0.016-0.093,0.139-0.062    c0.154,0.032,0.255,0.04,0.346,0.023c0,0,0,0.138,0.094,0.316c0.091,0.177,0.108,0.379,0.091,0.462    c-0.014,0.085-0.014,0.093-0.053,0.146c0,0-0.048,0.019-0.048,0.071c0,0.048-0.003,0.048,0.008,0.071    c0.007,0.021,0.024,0.08,0.016,0.099c-0.005,0.016,0.019,0.024,0.043,0.027c0.025,0.002,0.02,0.038,0.068,0.021    c0.049-0.014,0.062,0.025,0.096-0.019c0.035-0.043,0.059-0.047,0.059-0.081c0-0.035-0.03-0.184-0.03-0.263    c0,0,0.011-0.509-0.025-0.733c-0.038-0.227-0.044-0.227-0.083-0.257c-0.039-0.032-0.277-0.204-0.476-0.256    c0,0-0.066-0.023-0.165-0.033c0,0-0.178-0.178-0.394-0.167c0,0-0.175-0.065-0.208-0.129c-0.004-0.01-0.007-0.023-0.011-0.034    c0.032-0.16,0.152-0.332,0.094-0.526c-0.053-0.172-0.307-0.275-0.519-0.186c-0.036,0.017-0.042,0.053-0.072,0.072    c-0.024,0.016-0.053,0.005-0.068,0.028c0.004,0.011,0.009,0.024,0.014,0.034c0.014,0.011,0.048,0.018,0.058,0.03    c-0.025,0.054-0.051,0.107-0.072,0.161c-0.01,0.034,0.01,0.045,0.014,0.077c-0.025,0.027-0.049,0.055-0.076,0.084    c0.003,0.009,0.005,0.018,0.006,0.028c0.018,0.005,0.034,0.01,0.052,0.019c0.003,0.005,0.004,0.01,0.006,0.016    c-0.008,0.014-0.015,0.016-0.017,0.035c0.01,0.01,0.019,0.016,0.025,0.024c-0.004,0.021-0.014,0.025-0.025,0.041    c0.011,0.013,0.02,0.015,0.023,0.037c-0.057,0.096,0.077,0.101,0.156,0.119c0.001,0.004,0.003,0.006,0.003,0.006    c0.004,0.047-0.019,0.096-0.077,0.105c-0.059,0.009-0.199,0.067-0.232,0.161c-0.034,0.093-0.04,0.129-0.003,0.243    c0.035,0.115,0.035,0.146,0.035,0.165c0,0.019-0.033,0.061-0.005,0.191c0.028,0.131,0.044,0.152,0.003,0.157    c-0.04,0.008-0.125,0.06-0.225,0.047c-0.1-0.01-0.183,0.006-0.211-0.047c-0.028-0.052,0.004-0.119-0.064-0.133    c-0.068-0.01-0.064,0.012-0.096,0c-0.032-0.008-0.071-0.046-0.103-0.029c-0.03,0.014-0.03,0.024-0.035,0.046    c-0.006,0.021-0.047,0.02-0.047,0.051c0,0.03-0.006,0.02,0,0.066c0.008,0.047-0.02,0.069-0.003,0.109    c0.02,0.039,0.09,0.046,0.139,0.057c0.049,0.009,0.128,0.018,0.158,0.03c0.03,0.011,0.407,0.148,0.482,0.154    c0.075,0.005,0.173,0.024,0.211-0.016c0,0,0.081-0.104,0.116-0.151c0.038-0.046,0.068,0.1,0.072,0.151    c0.003,0.052,0.105,0.346,0.135,0.417c0.031,0.072,0.051,0.145,0.041,0.221c0,0,0.01,0.032-0.03,0.069    c-0.041,0.038-0.516,0.551-0.658,0.774c0,0-0.041,0.067-0.069,0.086c-0.027,0.021-0.062,0.059-0.063,0.115    c0,0,0.005,0.104,0,0.142c-0.006,0.036-0.059,0.332-0.059,0.356c0,0.024-0.22,0.798-0.257,0.843    c-0.037,0.044-0.06,0.119-0.09,0.098c-0.032-0.021-0.052-0.058-0.077-0.037c-0.024,0.021-0.043,0.09-0.105,0.124    c0,0-0.075,0.044-0.17,0.058c-0.095,0.011-0.179-0.004-0.232-0.005c-0.052-0.004-0.09,0.001-0.105,0.078    c-0.014,0.079-0.012,0.052,0.025,0.088c0.036,0.038,0.158,0.155,0.328,0.168c0.168,0.01,0.252,0,0.294,0.014    c0.045,0.014,0.165,0.042,0.165,0.042s0.168,0.01,0.177-0.137c0.009-0.148-0.047-0.191,0.03-0.339    c0.077-0.146,0.154-0.415,0.3-0.652c0.147-0.24,0.16-0.425,0.16-0.618c0-0.193,0.131-0.176,0.163-0.193    c-0.01,0.006-0.032,0.016-0.032,0.016s0.424-0.147,0.54-0.31c0,0,0.153,0.271,0.285,0.425c0.13,0.155,0.122,0.229,0.199,0.302    c0.077,0.068,0.116,0.137,0.276,0.058c0.163-0.076,0.515-0.307,0.747-0.447c0.231-0.138,0.492-0.191,0.492-0.191    s0.015,0.053,0.078,0.053c0.06,0,0.06-0.023,0.263-0.023c0.199,0,0.368,0.048,0.468,0.017    C311.26,377.088,311.354,376.981,311.045,376.85z"/></g><g><path fill="#FFFFFF" d="M313.598,376.85c0,0-0.177,0.009-0.285-0.071c-0.107-0.076-0.153-0.167-0.237-0.176    c-0.086-0.006-0.131,0.054-0.178,0.138c-0.047,0.086-0.154,0.13-0.199,0.13c-0.047,0-0.302,0.138-0.377,0.138    c-0.078,0-0.299,0.039-0.462,0.169c-0.163,0.131-0.14-0.129-0.155-0.205c-0.014-0.079-0.054-0.324-0.092-0.462    c-0.038-0.139,0.101-0.054,0.078-0.363c0,0,0.014-0.083-0.086-0.254c0,0,0.038-0.052,0.024-0.107    c-0.016-0.054-0.131-0.191-0.163-0.462c-0.029-0.271-0.045-0.423-0.054-0.507c-0.008-0.084-0.015-0.093,0.14-0.062    c0.153,0.032,0.254,0.04,0.346,0.023c0,0,0,0.138,0.093,0.316c0.091,0.177,0.108,0.379,0.091,0.462    c-0.015,0.085-0.015,0.093-0.053,0.146c0,0-0.048,0.019-0.048,0.071c0,0.048-0.003,0.048,0.006,0.071    c0.009,0.021,0.025,0.08,0.019,0.099c-0.008,0.016,0.018,0.024,0.043,0.027c0.025,0.002,0.018,0.038,0.068,0.021    c0.048-0.014,0.061,0.025,0.096-0.019c0.033-0.043,0.059-0.047,0.059-0.081c0-0.035-0.031-0.184-0.031-0.263    c0,0,0.011-0.509-0.025-0.733c-0.038-0.227-0.044-0.227-0.083-0.257c-0.04-0.032-0.278-0.204-0.477-0.256    c0,0-0.063-0.023-0.163-0.033c0,0-0.179-0.178-0.395-0.167c0,0-0.176-0.065-0.207-0.129c-0.005-0.01-0.01-0.023-0.013-0.034    c0.03-0.16,0.153-0.332,0.093-0.526c-0.052-0.172-0.305-0.275-0.519-0.186c-0.038,0.017-0.042,0.053-0.071,0.072    c-0.025,0.016-0.053,0.005-0.071,0.028c0.004,0.011,0.009,0.024,0.015,0.034c0.014,0.011,0.047,0.018,0.058,0.03    c-0.025,0.054-0.049,0.107-0.073,0.161c-0.009,0.034,0.011,0.045,0.015,0.077c-0.025,0.027-0.05,0.055-0.076,0.084    c0.003,0.009,0.004,0.018,0.005,0.028c0.018,0.005,0.035,0.01,0.052,0.019c0.003,0.005,0.005,0.01,0.006,0.016    c-0.009,0.014-0.014,0.016-0.015,0.035c0.009,0.01,0.016,0.016,0.024,0.024c-0.005,0.021-0.014,0.025-0.024,0.041    c0.01,0.013,0.018,0.015,0.021,0.037c-0.058,0.096,0.077,0.101,0.155,0.119c0.003,0.004,0.004,0.006,0.004,0.006    c0.004,0.047-0.019,0.096-0.077,0.105c-0.06,0.009-0.198,0.067-0.232,0.161c-0.035,0.093-0.04,0.129-0.003,0.243    c0.037,0.115,0.037,0.146,0.037,0.165c0,0.019-0.034,0.061-0.005,0.191c0.026,0.131,0.043,0.152,0.003,0.157    c-0.04,0.008-0.128,0.06-0.226,0.047c-0.098-0.01-0.183,0.006-0.21-0.047c-0.028-0.052,0.003-0.119-0.066-0.133    c-0.068-0.01-0.064,0.012-0.095,0c-0.032-0.008-0.072-0.046-0.102-0.029c-0.031,0.014-0.031,0.024-0.038,0.046    c-0.007,0.021-0.046,0.02-0.046,0.051c0,0.03-0.007,0.02,0,0.066c0.007,0.047-0.023,0.069-0.003,0.109    c0.018,0.039,0.09,0.046,0.138,0.057c0.05,0.009,0.127,0.018,0.156,0.03c0.031,0.011,0.409,0.148,0.483,0.154    c0.073,0.005,0.173,0.024,0.211-0.016c0,0,0.079-0.104,0.117-0.151c0.037-0.046,0.067,0.1,0.069,0.151    c0.004,0.052,0.106,0.346,0.137,0.417c0.03,0.072,0.048,0.145,0.039,0.221c0,0,0.009,0.032-0.03,0.069    c-0.04,0.038-0.517,0.551-0.659,0.774c0,0-0.039,0.067-0.068,0.086c-0.028,0.021-0.062,0.059-0.064,0.115c0,0,0.006,0.104,0,0.142    c-0.005,0.036-0.059,0.332-0.059,0.356c0,0.024-0.218,0.798-0.256,0.843c-0.037,0.044-0.058,0.119-0.088,0.098    c-0.032-0.021-0.054-0.058-0.078-0.037c-0.024,0.021-0.043,0.09-0.108,0.124c0,0-0.072,0.044-0.168,0.058    c-0.095,0.011-0.178-0.004-0.232-0.005c-0.052-0.004-0.089,0.001-0.106,0.078c-0.015,0.079-0.011,0.052,0.027,0.088    c0.037,0.038,0.158,0.155,0.328,0.168c0.169,0.01,0.252,0,0.297,0.014c0.043,0.014,0.163,0.042,0.163,0.042    s0.168,0.01,0.177-0.137c0.007-0.148-0.047-0.191,0.031-0.339c0.076-0.146,0.153-0.415,0.298-0.652    c0.148-0.24,0.163-0.425,0.163-0.618c0-0.193,0.13-0.176,0.162-0.193c-0.012,0.006-0.032,0.016-0.032,0.016    s0.424-0.147,0.539-0.31c0,0,0.156,0.271,0.285,0.425c0.131,0.155,0.122,0.229,0.201,0.302c0.076,0.068,0.115,0.137,0.276,0.058    c0.162-0.076,0.516-0.307,0.747-0.447c0.231-0.138,0.494-0.191,0.494-0.191s0.014,0.053,0.076,0.053s0.062-0.023,0.263-0.023    c0.199,0,0.369,0.048,0.468,0.017C313.812,377.088,313.906,376.981,313.598,376.85z"/></g><g><path fill="#0089CF" d="M323.025,354.861c-2.475,0-4.488,2.013-4.488,4.489c0,2.474,2.013,4.485,4.488,4.485    c2.474,0,4.487-2.012,4.487-4.485C327.513,356.874,325.5,354.861,323.025,354.861z"/></g><g><g><path fill="#FFFFFF" d="M321.899,362.809c0.026,0,0.084,0.042,0.21,0.018c0.127-0.026,0.244-0.068,0.336-0.026     c0.094,0.042,0.229,0.018,0.269,0.05c0.043,0.034,0.052,0.109,0.152,0.109s0.176,0.008,0.193-0.066     c0.017-0.076,0.068-0.127,0.077-0.22c0.007-0.09-0.009-0.182-0.043-0.251c-0.034-0.067-0.076-0.067-0.034-0.143     c0.043-0.078,0.043-0.085,0.06-0.119c0.017-0.033-0.017-0.04,0.008-0.083c0.024-0.043,0.009-0.11,0.009-0.135     c0-0.025-0.017-0.1-0.034-0.142c-0.017-0.043-0.009,0.006-0.109-0.085c-0.102-0.094-0.134-0.05-0.151-0.128     c-0.017-0.074-0.052-0.106-0.052-0.106l-0.032-0.113v-0.04l-0.035-0.043l-0.058-0.134l-0.041-0.058l0.025-0.042     c0,0,0.049-0.025,0.033-0.051c-0.016-0.024-0.058-0.043-0.058-0.043v-0.067l-0.06-0.033v-0.085l-0.008-0.049     c-0.034-0.043-0.084-0.061-0.084-0.061l-0.035-0.073l-0.05-0.071c0,0,0-0.008,0.017-0.039c0.019-0.036,0.019-0.036,0.019-0.036     s0.066-0.042,0.074-0.125c0.009-0.086,0.017-0.17,0.043-0.176c0.024-0.009,0.1-0.058,0.1-0.058s-0.009-0.051,0-0.095     c0.009-0.039,0.052-0.032,0-0.085c-0.049-0.047-0.033-0.031-0.012-0.104c0.021-0.071,0.037-0.247,0.012-0.272     c-0.026-0.025-0.049-0.076-0.049-0.076l0.04-0.093l-0.049-0.076l-0.06-0.109c0,0,0.007-0.074,0-0.117     c-0.008-0.042,0.077-0.102,0.077-0.102s-0.069-0.025-0.052-0.101c0.017-0.075,0.044-0.067,0.077-0.127     c0.034-0.057,0.041-0.067,0.058-0.091c0.017-0.027,0.017-0.027,0.017-0.027l0.078-0.016l0.024-0.051l0.009-0.034l0.008-0.093     l0.009-0.035l0.058-0.091l0.076-0.124l0.024-0.034l0.026-0.128l0.101-0.025c0,0,0.041-0.117,0.041-0.193     c0-0.076,0.025-0.237,0.025-0.237l0.025-0.158c0,0,0.151-0.051,0.227-0.143c0.076-0.092,0.092-0.203,0.092-0.203l0.077-0.124     l0.076-0.026l0.066-0.016l0.077-0.121c0,0,0.049-0.122,0.058-0.2c0.008-0.074-0.016-0.168-0.016-0.168s0.1-0.134,0.024-0.184     c0,0-0.017-0.009-0.261-0.06c-0.243-0.048-0.226-0.057-0.277-0.115c-0.05-0.061-0.117-0.129-0.203-0.119     c-0.083,0.009-0.075,0.009-0.176,0.048c-0.1,0.044-0.117,0.071-0.21,0.071c-0.093,0-0.211,0.015-0.211,0.015l-0.53-0.436     l-0.647,0.017v7.208L321.899,362.809z"/></g></g><g><g><path fill="#FFFFFF" d="M324.223,362.93c-0.082-2.252-0.112-2.7-0.131-2.965c-0.003-0.072-0.007-0.13-0.012-0.21     c-0.012-0.234-0.347-3.033-0.351-3.064l0.041-0.005c0.013,0.116,0.339,2.828,0.351,3.066c0.003,0.078,0.008,0.139,0.014,0.211     c0.018,0.266,0.047,0.712,0.128,2.966H324.223z"/></g></g><g><g><path fill="#FFFFFF" d="M325.873,359.984c-0.023-0.009-0.121-0.108-0.164-0.145c-0.044-0.04-0.078-0.031-0.099-0.055     c-0.022-0.026-0.105-0.18-0.128-0.229c-0.023-0.049-0.054-0.146-0.054-0.146c-0.019-0.077-0.061-0.221-0.091-0.267     c-0.029-0.043-0.061-0.074-0.075-0.126c-0.014-0.053-0.061-0.209-0.087-0.267c-0.028-0.058-0.031-0.107-0.031-0.107     c0.018-0.256-0.072-0.362-0.072-0.362c-0.076-0.139-0.307-0.133-0.34-0.142c-0.034-0.006-0.034-0.013-0.034-0.035     c0-0.024,0.038-0.035,0.051-0.057c0.011-0.023-0.007-0.06,0.01-0.074c0.016-0.011,0.041-0.073,0.044-0.099     c0.003-0.025,0.018-0.079,0.018-0.079c0.055-0.49-0.31-0.475-0.31-0.475c-0.378,0.004-0.315,0.419-0.315,0.419     s0.017,0.003,0.024,0.034c0.006,0.032,0.017,0.076,0.037,0.129c0.021,0.051,0.027,0.025,0.036,0.064     c0.011,0.039,0.011,0.057,0.011,0.057c0.006,0.03,0.019,0.036,0.032,0.061c0.012,0.023,0,0.021,0.019,0.064     c0.018,0.043-0.022,0.04-0.022,0.04c-0.033-0.003-0.084,0.028-0.101,0.038c-0.015,0.015-0.039-0.01-0.097-0.01     c-0.058,0-0.126,0.01-0.184,0.042c-0.058,0.029-0.105,0.033-0.172,0.047c-0.067,0.011-0.201,0.035-0.201,0.035     c0.02-0.092,0.176-0.331,0.205-0.379c0.03-0.045,0.076-0.061,0.134-0.118c0.059-0.06,0.059-0.129,0.072-0.185     c0.011-0.061,0.003-0.069-0.013-0.081c-0.016-0.013-0.028-0.013-0.054-0.03c-0.025-0.016-0.035,0-0.035,0     s-0.017-0.02-0.041-0.025c-0.025-0.003-0.037,0.021-0.037,0.038c0,0.018,0,0.018-0.027,0.027     c-0.026,0.006-0.02,0.076-0.026,0.119c-0.003,0.04-0.041,0.109-0.076,0.138c-0.034,0.029-0.025,0.054-0.092,0.146     c-0.067,0.092-0.186,0.18-0.232,0.256c-0.045,0.073-0.1,0.117-0.142,0.184c-0.043,0.068-0.013,0.098,0.075,0.143     c0.089,0.046,0.194,0.037,0.388,0.029c0.192-0.008,0.201-0.008,0.311-0.005c0.109,0.005,0.151,0.04,0.151,0.04     c0,0.05,0.045,0.247,0.068,0.31c0.021,0.063,0.041,0.348,0.004,0.327c-0.037-0.028-0.353-0.478-0.458-0.502     c-0.106-0.028-0.156,0.04-0.296,0.166c-0.138,0.127-0.252,0.38-0.252,0.38c-0.071,0.16-0.181,0.362-0.214,0.399     c-0.035,0.038-0.13,0.018-0.193,0.02c-0.064,0.004-0.104-0.062-0.136-0.083c-0.029-0.021-0.054,0.076-0.032,0.146     c0.021,0.073,0.032,0.049,0.113,0.112c0.08,0.059,0.038,0.059,0.102,0.147c0.062,0.083,0.096,0.067,0.147,0.039     c0.05-0.024,0.038-0.117,0.058-0.155c0.022-0.039,0.206-0.331,0.358-0.392c0.151-0.066,0.231-0.256,0.247-0.308     c0.017-0.054,0.043-0.019,0.063,0.023c0.02,0.044,0.03,0.144,0.03,0.144c0.05,0.397,0.173,0.357,0.107,0.524     c-0.069,0.169-0.191,0.509-0.191,0.509c-0.038,0.139-0.092,0.194-0.122,0.303c-0.028,0.11-0.028,0.158-0.028,0.257     c0,0.1-0.022,0.574-0.018,0.733c0.004,0.159-0.073,0.386-0.084,0.349c-0.007-0.019-0.038-0.021-0.038-0.021     s-0.006,0.006-0.014,0.02c0-0.014,0-0.025-0.002-0.034c-0.004-0.019-0.018-0.032-0.03-0.03c-0.009,0.001-0.017,0.009-0.017,0.024     c0,0.023,0.014,0.08,0.023,0.109c0,0.003,0,0.005-0.002,0.006v0.002c-0.014-0.006-0.037-0.019-0.055-0.043l-0.013,0.009     c0.01,0.015,0.023,0.025,0.033,0.034c-0.007,0-0.012,0.001-0.019,0.004c-0.024,0.006-0.042,0.024-0.047,0.039     c-0.002,0.008-0.001,0.018,0.005,0.023c0.007,0.01,0.014,0.011,0.021,0.011c0.009,0,0.018-0.004,0.029-0.011     c0.007-0.004,0.011-0.006,0.015-0.009c0,0,0.005-0.001,0.005-0.002c-0.003,0.004-0.005,0.006-0.008,0.01     c-0.017,0.026-0.046,0.065-0.089,0.098c-0.041,0.034-0.024,0.025-0.059,0.042c-0.033,0.015-0.028,0.033-0.054,0.055     c-0.026,0.019-0.055,0.062-0.055,0.062s0.113,0.103,0.189,0.072c0.076-0.03,0.215-0.129,0.29-0.129c0.075,0,0.13,0,0.197-0.035     c0.067-0.033,0.047-0.097,0.026-0.143c-0.02-0.047-0.055-0.078-0.058-0.121c-0.005-0.041-0.005-0.047-0.008-0.059     c-0.005-0.013,0.061-0.35,0.143-0.539c0.081-0.187,0.042-0.439,0.042-0.439c-0.034-0.133,0.041-0.215,0.041-0.215     c0.173-0.209,0.336-0.556,0.391-0.574c0.054-0.014,0.173-0.076,0.197-0.113c0.027-0.036,0.069-0.045,0.118-0.074     c0.052-0.029,0.086-0.029,0.086-0.029c0.022-0.009,0.037-0.046,0.042-0.073c0.007-0.029,0.052-0.047,0.069-0.069     c0.015-0.028,0.043-0.079,0.069-0.123c0.024-0.042,0.006-0.107,0.011-0.15c0.006-0.044,0.024-0.055,0.024-0.055     c0.016-0.048,0.006-0.212,0.014-0.256c0.008-0.047,0.031-0.03,0.049-0.106c0.02-0.075,0.022-0.242,0.037-0.218     c0.014,0.025,0.038,0.058,0.069,0.208c0.032,0.147,0.064,0.183,0.064,0.183c0.054,0.102,0.317,0.417,0.317,0.417     s-0.007,0.054,0.019,0.143c0.026,0.089,0.029,0.046,0.038,0.066c0.008,0.017,0.012,0.03,0.012,0.078     c0,0.049,0.002,0.067,0.024,0.067c0.022,0,0.022-0.093,0.025-0.1c0.004-0.007,0.026,0,0.023,0.011     c-0.002,0.014,0.005,0.035,0.003,0.061c-0.003,0.029-0.015,0.029-0.022,0.042c-0.007,0.013,0.002,0.021,0.03,0.019     c0.028-0.004,0.024-0.025,0.028-0.049c0.005-0.023,0.007-0.072,0.013-0.063c0.004,0.005,0.012,0.024,0.015,0.043     c0.001,0.022,0.003,0.012,0.001,0.051c-0.001,0.035-0.016,0.055,0.013,0.061c0.029,0.009,0.029-0.021,0.029-0.021     c0.006-0.017,0.015-0.081,0.012-0.1c-0.003-0.018-0.018-0.042-0.026-0.055c-0.007-0.015,0.014-0.009,0.026,0.005     c0.011,0.019,0.021,0.038,0.028,0.09c0.006,0.053,0.001,0.053,0.028,0.04c0.028-0.013,0.018-0.092,0.01-0.125     c-0.006-0.03-0.022-0.082-0.039-0.103c-0.017-0.02-0.007-0.042,0.012-0.03c0.019,0.01,0.049,0.033,0.068,0.048     c0.019,0.013,0.052,0.004,0.06-0.009C325.894,359.995,325.873,359.984,325.873,359.984z M323.326,362.036L323.326,362.036     c0.002,0,0.009,0.004,0.012,0.02c0.004,0.015,0.001,0.042,0,0.065c-0.006-0.031-0.014-0.065-0.014-0.076     C323.325,362.039,323.326,362.036,323.326,362.036z M323.29,362.206c-0.004,0.003-0.008,0.004-0.015,0.008     c-0.021,0.013-0.023,0.011-0.028,0.005c-0.002-0.001-0.002-0.008,0-0.009c0.002-0.01,0.015-0.023,0.032-0.029     c0.021-0.002,0.04-0.001,0.047-0.001c-0.002,0.006-0.004,0.01-0.005,0.011C323.307,362.195,323.298,362.2,323.29,362.206z      M324.681,358.069c-0.005-0.01-0.006-0.046-0.004-0.07c0.004-0.022,0.022-0.043,0.031-0.052c0.009-0.006,0.017,0,0.014,0.015     c-0.002,0.014,0,0.025,0,0.053c0.001,0.029-0.01,0.021-0.016,0.033C324.698,358.059,324.681,358.069,324.681,358.069z"/></g></g><g><path fill="#0089CF" d="M309.504,479.422c0,2.483-2.012,4.494-4.493,4.494c-2.482,0-4.493-2.012-4.493-4.494    c0-2.479,2.011-4.49,4.493-4.49C307.492,474.932,309.504,476.944,309.504,479.422z"/></g><g><g><path fill="#FFFFFF" d="M306.096,481.411c-1.657,0.802-3.854,1.18-2.74,1.36c0.542,0.089-0.082,0.336-0.664,0.497     c0.221,0.1,0.537,0.281,0.537,0.281c0.748-0.272,1.168-0.746,0.623-0.823c-1.16-0.153,0.782-0.484,2.383-1.26     c2.448-1.189,2.806-3.042,2.788-4.066c0,0-0.133-0.189-0.152-0.22C309.005,477.868,308.627,480.185,306.096,481.411z"/></g></g><g><g><path fill="#FFFFFF" d="M304.926,483.917c1.133-0.656,1.579-1.437,0.521-1.406c-0.655,0.016,0.862-0.986,1.385-1.428     l-0.702,0.439c-0.839,0.582-1.826,1.143-0.801,1.122c0.721-0.014-0.426,1.128-1.398,1.15L304.926,483.917z"/></g></g><g><g><path fill="#FFFFFF" d="M306.326,483.733c0.917-0.437,1.59-1.587,0.87-1.651c-0.698-0.064-0.565-0.562,0.28-1.54l0.41-0.356     c-0.74,0.868-1.123,1.585-0.424,1.625c0.612,0.034,0.599,0.675,0.322,1.147l-0.909,0.565L306.326,483.733z"/></g></g><g><g><g><path fill="#FFFFFF" d="M304.193,479.415c-0.046,0.094-0.031,0.469,0.087,0.777c0.119,0.313,0.465,0.853,0.498,1.01      c-0.008,0.121-0.021,0.165,0.051,0.205c0.071,0.04,0.069,0.116,0.1,0.273c0.431-0.08,0.835-0.266,0.98-0.361      c-0.045-0.081-0.183-0.072-0.284-0.069c-0.2,0.006-0.285-0.049-0.405-0.065c-0.095-0.01-0.145-0.112-0.185-0.179      c-0.038-0.07-0.15-0.403-0.181-0.707c-0.031-0.305-0.077-0.783-0.116-0.871C304.7,479.341,304.402,478.985,304.193,479.415z"/></g></g></g><g><g><g><path fill="#FFFFFF" clip-rule="evenodd" d="M303.87,476.72c-0.002-0.001-0.005-0.002-0.007-0.002      c-0.015-0.001-0.036,0.002-0.049,0.002c-0.025,0.001-0.051,0.004-0.074,0c-0.033-0.002-0.05-0.029-0.056-0.06      c-0.004-0.013,0-0.03-0.004-0.042c-0.005-0.015-0.02-0.019-0.029-0.032c-0.014-0.014,0-0.033-0.007-0.043      c-0.004-0.006-0.019,0-0.025-0.008c-0.006-0.007-0.002-0.016-0.001-0.023c0.003-0.023-0.002-0.047-0.02-0.057      c-0.016-0.009-0.038-0.006-0.052-0.019c-0.013-0.008-0.009-0.023-0.007-0.037c0.002-0.015,0.008-0.028,0.011-0.04      c0.006-0.015,0.007-0.028,0.015-0.044c0.006-0.015,0.014-0.029,0.019-0.045c0.013-0.034,0.007-0.061-0.007-0.094      c-0.011-0.028,0.003-0.058,0.003-0.087c0.002-0.028-0.005-0.059,0-0.089c0.003-0.028,0.012-0.049,0.019-0.066      c0.005-0.018,0-0.02,0-0.02s-0.003,0.003-0.007,0.008c-0.005,0.005-0.027,0.015-0.034,0.015c-0.007,0,0.002-0.008,0.002-0.008      s-0.013,0.001-0.023,0.01c-0.011,0.004-0.02,0.001-0.017-0.014c0.002-0.014-0.007-0.005-0.01,0      c-0.003,0.004-0.007,0.004-0.003-0.005c0.006-0.011-0.006-0.022,0.004-0.037c0.009-0.016-0.007-0.016-0.01-0.027      c-0.003-0.011-0.003,0-0.006-0.012c-0.005-0.011,0.005-0.015,0.014-0.018c0.01-0.001,0.01-0.001-0.001-0.01      c-0.009-0.009,0-0.016,0-0.016s0.011-0.003,0.019-0.004c0.009,0-0.009-0.005-0.009-0.005s0.014,0.003,0.018-0.001      c0.006-0.004-0.027-0.005-0.027-0.011c0-0.005,0.014,0.001,0.021,0.004c0.007,0.002,0.009-0.004,0.018,0      c0.008,0.004,0.011,0.005,0.023-0.004c0.011-0.011-0.022-0.013-0.029-0.013c-0.007,0-0.004,0.001-0.011-0.004      c-0.007-0.003-0.018,0-0.018,0s0.011-0.008,0.022-0.009c0.008-0.002,0.029,0.009,0.049,0.014      c0.023,0.003,0.023-0.01,0.039-0.015c0.016-0.008,0.035-0.018,0.044-0.02c0.008-0.003-0.01-0.005-0.024-0.001      c-0.011,0.002-0.015,0.006-0.015,0.006s0.014-0.014,0.024-0.015c0.01-0.003,0.013-0.004,0.014-0.009      c0.002-0.004,0.02-0.004,0.026-0.009c0.006-0.001,0.006-0.001,0.017-0.001c0.013-0.003,0.014-0.006,0.018-0.011      c0.005-0.003-0.015-0.004-0.015-0.004s0.016-0.005,0.025-0.006c0.009-0.002,0.023-0.008,0.023-0.008s0.02-0.003,0.036-0.011      c0.015-0.006-0.031-0.004-0.031-0.004s0.014-0.005,0.04-0.009c0.025-0.005,0.029-0.015,0.04-0.023      c0.01-0.006,0.045-0.006,0.051-0.008c0.006-0.001,0.015-0.004,0.031,0c0.015,0.004,0.011-0.001,0.015-0.005      c0.005-0.004,0.003,0.007,0.013,0.007c0.009,0,0.003-0.005-0.002-0.013c-0.006-0.01-0.008-0.011-0.008-0.011      s0.002,0,0.009,0.006c0.006,0.005,0.01,0.004,0.02,0.006c0.007,0.004,0.014,0.015,0.022,0.018      c0.006,0.004,0.001-0.005-0.005-0.011c-0.005-0.008-0.005-0.013-0.007-0.028c-0.002-0.013,0.009,0.004,0.009,0.004      s0,0,0.008-0.01c0.008-0.009,0.024-0.005,0.032-0.002c0.009,0.001,0.014,0.006,0.02,0.013c0.006,0.009,0.019,0.005,0.019,0.005      s-0.014,0-0.026,0c-0.011,0-0.016,0.005-0.019,0.017c-0.002,0.01,0.016,0.015,0.016,0.015s0.009-0.019,0.022-0.024      c0.013-0.008,0.042,0.005,0.073,0.013c0.031,0.005,0.029,0.002,0.063,0.008c0.035,0.004,0.062,0.02,0.114,0.068      c0.052,0.049,0.07,0.111,0.096,0.149c0.027,0.041,0.037,0.065,0.048,0.077c0.009,0.01,0.004,0.026,0.019,0.064      c0.014,0.038,0.009,0.057,0.01,0.095c0.001,0.034,0.005,0.054,0.009,0.068c0.005,0.018-0.004,0.021-0.004,0.021      s0.003,0.008,0.001,0.025c-0.002,0.015-0.008,0.056-0.013,0.071c-0.005,0.014-0.003,0.054,0.008,0.083      c0.01,0.03-0.013,0.026-0.013,0.05c0,0.013,0.013,0.043,0.035,0.092c-0.064,0.027-0.053-0.022-0.109-0.009      c-0.001,0.024-0.009,0.056,0.049,0.12c0.232-0.061,0.335-0.06,0.544,0.003c0.302-0.038,0.572,0.066,0.701,0.104      c0.072,0.02,0.171,0.094,0.475,0.164c0.228,0,0.542,0.165,0.657,0.224c0.121,0.056,0.236,0.126,0.352,0.193      c0.052,0.028,0.105,0.06,0.157,0.088c0.011,0.008,0.025,0.018,0.036,0.021c0.028,0.011,0.064,0.016,0.094,0.025      c0.023,0.008,0.045,0.011,0.067,0.018c0.052,0.017,0.112,0.027,0.161,0.05c0.035,0.015,0.066,0.037,0.095,0.058      c0.012,0.011,0.023,0.023,0.036,0.03c0.011,0.008,0.025,0.011,0.035,0.025c0.012,0.018,0.018,0.042,0.028,0.062      c0.011,0.026,0.024,0.046,0.039,0.068c0.013,0.02,0.043,0.061,0.019,0.085c0.012,0.017,0.036,0.042,0.012,0.06      c0.012,0.014,0.001,0.024-0.005,0.038c-0.006,0.015-0.006,0.025-0.028,0.025c-0.013,0-0.026-0.009-0.034-0.016      c-0.006-0.005-0.007-0.013-0.012-0.017c-0.053-0.055-0.117-0.132-0.193-0.165c-0.107-0.042-0.203-0.025-0.203-0.025      c-0.046,0.005-0.003,0.116,0.006,0.145c0.024,0.024,0.024,0.028,0.048,0.049c0.021,0.02,0.03,0.052,0.025,0.083      c-0.008,0.037-0.049,0.008-0.07-0.005c-0.021-0.011-0.053-0.025-0.064-0.047c-0.005-0.013-0.009-0.025-0.014-0.037      c-0.013-0.027-0.03-0.051-0.044-0.077c-0.016-0.028-0.039-0.054-0.049-0.09c-0.009-0.023-0.014-0.049-0.019-0.078      c-0.001-0.015-0.004-0.028-0.01-0.038c-0.01-0.018-0.029-0.035-0.044-0.048c-0.044-0.03-0.095-0.052-0.15-0.066      c-0.145-0.036-0.295-0.085-0.449-0.112c-0.271-0.044-0.444-0.107-0.576-0.206c-0.152,0.014-0.233-0.009-0.358-0.034      c-0.254-0.053-0.329-0.03-0.632-0.074c-0.045,0.116-0.067,0.228-0.154,0.376c-0.01,0.037-0.02,0.234-0.076,0.379      c-0.054,0.147-0.116,0.651-0.091,0.824c0.34,0.03,1.062,0.133,1.144,0.134c0.009,0.013,0.006,0.043,0.006,0.043      s0.292,0.033,0.379,0.076c0.053,0.026,0.1,0.061,0.145,0.102c0.044,0.043,0.068,0.165,0.068,0.165s0.035,0.17,0.037,0.213      c0.006,0.127,0.028,0.606,0.035,0.735c0.006,0.132,0.042,0.369,0.042,0.369s0.11,0.194,0.35,0.175      c0.095-0.02,0.175-0.014,0.223-0.011c0.042,0.004,0.059,0.005,0.052,0.04c-0.005,0.036-0.788,0.358-0.788,0.358      s-0.043-0.059-0.068-0.141c0.007-0.059,0-0.115-0.028-0.138c-0.02-0.015-0.033-0.025-0.038-0.079      c-0.012-0.112,0.015-0.139-0.052-0.375c-0.124-0.437-0.241-0.503-0.191-0.874c-0.1,0.008-0.156,0.058-0.224,0.069      c-0.018,0.081-0.058,0.202-0.058,0.202s-1.057-0.042-1.652-0.064c-0.594,0.02-0.672-0.315-0.68-0.618      c0.012-0.095,0.01-0.342,0.073-0.358c0.007-0.076,0.025-0.111,0.027-0.168c0-0.212,0.012-0.397,0.012-0.397      s-0.036-0.212-0.023-0.36c-0.143,0.338-0.155,0.479-0.383,0.807c-0.006,0.059-0.044,0.186-0.06,0.243      c-0.096,0.213-0.213,0.421-0.308,0.636c-0.018,0.042-0.035,0.083-0.049,0.127c-0.007,0.017-0.019,0.04-0.019,0.061      c-0.003,0.033,0.028,0.063,0.032,0.095c0.005,0.045-0.004,0.076-0.024,0.114c-0.038,0.074-0.034,0.095-0.02,0.175      c0.004,0.026,0.006,0.053,0.006,0.078c0.002,0.032-0.007,0.148-0.066,0.123c-0.024-0.009-0.022-0.09-0.022-0.112      c-0.001-0.038-0.015-0.062-0.015-0.106c-0.039,0.079-0.093,0.153-0.106,0.195c-0.011,0.034-0.018,0.106-0.072,0.124      c-0.02,0.034-0.055,0.056-0.067,0.031c-0.024,0.011-0.029-0.013-0.032-0.021c-0.005-0.019,0.005-0.046,0.005-0.062      c0-0.04,0.049-0.231,0.066-0.279c0.019-0.05,0.047-0.204,0.068-0.261c0.007-0.02,0.019-0.039,0.02-0.059      c0.003-0.039,0.018-0.077,0.028-0.112c0.081-0.297,0.096-0.615,0.215-0.9c0.038-0.092,0.079-0.174,0.118-0.241      c0.174-0.299,0.077-0.553,0.328-0.951c0.012-0.195,0.036-0.256,0.081-0.354c0.055-0.126,0.174-0.181,0.269-0.21      c0.182-0.052,0.211-0.117,0.348-0.138c0.005-0.001-0.006-0.026-0.008-0.029C303.885,476.731,303.878,476.723,303.87,476.72z" fill-rule="evenodd"/></g></g></g><g><g><g><path fill="#FFFFFF" d="M305.6,481.666c-0.674,0.286-1.851,0.517-2.612,0.543c-0.168-0.008-0.324-0.039-0.005-0.113      c1.707-0.387,4.353-0.926,5.415-2.835C308.235,480.45,306.487,481.29,305.6,481.666z"/></g></g></g><g><g><path fill="#FFFFFF" d="M309.362,480.547c-0.027-0.171-0.1-0.242-0.613-0.088c-0.718,0.219,0.005-1.037,0.188-2.145     c-0.048,0.155-0.228,0.73-0.334,0.951c-0.352,0.733-0.669,1.733-0.131,1.541c0.707-0.251,0.688,0.231,0.464,0.874"/></g></g></g></svg>