<?xml version="1.0" encoding="UTF-8"?><svg xmlns="http://www.w3.org/2000/svg" xmlns:xlink="http://www.w3.org/1999/xlink" contentScriptType="text/ecmascript" zoomAndPan="magnify" contentStyleType="text/css" enable-background="new 0 0 1584 648" version="1.1" width="500.0" xml:space="preserve" preserveAspectRatio="xMidYMid meet" viewBox="24.153 24.3 97.893 76.62601" height="391.37637" x="0px" y="0px"><g id="DECKS"><polygon fill="#FFFFFF" stroke-width="0.6342" id="IDP-Deck15" points="27.257,27.3 27.153,97.926    118.924,97.796 119.046,50.158 113.874,50.158 97.918,50.158 97.358,50.158 97.358,49.259 97.358,44.085 94.967,44.071    94.979,39.863 94.994,34.644 89.806,34.644 58.941,34.644 58.941,27.37  " stroke="#939598"><polygon fill="#FFFFFF" stroke-width="0.6342" id="IDP-Deck15" points="27.257,27.3 27.153,97.926    118.924,97.796 119.046,50.158 113.874,50.158 97.918,50.158 97.358,50.158 97.358,49.259 97.358,44.085 94.967,44.071    94.979,39.863 94.994,34.644 89.806,34.644 58.941,34.644 58.941,27.37  " stroke="#939598"/></polygon></g><g id="DECKS_PUBLIC"><polygon fill="none" stroke-width="0.6342" points="89.806,39.849 89.78,49.246 92.186,49.259 92.186,62.627    97.918,62.627 97.918,55.363 113.874,55.363 113.716,91.65 32.361,91.667 32.429,32.723 53.733,32.723 53.733,39.849  " stroke="#939598"/><polyline fill="none" stroke-width="0.3171" points="80.262,62.919 91.899,62.919    91.899,49.651 89.493,49.651 89.493,40.428 53.336,40.428 53.336,49.716 51.682,49.716 51.682,62.919 63.039,62.919  " stroke="#939598" stroke-linejoin="round"/><path fill="none" d="M66.124,63.652   c-2.599-0.408-4.953-1.228-6.921-2.341c-1.631,1.57-4.215,1.555-5.821-0.06c-1.627-1.638-1.627-4.293,0-5.931   c0.088-0.089,0.191-0.154,0.284-0.232c-0.222-0.722-0.35-1.466-0.35-2.228c0-1.592,0.509-3.1,1.413-4.467   c-1.274-1.647-1.177-4.017,0.325-5.53c1.628-1.638,4.267-1.638,5.895,0c0.156,0.158,0.283,0.33,0.409,0.506   c2.512-1.017,8.319-1.611,11.468-1.611c3.183,0,6.146,0.608,8.674,1.642c0.132-0.187,0.269-0.371,0.435-0.537   c1.626-1.638,4.265-1.638,5.893,0c1.524,1.533,1.602,3.951,0.271,5.597c0.873,1.35,1.364,2.836,1.364,4.4   c0,0.741-0.121,1.462-0.328,2.16c0.123,0.098,0.252,0.185,0.366,0.301c1.628,1.638,1.628,4.293,0,5.931   c-1.618,1.627-4.233,1.635-5.862,0.026c-1.983,1.129-4.362,1.963-6.986,2.375" stroke-width="0.3171" stroke="#939598" stroke-linejoin="round"/><path fill="none" d="M83.1,44.038c0.983-0.988,2.577-0.988,3.56,0   c0.815,0.819,0.945,2.056,0.409,3.019l1.029,1.403c1.331-1.646,1.253-4.064-0.271-5.597c-1.628-1.638-4.267-1.638-5.893,0   c-0.166,0.166-0.303,0.35-0.435,0.537L83.1,44.038z" stroke-width="0.3171" stroke="#939598" stroke-linejoin="round"/><path fill="none" d="M85.197,60.419   c1.17,0.754,2.728,0.41,3.475-0.768c0.621-0.975,0.485-2.211-0.245-3.036l0.707-1.595c1.65,1.321,2.091,3.699,0.928,5.527   c-1.239,1.951-3.815,2.521-5.753,1.273c-0.197-0.127-0.502-0.39-0.67-0.542L85.197,60.419z" stroke-width="0.3171" stroke="#939598" stroke-linejoin="round"/><path fill="none" d="M59.725,43.97   c-0.983-0.989-2.576-0.989-3.559,0c-0.814,0.819-0.944,2.055-0.407,3.018l-1.03,1.405c-1.33-1.647-1.255-4.064,0.271-5.598   c1.627-1.638,4.265-1.638,5.891,0c0.167,0.167,0.305,0.35,0.436,0.537L59.725,43.97z" stroke-width="0.3171" stroke="#939598" stroke-linejoin="round"/><path fill="none" d="M57.643,60.454   c-1.172,0.753-2.727,0.41-3.476-0.769c-0.619-0.975-0.485-2.212,0.245-3.037l-0.705-1.593c-1.652,1.32-2.092,3.697-0.93,5.524   c1.241,1.952,3.816,2.522,5.755,1.273c0.198-0.127,0.502-0.389,0.671-0.541L57.643,60.454z" stroke-width="0.3171" stroke="#939598" stroke-linejoin="round"/><rect x="67.611" y="41.469" fill="#FFFFFF" width="7.633" stroke-linejoin="round" height="2.603" stroke="#939598" stroke-width="0.3171"/><g><g><rect x="99.245" y="62.507" fill="#FFFFFF" width="4.998" height="1.429" stroke="#939598" stroke-width="0.3171"/></g></g><g><g><rect x="99.245" y="61.08" fill="#FFFFFF" width="4.998" height="1.428" stroke="#939598" stroke-width="0.3171"/></g></g><g><g><rect x="99.245" y="59.65" fill="#FFFFFF" width="4.998" height="1.429" stroke="#939598" stroke-width="0.3171"/></g></g><g><g><rect x="99.245" y="58.221" fill="#FFFFFF" width="4.998" height="1.43" stroke="#939598" stroke-width="0.3171"/></g></g><g><g><rect x="97.835" y="63.927" fill="#FFFFFF" width="1.419" height="5.03" stroke="#939598" stroke-width="0.3171"/></g></g><g><g><rect x="94.996" y="63.927" fill="#FFFFFF" width="1.42" height="5.03" stroke="#939598" stroke-width="0.3171"/></g></g><g><g><rect x="96.416" y="63.927" fill="#FFFFFF" width="1.418" height="5.03" stroke="#939598" stroke-width="0.3171"/></g></g><rect x="99.254" y="63.937" fill="#FFFFFF" width="4.988" height="5.02" stroke="#939598" stroke-width="0.3171"/><g><g><rect x="40.042" y="62.507" fill="#FFFFFF" width="4.997" height="1.429" stroke="#939598" stroke-width="0.3171"/></g></g><g><g><rect x="40.042" y="61.08" fill="#FFFFFF" width="4.997" height="1.428" stroke="#939598" stroke-width="0.3171"/></g></g><g><g><rect x="40.042" y="59.65" fill="#FFFFFF" width="4.997" height="1.429" stroke="#939598" stroke-width="0.3171"/></g></g><g><g><rect x="40.042" y="58.221" fill="#FFFFFF" width="4.997" height="1.43" stroke="#939598" stroke-width="0.3171"/></g></g><g><g><rect x="45.028" y="63.927" fill="#FFFFFF" width="1.42" height="5.03" stroke="#939598" stroke-width="0.3171"/></g></g><g><g><rect x="47.868" y="63.927" fill="#FFFFFF" width="1.42" height="5.03" stroke="#939598" stroke-width="0.3171"/></g></g><g><g><rect x="46.448" y="63.927" fill="#FFFFFF" width="1.42" height="5.03" stroke="#939598" stroke-width="0.3171"/></g></g><rect x="40.042" y="63.937" fill="#FFFFFF" width="4.986" height="5.02" stroke="#939598" stroke-width="0.3171"/><rect x="40.487" y="51.152" fill="none" width="5.481" height="4.062" stroke="#939598" stroke-width="0.3171"/><line fill="none" x1="49.045" x2="36.473" y1="45.392" y2="41.958" stroke-linejoin="round" stroke="#000000" stroke-width="0.3171"/></g><g id="SYMBOLS_AND_VENUES"><g><g><path d="M65.977,80.984c-0.722,0-0.857-0.428-0.826-0.915h0.583c0,0.269,0.011,0.494,0.332,0.494     c0.197,0,0.293-0.128,0.293-0.319c0-0.506-1.173-0.537-1.173-1.374c0-0.44,0.208-0.79,0.919-0.79     c0.567,0,0.849,0.257,0.811,0.844h-0.567c0-0.21-0.035-0.424-0.271-0.424c-0.189,0-0.301,0.105-0.301,0.299     c0,0.533,1.173,0.486,1.173,1.37C66.949,80.898,66.42,80.984,65.977,80.984z"/></g></g><g><g><path d="M68.608,78.128h0.641l-0.78,1.26l0.78,1.549h-0.656l-0.667-1.439h-0.008v1.439h-0.583v-2.809h0.583v1.202h0.008     L68.608,78.128z"/></g></g><g><g><path d="M70.031,79.965l-0.73-1.836h0.637l0.417,1.187l0.444-1.187h0.595l-0.78,1.836v0.973h-0.583V79.965z"/></g></g><g><g><path d="M71.67,80.938v-2.809h0.583v2.342h0.873v0.467H71.67z"/></g></g><g><g><path d="M73.382,80.938v-2.809h0.583v2.809H73.382z"/></g></g><g><g><path d="M75.73,78.992c0.004-0.261-0.039-0.49-0.347-0.49c-0.363,0-0.363,0.494-0.363,1.039c0,0.879,0.085,1.035,0.417,1.035     c0.097,0,0.201-0.023,0.29-0.055v-0.623H75.41v-0.432h0.899v1.424c-0.158,0.031-0.556,0.094-0.788,0.094     c-0.98,0-1.092-0.409-1.092-1.475c0-0.708,0.035-1.428,0.988-1.428c0.571,0,0.926,0.323,0.892,0.911H75.73z"/></g></g><g><g><path d="M78.088,79.253v-1.125h0.583v2.809h-0.583v-1.253H77.42v1.253h-0.583v-2.809h0.583v1.125H78.088z"/></g></g><g><g><path d="M80.839,78.128v0.467h-0.648v2.342h-0.583v-2.342h-0.649v-0.467H80.839z"/></g></g><g><g><path d="M66.405,83.44c0-0.743,0-1.451,0.961-1.451c0.595,0,0.834,0.331,0.811,0.934h-0.571c0-0.374-0.066-0.513-0.24-0.513     c-0.328,0-0.371,0.311-0.371,1.031c0,0.72,0.042,1.031,0.371,1.031c0.271,0,0.259-0.35,0.267-0.572h0.575     c0,0.751-0.297,0.992-0.842,0.992C66.405,84.892,66.405,84.175,66.405,83.44z"/></g></g><g><g><path d="M69.851,83.16v-1.125h0.583v2.809h-0.583v-1.253h-0.668v1.253h-0.583v-2.809h0.583v1.125H69.851z"/></g></g><g><g><path d="M70.73,84.845l0.772-2.809h0.768l0.756,2.809h-0.614l-0.154-0.623h-0.795l-0.158,0.623H70.73z M71.854,82.576h-0.008     L71.58,83.79h0.556L71.854,82.576z"/></g></g><g><g><path d="M73.308,82.036h1.05c0.533,0,0.741,0.327,0.741,0.84c0,0.319-0.093,0.825-0.776,0.825h-0.432v1.144h-0.583V82.036z      M73.891,83.269h0.324c0.174,0,0.293-0.191,0.293-0.377c0-0.229-0.062-0.424-0.324-0.424h-0.293V83.269z"/></g></g><g><g><path d="M75.453,84.845v-2.809h1.521v0.432h-0.938v0.693H76.9v0.432h-0.865v0.821h0.969v0.432H75.453z"/></g></g><g><g><path d="M77.389,84.845v-2.809h0.583v2.342h0.873v0.467H77.389z"/></g></g><path d="M41.862,38.609v-0.723l-2.156,0.723v0.813c-0.175-0.423-0.59-0.723-1.077-0.723c-0.644,0-1.167,0.526-1.167,1.175   s0.523,1.174,1.167,1.174c0.487,0,0.902-0.299,1.077-0.722v0.813l2.156,0.723V41.14l2.874,0.723v-1.011l3.681-0.39v-1.175   l-3.681-0.39v-1.011L41.862,38.609z"/><path d="M39.706,46.21v0.443c-0.175-0.423-0.59-0.723-1.077-0.723c-0.644,0-1.167,0.525-1.167,1.174   c0,0.651,0.523,1.175,1.167,1.175c0.487,0,0.902-0.299,1.077-0.723v0.461c0,0.599,0.483,1.084,1.078,1.084h2.694   c0.753,0,1.065-0.424,1.186-1.047h3.753v-1.897h-3.755c-0.123-0.616-0.437-1.032-1.183-1.032h-2.694   C40.189,45.125,39.706,45.61,39.706,46.21z"/></g></svg>