<?xml version="1.0" encoding="UTF-8"?><svg xmlns="http://www.w3.org/2000/svg" xmlns:xlink="http://www.w3.org/1999/xlink" contentScriptType="text/ecmascript" zoomAndPan="magnify" contentStyleType="text/css" enable-background="new 0 0 1584 648" version="1.1" width="500.0" xml:space="preserve" preserveAspectRatio="xMidYMid meet" viewBox="148.64096 26.511993 89.41597 140.40302" height="785.1115" x="0px" y="0px"><g id="DECKS"><path fill="#FFFFFF" id="IDP-Deck14" d="M193.187,29.521   l-2.348,0.125l-0.121,0.007l-0.12,0.015l-2.347,0.311l-0.205,0.027l-0.2,0.054l-2.285,0.622l-0.098,0.026l-0.097,0.033   l-2.347,0.808l-0.126,0.044l-0.122,0.055l-2.657,1.18l-0.107,0.048l-0.104,0.057l-2.534,1.368l-0.074,0.04l-0.074,0.045   l-2.532,1.554l-0.07,0.043l-0.067,0.045l-2.348,1.618l-0.083,0.057l-0.079,0.062l-2.285,1.803l-0.091,0.071l-0.085,0.079   l-2.102,1.928l-0.052,0.048l-0.051,0.05l-2.039,2.052l-0.049,0.049l-0.045,0.052l-1.978,2.176l-0.079,0.088l-0.072,0.092   l-1.792,2.301l-0.077,0.1l-0.069,0.105l-2.038,3.109l-0.064,0.097l-0.056,0.101l-1.792,3.233l-0.057,0.102l-0.048,0.106   l-1.545,3.359l-0.049,0.104l-0.04,0.109l-1.297,3.482l-0.049,0.129l-0.037,0.135l-0.989,3.607l-0.027,0.098l-0.02,0.099   l-0.742,3.607l-0.027,0.134l-0.016,0.136l-0.432,3.73l-0.011,0.103l-0.006,0.103l-0.186,3.731l-0.007,0.138l0.005,0.14l0.124,3.17   l0.003,0.094l0.009,0.095l0.309,3.109l0.009,0.091l0.014,0.09l0.495,3.11l0.016,0.095l0.021,0.094l0.68,3.047l0.027,0.125   l0.038,0.122l0.927,2.985l0.03,0.097l0.037,0.096l1.05,2.736l0.025,0.07l0.03,0.067l0.782,1.78l-0.741,3.83l-0.011,0.058   l-0.01,0.058l-0.74,4.788l-0.016,0.101l-0.009,0.1l-0.432,4.853l-0.009,0.097l-0.003,0.099c0,0-0.123,4.852-0.124,4.931v45.476   l7.476-2.15v-29.226l0.107-1.576l0.201-1.365l0.344-1.236l0.462-1.242l0.55-1.155l0.642-1.045l0.739-0.992   c0.27-0.288,0.917-0.978,0.869-0.926l0.895-0.901l0.951-0.717l1.093-0.682l2.847-1.521l2.95-1.338l3.083-1.114l3.09-0.939   l3.14-0.701l3.199-0.527l3.265-0.293l3.267-0.117l3.268,0.117l3.266,0.293l3.2,0.527l3.138,0.701l3.09,0.939l3.085,1.114   l2.948,1.337l2.85,1.522l1.092,0.682l0.986,0.743l0.886,0.842l0.814,0.922l0.768,1.029l0.642,1.045l0.548,1.155l0.463,1.242   l0.343,1.236l0.202,1.365l0.107,1.576v29.226l7.477,2.15c0,0,0-45.476-0.002-45.555l-0.124-4.852l-0.003-0.099l-0.008-0.097   l-0.432-4.853l-0.009-0.1l-0.016-0.101l-0.741-4.788l-0.009-0.058l-0.011-0.058l-0.741-3.83l0.782-1.78l0.029-0.067l0.027-0.07   l1.05-2.736l0.036-0.096l0.031-0.096l0.927-2.986l0.038-0.122l0.027-0.125l0.681-3.047l0.021-0.094l0.016-0.095l0.494-3.11   l0.013-0.09l0.01-0.091l0.309-3.109l0.01-0.095l0.003-0.093l0.125-3.171l0.004-0.112l-0.004-0.114l-0.125-3.731l-0.004-0.154   l-0.021-0.153l-0.494-3.731l-0.012-0.085l-0.015-0.084l-0.68-3.607l-0.029-0.149l-0.041-0.146l-1.05-3.607l-0.031-0.111   l-0.041-0.106l-1.297-3.482l-0.042-0.109l-0.048-0.104l-1.544-3.359l-0.05-0.106l-0.056-0.102l-1.791-3.233l-0.056-0.101   l-0.064-0.097l-2.038-3.109l-0.071-0.105l-0.076-0.1l-1.793-2.301l-0.057-0.073l-0.061-0.069l-1.915-2.177l-0.063-0.07   l-0.066-0.067l-2.039-2.052l-0.065-0.066l-0.07-0.062l-2.164-1.927l-0.068-0.063l-0.074-0.058l-2.286-1.803l-0.08-0.062   l-0.082-0.057l-2.348-1.618l-0.052-0.036l-0.056-0.035l-2.471-1.555l-0.1-0.063l-0.105-0.055l-2.594-1.368l-0.091-0.047   l-0.094-0.042l-2.656-1.181l-0.122-0.055l-0.126-0.044l-2.348-0.808l-0.096-0.033l-0.098-0.026l-2.286-0.622l-0.199-0.054   l-0.203-0.027l-2.349-0.311l-0.119-0.015l-0.122-0.007l-2.347-0.125l-0.163-0.008L193.187,29.521z" stroke-width="0.6667" stroke="#939598" stroke-linejoin="round"><path fill="#FFFFFF" id="IDP-Deck14" d="M193.187,29.521   l-2.348,0.125l-0.121,0.007l-0.12,0.015l-2.347,0.311l-0.205,0.027l-0.2,0.054l-2.285,0.622l-0.098,0.026l-0.097,0.033   l-2.347,0.808l-0.126,0.044l-0.122,0.055l-2.657,1.18l-0.107,0.048l-0.104,0.057l-2.534,1.368l-0.074,0.04l-0.074,0.045   l-2.532,1.554l-0.07,0.043l-0.067,0.045l-2.348,1.618l-0.083,0.057l-0.079,0.062l-2.285,1.803l-0.091,0.071l-0.085,0.079   l-2.102,1.928l-0.052,0.048l-0.051,0.05l-2.039,2.052l-0.049,0.049l-0.045,0.052l-1.978,2.176l-0.079,0.088l-0.072,0.092   l-1.792,2.301l-0.077,0.1l-0.069,0.105l-2.038,3.109l-0.064,0.097l-0.056,0.101l-1.792,3.233l-0.057,0.102l-0.048,0.106   l-1.545,3.359l-0.049,0.104l-0.04,0.109l-1.297,3.482l-0.049,0.129l-0.037,0.135l-0.989,3.607l-0.027,0.098l-0.02,0.099   l-0.742,3.607l-0.027,0.134l-0.016,0.136l-0.432,3.73l-0.011,0.103l-0.006,0.103l-0.186,3.731l-0.007,0.138l0.005,0.14l0.124,3.17   l0.003,0.094l0.009,0.095l0.309,3.109l0.009,0.091l0.014,0.09l0.495,3.11l0.016,0.095l0.021,0.094l0.68,3.047l0.027,0.125   l0.038,0.122l0.927,2.985l0.03,0.097l0.037,0.096l1.05,2.736l0.025,0.07l0.03,0.067l0.782,1.78l-0.741,3.83l-0.011,0.058   l-0.01,0.058l-0.74,4.788l-0.016,0.101l-0.009,0.1l-0.432,4.853l-0.009,0.097l-0.003,0.099c0,0-0.123,4.852-0.124,4.931v45.476   l7.476-2.15v-29.226l0.107-1.576l0.201-1.365l0.344-1.236l0.462-1.242l0.55-1.155l0.642-1.045l0.739-0.992   c0.27-0.288,0.917-0.978,0.869-0.926l0.895-0.901l0.951-0.717l1.093-0.682l2.847-1.521l2.95-1.338l3.083-1.114l3.09-0.939   l3.14-0.701l3.199-0.527l3.265-0.293l3.267-0.117l3.268,0.117l3.266,0.293l3.2,0.527l3.138,0.701l3.09,0.939l3.085,1.114   l2.948,1.337l2.85,1.522l1.092,0.682l0.986,0.743l0.886,0.842l0.814,0.922l0.768,1.029l0.642,1.045l0.548,1.155l0.463,1.242   l0.343,1.236l0.202,1.365l0.107,1.576v29.226l7.477,2.15c0,0,0-45.476-0.002-45.555l-0.124-4.852l-0.003-0.099l-0.008-0.097   l-0.432-4.853l-0.009-0.1l-0.016-0.101l-0.741-4.788l-0.009-0.058l-0.011-0.058l-0.741-3.83l0.782-1.78l0.029-0.067l0.027-0.07   l1.05-2.736l0.036-0.096l0.031-0.096l0.927-2.986l0.038-0.122l0.027-0.125l0.681-3.047l0.021-0.094l0.016-0.095l0.494-3.11   l0.013-0.09l0.01-0.091l0.309-3.109l0.01-0.095l0.003-0.093l0.125-3.171l0.004-0.112l-0.004-0.114l-0.125-3.731l-0.004-0.154   l-0.021-0.153l-0.494-3.731l-0.012-0.085l-0.015-0.084l-0.68-3.607l-0.029-0.149l-0.041-0.146l-1.05-3.607l-0.031-0.111   l-0.041-0.106l-1.297-3.482l-0.042-0.109l-0.048-0.104l-1.544-3.359l-0.05-0.106l-0.056-0.102l-1.791-3.233l-0.056-0.101   l-0.064-0.097l-2.038-3.109l-0.071-0.105l-0.076-0.1l-1.793-2.301l-0.057-0.073l-0.061-0.069l-1.915-2.177l-0.063-0.07   l-0.066-0.067l-2.039-2.052l-0.065-0.066l-0.07-0.062l-2.164-1.927l-0.068-0.063l-0.074-0.058l-2.286-1.803l-0.08-0.062   l-0.082-0.057l-2.348-1.618l-0.052-0.036l-0.056-0.035l-2.471-1.555l-0.1-0.063l-0.105-0.055l-2.594-1.368l-0.091-0.047   l-0.094-0.042l-2.656-1.181l-0.122-0.055l-0.126-0.044l-2.348-0.808l-0.096-0.033l-0.098-0.026l-2.286-0.622l-0.199-0.054   l-0.203-0.027l-2.349-0.311l-0.119-0.015l-0.122-0.007l-2.347-0.125l-0.163-0.008L193.187,29.521z" stroke-width="0.6667" stroke="#939598" stroke-linejoin="round"/></path></g><g id="DECKS_PUBLIC"><path fill="#FFFFFF" d="M197.786,74.471v5.364h-2.581v1.918h11.614v-9.087   C201.975,74.198,199.19,74.437,197.786,74.471z" stroke-width="0.3333" stroke="#939598"/><line fill="none" x1="173.151" x2="173.151" y1="71.125" y2="93.692" stroke="#939598" stroke-width="0.3277"/><polygon fill="#FFFFFF" stroke-width="0.6667" points="185.936,50.474 185.936,50.474 187.542,51.78    188.902,53.521 189.767,55.448 190.2,57.812 190.137,59.739 189.519,61.792 188.468,63.719 186.986,65.335 183.66,65.335    183.66,50.474  " stroke="#939598"/><polygon fill="none" stroke-width="0.6667" points="191.002,32.751 188.654,33.062 186.367,33.683    184.021,34.492 181.363,35.673 178.831,37.042 176.297,38.596 173.95,40.214 171.664,42.017 169.563,43.944 167.525,45.996    165.548,48.172 163.756,50.474 161.716,53.583 159.925,56.816 158.381,60.174 157.083,63.656 156.095,67.264 155.354,70.87    154.921,74.601 154.735,78.333 154.859,81.504 155.167,84.613 155.662,87.723 156.341,90.77 157.268,93.755 158.319,96.491    159.492,99.164 158.566,103.953 157.825,108.741 157.392,113.591 157.268,118.442 157.268,132.433 158.566,132.433 158.689,130.63    158.937,128.952 159.37,127.396 159.925,125.904 160.605,124.474 161.407,123.168 162.335,121.924 163.385,120.806    164.435,119.748 165.671,118.815 166.969,118.007 169.996,116.389 173.146,114.96 176.421,113.778 179.695,112.783    183.032,112.037 186.429,111.477 189.889,111.167 193.35,111.042 196.81,111.167 200.27,111.477 203.667,112.037 207.003,112.783    210.278,113.778 213.553,114.96 216.704,116.389 219.732,118.007 221.029,118.815 222.264,119.748 223.376,120.806    224.364,121.924 225.291,123.168 226.095,124.474 226.774,125.904 227.33,127.396 227.763,128.952 228.01,130.63 228.134,132.433    229.431,132.433 229.431,118.442 229.308,113.591 228.875,108.741 228.134,103.953 227.206,99.164 228.382,96.491 229.431,93.755    230.358,90.77 231.038,87.723 231.532,84.613 231.84,81.504 231.964,78.333 231.84,74.601 231.346,70.87 230.667,67.264    229.617,63.656 228.319,60.174 226.774,56.816 224.982,53.583 222.944,50.474 221.151,48.172 219.238,45.996 217.198,43.944    215.035,42.017 212.749,40.214 210.401,38.596 207.93,37.042 205.335,35.673 202.678,34.492 200.331,33.683 198.045,33.062    195.697,32.751 193.35,32.627  " stroke="#939598"/><path fill="#FFFFFF" d="M194.585,74.647c-4.072-0.082-6.684-0.637-9.557-1.47h-0.761v8.576   h7.507v-2.611h0.524v-2.035h2.287V74.647z" stroke-width="0.3333" stroke="#939598"/><rect x="171.911" y="50.635" fill="#FFFFFF" width="4.387" height="12.835" stroke="#939598" stroke-width="0.3333"/><g><g><g><rect x="208.674" y="78.369" fill="#FFFFFF" width="2.346" height="0.854" stroke="#939598" stroke-width="0.3333"/></g></g></g><g><g><g><rect x="208.674" y="77.517" fill="#FFFFFF" width="2.346" height="0.852" stroke="#939598" stroke-width="0.3333"/></g></g></g><g><g><g><rect x="208.674" y="76.662" fill="#FFFFFF" width="2.346" height="0.854" stroke="#939598" stroke-width="0.3333"/></g></g></g><g><g><g><rect x="208.674" y="75.81" fill="#FFFFFF" width="2.346" height="0.852" stroke="#939598" stroke-width="0.3333"/></g></g></g><g><g><g><rect x="208.674" y="74.956" fill="#FFFFFF" width="2.346" height="0.854" stroke="#939598" stroke-width="0.3333"/></g></g></g><g><g><g><rect x="208.674" y="74.103" fill="#FFFFFF" width="2.346" height="0.853" stroke="#939598" stroke-width="0.3333"/></g></g></g><g><g><g><rect x="208.674" y="73.25" fill="#FFFFFF" width="2.346" height="0.853" stroke="#939598" stroke-width="0.3333"/></g></g></g><g><g><g><rect x="207.832" y="79.217" fill="#FFFFFF" width="0.848" height="2.535" stroke="#939598" stroke-width="0.3333"/></g></g></g><g><g><g><rect x="206.984" y="79.217" fill="#FFFFFF" width="0.848" height="2.535" stroke="#939598" stroke-width="0.3333"/></g></g></g><g><rect x="208.68" y="79.223" fill="#FFFFFF" width="2.34" height="2.53" stroke="#939598" stroke-width="0.3333"/></g><g><g><rect x="211.576" y="76.229" fill="#FFFFFF" width="2.346" height="0.853" stroke="#939598" stroke-width="0.3333"/></g></g><g><g><rect x="211.576" y="77.082" fill="#FFFFFF" width="2.346" height="0.853" stroke="#939598" stroke-width="0.3333"/></g></g><g><g><rect x="211.576" y="75.375" fill="#FFFFFF" width="2.346" height="0.854" stroke="#939598" stroke-width="0.3333"/></g></g><g><g><rect x="211.576" y="74.522" fill="#FFFFFF" width="2.346" height="0.853" stroke="#939598" stroke-width="0.3333"/></g></g><g><g><rect x="211.576" y="73.669" fill="#FFFFFF" width="2.346" height="0.853" stroke="#939598" stroke-width="0.3333"/></g></g><g><g><g><rect x="176.052" y="78.369" fill="#FFFFFF" width="2.346" height="0.854" stroke="#939598" stroke-width="0.3333"/></g></g></g><g><g><g><rect x="176.052" y="77.517" fill="#FFFFFF" width="2.346" height="0.852" stroke="#939598" stroke-width="0.3333"/></g></g></g><g><g><g><rect x="176.052" y="76.662" fill="#FFFFFF" width="2.346" height="0.854" stroke="#939598" stroke-width="0.3333"/></g></g></g><g><g><g><rect x="176.052" y="75.81" fill="#FFFFFF" width="2.346" height="0.852" stroke="#939598" stroke-width="0.3333"/></g></g></g><g><g><g><rect x="176.052" y="74.956" fill="#FFFFFF" width="2.346" height="0.854" stroke="#939598" stroke-width="0.3333"/></g></g></g><g><g><g><rect x="176.052" y="74.103" fill="#FFFFFF" width="2.346" height="0.853" stroke="#939598" stroke-width="0.3333"/></g></g></g><g><g><g><rect x="176.052" y="73.25" fill="#FFFFFF" width="2.346" height="0.853" stroke="#939598" stroke-width="0.3333"/></g></g></g><g><g><g><rect x="178.393" y="79.217" fill="#FFFFFF" width="0.847" height="2.535" stroke="#939598" stroke-width="0.3333"/></g></g></g><g><g><g><rect x="179.24" y="79.217" fill="#FFFFFF" width="0.848" height="2.535" stroke="#939598" stroke-width="0.3333"/></g></g></g><g><rect x="176.052" y="79.223" fill="#FFFFFF" width="2.34" height="2.53" stroke="#939598" stroke-width="0.3333"/></g><g><g><rect x="173.151" y="76.229" fill="#FFFFFF" width="2.345" height="0.853" stroke="#939598" stroke-width="0.3333"/></g></g><g><g><rect x="173.151" y="77.082" fill="#FFFFFF" width="2.345" height="0.853" stroke="#939598" stroke-width="0.3333"/></g></g><g><g><rect x="173.151" y="75.375" fill="#FFFFFF" width="2.345" height="0.854" stroke="#939598" stroke-width="0.3333"/></g></g><g><g><rect x="173.151" y="74.522" fill="#FFFFFF" width="2.345" height="0.853" stroke="#939598" stroke-width="0.3333"/></g></g><g><g><rect x="173.151" y="73.669" fill="#FFFFFF" width="2.345" height="0.853" stroke="#939598" stroke-width="0.3333"/></g></g><g><path fill="none" d="M157.361,93.692l16.836,0.01v5.241c0,3.384,4.751,7.279,7.092,6.872    c0,0,4.755-0.825,9.465-1.113v-2.056h5.19v2.019c4.714,0.241,9.214,1.113,9.214,1.113c4.011,0.584,7.406-4.594,7.406-7.011    c0-1.511,0-5.013,0-5.013h16.867" stroke-width="0.3333" stroke="#939598"/></g><path fill="none" d="M183.716,64.448h2.422c1.082,0,1.96-1.217,1.96-2.719l0,0   c0-1.501-0.878-2.719-1.96-2.719h-2.422V64.448z" stroke-width="0.3333" stroke="#939598"/><path fill="none" d="M183.716,57.421h2.422c1.082,0,1.96-1.218,1.96-2.719l0,0   c0-1.501-0.878-2.719-1.96-2.719h-2.422V57.421z" stroke-width="0.3333" stroke="#939598"/><path fill="none" d="M183.716,57.421h2.422c1.082,0,1.96-1.218,1.96-2.719l0,0   c0-1.501-0.878-2.719-1.96-2.719h-2.422V57.421z" stroke-width="0.3333" stroke="#939598"/><path fill="none" d="M212.564,93.755l2.78-10.821V70.746l3.646-1.244l0.989-1.866   l-0.804-0.497c0,0,1.122-2.07-0.308-4.229" stroke-width="0.3333" stroke="#939598"/><path fill="none" d="M213.985,61.045l0.062,0.435l-0.004,0.047   c0.339-0.095,0.691-0.162,1.06-0.162c1.296,0,2.435,0.633,3.162,1.6l5.173-2.418l-0.681-1.43L213.985,61.045z" stroke-width="0.3333" stroke="#939598"/><path fill="#FFFFFF" d="M171.293,114.524   c-1.692-1.469-6.544-5.856-9.329-10.509l-2.312,1.81c-0.217,1.401-0.552,3.085-0.545,3.033c0,0-0.434,4.849-0.428,4.767   c0,0-0.124,4.851-0.124,4.817v4.415C159.445,122.118,165.856,116.199,171.293,114.524z" stroke-width="0.6667" stroke="#939598" stroke-linejoin="round"/><g><path fill="#FFFFFF" d="M165.538,113.188    c-2.263-2.188-4.244-4.663-5.886-7.363l2.312-1.81c1.626,2.64,3.576,5.062,5.799,7.206L165.538,113.188z" stroke-width="0.3333" stroke="#939598" stroke-linejoin="round"/></g><g><line fill="none" x1="164.909" x2="167.199" y1="112.557" y2="110.721" stroke="#939598" stroke-width="0.3333"/></g><g><line fill="none" x1="164.348" x2="166.638" y1="111.899" y2="110.065" stroke="#939598" stroke-width="0.3333"/></g><g><line fill="none" x1="163.778" x2="166.068" y1="111.272" y2="109.438" stroke="#939598" stroke-width="0.3333"/></g><g><line fill="none" x1="163.212" x2="165.503" y1="110.635" y2="108.801" stroke="#939598" stroke-width="0.3333"/></g><g><line fill="none" x1="161.637" x2="163.928" y1="108.653" y2="106.82" stroke="#939598" stroke-width="0.3333"/></g><g><line fill="none" x1="161.076" x2="163.365" y1="107.996" y2="106.162" stroke="#939598" stroke-width="0.3333"/></g><g><line fill="none" x1="160.596" x2="162.886" y1="107.288" y2="105.454" stroke="#939598" stroke-width="0.3333"/></g><g><line fill="none" x1="160.123" x2="162.412" y1="106.57" y2="104.735" stroke="#939598" stroke-width="0.3333"/></g><path fill="#FFFFFF" d="M215.405,114.524   c1.693-1.469,6.545-5.856,9.33-10.51l2.312,1.811c0.218,1.401,0.552,3.085,0.546,3.033c0,0,0.432,4.849,0.427,4.767   c0,0,0.125,4.851,0.124,4.817v4.415C227.254,122.118,220.842,116.199,215.405,114.524z" stroke-width="0.6667" stroke="#939598" stroke-linejoin="round"/><g><path fill="#FFFFFF" d="M221.162,113.188    c2.264-2.188,4.244-4.663,5.886-7.363l-2.312-1.811c-1.625,2.641-3.576,5.062-5.798,7.206L221.162,113.188z" stroke-width="0.3333" stroke="#939598" stroke-linejoin="round"/></g><g><line fill="none" x1="221.79" x2="219.499" y1="112.557" y2="110.721" stroke="#939598" stroke-width="0.3333"/></g><g><line fill="none" x1="222.351" x2="220.061" y1="111.899" y2="110.065" stroke="#939598" stroke-width="0.3333"/></g><g><line fill="none" x1="222.92" x2="220.631" y1="111.272" y2="109.438" stroke="#939598" stroke-width="0.3333"/></g><g><line fill="none" x1="223.486" x2="221.196" y1="110.635" y2="108.801" stroke="#939598" stroke-width="0.3333"/></g><g><line fill="none" x1="225.062" x2="222.771" y1="108.653" y2="106.82" stroke="#939598" stroke-width="0.3333"/></g><g><line fill="none" x1="225.624" x2="223.333" y1="107.996" y2="106.162" stroke="#939598" stroke-width="0.3333"/></g><g><line fill="none" x1="226.102" x2="223.812" y1="107.288" y2="105.454" stroke="#939598" stroke-width="0.3333"/></g><g><line fill="none" x1="226.578" x2="224.288" y1="106.57" y2="104.735" stroke="#939598" stroke-width="0.3333"/></g><line fill="none" x1="170.344" x2="176.297" y1="43.428" y2="50.635" stroke="#939598" stroke-width="0.3333"/><line fill="none" x1="171.911" x2="171.911" y1="63.257" y2="64.745" stroke="#939598" stroke-width="0.2666"/><line fill="none" x1="155.857" x2="171.293" y1="68.425" y2="68.425" stroke="#939598" stroke-width="0.3438"/></g><g id="SYMBOLS_AND_VENUES"><g><g><g><path d="M175.354,60.767h-2.787v-1.533h0.428v0.946h0.688v-0.872h0.428v0.872h0.814v-0.977h0.429V60.767z"/></g></g></g><g><g><g><path d="M175.354,58.82h-2.787v-0.587h2.324v-0.879h0.463V58.82z"/></g></g></g><g><g><g><path d="M175.354,57.098h-2.787v-1.533h0.428v0.946h0.688v-0.872h0.428v0.872h0.814v-0.977h0.429V57.098z"/></g></g></g><g><g><g><path d="M172.566,55.381v-0.611l2.026-0.436v-0.008l-2.026-0.49v-0.58L175.354,54v0.689L172.566,55.381z"/></g></g></g><g><g><g><path d="M174.844,52.862h0.51v0.467h-0.51V52.862z"/></g></g></g><g><g><g><path d="M180.025,87.897h0.606l0.432,2.042h0.008l0.486-2.042h0.575l-0.737,2.809h-0.683L180.025,87.897z"/></g></g></g><g><g><g><path d="M182.396,90.707v-2.809h0.583v2.809H182.396z"/></g></g></g><g><g><g><path d="M184.708,87.897h0.641l-0.78,1.26l0.78,1.549h-0.656l-0.667-1.439h-0.008v1.439h-0.583v-2.809h0.583V89.1h0.008      L184.708,87.897z"/></g></g></g><g><g><g><path d="M185.616,90.707v-2.809h0.583v2.809H185.616z"/></g></g></g><g><g><g><path d="M186.693,90.707v-2.809h0.788l0.741,1.945h0.008v-1.945h0.544v2.809h-0.768l-0.76-2.054h-0.008v2.054H186.693z"/></g></g></g><g><g><g><path d="M190.539,88.761c0.004-0.261-0.039-0.49-0.347-0.49c-0.363,0-0.363,0.494-0.363,1.039c0,0.879,0.085,1.035,0.417,1.035      c0.097,0,0.201-0.023,0.29-0.055v-0.623h-0.316v-0.432h0.899v1.424c-0.158,0.031-0.556,0.094-0.788,0.094      c-0.98,0-1.092-0.409-1.092-1.475c0-0.708,0.035-1.428,0.988-1.428c0.571,0,0.926,0.323,0.892,0.911H190.539z"/></g></g></g><g><g><g><path d="M192.455,89.302c0-0.743,0-1.451,0.961-1.451c0.595,0,0.834,0.331,0.811,0.934h-0.571c0-0.374-0.066-0.513-0.24-0.513      c-0.328,0-0.371,0.311-0.371,1.031s0.042,1.031,0.371,1.031c0.271,0,0.259-0.35,0.267-0.572h0.575      c0,0.751-0.297,0.992-0.842,0.992C192.455,90.753,192.455,90.037,192.455,89.302z"/></g></g></g><g><g><g><path d="M195.2,90.707h-0.583v-2.809h1.077c0.398,0,0.652,0.257,0.652,0.735c0,0.358-0.139,0.626-0.517,0.688v0.008      c0.127,0.016,0.506,0.047,0.506,0.553c0,0.179,0.011,0.708,0.065,0.825h-0.571c-0.077-0.171-0.062-0.362-0.062-0.545      c0-0.334,0.031-0.619-0.417-0.619H195.2V90.707z M195.2,89.111h0.259c0.231,0,0.297-0.233,0.297-0.413      c0-0.269-0.112-0.37-0.297-0.37H195.2V89.111z"/></g></g></g><g><g><g><path d="M196.749,89.302c0-0.743,0-1.451,0.961-1.451c0.961,0,0.961,0.708,0.961,1.451c0,0.735,0,1.452-0.961,1.452      C196.749,90.753,196.749,90.037,196.749,89.302z M198.08,89.302c0-0.72-0.042-1.031-0.371-1.031s-0.371,0.311-0.371,1.031      s0.042,1.031,0.371,1.031S198.08,90.021,198.08,89.302z"/></g></g></g><g><g><g><path d="M198.888,87.897h0.599l0.363,1.973h0.008l0.44-1.973h0.687l0.417,1.973h0.008l0.347-1.973h0.572l-0.618,2.809h-0.645      l-0.436-2.054h-0.008l-0.482,2.054h-0.633L198.888,87.897z"/></g></g></g><g><g><g><path d="M202.571,90.707v-2.809h0.788l0.741,1.945h0.008v-1.945h0.544v2.809h-0.768l-0.76-2.054h-0.008v2.054H202.571z"/></g></g></g><g><g><g><path d="M186.051,94.593v-2.809h0.583v2.342h0.873v0.467H186.051z"/></g></g></g><g><g><g><path d="M187.735,93.188c0-0.743,0-1.451,0.961-1.451c0.961,0,0.961,0.708,0.961,1.451c0,0.735,0,1.452-0.961,1.452      C187.735,94.64,187.735,93.923,187.735,93.188z M189.066,93.188c0-0.72-0.042-1.031-0.371-1.031s-0.371,0.311-0.371,1.031      c0,0.72,0.042,1.031,0.371,1.031S189.066,93.908,189.066,93.188z"/></g></g></g><g><g><g><path d="M192.005,91.784v1.992c0,0.42-0.235,0.864-0.946,0.864c-0.641,0-0.95-0.335-0.95-0.864v-1.992h0.583v1.953      c0,0.346,0.147,0.482,0.359,0.482c0.254,0,0.37-0.171,0.37-0.482v-1.953H192.005z"/></g></g></g><g><g><g><path d="M192.484,94.593v-2.809h0.788l0.741,1.945h0.008v-1.945h0.544v2.809h-0.768l-0.76-2.055h-0.008v2.055H192.484z"/></g></g></g><g><g><g><path d="M196.33,92.647c0.004-0.261-0.039-0.49-0.347-0.49c-0.363,0-0.363,0.494-0.363,1.039c0,0.879,0.085,1.035,0.417,1.035      c0.097,0,0.201-0.023,0.29-0.055v-0.623h-0.316v-0.432h0.899v1.424c-0.158,0.031-0.556,0.094-0.788,0.094      c-0.98,0-1.092-0.409-1.092-1.475c0-0.708,0.035-1.428,0.988-1.428c0.571,0,0.926,0.323,0.892,0.911H196.33z"/></g></g></g><g><g><g><path d="M197.416,94.593v-2.809h1.521v0.432h-0.938v0.693h0.865v0.432h-0.865v0.821h0.969v0.432H197.416z"/></g></g></g><path d="M186.224,76.678v0.266c-0.105-0.254-0.353-0.433-0.644-0.433c-0.385,0-0.697,0.314-0.697,0.702   c0,0.388,0.312,0.702,0.697,0.702c0.291,0,0.538-0.179,0.644-0.433v0.276c0,0.357,0.289,0.647,0.644,0.647h1.609   c0.45,0,0.636-0.253,0.708-0.626h2.242v-1.134h-2.243c-0.074-0.367-0.262-0.615-0.707-0.615h-1.609   C186.512,76.03,186.224,76.319,186.224,76.678z"/><path d="M201.602,76.462V76.03l-1.288,0.432v0.486c-0.104-0.253-0.353-0.432-0.643-0.432c-0.385,0-0.698,0.314-0.698,0.702   c0,0.387,0.313,0.702,0.698,0.702c0.29,0,0.539-0.179,0.643-0.433v0.486l1.288,0.432v-0.432l1.715,0.432v-0.604l2.199-0.233v-0.702   l-2.199-0.232V76.03L201.602,76.462z"/><g><g><path d="M198.193,56.102v-2.809h1.035c0.444,0,0.811,0.128,0.811,0.728c0,0.323-0.158,0.556-0.475,0.619v0.008     c0.413,0.058,0.521,0.327,0.521,0.712c0,0.712-0.614,0.743-0.861,0.743H198.193z M198.776,54.44h0.39     c0.127,0,0.305-0.085,0.305-0.358c0-0.206-0.139-0.358-0.336-0.358h-0.359V54.44z M198.776,55.669h0.324     c0.124,0,0.401-0.003,0.401-0.396c0-0.249-0.093-0.401-0.386-0.401h-0.339V55.669z"/></g></g><g><g><path d="M200.549,56.102v-2.809h0.583v2.342h0.873v0.467H200.549z"/></g></g><g><g><path d="M204.143,53.292v1.992c0,0.42-0.235,0.864-0.946,0.864c-0.641,0-0.95-0.335-0.95-0.864v-1.992h0.583v1.953     c0,0.346,0.147,0.482,0.359,0.482c0.254,0,0.37-0.171,0.37-0.482v-1.953H204.143z"/></g></g><g><g><path d="M204.619,56.102v-2.809h1.521v0.432h-0.938v0.693h0.865v0.432h-0.865v0.821h0.969v0.432H204.619z"/></g></g><g><g><path d="M207.395,56.102v-2.809h0.938l0.436,1.91h0.008l0.463-1.91h0.907v2.809h-0.568v-2.167h-0.008l-0.536,2.167h-0.556     l-0.51-2.167h-0.007v2.167H207.395z"/></g></g><g><g><path d="M210.596,54.697c0-0.743,0-1.451,0.961-1.451c0.961,0,0.961,0.708,0.961,1.451c0,0.735,0,1.452-0.961,1.452     C210.596,56.148,210.596,55.432,210.596,54.697z M211.927,54.697c0-0.72-0.042-1.031-0.371-1.031s-0.371,0.311-0.371,1.031     c0,0.72,0.042,1.031,0.371,1.031S211.927,55.417,211.927,54.697z"/></g></g><g><g><path d="M212.955,54.697c0-0.743,0-1.451,0.961-1.451c0.961,0,0.961,0.708,0.961,1.451c0,0.735,0,1.452-0.961,1.452     C212.955,56.148,212.955,55.432,212.955,54.697z M214.287,54.697c0-0.72-0.042-1.031-0.371-1.031s-0.371,0.311-0.371,1.031     c0,0.72,0.042,1.031,0.371,1.031S214.287,55.417,214.287,54.697z"/></g></g><g><g><path d="M215.345,56.102v-2.809h0.788l0.741,1.945h0.008v-1.945h0.544v2.809h-0.768l-0.76-2.055h-0.008v2.055H215.345z"/></g></g><g><g><path d="M215.804,77.236h0.973c0.765,0,0.907,0.513,0.907,1.389c0,0.432,0.066,1.42-0.93,1.42h-0.95V77.236z M216.387,79.613     h0.282c0.355,0,0.424-0.268,0.424-0.973c0-0.518,0-0.973-0.405-0.973h-0.301V79.613z"/></g></g><g><g><path d="M218.101,80.045v-2.809h0.583v2.809H218.101z"/></g></g><g><g><path d="M218.912,80.045l0.772-2.809h0.769l0.756,2.809h-0.614l-0.154-0.623h-0.795l-0.158,0.623H218.912z M220.035,77.777     h-0.008l-0.266,1.214h0.556L220.035,77.777z"/></g></g><g><g><path d="M221.422,80.045v-2.809h0.938l0.436,1.91h0.008l0.463-1.91h0.907v2.809h-0.568v-2.167H223.6l-0.537,2.167h-0.556     l-0.51-2.167h-0.007v2.167H221.422z"/></g></g><g><g><path d="M224.573,78.641c0-0.743,0-1.451,0.961-1.451c0.961,0,0.961,0.708,0.961,1.451c0,0.735,0,1.452-0.961,1.452     C224.573,80.092,224.573,79.376,224.573,78.641z M225.904,78.641c0-0.72-0.042-1.031-0.371-1.031s-0.371,0.311-0.371,1.031     s0.042,1.031,0.371,1.031S225.904,79.36,225.904,78.641z"/></g></g><g><g><path d="M226.913,80.045v-2.809h0.788l0.741,1.945h0.008v-1.945h0.544v2.809h-0.768l-0.76-2.054h-0.008v2.054H226.913z"/></g></g><g><g><path d="M229.446,77.236h0.973c0.765,0,0.907,0.513,0.907,1.389c0,0.432,0.066,1.42-0.93,1.42h-0.95V77.236z M230.029,79.613     h0.282c0.355,0,0.425-0.268,0.425-0.973c0-0.518,0-0.973-0.406-0.973h-0.301V79.613z"/></g></g><g><g><path d="M219.476,82.641c0-0.743,0-1.451,0.961-1.451c0.595,0,0.834,0.331,0.811,0.934h-0.571c0-0.374-0.066-0.513-0.24-0.513     c-0.328,0-0.371,0.311-0.371,1.031s0.042,1.031,0.371,1.031c0.271,0,0.259-0.35,0.267-0.572h0.575     c0,0.751-0.297,0.992-0.842,0.992C219.476,84.092,219.476,83.376,219.476,82.641z"/></g></g><g><g><path d="M221.653,84.045v-2.809h0.583v2.342h0.873v0.467H221.653z"/></g></g><g><g><path d="M225.248,81.236v1.992c0,0.42-0.235,0.864-0.946,0.864c-0.641,0-0.95-0.335-0.95-0.864v-1.992h0.583v1.953     c0,0.346,0.147,0.482,0.359,0.482c0.255,0,0.371-0.171,0.371-0.482v-1.953H225.248z"/></g></g><g><g><path d="M225.731,84.045v-2.809h1.035c0.444,0,0.811,0.128,0.811,0.728c0,0.323-0.158,0.556-0.475,0.619v0.008     c0.413,0.058,0.521,0.327,0.521,0.712c0,0.712-0.614,0.743-0.861,0.743H225.731z M226.314,82.384h0.39     c0.127,0,0.305-0.085,0.305-0.358c0-0.206-0.139-0.358-0.336-0.358h-0.359V82.384z M226.314,83.613h0.324     c0.124,0,0.401-0.004,0.401-0.396c0-0.249-0.093-0.401-0.386-0.401h-0.339V83.613z"/></g></g><g><g><path d="M159.643,60.653c0-0.743,0-1.451,0.961-1.451c0.595,0,0.834,0.33,0.811,0.934h-0.571c0-0.374-0.066-0.514-0.24-0.514     c-0.328,0-0.371,0.312-0.371,1.031s0.042,1.031,0.371,1.031c0.271,0,0.259-0.351,0.267-0.572h0.575     c0,0.751-0.297,0.992-0.842,0.992C159.643,62.104,159.643,61.389,159.643,60.653z"/></g></g><g><g><path d="M161.82,62.058v-2.809h0.583v2.342h0.873v0.467H161.82z"/></g></g><g><g><path d="M163.504,60.653c0-0.743,0-1.451,0.961-1.451c0.961,0,0.961,0.708,0.961,1.451c0,0.735,0,1.451-0.961,1.451     C163.504,62.104,163.504,61.389,163.504,60.653z M164.835,60.653c0-0.72-0.042-1.031-0.371-1.031s-0.371,0.312-0.371,1.031     s0.042,1.031,0.371,1.031S164.835,61.373,164.835,60.653z"/></g></g><g><g><path d="M167.774,59.249v1.992c0,0.42-0.235,0.863-0.946,0.863c-0.641,0-0.95-0.335-0.95-0.863v-1.992h0.583v1.953     c0,0.346,0.147,0.482,0.359,0.482c0.255,0,0.371-0.172,0.371-0.482v-1.953H167.774z"/></g></g><g><g><path d="M168.261,59.249h0.973c0.765,0,0.907,0.513,0.907,1.389c0,0.432,0.066,1.42-0.93,1.42h-0.95V59.249z M168.844,61.626     h0.282c0.355,0,0.425-0.269,0.425-0.973c0-0.518,0-0.973-0.406-0.973h-0.301V61.626z"/></g></g><g><g><path d="M161.065,65.944v-2.809h0.788l0.741,1.945h0.008v-1.945h0.544v2.809h-0.768l-0.76-2.055h-0.008v2.055H161.065z"/></g></g><g><g><path d="M163.637,65.944v-2.809h0.583v2.809H163.637z"/></g></g><g><g><path d="M164.714,65.944v-2.809h0.788l0.741,1.945h0.008v-1.945h0.544v2.809h-0.768l-0.76-2.055h-0.008v2.055H164.714z"/></g></g><g><g><path d="M167.286,65.944v-2.809h1.521v0.432h-0.938v0.692h0.865v0.432h-0.865v0.821h0.969v0.432H167.286z"/></g></g><g><path d="M159.974,81.921c-0.744,0-0.884-0.483-0.852-1.033h0.601c0,0.304,0.013,0.559,0.343,0.559c0.203,0,0.303-0.145,0.303-0.36    c0-0.571-1.211-0.606-1.211-1.552c0-0.496,0.215-0.892,0.948-0.892c0.585,0,0.876,0.29,0.836,0.954h-0.585    c0-0.238-0.036-0.479-0.279-0.479c-0.195,0-0.311,0.118-0.311,0.339c0,0.602,1.211,0.549,1.211,1.547    C160.978,81.824,160.432,81.921,159.974,81.921z"/></g><g><path d="M163.354,78.695v2.25c0,0.475-0.243,0.976-0.976,0.976c-0.661,0-0.979-0.378-0.979-0.976v-2.25H162v2.206    c0,0.391,0.151,0.545,0.371,0.545c0.263,0,0.382-0.193,0.382-0.545v-2.206H163.354z"/></g><g><path d="M163.847,81.868v-3.173h0.602v3.173H163.847z"/></g><g><path d="M166.668,78.695v0.527h-0.67v2.646h-0.601v-2.646h-0.67v-0.527H166.668z"/></g><g><path d="M166.95,81.868v-3.173h1.569v0.487h-0.968v0.783h0.892v0.487h-0.892v0.927h0.999v0.488H166.95z"/></g><g><path d="M157.207,86.265v-3.173h0.602v2.646h0.899v0.527H157.207z"/></g><g><path d="M158.945,84.679c0-0.84,0-1.64,0.992-1.64c0.991,0,0.991,0.8,0.991,1.64c0,0.83,0,1.639-0.991,1.639    C158.945,86.317,158.945,85.509,158.945,84.679z M160.319,84.679c0-0.813-0.044-1.165-0.382-1.165    c-0.339,0-0.383,0.352-0.383,1.165c0,0.812,0.044,1.164,0.383,1.164C160.275,85.843,160.319,85.491,160.319,84.679z"/></g><g><path d="M163.353,83.092v2.25c0,0.475-0.243,0.976-0.976,0.976c-0.661,0-0.979-0.378-0.979-0.976v-2.25h0.601v2.206    c0,0.391,0.151,0.545,0.371,0.545c0.263,0,0.382-0.193,0.382-0.545v-2.206H163.353z"/></g><g><path d="M163.85,86.265v-3.173h0.812l0.765,2.197h0.008v-2.197h0.562v3.173h-0.792l-0.785-2.32h-0.008v2.32H163.85z"/></g><g><path d="M167.82,84.067c0.004-0.295-0.04-0.554-0.358-0.554c-0.375,0-0.375,0.558-0.375,1.173c0,0.994,0.088,1.17,0.431,1.17    c0.1,0,0.207-0.027,0.299-0.062v-0.703h-0.327v-0.487h0.928v1.608c-0.163,0.035-0.573,0.105-0.812,0.105    c-1.011,0-1.127-0.461-1.127-1.666c0-0.799,0.036-1.612,1.02-1.612c0.59,0,0.956,0.364,0.92,1.028H167.82z"/></g><g><path d="M168.942,86.265v-3.173h1.569v0.487h-0.968v0.783h0.892v0.487h-0.892v0.927h0.999v0.488H168.942z"/></g></g><g id="ICONS"><g><path fill="#0089CF" d="M229.445,69.735c0,2.478-2.01,4.488-4.49,4.488c-2.478,0-4.485-2.011-4.485-4.488    c0-2.479,2.007-4.49,4.485-4.49C227.435,65.245,229.445,67.256,229.445,69.735z"/></g><g><g><path fill="#FFFFFF" d="M227.384,67.738c0,0-1.555,1.622-2.019,2.085c-0.289,0.293-0.35,0.424-0.35,0.771     c0,0.215,0,1.465,0,1.765c0.15,0.029,0.143,0.175,0.089,0.212c0.206,0.154,0.218,0.168,0.602,0.215     c0.303,0.034,0.292,0.162,0.216,0.162h-2.137c-0.077,0-0.089-0.128,0.216-0.162c0.384-0.047,0.394-0.061,0.601-0.215     c-0.052-0.037-0.06-0.182,0.089-0.212c0-0.3,0-1.55,0-1.765c0-0.347-0.059-0.479-0.351-0.771c-0.463-0.463-2.02-2.085-2.02-2.085     H227.384z"/></g></g><g><g><polygon fill="#0089CF" points="226.469,67.471 224.705,69.628 224.753,69.665 224.787,69.663 226.551,67.505    "/></g></g><g><g><path fill="#0089CF" d="M225.099,69.415c-0.25-0.045-0.425-0.241-0.391-0.433c0.036-0.194,0.268-0.317,0.516-0.273     c0.251,0.045,0.427,0.24,0.393,0.434C225.582,69.337,225.349,69.459,225.099,69.415z"/></g></g><g><path fill="#0089CF" d="M208.68,98.506c0,2.478-2.01,4.488-4.49,4.488c-2.478,0-4.485-2.011-4.485-4.488    c0-2.479,2.007-4.49,4.485-4.49C206.67,94.016,208.68,96.027,208.68,98.506z"/></g><g><g><path fill="#FFFFFF" d="M206.619,96.509c0,0-1.555,1.622-2.019,2.085c-0.289,0.293-0.35,0.424-0.35,0.772     c0,0.215,0,1.464,0,1.765c0.15,0.029,0.143,0.175,0.089,0.211c0.206,0.154,0.218,0.168,0.602,0.215     c0.303,0.034,0.292,0.162,0.216,0.162h-2.137c-0.077,0-0.089-0.127,0.216-0.162c0.384-0.047,0.394-0.061,0.601-0.215     c-0.052-0.037-0.06-0.182,0.089-0.211c0-0.301,0-1.55,0-1.765c0-0.347-0.059-0.479-0.351-0.772     c-0.463-0.463-2.02-2.085-2.02-2.085H206.619z"/></g></g><g><g><polygon fill="#0089CF" points="205.704,96.242 203.941,98.399 203.988,98.436 204.023,98.434 205.787,96.276    "/></g></g><g><g><path fill="#0089CF" d="M204.334,98.186c-0.25-0.045-0.425-0.241-0.391-0.433c0.036-0.194,0.267-0.317,0.516-0.273     c0.251,0.045,0.427,0.24,0.393,0.434C204.817,98.108,204.585,98.23,204.334,98.186z"/></g></g><g><path fill="#0089CF" d="M202.325,46.308c0,2.478-2.01,4.488-4.49,4.488c-2.478,0-4.485-2.011-4.485-4.488    c0-2.479,2.007-4.49,4.485-4.49C200.315,41.818,202.325,43.828,202.325,46.308z"/></g><g><g><path fill="#FFFFFF" d="M200.264,44.311c0,0-1.555,1.622-2.019,2.085c-0.289,0.293-0.35,0.424-0.35,0.771     c0,0.215,0,1.465,0,1.765c0.15,0.029,0.143,0.175,0.089,0.211c0.206,0.154,0.218,0.168,0.602,0.215     c0.303,0.034,0.292,0.162,0.216,0.162h-2.137c-0.077,0-0.089-0.127,0.216-0.162c0.384-0.047,0.394-0.061,0.601-0.215     c-0.052-0.037-0.06-0.182,0.089-0.211c0-0.3,0-1.55,0-1.765c0-0.347-0.059-0.479-0.351-0.771c-0.463-0.463-2.02-2.085-2.02-2.085     H200.264z"/></g></g><g><g><polygon fill="#0089CF" points="199.348,44.044 197.585,46.201 197.633,46.238 197.667,46.236 199.431,44.078    "/></g></g><g><g><path fill="#0089CF" d="M197.978,45.988c-0.25-0.045-0.425-0.241-0.391-0.433c0.036-0.194,0.268-0.317,0.516-0.273     c0.251,0.045,0.427,0.24,0.393,0.434C198.462,45.91,198.229,46.032,197.978,45.988z"/></g></g><g><path fill="#0089CF" d="M167.514,71.506c0,2.478-2.01,4.488-4.49,4.488c-2.478,0-4.485-2.011-4.485-4.488    c0-2.479,2.007-4.49,4.485-4.49C165.504,67.016,167.514,69.027,167.514,71.506z"/></g><g><g><path fill="#FFFFFF" d="M165.452,69.509c0,0-1.555,1.622-2.019,2.085c-0.289,0.293-0.35,0.424-0.35,0.771     c0,0.215,0,1.465,0,1.765c0.15,0.029,0.143,0.175,0.089,0.212c0.206,0.154,0.218,0.168,0.602,0.215     c0.303,0.034,0.292,0.162,0.216,0.162h-2.137c-0.077,0-0.089-0.128,0.216-0.162c0.384-0.047,0.394-0.061,0.601-0.215     c-0.052-0.037-0.06-0.182,0.089-0.212c0-0.3,0-1.55,0-1.765c0-0.347-0.059-0.479-0.351-0.771c-0.463-0.463-2.02-2.085-2.02-2.085     H165.452z"/></g></g><g><g><polygon fill="#0089CF" points="164.537,69.242 162.774,71.399 162.822,71.436 162.856,71.434 164.62,69.276    "/></g></g><g><g><path fill="#0089CF" d="M163.167,71.186c-0.25-0.045-0.425-0.241-0.391-0.433c0.036-0.194,0.268-0.317,0.516-0.273     c0.251,0.045,0.427,0.24,0.393,0.434C163.65,71.108,163.418,71.23,163.167,71.186z"/></g></g></g></svg>