<svg id="Layer_1" data-name="Layer 1" xmlns="http://www.w3.org/2000/svg" viewBox="0 0 176.73 361"><title>deckPlanLegend</title><rect x="0.5" y="0.5" width="36" height="36" style="fill:#ed2024;stroke:#231f20;stroke-miterlimit:10"/><rect x="0.5" y="54.5" width="36" height="36" style="fill:#62a0d5;stroke:#231f20;stroke-miterlimit:10"/><rect x="0.5" y="108.5" width="36" height="36" style="fill:#cc82b7;stroke:#231f20;stroke-miterlimit:10"/><rect x="0.5" y="162.5" width="36" height="36" style="fill:#7dcaae;stroke:#231f20;stroke-miterlimit:10"/><rect x="0.5" y="216.5" width="36" height="36" style="fill:#c2cae7;stroke:#231f20;stroke-miterlimit:10"/><rect x="0.5" y="270.5" width="36" height="36" style="fill:#c2cae7;stroke:#231f20;stroke-miterlimit:10"/><rect x="0.5" y="324.5" width="36" height="36" style="fill:#f0bf65;stroke:#231f20;stroke-miterlimit:10"/><path d="M56.06,306.69c-1.1.4-2.4,1.6-2.4,4.1a4.86,4.86,0,0,0,4.8,4.8,6.51,6.51,0,0,0,5.8-3.4l.6,1.6a7.79,7.79,0,0,1-6.4,3.2,6.22,6.22,0,0,1-6.2-6.2,5.29,5.29,0,0,1,3.8-5.5Zm7.1-1.7.1,1.4h-4.7v1.4h6.6l1.9,5.6,2.2-.8.5,1.4-3.7,1.3-2.1-6.1H57l-.3-8c0-.6-.4-.8-.5-1.4A1.81,1.81,0,0,1,58,298h.08a1.8,1.8,0,0,1,2,1.55h0a.88.88,0,0,1,0,.23,2,2,0,0,1-1.7,1.9l.1,3.4Z" transform="translate(-42.5 -17.89)" style="fill:#010101"/><text transform="translate(47.5 18.5) scale(0.77 1)" style="font-size:19.319307327270508px;fill:#231f20;font-family:MyriadPro-Regular, Myriad Pro"><tspan style="letter-spacing:0.0040005774780450115em">R</tspan><tspan x="10.47" y="0">ese</tspan><tspan x="37.48" y="0" style="letter-spacing:0.02498721342844507em">r</tspan><tspan x="44.28" y="0" style="letter-spacing:-0.010001443695112527em">v</tspan><tspan x="53.38" y="0">ed</tspan></text><text transform="translate(45.5 72.5) scale(0.77 1)" style="font-size:19.319307327270508px;fill:#231f20;font-family:MyriadPro-Regular, Myriad Pro"><tspan style="letter-spacing:0.003967785859372511em">D</tspan><tspan x="12.94" y="0" style="letter-spacing:0.00003279161867250009em">elu</tspan><tspan x="37.83" y="0" style="letter-spacing:-0.014985769733332542em">x</tspan><tspan x="46.48" y="0">e </tspan><tspan x="60.26" y="0" style="letter-spacing:0.0040005774780450115em">R</tspan><tspan x="70.73" y="0">oom</tspan></text><text transform="translate(47.5 126.5) scale(0.77 1)" style="font-size:19.319307327270508px;fill:#231f20;font-family:MyriadPro-Regular, Myriad Pro"><tspan style="letter-spacing:-0.010985192255287532em">C</tspan><tspan x="10.99" y="0">oupl</tspan><tspan x="47.8" y="0" style="letter-spacing:-0.02498721342844507em">e</tspan><tspan x="56.99" y="0" style="letter-spacing:-0.0719776029861377em">’</tspan><tspan x="59.6" y="0">s Sui</tspan><tspan x="96.03" y="0" style="letter-spacing:-0.006000866217067517em">t</tspan><tspan x="102.31" y="0">e</tspan></text><text transform="translate(45.5 180.5) scale(0.77 1)" style="font-size:19.319307327270508px;fill:#231f20;font-family:MyriadPro-Regular, Myriad Pro">Ultim<tspan x="44.09" y="0" style="letter-spacing:-0.0040005774780450115em">a</tspan><tspan x="53.32" y="0" style="letter-spacing:-0.006000866217067517em">t</tspan><tspan x="59.6" y="0">e </tspan><tspan x="73.37" y="0" style="letter-spacing:-0.044957309199997623em">F</tspan><tspan x="81.91" y="0" style="letter-spacing:-0.00003279161867250009em">amily Sui</tspan><tspan x="154.3" y="0" style="letter-spacing:-0.006000866217067517em">t</tspan><tspan x="160.58" y="0">e</tspan></text><text transform="translate(47.5 234.5) scale(0.77 1)" style="font-size:19.319307327270508px;fill:#231f20;font-family:MyriadPro-Regular, Myriad Pro"><tspan style="letter-spacing:-0.002984037299197509em">S</tspan><tspan x="9.47" y="0">tudio</tspan></text><text transform="translate(45.5 287.4) scale(0.77 1)" style="font-size:19.319307327270508px;fill:#231f20;font-family:MyriadPro-Regular, Myriad Pro"><tspan style="letter-spacing:-0.011968940815462535em">A</tspan><tspan x="11.59" y="0" style="letter-spacing:-0.006000866217067517em">cc</tspan><tspan x="28.67" y="0">essible Sui</tspan><tspan x="112.19" y="0" style="letter-spacing:-0.006000866217067517em">t</tspan><tspan x="118.46" y="0">e</tspan></text><text transform="translate(47.5 342.5) scale(0.77 1)" style="font-size:19.319307327270508px;fill:#231f20;font-family:MyriadPro-Regular, Myriad Pro"><tspan style="letter-spacing:0.0040005774780450115em">R</tspan><tspan x="10.47" y="0" style="letter-spacing:-0.00698461477724252em">o</tspan><tspan x="20.94" y="0" style="letter-spacing:-0.004033369096717512em">y</tspan><tspan x="29.96" y="0" style="letter-spacing:0.00006558323734500018em">al Sui</tspan><tspan x="72.62" y="0" style="letter-spacing:-0.0060336578357400176em">t</tspan><tspan x="78.9" y="0">e</tspan></text></svg>