<?xml version="1.0" encoding="UTF-8"?><svg xmlns="http://www.w3.org/2000/svg" xmlns:xlink="http://www.w3.org/1999/xlink" contentScriptType="text/ecmascript" zoomAndPan="magnify" contentStyleType="text/css" enable-background="new 0 0 1584 648" version="1.1" width="500.0" xml:space="preserve" preserveAspectRatio="xMidYMid meet" viewBox="1474.8741 23.083 86.38391 466.511" height="2700.2192" x="0px" y="0px"><g id="DECKS"><path fill="#FFFFFF" id="IDP-Deck02" d="M1556.422,486.594   c1.209-4.601,1.836-9.508,1.836-14.594V118.402c0-36.771-4.35-56.031-8.773-73.89l1.502,0.019l-0.635-2.713   c-1.232-5.256-2.633-10.617-4.146-15.735l-56.217,0.031c-1.482,5.095-2.859,10.265-4.156,15.693l-0.643,2.686l1.477,0.003   c-3.971,15.698-8.793,39.784-8.793,73.907V472c0,5.152,0.576,10.02,1.703,14.533L1556.422,486.594z" stroke-width="0.6464" stroke="#939598" stroke-linejoin="round"><path fill="#FFFFFF" id="IDP-Deck02" d="M1556.422,486.594   c1.209-4.601,1.836-9.508,1.836-14.594V118.402c0-36.771-4.35-56.031-8.773-73.89l1.502,0.019l-0.635-2.713   c-1.232-5.256-2.633-10.617-4.146-15.735l-56.217,0.031c-1.482,5.095-2.859,10.265-4.156,15.693l-0.643,2.686l1.477,0.003   c-3.971,15.698-8.793,39.784-8.793,73.907V472c0,5.152,0.576,10.02,1.703,14.533L1556.422,486.594z" stroke-width="0.6464" stroke="#939598" stroke-linejoin="round"/></path></g><g id="DECKS_PUBLIC"><path fill="none" d="M1553.611,484.357   c0.918-3.92,1.396-8.066,1.396-12.357V118.402c0-24.414-3.172-46.13-5.898-60.313l-6.672-4.411h-1.596l-6.885-4.771l1.48-2.686   h5.404V30.17h-45.451v16.052h5.334l1.545,2.656l-6.879,4.801h-1.662l-6.629,4.376c-2.754,14.265-5.975,36.124-5.975,60.347V472   c0,4.367,0.416,8.461,1.24,12.272L1553.611,484.357z" stroke-width="0.6464" stroke="#939598" stroke-linejoin="round"/><path fill="none" d="M1534.061,48.857c-0.957-0.407-3.84-1.898-6.777-0.912   c-3.178,1.07-6.633,1.335-9.166,1.335c-2.537,0-5.842-0.177-9.008-1.269c-2.695-0.93-5.229,0.039-6.891,0.898" stroke-width="0.3232" stroke="#939598"/><path fill="none" d="M1507.633,47.842c-0.008,0.404-0.01,0.83-0.01,1.276   c0,4.718,4.699,6.351,10.494,6.351c5.797,0,10.494-1.633,10.494-6.351c0-0.489-0.004-0.955-0.012-1.398" stroke-width="0.3232" stroke="#939598"/><path fill="none" d="M1495.061,54.083c1.561,6.055,0.463,9.316,0.082,10.86   c-0.379,1.543-2.959,7.465,0.678,14.637c4.115,8.111,11.963,9.009,22.002,9.009s17.889-0.897,22.004-9.009   c3.635-7.171,1.055-13.094,0.676-14.637c-0.379-1.545-1.477-4.806,0.084-10.86" stroke-width="0.1939" stroke="#939598"/><polyline fill="none" stroke-width="0.6464" points="1526.121,114.063 1526.121,131.323 1509.822,131.323    1509.822,117.875  " stroke="#939598"/><rect x="1498.717" y="137.887" fill="#FFFFFF" width="4.543" height="14.218" stroke="#939598" stroke-width="0.3232"/><rect x="1532.875" y="137.887" fill="#FFFFFF" width="4.543" height="14.218" stroke="#939598" stroke-width="0.3232"/><path fill="none" d="M1526.994,143.231h-2.508c-1.119,0-2.031-1.348-2.031-3.011l0,0   c0-1.663,0.912-3.012,2.031-3.012h2.508V143.231z" stroke-width="0.3232" stroke="#939598"/><path fill="none" d="M1509.217,143.231h2.51c1.121,0,2.031-1.348,2.031-3.011l0,0   c0-1.663-0.91-3.012-2.031-3.012h-2.51V143.231z" stroke-width="0.3232" stroke="#939598"/><polyline fill="none" stroke-width="0.3232" points="1540.842,218.252 1540.842,153.745 1520.004,153.745    1520.004,149.718 1516.246,149.718 1516.246,153.745 1495.391,153.745 1495.391,218.252  " stroke="#939598"/><rect x="1506.186" y="228.245" fill="none" width="23.74" height="38.248" stroke="#939598" stroke-width="0.3232"/><rect x="1506.131" y="278.42" fill="none" width="23.973" height="2.385" stroke="#939598" stroke-width="0.3232"/><rect x="1506.131" y="276.033" fill="none" width="23.973" height="2.387" stroke="#939598" stroke-width="0.3232"/><polyline fill="none" stroke-width="0.3232" points="1495.391,218.25 1495.391,275.285 1503.914,275.285    1503.914,281.914 1532.32,281.914 1532.32,275.285 1540.842,275.285 1540.842,218.25  " stroke="#939598"/><g><g><rect x="1531.271" y="364.498" fill="#FFFFFF" width="3.81" height="0.945" stroke="#939598" stroke-width="0.3232"/></g></g><g><g><rect x="1531.271" y="363.551" fill="#FFFFFF" width="3.81" height="0.947" stroke="#939598" stroke-width="0.3232"/></g></g><g><g><rect x="1531.271" y="362.607" fill="#FFFFFF" width="3.81" height="0.943" stroke="#939598" stroke-width="0.3232"/></g></g><g><g><rect x="1535.082" y="364.498" fill="#FFFFFF" width="2.863" height="0.945" stroke="#939598" stroke-width="0.3232"/></g></g><g><g><rect x="1535.082" y="363.551" fill="#FFFFFF" width="2.863" height="0.947" stroke="#939598" stroke-width="0.3232"/></g></g><g><g><rect x="1535.082" y="362.607" fill="#FFFFFF" width="2.863" height="0.943" stroke="#939598" stroke-width="0.3232"/></g></g><g><g><rect x="1531.271" y="361.662" fill="#FFFFFF" width="3.81" height="0.945" stroke="#939598" stroke-width="0.3232"/></g></g><g><g><rect x="1535.082" y="361.662" fill="#FFFFFF" width="2.863" height="0.945" stroke="#939598" stroke-width="0.3232"/></g></g><g><g><rect x="1531.271" y="360.717" fill="#FFFFFF" width="3.81" height="0.945" stroke="#939598" stroke-width="0.3232"/></g></g><g><g><rect x="1535.082" y="360.717" fill="#FFFFFF" width="2.863" height="0.945" stroke="#939598" stroke-width="0.3232"/></g></g><g><g><rect x="1531.271" y="359.77" fill="#FFFFFF" width="3.81" height="0.947" stroke="#939598" stroke-width="0.3232"/></g></g><g><g><rect x="1535.082" y="359.77" fill="#FFFFFF" width="2.863" height="0.947" stroke="#939598" stroke-width="0.3232"/></g></g><g><g><rect x="1528.408" y="364.498" fill="#FFFFFF" width="2.863" height="0.945" stroke="#939598" stroke-width="0.3232"/></g></g><g><g><rect x="1528.408" y="363.551" fill="#FFFFFF" width="2.863" height="0.947" stroke="#939598" stroke-width="0.3232"/></g></g><g><g><rect x="1528.408" y="362.607" fill="#FFFFFF" width="2.863" height="0.943" stroke="#939598" stroke-width="0.3232"/></g></g><g><g><rect x="1528.408" y="361.662" fill="#FFFFFF" width="2.863" height="0.945" stroke="#939598" stroke-width="0.3232"/></g></g><g><g><rect x="1528.408" y="360.717" fill="#FFFFFF" width="2.863" height="0.945" stroke="#939598" stroke-width="0.3232"/></g></g><g><g><rect x="1528.408" y="359.77" fill="#FFFFFF" width="2.863" height="0.947" stroke="#939598" stroke-width="0.3232"/></g></g><g><rect x="1528.408" y="365.432" fill="#FFFFFF" width="9.537" height="2.785" stroke="#939598" stroke-width="0.3232"/></g><g><g><rect x="1501.186" y="364.498" fill="#FFFFFF" width="3.812" height="0.945" stroke="#939598" stroke-width="0.3232"/></g></g><g><g><rect x="1501.186" y="363.551" fill="#FFFFFF" width="3.812" height="0.947" stroke="#939598" stroke-width="0.3232"/></g></g><g><g><rect x="1501.186" y="362.607" fill="#FFFFFF" width="3.812" height="0.943" stroke="#939598" stroke-width="0.3232"/></g></g><g><g><rect x="1504.998" y="364.498" fill="#FFFFFF" width="2.861" height="0.945" stroke="#939598" stroke-width="0.3232"/></g></g><g><g><rect x="1504.998" y="363.551" fill="#FFFFFF" width="2.861" height="0.947" stroke="#939598" stroke-width="0.3232"/></g></g><g><g><rect x="1504.998" y="362.607" fill="#FFFFFF" width="2.861" height="0.943" stroke="#939598" stroke-width="0.3232"/></g></g><g><g><rect x="1501.186" y="361.662" fill="#FFFFFF" width="3.812" height="0.945" stroke="#939598" stroke-width="0.3232"/></g></g><g><g><rect x="1504.998" y="361.662" fill="#FFFFFF" width="2.861" height="0.945" stroke="#939598" stroke-width="0.3232"/></g></g><g><g><rect x="1501.186" y="360.717" fill="#FFFFFF" width="3.812" height="0.945" stroke="#939598" stroke-width="0.3232"/></g></g><g><g><rect x="1504.998" y="360.717" fill="#FFFFFF" width="2.861" height="0.945" stroke="#939598" stroke-width="0.3232"/></g></g><g><g><rect x="1501.186" y="359.77" fill="#FFFFFF" width="3.812" height="0.947" stroke="#939598" stroke-width="0.3232"/></g></g><g><g><rect x="1504.998" y="359.77" fill="#FFFFFF" width="2.861" height="0.947" stroke="#939598" stroke-width="0.3232"/></g></g><g><g><rect x="1498.324" y="364.498" fill="#FFFFFF" width="2.861" height="0.945" stroke="#939598" stroke-width="0.3232"/></g></g><g><g><rect x="1498.324" y="363.551" fill="#FFFFFF" width="2.861" height="0.947" stroke="#939598" stroke-width="0.3232"/></g></g><g><g><rect x="1498.324" y="362.607" fill="#FFFFFF" width="2.861" height="0.943" stroke="#939598" stroke-width="0.3232"/></g></g><g><g><rect x="1498.324" y="361.662" fill="#FFFFFF" width="2.861" height="0.945" stroke="#939598" stroke-width="0.3232"/></g></g><g><g><rect x="1498.324" y="360.717" fill="#FFFFFF" width="2.861" height="0.945" stroke="#939598" stroke-width="0.3232"/></g></g><g><g><rect x="1498.324" y="359.77" fill="#FFFFFF" width="2.861" height="0.947" stroke="#939598" stroke-width="0.3232"/></g></g><g><rect x="1498.324" y="365.432" fill="#FFFFFF" width="9.535" height="2.785" stroke="#939598" stroke-width="0.3232"/></g><rect x="1534.676" y="337.846" fill="#FFFFFF" width="4.545" height="14.219" stroke="#939598" stroke-width="0.3232"/><rect x="1496.916" y="337.846" fill="#FFFFFF" width="4.543" height="14.219" stroke="#939598" stroke-width="0.3232"/><path fill="none" d="M1527.76,352.547h-2.508c-1.123,0-2.031-1.346-2.031-3.01l0,0   c0-1.664,0.908-3.014,2.031-3.014h2.508V352.547z" stroke-width="0.3232" stroke="#939598"/><path fill="none" d="M1508.426,352.668h2.508c1.121,0,2.031-1.348,2.031-3.012l0,0   c0-1.664-0.91-3.012-2.031-3.012h-2.508V352.668z" stroke-width="0.3232" stroke="#939598"/><path fill="none" d="M1527.76,344.764h-2.508c-1.123,0-2.031-1.348-2.031-3.012l0,0   c0-1.662,0.908-3.012,2.031-3.012h2.508V344.764z" stroke-width="0.3232" stroke="#939598"/><path fill="none" d="M1508.426,344.885h2.508c1.121,0,2.031-1.348,2.031-3.012l0,0   c0-1.664-0.91-3.01-2.031-3.01h-2.508V344.885z" stroke-width="0.3232" stroke="#939598"/><g><g><rect x="1530.586" y="121.152" fill="#FFFFFF" width="3.811" height="0.945" stroke="#939598" stroke-width="0.3232"/></g></g><g><g><rect x="1530.586" y="122.098" fill="#FFFFFF" width="3.811" height="0.945" stroke="#939598" stroke-width="0.3232"/></g></g><g><g><rect x="1530.586" y="123.043" fill="#FFFFFF" width="3.811" height="0.945" stroke="#939598" stroke-width="0.3232"/></g></g><g><g><rect x="1527.721" y="121.152" fill="#FFFFFF" width="2.865" height="0.945" stroke="#939598" stroke-width="0.3232"/></g></g><g><g><rect x="1527.721" y="122.098" fill="#FFFFFF" width="2.865" height="0.945" stroke="#939598" stroke-width="0.3232"/></g></g><g><g><rect x="1527.721" y="123.043" fill="#FFFFFF" width="2.865" height="0.945" stroke="#939598" stroke-width="0.3232"/></g></g><g><g><rect x="1530.586" y="123.988" fill="#FFFFFF" width="3.811" height="0.945" stroke="#939598" stroke-width="0.3232"/></g></g><g><g><rect x="1527.721" y="123.988" fill="#FFFFFF" width="2.865" height="0.945" stroke="#939598" stroke-width="0.3232"/></g></g><g><g><rect x="1530.586" y="124.933" fill="#FFFFFF" width="3.811" height="0.946" stroke="#939598" stroke-width="0.3232"/></g></g><g><g><rect x="1527.721" y="124.933" fill="#FFFFFF" width="2.865" height="0.946" stroke="#939598" stroke-width="0.3232"/></g></g><g><g><rect x="1530.586" y="125.879" fill="#FFFFFF" width="3.811" height="0.944" stroke="#939598" stroke-width="0.3232"/></g></g><g><g><rect x="1527.721" y="125.879" fill="#FFFFFF" width="2.865" height="0.944" stroke="#939598" stroke-width="0.3232"/></g></g><g><g><rect x="1534.396" y="121.152" fill="#FFFFFF" width="2.863" height="0.945" stroke="#939598" stroke-width="0.3232"/></g></g><g><g><rect x="1534.396" y="122.098" fill="#FFFFFF" width="2.863" height="0.945" stroke="#939598" stroke-width="0.3232"/></g></g><g><g><rect x="1534.396" y="123.043" fill="#FFFFFF" width="2.863" height="0.945" stroke="#939598" stroke-width="0.3232"/></g></g><g><g><rect x="1534.396" y="123.988" fill="#FFFFFF" width="2.863" height="0.945" stroke="#939598" stroke-width="0.3232"/></g></g><g><g><rect x="1534.396" y="124.933" fill="#FFFFFF" width="2.863" height="0.946" stroke="#939598" stroke-width="0.3232"/></g></g><g><g><rect x="1534.396" y="125.879" fill="#FFFFFF" width="2.863" height="0.944" stroke="#939598" stroke-width="0.3232"/></g></g><g><rect x="1527.721" y="118.377" fill="#FFFFFF" width="9.539" height="2.787" stroke="#939598" stroke-width="0.3232"/></g><g><g><rect x="1501.719" y="121.152" fill="#FFFFFF" width="3.812" height="0.945" stroke="#939598" stroke-width="0.3232"/></g></g><g><g><rect x="1501.719" y="122.098" fill="#FFFFFF" width="3.812" height="0.945" stroke="#939598" stroke-width="0.3232"/></g></g><g><g><rect x="1501.719" y="123.043" fill="#FFFFFF" width="3.812" height="0.945" stroke="#939598" stroke-width="0.3232"/></g></g><g><g><rect x="1498.857" y="121.152" fill="#FFFFFF" width="2.861" height="0.945" stroke="#939598" stroke-width="0.3232"/></g></g><g><g><rect x="1498.857" y="122.098" fill="#FFFFFF" width="2.861" height="0.945" stroke="#939598" stroke-width="0.3232"/></g></g><g><g><rect x="1498.857" y="123.043" fill="#FFFFFF" width="2.861" height="0.945" stroke="#939598" stroke-width="0.3232"/></g></g><g><g><rect x="1501.719" y="123.988" fill="#FFFFFF" width="3.812" height="0.945" stroke="#939598" stroke-width="0.3232"/></g></g><g><g><rect x="1498.857" y="123.988" fill="#FFFFFF" width="2.861" height="0.945" stroke="#939598" stroke-width="0.3232"/></g></g><g><g><rect x="1501.719" y="124.933" fill="#FFFFFF" width="3.812" height="0.946" stroke="#939598" stroke-width="0.3232"/></g></g><g><g><rect x="1498.857" y="124.933" fill="#FFFFFF" width="2.861" height="0.946" stroke="#939598" stroke-width="0.3232"/></g></g><g><g><rect x="1501.719" y="125.879" fill="#FFFFFF" width="3.812" height="0.944" stroke="#939598" stroke-width="0.3232"/></g></g><g><g><rect x="1498.857" y="125.879" fill="#FFFFFF" width="2.861" height="0.944" stroke="#939598" stroke-width="0.3232"/></g></g><g><g><rect x="1505.531" y="121.152" fill="#FFFFFF" width="2.863" height="0.945" stroke="#939598" stroke-width="0.3232"/></g></g><g><g><rect x="1505.531" y="122.098" fill="#FFFFFF" width="2.863" height="0.945" stroke="#939598" stroke-width="0.3232"/></g></g><g><g><rect x="1505.531" y="123.043" fill="#FFFFFF" width="2.863" height="0.945" stroke="#939598" stroke-width="0.3232"/></g></g><g><g><rect x="1505.531" y="123.988" fill="#FFFFFF" width="2.863" height="0.945" stroke="#939598" stroke-width="0.3232"/></g></g><g><g><rect x="1505.531" y="124.933" fill="#FFFFFF" width="2.863" height="0.946" stroke="#939598" stroke-width="0.3232"/></g></g><g><g><rect x="1505.531" y="125.879" fill="#FFFFFF" width="2.863" height="0.944" stroke="#939598" stroke-width="0.3232"/></g></g><g><rect x="1498.857" y="118.377" fill="#FFFFFF" width="9.537" height="2.787" stroke="#939598" stroke-width="0.3232"/></g><polyline fill="none" stroke-width="0.6464" points="1495.6,275.504 1495.6,338.086 1496.816,338.086  " stroke="#939598"/><polyline fill="none" stroke-width="0.6464" points="1498.545,368.217 1498.545,470.682 1537.721,470.682    1537.721,368.217  " stroke="#939598"/><polyline fill="none" stroke-width="0.6464" points="1540.613,275.508 1540.613,338.082 1539.273,338.082  " stroke="#939598"/><line fill="none" x1="1492.34" x2="1495.219" y1="206.139" y2="206.139" stroke="#939598" stroke-width="0.6464"/><line fill="none" x1="1543.811" x2="1541.01" y1="205.964" y2="205.964" stroke="#939598" stroke-width="0.6464"/><line fill="none" x1="1492.283" x2="1495.199" y1="230.273" y2="230.273" stroke="#939598" stroke-width="0.6464"/><line fill="none" x1="1543.816" x2="1541.039" y1="230.267" y2="230.267" stroke="#939598" stroke-width="0.6464"/><line fill="none" x1="1495.667" x2="1540.833" y1="190.167" y2="190.167" stroke="#939598" stroke-width="0.3232"/></g><g id="DECK_ELEMENTS"><rect x="1481.295" y="153.865" fill="#62A0D6" width="10.838" class="cabinShape" height="5.836" id="R2552" stroke="#000000" stroke-width="0.3232"/><rect x="1481.295" y="118.849" fill="#62A0D6" width="10.838" class="cabinShape" height="5.836" id="R2540" stroke="#000000" stroke-width="0.3232"/><rect x="1481.295" y="124.685" fill="#62A0D6" width="10.838" class="cabinShape" height="5.835" id="R2542" stroke="#000000" stroke-width="0.3232"/><rect x="1481.295" y="130.521" fill="#62A0D6" width="10.838" class="cabinShape" height="5.837" id="R2544" stroke="#000000" stroke-width="0.3232"/><rect x="1481.295" y="136.357" fill="#62A0D6" width="10.838" class="cabinShape" height="5.835" id="R2546" stroke="#000000" stroke-width="0.3232"/><rect x="1481.295" y="177.21" fill="#62A0D6" width="10.838" class="cabinShape" height="5.837" id="R2560" stroke="#000000" stroke-width="0.3232"/><rect x="1481.295" y="188.882" fill="#62A0D6" width="10.838" class="cabinShape" height="5.836" id="R2564" stroke="#000000" stroke-width="0.3232"/><rect x="1481.295" y="194.718" fill="#62A0D6" width="10.838" class="cabinShape" height="5.837" id="R2566" stroke="#000000" stroke-width="0.3232"/><rect x="1481.295" y="200.555" fill="#62A0D6" width="10.838" class="cabinShape" height="5.835" id="R2568" stroke="#000000" stroke-width="0.3232"/><rect x="1544.031" y="147.841" fill="#62A0D6" width="10.767" class="cabinShape" height="5.836" id="R2250" stroke="#000000" stroke-width="0.3232"/><rect x="1544.031" y="153.678" fill="#62A0D6" width="10.767" class="cabinShape" height="5.836" id="R2252" stroke="#000000" stroke-width="0.3232"/><rect x="1544.031" y="177.023" fill="#62A0D6" width="10.767" class="cabinShape" height="5.836" id="R2260" stroke="#000000" stroke-width="0.3232"/><rect x="1544.031" y="188.695" fill="#62A0D6" width="10.767" class="cabinShape" height="5.836" id="R2264" stroke="#000000" stroke-width="0.3232"/><rect x="1544.031" y="194.531" fill="#62A0D6" width="10.767" class="cabinShape" height="5.836" id="R2266" stroke="#000000" stroke-width="0.3232"/><rect x="1544.031" y="200.368" fill="#62A0D6" width="10.767" class="cabinShape" height="5.836" id="R2268" stroke="#000000" stroke-width="0.3232"/><rect x="1544.029" y="241.699" fill="#8AA2D3" width="10.748" class="cabinShape" height="5.839" id="R2282" stroke="#000000" stroke-width="0.3232"/><rect x="1544.029" y="247.538" fill="#8AA2D3" width="10.748" class="cabinShape" height="5.835" id="R2284" stroke="#000000" stroke-width="0.3232"/><rect x="1544.029" y="259.209" fill="#8AA2D3" width="10.748" class="cabinShape" height="5.836" id="R2288" stroke="#000000" stroke-width="0.3232"/><rect x="1544.029" y="270.883" fill="#8AA2D3" width="10.748" class="cabinShape" height="5.836" id="R2292" stroke="#000000" stroke-width="0.3232"/><rect x="1543.893" y="300.938" fill="#8AA2D3" width="10.891" class="cabinShape" height="5.834" id="R2302" stroke="#000000" stroke-width="0.3232"/><rect x="1543.893" y="306.772" fill="#8AA2D3" width="10.891" class="cabinShape" height="5.838" id="R2304" stroke="#000000" stroke-width="0.3232"/><rect x="1543.893" y="341.789" fill="#8AA2D3" width="10.891" class="cabinShape" height="5.836" id="R2316" stroke="#000000" stroke-width="0.3232"/><rect x="1543.893" y="347.625" fill="#8AA2D3" width="10.891" class="cabinShape" height="5.838" id="R2318" stroke="#000000" stroke-width="0.3232"/><rect x="1481.326" y="241.699" fill="#8AA2D3" width="10.746" class="cabinShape" height="5.839" id="R2582" stroke="#000000" stroke-width="0.3232"/><rect x="1481.326" y="247.538" fill="#8AA2D3" width="10.746" class="cabinShape" height="5.835" id="R2584" stroke="#000000" stroke-width="0.3232"/><rect x="1481.326" y="259.209" fill="#8AA2D3" width="10.746" class="cabinShape" height="5.836" id="R2588" stroke="#000000" stroke-width="0.3232"/><rect x="1481.326" y="276.719" fill="#8AA2D3" width="10.746" class="cabinShape" height="5.836" id="R2594" stroke="#000000" stroke-width="0.3232"/><rect x="1481.346" y="300.938" fill="#8AA2D3" width="10.785" class="cabinShape" height="5.834" id="R2602" stroke="#000000" stroke-width="0.3232"/><rect x="1481.346" y="306.772" fill="#8AA2D3" width="10.785" class="cabinShape" height="5.838" id="R2604" stroke="#000000" stroke-width="0.3232"/><rect x="1481.346" y="341.789" fill="#8AA2D3" width="10.785" class="cabinShape" height="5.836" id="R2616" stroke="#000000" stroke-width="0.3232"/><rect x="1481.346" y="347.625" fill="#8AA2D3" width="10.785" class="cabinShape" height="5.838" id="R2618" stroke="#000000" stroke-width="0.3232"/><rect x="1543.893" y="383.387" fill="#62A0D6" width="10.91" class="cabinShape" height="5.836" id="R2330" stroke="#000000" stroke-width="0.3232"/><rect x="1543.893" y="389.223" fill="#62A0D6" width="10.91" class="cabinShape" height="5.834" id="R2332" stroke="#000000" stroke-width="0.3232"/><rect x="1543.893" y="395.057" fill="#62A0D6" width="10.91" class="cabinShape" height="5.838" id="R2334" stroke="#000000" stroke-width="0.3232"/><rect x="1543.893" y="400.895" fill="#62A0D6" width="10.91" class="cabinShape" height="5.836" id="R2336" stroke="#000000" stroke-width="0.3232"/><rect x="1543.893" y="406.73" fill="#62A0D6" width="10.91" class="cabinShape" height="5.834" id="R2338" stroke="#000000" stroke-width="0.3232"/><rect x="1543.893" y="412.565" fill="#62A0D6" width="10.91" class="cabinShape" height="5.836" id="R2340" stroke="#000000" stroke-width="0.3232"/><rect x="1543.893" y="418.4" fill="#62A0D6" width="10.91" class="cabinShape" height="5.838" id="R2342" stroke="#000000" stroke-width="0.3232"/><rect x="1543.893" y="424.238" fill="#62A0D6" width="10.91" class="cabinShape" height="5.838" id="R2344" stroke="#000000" stroke-width="0.3232"/><rect x="1543.893" y="441.746" fill="#62A0D6" width="10.91" class="cabinShape" height="5.838" id="R2350" stroke="#000000" stroke-width="0.3232"/><rect x="1543.893" y="447.584" fill="#62A0D6" width="10.91" class="cabinShape" height="5.834" id="R2352" stroke="#000000" stroke-width="0.3232"/><rect x="1543.893" y="453.418" fill="#62A0D6" width="10.91" class="cabinShape" height="5.838" id="R2354" stroke="#000000" stroke-width="0.3232"/><rect x="1543.893" y="459.256" fill="#62A0D6" width="10.91" class="cabinShape" height="5.836" id="R2356" stroke="#000000" stroke-width="0.3232"/><rect x="1543.893" y="465.092" fill="#62A0D6" width="10.91" class="cabinShape" height="5.836" id="R2358" stroke="#000000" stroke-width="0.3232"/><rect x="1481.332" y="383.387" fill="#62A0D6" width="10.731" class="cabinShape" height="5.836" id="R2630" stroke="#000000" stroke-width="0.3232"/><rect x="1481.332" y="389.223" fill="#62A0D6" width="10.731" class="cabinShape" height="5.834" id="R2632" stroke="#000000" stroke-width="0.3232"/><rect x="1481.332" y="395.057" fill="#62A0D6" width="10.731" class="cabinShape" height="5.838" id="R2634" stroke="#000000" stroke-width="0.3232"/><rect x="1481.332" y="400.895" fill="#62A0D6" width="10.731" class="cabinShape" height="5.836" id="R2636" stroke="#000000" stroke-width="0.3232"/><rect x="1481.332" y="406.73" fill="#62A0D6" width="10.731" class="cabinShape" height="5.834" id="R2638" stroke="#000000" stroke-width="0.3232"/><rect x="1481.332" y="412.565" fill="#62A0D6" width="10.731" class="cabinShape" height="5.836" id="R2640" stroke="#000000" stroke-width="0.3232"/><rect x="1481.332" y="418.4" fill="#62A0D6" width="10.731" class="cabinShape" height="5.838" id="R2642" stroke="#000000" stroke-width="0.3232"/><rect x="1481.332" y="424.238" fill="#62A0D6" width="10.731" class="cabinShape" height="5.838" id="R2644" stroke="#000000" stroke-width="0.3232"/><rect x="1481.332" y="447.584" fill="#62A0D6" width="10.731" class="cabinShape" height="5.834" id="R2652" stroke="#000000" stroke-width="0.3232"/><rect x="1481.332" y="453.418" fill="#62A0D6" width="10.731" class="cabinShape" height="5.838" id="R2654" stroke="#000000" stroke-width="0.3232"/><rect x="1481.332" y="459.256" fill="#62A0D6" width="10.731" class="cabinShape" height="5.836" id="R2656" stroke="#000000" stroke-width="0.3232"/><rect x="1481.332" y="465.092" fill="#62A0D6" width="10.731" class="cabinShape" height="5.836" id="R2658" stroke="#000000" stroke-width="0.3232"/><rect x="1481.295" y="148.029" fill="#C3B4D8" width="10.838" class="cabinShape" height="5.836" id="R2550" stroke="#000000" stroke-width="0.3232"/><rect x="1481.295" y="159.701" fill="#C3B4D8" width="10.838" class="cabinShape" height="5.836" id="R2554" stroke="#000000" stroke-width="0.3232"/><rect x="1481.295" y="165.538" fill="#C3B4D8" width="10.838" class="cabinShape" height="5.836" id="R2556" stroke="#000000" stroke-width="0.3232"/><rect x="1481.295" y="171.374" fill="#C3B4D8" width="10.838" class="cabinShape" height="5.836" id="R2558" stroke="#000000" stroke-width="0.3232"/><rect x="1481.295" y="142.192" fill="#C3B4D8" width="10.838" class="cabinShape" height="5.836" id="R2548" stroke="#000000" stroke-width="0.3232"/><rect x="1481.295" y="183.046" fill="#C3B4D8" width="10.838" class="cabinShape" height="5.835" id="R2562" stroke="#000000" stroke-width="0.3232"/><rect x="1544.031" y="159.514" fill="#C3B4D8" width="10.767" class="cabinShape" height="5.837" id="R2254" stroke="#000000" stroke-width="0.3232"/><rect x="1544.031" y="165.351" fill="#C3B4D8" width="10.767" class="cabinShape" height="5.835" id="R2256" stroke="#000000" stroke-width="0.3232"/><rect x="1544.031" y="171.187" fill="#C3B4D8" width="10.767" class="cabinShape" height="5.836" id="R2258" stroke="#000000" stroke-width="0.3232"/><rect x="1544.031" y="142.006" fill="#C3B4D8" width="10.767" class="cabinShape" height="5.835" id="R2248" stroke="#000000" stroke-width="0.3232"/><rect x="1544.031" y="182.859" fill="#C3B4D8" width="10.767" class="cabinShape" height="5.836" id="R2262" stroke="#000000" stroke-width="0.3232"/><rect x="1544.041" y="230.029" fill="#CD82B7" width="10.744" class="cabinShape" height="5.837" id="R2278" stroke="#000000" stroke-width="0.3232"/><rect x="1544.029" y="235.866" fill="#CD82B7" width="10.748" class="cabinShape" height="5.833" id="R2280" stroke="#000000" stroke-width="0.3232"/><rect x="1544.029" y="253.373" fill="#CD82B7" width="10.748" class="cabinShape" height="5.836" id="R2286" stroke="#000000" stroke-width="0.3232"/><rect x="1544.029" y="265.045" fill="#CD82B7" width="10.748" class="cabinShape" height="5.838" id="R2290" stroke="#000000" stroke-width="0.3232"/><rect x="1544.029" y="276.719" fill="#CD82B7" width="10.748" class="cabinShape" height="5.836" id="R2294" stroke="#000000" stroke-width="0.3232"/><rect x="1544.029" y="282.555" fill="#CD82B7" width="10.748" class="cabinShape" height="5.836" id="R2296" stroke="#000000" stroke-width="0.3232"/><rect x="1544.029" y="288.391" fill="#CD82B7" width="10.748" class="cabinShape" height="5.836" id="R2298" stroke="#000000" stroke-width="0.3232"/><rect x="1543.893" y="295.1" fill="#CD82B7" width="10.891" class="cabinShape" height="5.838" id="R2300" stroke="#000000" stroke-width="0.3232"/><rect x="1543.893" y="312.609" fill="#CD82B7" width="10.891" class="cabinShape" height="5.834" id="R2306" stroke="#000000" stroke-width="0.3232"/><rect x="1543.893" y="318.443" fill="#CD82B7" width="10.891" class="cabinShape" height="5.836" id="R2308" stroke="#000000" stroke-width="0.3232"/><rect x="1543.893" y="324.279" fill="#CD82B7" width="10.891" class="cabinShape" height="5.838" id="R2310" stroke="#000000" stroke-width="0.3232"/><rect x="1543.893" y="330.117" fill="#CD82B7" width="10.891" class="cabinShape" height="5.836" id="R2312" stroke="#000000" stroke-width="0.3232"/><rect x="1543.893" y="335.953" fill="#CD82B7" width="10.891" class="cabinShape" height="5.836" id="R2314" stroke="#000000" stroke-width="0.3232"/><rect x="1543.893" y="353.463" fill="#C3B4D8" width="10.891" class="cabinShape" height="10.064" id="R2320" stroke="#000000" stroke-width="0.3232"/><rect x="1543.893" y="363.527" fill="#C3B4D8" width="10.891" class="cabinShape" height="9.412" id="R2324" stroke="#000000" stroke-width="0.3232"/><rect x="1543.893" y="372.94" fill="#C3B4D8" width="10.891" class="cabinShape" height="9.635" id="R2328" stroke="#000000" stroke-width="0.3232"/><rect x="1481.332" y="230.029" fill="#CD82B7" width="10.734" class="cabinShape" height="5.837" id="R2578" stroke="#000000" stroke-width="0.3232"/><rect x="1481.326" y="235.866" fill="#CD82B7" width="10.746" class="cabinShape" height="5.833" id="R2580" stroke="#000000" stroke-width="0.3232"/><rect x="1481.326" y="253.373" fill="#CD82B7" width="10.746" class="cabinShape" height="5.836" id="R2586" stroke="#000000" stroke-width="0.3232"/><rect x="1481.326" y="265.045" fill="#CD82B7" width="10.746" class="cabinShape" height="5.838" id="R2590" stroke="#000000" stroke-width="0.3232"/><rect x="1481.326" y="270.883" fill="#CD82B7" width="10.746" class="cabinShape" height="5.836" id="R2592" stroke="#000000" stroke-width="0.3232"/><rect x="1481.326" y="282.555" fill="#CD82B7" width="10.746" class="cabinShape" height="5.836" id="R2596" stroke="#000000" stroke-width="0.3232"/><rect x="1481.326" y="288.391" fill="#CD82B7" width="10.746" class="cabinShape" height="5.836" id="R2598" stroke="#000000" stroke-width="0.3232"/><rect x="1481.346" y="295.1" fill="#CD82B7" width="10.785" class="cabinShape" height="5.838" id="R2600" stroke="#000000" stroke-width="0.3232"/><rect x="1481.346" y="312.609" fill="#CD82B7" width="10.785" class="cabinShape" height="5.834" id="R2606" stroke="#000000" stroke-width="0.3232"/><rect x="1481.346" y="318.443" fill="#CD82B7" width="10.785" class="cabinShape" height="5.836" id="R2608" stroke="#000000" stroke-width="0.3232"/><rect x="1481.346" y="324.279" fill="#CD82B7" width="10.785" class="cabinShape" height="5.838" id="R2610" stroke="#000000" stroke-width="0.3232"/><rect x="1481.346" y="330.117" fill="#CD82B7" width="10.785" class="cabinShape" height="5.836" id="R2612" stroke="#000000" stroke-width="0.3232"/><rect x="1481.346" y="335.953" fill="#CD82B7" width="10.785" class="cabinShape" height="5.836" id="R2614" stroke="#000000" stroke-width="0.3232"/><rect x="1481.346" y="353.463" fill="#C3B4D8" width="10.785" class="cabinShape" height="10.064" id="R2620" stroke="#000000" stroke-width="0.3232"/><rect x="1481.346" y="363.527" fill="#C3B4D8" width="10.785" class="cabinShape" height="9.412" id="R2624" stroke="#000000" stroke-width="0.3232"/><rect x="1481.346" y="372.94" fill="#C3B4D8" width="10.785" class="cabinShape" height="9.635" id="R2628" stroke="#000000" stroke-width="0.3232"/><rect x="1543.893" y="430.076" fill="#C3B4D8" width="10.91" class="cabinShape" height="5.834" id="R2346" stroke="#000000" stroke-width="0.3232"/><rect x="1543.893" y="435.91" fill="#C3B4D8" width="10.91" class="cabinShape" height="5.836" id="R2348" stroke="#000000" stroke-width="0.3232"/><rect x="1481.332" y="430.076" fill="#C3B4D8" width="10.731" class="cabinShape" height="5.834" id="R2646" stroke="#000000" stroke-width="0.3232"/><rect x="1481.332" y="435.91" fill="#C3B4D8" width="10.731" class="cabinShape" height="5.836" id="R2648" stroke="#000000" stroke-width="0.3232"/><rect x="1481.332" y="441.746" fill="#C3B4D8" width="10.731" class="cabinShape" height="5.838" id="R2650" stroke="#000000" stroke-width="0.3232"/><rect x="1544.031" y="124.466" fill="#C3B4D8" width="10.767" class="cabinShape" height="5.836" id="R2242" stroke="#000000" stroke-width="0.3232"/><rect x="1544.031" y="130.303" fill="#C3B4D8" width="10.767" class="cabinShape" height="5.836" id="R2244" stroke="#000000" stroke-width="0.3232"/><rect x="1544.031" y="136.139" fill="#C3B4D8" width="10.767" class="cabinShape" height="5.837" id="R2246" stroke="#000000" stroke-width="0.3232"/><rect x="1544.031" y="118.631" fill="#C3B4D8" width="10.767" class="cabinShape" height="5.835" id="R2240" stroke="#000000" stroke-width="0.3232"/><rect x="1516.743" y="113.712" fill="#F1C066" width="9.618" class="cabinShape" height="5.213" id="R2237" stroke="#000000" stroke-width="0.3232"/><rect x="1516.743" y="118.926" fill="#F1C066" width="9.618" class="cabinShape" height="5.213" id="R2239" stroke="#000000" stroke-width="0.3232"/><rect x="1516.743" y="108.5" fill="#F1C066" width="9.618" class="cabinShape" height="5.212" id="R2235" stroke="#000000" stroke-width="0.3232"/><rect x="1507.118" y="108.5" fill="#F1C066" width="9.618" class="cabinShape" height="5.212" id="R2233" stroke="#000000" stroke-width="0.3232"/><rect x="1481.681" y="108.25" fill="#F1C066" width="10.368" class="cabinShape" height="5.212" id="R2536" stroke="#000000" stroke-width="0.3232"/><rect x="1531.996" y="430.834" fill="#C2CAE7" width="5.836" class="cabinShape" height="10.767" id="R2345" stroke="#000000" stroke-width="0.3232"/><rect x="1531.997" y="419.998" fill="#C2CAE7" width="5.835" class="cabinShape" height="10.767" id="R2343" stroke="#000000" stroke-width="0.3232"/><rect x="1498.913" y="418.334" fill="#C2CAE7" width="5.836" class="cabinShape" height="10.767" id="R2641" stroke="#000000" stroke-width="0.3232"/><rect x="1498.914" y="407.498" fill="#C16DAC" width="5.835" class="cabinShape" height="10.767" id="R2639" stroke="#000000" stroke-width="0.3232"/><rect x="1496.83" y="319.334" fill="#C16DAC" width="5.836" class="cabinShape" height="10.767" id="R2611" stroke="#000000" stroke-width="0.3232"/><rect x="1496.83" y="308.498" fill="#C16DAC" width="5.835" class="cabinShape" height="10.767" id="R2609" stroke="#000000" stroke-width="0.3232"/><rect x="1495.365" y="159.716" fill="#C16DAC" width="10.767" class="cabinShape" height="6.086" id="R2553" stroke="#000000" stroke-width="0.3232"/><rect x="1495.365" y="165.636" fill="#C16DAC" width="10.767" class="cabinShape" height="6.003" id="R2555" stroke="#000000" stroke-width="0.3232"/><rect x="1495.365" y="171.639" fill="#C16DAC" width="10.767" class="cabinShape" height="5.837" id="R2557" stroke="#000000" stroke-width="0.3232"/><rect x="1495.365" y="153.881" fill="#C16DAC" width="10.767" class="cabinShape" height="5.835" id="R2551" stroke="#000000" stroke-width="0.3232"/><rect x="1495.365" y="177.303" fill="#C16DAC" width="10.767" class="cabinShape" height="5.836" id="R2559" stroke="#000000" stroke-width="0.3232"/><rect x="1495.365" y="183.139" fill="#C16DAC" width="10.767" class="cabinShape" height="5.837" id="R2561" stroke="#000000" stroke-width="0.3232"/><rect x="1481.344" y="113.529" fill="#C2CAE7" width="10.768" class="cabinShape" height="5.149" id="R2538" stroke="#000000" stroke-width="0.3232"/></g><g id="TEXT"><g id="ROOM_NUMBERS"><text font-size="2.5600000000000005" id="T2550" font-family="'Helvetica'" class="cabinNumber" transform="matrix(1 0 0 1 1483.3795 152.1196)">2550</text><text font-size="2.5600000000000005" id="T2552" font-family="'Helvetica'" class="cabinNumber" transform="matrix(1 0 0 1 1482.5067 157.8486)">2552</text><text font-size="2.5600000000000005" id="T2554" font-family="'Helvetica'" class="cabinNumber" transform="matrix(1 0 0 1 1483.3795 164.1484)">2554</text><text font-size="2.5600000000000005" id="T2556" font-family="'Helvetica'" class="cabinNumber" transform="matrix(1 0 0 1 1483.3795 169.9858)">2556</text><text font-size="2.5600000000000005" id="T2558" font-family="'Helvetica'" class="cabinNumber" transform="matrix(1 0 0 1 1483.3795 175.3125)">2558</text><text font-size="2.5600000000000005" id="T2540" font-family="'Helvetica'" class="cabinNumber" transform="matrix(1 0 0 1 1482.5067 123.2969)">2540</text><text font-size="2.5600000000000005" id="T2542" font-family="'Helvetica'" class="cabinNumber" transform="matrix(1 0 0 1 1482.5067 129.1333)">2542</text><text font-size="2.5600000000000005" id="T2544" font-family="'Helvetica'" class="cabinNumber" transform="matrix(1 0 0 1 1482.5067 134.9688)">2544</text><text font-size="2.5600000000000005" id="T2546" font-family="'Helvetica'" class="cabinNumber" transform="matrix(1 0 0 1 1482.5067 140.8047)">2546</text><text font-size="2.5600000000000005" id="T2548" font-family="'Helvetica'" class="cabinNumber" transform="matrix(1 0 0 1 1483.3795 146.6411)">2548</text><text font-size="2.5600000000000005" id="T2560" font-family="'Helvetica'" class="cabinNumber" transform="matrix(1 0 0 1 1482.5067 181.3274)">2560</text><text font-size="2.5600000000000005" id="T2562" font-family="'Helvetica'" class="cabinNumber" transform="matrix(1 0 0 1 1483.1724 187.0818)">2562</text><text font-size="2.5600000000000005" id="T2564" font-family="'Helvetica'" class="cabinNumber" transform="matrix(1 0 0 1 1482.5063 193.2439)">2564</text><text font-size="2.5600000000000005" id="T2566" font-family="'Helvetica'" class="cabinNumber" transform="matrix(1 0 0 1 1482.5063 199.0799)">2566</text><text font-size="2.5600000000000005" id="T2568" font-family="'Helvetica'" class="cabinNumber" transform="matrix(1 0 0 1 1482.5063 204.9158)">2568</text><text font-size="2.5600000000000005" id="T2250" font-family="'Helvetica'" class="cabinNumber" transform="matrix(1 0 0 1 1545.3024 152.3955)">2250</text><text font-size="2.5600000000000005" id="T2252" font-family="'Helvetica'" class="cabinNumber" transform="matrix(1 0 0 1 1545.3027 158.2327)">2252</text><text font-size="2.5600000000000005" id="T2254" font-family="'Helvetica'" class="cabinNumber" transform="matrix(1 0 0 1 1545.9785 163.7296)">2254</text><text font-size="2.5600000000000005" id="T2248" font-family="'Helvetica'" class="cabinNumber" transform="matrix(1 0 0 1 1545.9424 146.0869)">2248</text><g><text font-size="2.5600000000000005" id="T2256" font-family="'Helvetica'" class="cabinNumber" transform="matrix(1 0 0 1 1545.9785 169.4267)">2256</text></g><g><text font-size="2.5600000000000005" id="T2258" font-family="'Helvetica'" class="cabinNumber" transform="matrix(1 0 0 1 1545.9785 175.3125)">2258</text></g><g><text font-size="2.5600000000000005" id="T2260" font-family="'Helvetica'" class="cabinNumber" transform="matrix(1 0 0 1 1545.3027 181.3274)">2260</text></g><g><text font-size="2.5600000000000005" id="T2262" font-family="'Helvetica'" class="cabinNumber" transform="matrix(1 0 0 1 1545.9785 186.8857)">2262</text></g><g><text font-size="2.5600000000000005" id="T2264" font-family="'Helvetica'" class="cabinNumber" transform="matrix(1 0 0 1 1545.3026 192.9526)">2264</text></g><g><text font-size="2.5600000000000005" id="T2266" font-family="'Helvetica'" class="cabinNumber" transform="matrix(1 0 0 1 1545.3026 199.0799)">2266</text></g><g><text font-size="2.5600000000000005" id="T2268" font-family="'Helvetica'" class="cabinNumber" transform="matrix(1 0 0 1 1545.3026 204.7539)">2268</text></g><text font-size="2.5600000000000005" id="T2278" font-family="'Helvetica'" class="cabinNumber" transform="matrix(1 0 0 1 1545.6523 234.4824)">2278</text><text font-size="2.5600000000000005" id="T2280" font-family="'Helvetica'" class="cabinNumber" transform="matrix(1 0 0 1 1545.6514 240.332)">2280</text><text font-size="2.5600000000000005" id="T2282" font-family="'Helvetica'" class="cabinNumber" transform="matrix(1 0 0 1 1545.4722 246.0352)">2282</text><text font-size="2.5600000000000005" id="T2284" font-family="'Helvetica'" class="cabinNumber" transform="matrix(1 0 0 1 1545.7205 251.793)">2284</text><text font-size="2.5600000000000005" id="T2286" font-family="'Helvetica'" class="cabinNumber" transform="matrix(1 0 0 1 1545.6523 257.6768)">2286</text><text font-size="2.5600000000000005" id="T2288" font-family="'Helvetica'" class="cabinNumber" transform="matrix(1 0 0 1 1545.3721 263.3746)">2288</text><text font-size="2.5600000000000005" id="T2290" font-family="'Helvetica'" class="cabinNumber" transform="matrix(1 0 0 1 1545.7046 268.998)">2290</text><text font-size="2.5600000000000005" id="T2292" font-family="'Helvetica'" class="cabinNumber" transform="matrix(1 0 0 1 1545.3721 275.0517)">2292</text><text font-size="2.5600000000000005" id="T2294" font-family="'Helvetica'" class="cabinNumber" transform="matrix(1 0 0 1 1545.6523 281.3105)">2294</text><text font-size="2.5600000000000005" id="T2296" font-family="'Helvetica'" class="cabinNumber" transform="matrix(1 0 0 1 1545.6523 286.8594)">2296</text><text font-size="2.5600000000000005" id="T2298" font-family="'Helvetica'" class="cabinNumber" transform="matrix(1 0 0 1 1545.6523 293.0752)">2298</text><text font-size="2.5600000000000005" id="T2300" font-family="'Helvetica'" class="cabinNumber" transform="matrix(1 0 0 1 1545.6514 299.5254)">2300</text><g><text font-size="2.5600000000000005" id="T2302" font-family="'Helvetica'" class="cabinNumber" transform="matrix(1 0 0 1 1545.5962 305.1953)">2302</text></g><g><text font-size="2.5600000000000005" id="T2304" font-family="'Helvetica'" class="cabinNumber" transform="matrix(1 0 0 1 1545.5962 311.0576)">2304</text></g><g><text font-size="2.5600000000000005" id="T2306" font-family="'Helvetica'" class="cabinNumber" transform="matrix(1 0 0 1 1546.0996 316.8643)">2306</text></g><g><text font-size="2.5600000000000005" id="T2308" font-family="'Helvetica'" class="cabinNumber" transform="matrix(1 0 0 1 1546.1006 322.502)">2308</text></g><g><text font-size="2.5600000000000005" id="T2310" font-family="'Helvetica'" class="cabinNumber" transform="matrix(1 0 0 1 1546.0996 328.7305)">2310</text></g><g><text font-size="2.5600000000000005" id="T2312" font-family="'Helvetica'" class="cabinNumber" transform="matrix(1 0 0 1 1546.0996 334.5273)">2312</text></g><g><text font-size="2.5600000000000005" id="T2314" font-family="'Helvetica'" class="cabinNumber" transform="matrix(1 0 0 1 1546.0996 340.3281)">2314</text></g><g><text font-size="2.5600000000000005" id="T2578" font-family="'Helvetica'" class="cabinNumber" transform="matrix(1 0 0 1 1483.5358 234.3994)">2578</text></g><g><text font-size="2.5600000000000005" id="T2580" font-family="'Helvetica'" class="cabinNumber" transform="matrix(1 0 0 1 1483.5358 240.2354)">2580</text></g><g><text font-size="2.5600000000000005" id="T2582" font-family="'Helvetica'" class="cabinNumber" transform="matrix(1 0 0 1 1482.4761 246.0264)">2582</text></g><g><text font-size="2.5600000000000005" id="T2584" font-family="'Helvetica'" class="cabinNumber" transform="matrix(1 0 0 1 1482.4761 251.6943)">2584</text></g><g><text font-size="2.5600000000000005" id="T2586" font-family="'Helvetica'" class="cabinNumber" transform="matrix(1 0 0 1 1482.6377 257.9111)">2586</text></g><g><text font-size="2.5600000000000005" id="T2588" font-family="'Helvetica'" class="cabinNumber" transform="matrix(1 0 0 1 1482.4761 263.3746)">2588</text></g><g><text font-size="2.5600000000000005" id="T2590" font-family="'Helvetica'" class="cabinNumber" transform="matrix(1 0 0 1 1483.1724 269.499)">2590</text></g><g><text font-size="2.5600000000000005" id="T2592" font-family="'Helvetica'" class="cabinNumber" transform="matrix(1 0 0 1 1483.1724 274.6182)">2592</text></g><g><text font-size="2.5600000000000005" id="T2594" font-family="'Helvetica'" class="cabinNumber" transform="matrix(1 0 0 1 1482.6377 280.5302)">2594</text></g><g><text font-size="2.5600000000000005" id="T2596" font-family="'Helvetica'" class="cabinNumber" transform="matrix(1 0 0 1 1483.3795 286.8408)">2596</text></g><g><text font-size="2.5600000000000005" id="T2598" font-family="'Helvetica'" class="cabinNumber" transform="matrix(1 0 0 1 1483.3795 292.8438)">2598</text></g><g><text font-size="2.5600000000000005" id="T2600" font-family="'Helvetica'" class="cabinNumber" transform="matrix(1 0 0 1 1483.3795 299.0417)">2600</text></g><g><text font-size="2.5600000000000005" id="T2602" font-family="'Helvetica'" class="cabinNumber" transform="matrix(1 0 0 1 1482.6377 305.0797)">2602</text></g><g><text font-size="2.5600000000000005" id="T2604" font-family="'Helvetica'" class="cabinNumber" transform="matrix(1 0 0 1 1482.79 310.708)">2604</text></g><g><text font-size="2.5600000000000005" id="T2606" font-family="'Helvetica'" class="cabinNumber" transform="matrix(1 0 0 1 1483.3795 316.7484)">2606</text></g><g><text font-size="2.5600000000000005" id="T2608" font-family="'Helvetica'" class="cabinNumber" transform="matrix(1 0 0 1 1483.3795 322.5843)">2608</text></g><g><text font-size="2.5600000000000005" id="T2320" font-family="'Helvetica'" class="cabinNumber" transform="matrix(1 0 0 1 1546.0981 362.4551)">2320</text></g><g><text font-size="2.5600000000000005" id="T2324" font-family="'Helvetica'" class="cabinNumber" transform="matrix(1 0 0 1 1546.1001 372.0527)">2324</text></g><g><text font-size="2.5600000000000005" id="T2328" font-family="'Helvetica'" class="cabinNumber" transform="matrix(1 0 0 1 1546.0991 381.7324)">2328</text></g><g><text font-size="2.5600000000000005" id="T2316" font-family="'Helvetica'" class="cabinNumber" transform="matrix(1 0 0 1 1545.7046 345.8848)">2316</text></g><g><text font-size="2.5600000000000005" id="T2318" font-family="'Helvetica'" class="cabinNumber" transform="matrix(1 0 0 1 1545.7046 351.8486)">2318</text></g><g><text font-size="2.5600000000000005" id="T2330" font-family="'Helvetica'" class="cabinNumber" transform="matrix(1 0 0 1 1545.5962 387.8516)">2330</text></g><g><text font-size="2.5600000000000005" id="T2332" font-family="'Helvetica'" class="cabinNumber" transform="matrix(1 0 0 1 1545.5962 393.6143)">2332</text></g><g><text font-size="2.5600000000000005" id="T2334" font-family="'Helvetica'" class="cabinNumber" transform="matrix(1 0 0 1 1545.5972 399.5)">2334</text></g><g><text font-size="2.5600000000000005" id="T2336" font-family="'Helvetica'" class="cabinNumber" transform="matrix(1 0 0 1 1545.5972 405.2227)">2336</text></g><g><text font-size="2.5600000000000005" id="T2338" font-family="'Helvetica'" class="cabinNumber" transform="matrix(1 0 0 1 1545.6936 411.0273)">2338</text></g><g><text font-size="2.5600000000000005" id="T2340" font-family="'Helvetica'" class="cabinNumber" transform="matrix(1 0 0 1 1545.5962 416.9912)">2340</text></g><g><text font-size="2.5600000000000005" id="T2342" font-family="'Helvetica'" class="cabinNumber" transform="matrix(1 0 0 1 1545.5962 422.7969)">2342</text></g><g><text font-size="2.5600000000000005" id="T2344" font-family="'Helvetica'" class="cabinNumber" transform="matrix(1 0 0 1 1545.7046 428.7256)">2344</text></g><g><text font-size="2.5600000000000005" id="T2346" font-family="'Helvetica'" class="cabinNumber" transform="matrix(1 0 0 1 1546.0991 433.834)">2346</text></g><g><text font-size="2.5600000000000005" id="T2348" font-family="'Helvetica'" class="cabinNumber" transform="matrix(1 0 0 1 1546.0991 439.5137)">2348</text></g><g><text font-size="2.5600000000000005" id="T2350" font-family="'Helvetica'" class="cabinNumber" transform="matrix(1 0 0 1 1545.6504 446.0137)">2350</text></g><g><text font-size="2.5600000000000005" id="T2352" font-family="'Helvetica'" class="cabinNumber" transform="matrix(1 0 0 1 1545.6504 452.1377)">2352</text></g><g><text font-size="2.5600000000000005" id="T2354" font-family="'Helvetica'" class="cabinNumber" transform="matrix(1 0 0 1 1545.6504 457.7832)">2354</text></g><g><text font-size="2.5600000000000005" id="T2356" font-family="'Helvetica'" class="cabinNumber" transform="matrix(1 0 0 1 1545.6504 463.7451)">2356</text></g><g><text font-size="2.5600000000000005" id="T2358" font-family="'Helvetica'" class="cabinNumber" transform="matrix(1 0 0 1 1545.6504 469.5498)">2358</text></g><g><text font-size="2.5600000000000005" id="T2620" font-family="'Helvetica'" class="cabinNumber" transform="matrix(1 0 0 1 1483.5358 362.251)">2620</text></g><g><text font-size="2.5600000000000005" id="T2624" font-family="'Helvetica'" class="cabinNumber" transform="matrix(1 0 0 1 1483.5358 372.0537)">2624</text></g><g><text font-size="2.5600000000000005" id="T2628" font-family="'Helvetica'" class="cabinNumber" transform="matrix(1 0 0 1 1483.5358 381.1953)">2628</text></g><g><text font-size="2.5600000000000005" id="T2610" font-family="'Helvetica'" class="cabinNumber" transform="matrix(1 0 0 1 1483.3795 328.3382)">2610</text></g><g><text font-size="2.5600000000000005" id="T2612" font-family="'Helvetica'" class="cabinNumber" transform="matrix(1 0 0 1 1483.3795 334.2562)">2612</text></g><g><text font-size="2.5600000000000005" id="T2614" font-family="'Helvetica'" class="cabinNumber" transform="matrix(1 0 0 1 1483.3795 339.5726)">2614</text></g><g><text font-size="2.5600000000000005" id="T2616" font-family="'Helvetica'" class="cabinNumber" transform="matrix(1 0 0 1 1482.6377 346.3135)">2616</text></g><g><text font-size="2.5600000000000005" id="T2618" font-family="'Helvetica'" class="cabinNumber" transform="matrix(1 0 0 1 1482.6377 352.1514)">2618</text></g><g><text font-size="2.5600000000000005" id="T2630" font-family="'Helvetica'" class="cabinNumber" transform="matrix(1 0 0 1 1482.4438 387.9287)">2630</text></g><g><text font-size="2.5600000000000005" id="T2632" font-family="'Helvetica'" class="cabinNumber" transform="matrix(1 0 0 1 1482.5298 393.8682)">2632</text></g><g><text font-size="2.5600000000000005" id="T2634" font-family="'Helvetica'" class="cabinNumber" transform="matrix(1 0 0 1 1482.4224 399.6016)">2634</text></g><g><text font-size="2.5600000000000005" id="T2636" font-family="'Helvetica'" class="cabinNumber" transform="matrix(1 0 0 1 1482.4224 405.4355)">2636</text></g><g><text font-size="2.5600000000000005" id="T2638" font-family="'Helvetica'" class="cabinNumber" transform="matrix(1 0 0 1 1482.4224 411.2734)">2638</text></g><g><text font-size="2.5600000000000005" id="T2640" font-family="'Helvetica'" class="cabinNumber" transform="matrix(1 0 0 1 1482.4429 417.1104)">2640</text></g><g><text font-size="2.5600000000000005" id="T2642" font-family="'Helvetica'" class="cabinNumber" transform="matrix(1 0 0 1 1482.4429 422.9443)">2642</text></g><g><text font-size="2.5600000000000005" id="T2644" font-family="'Helvetica'" class="cabinNumber" transform="matrix(1 0 0 1 1482.5288 428.7822)">2644</text></g><g><text font-size="2.5600000000000005" id="T2646" font-family="'Helvetica'" class="cabinNumber" transform="matrix(1 0 0 1 1482.8159 434.3486)">2646</text></g><text font-size="2.5600000000000005" id="T2648" font-family="'Helvetica'" class="cabinNumber" transform="matrix(1 0 0 1 1483.1724 440.1865)">2648</text><g><text font-size="2.5600000000000005" id="T2650" font-family="'Helvetica'" class="cabinNumber" transform="matrix(1 0 0 1 1483.05 445.8477)">2650</text></g><g><text font-size="2.5600000000000005" id="T2652" font-family="'Helvetica'" class="cabinNumber" transform="matrix(1 0 0 1 1482.4761 451.9385)">2652</text></g><g><text font-size="2.5600000000000005" id="T2654" font-family="'Helvetica'" class="cabinNumber" transform="matrix(1 0 0 1 1482.4761 457.7735)">2654</text></g><g><text font-size="2.5600000000000005" id="T2656" font-family="'Helvetica'" class="cabinNumber" transform="matrix(1 0 0 1 1482.3687 463.6104)">2656</text></g><g><text font-size="2.5600000000000005" id="T2658" font-family="'Helvetica'" class="cabinNumber" transform="matrix(1 0 0 1 1482.3687 469.4463)">2658</text></g><g><text font-size="2.5600000000000005" id="T2242" font-family="'Helvetica'" class="cabinNumber" transform="matrix(1 0 0 1 1545.9634 128.9111)">2242</text></g><g><text font-size="2.5600000000000005" id="T2244" font-family="'Helvetica'" class="cabinNumber" transform="matrix(1 0 0 1 1545.9644 134.2508)">2244</text></g><g><text font-size="2.5600000000000005" id="T2246" font-family="'Helvetica'" class="cabinNumber" transform="matrix(1 0 0 1 1545.9644 140.2195)">2246</text></g><g><text font-size="2.5600000000000005" id="T2240" font-family="'Helvetica'" class="cabinNumber" transform="matrix(1 0 0 1 1545.9644 123.0485)">2240</text></g><g><text font-size="2.5600000000000005" id="T2343" font-family="'Helvetica'" class="cabinNumber" transform="matrix(0 -1 1 0 1536.1145 429.2197)">2343</text></g><g><text font-size="2.5600000000000005" id="T2345" font-family="'Helvetica'" class="cabinNumber" transform="matrix(0 -1 1 0 1536.1997 439.8037)">2345</text></g><g><text font-size="2.5600000000000005" id="T2639" font-family="'Helvetica'" class="cabinNumber" transform="matrix(0 -1 1 0 1502.781 416.1357)">2639</text></g><g><text font-size="2.5600000000000005" id="T2641" font-family="'Helvetica'" class="cabinNumber" transform="matrix(0 -1 1 0 1502.8665 426.8936)">2641</text></g><g><text font-size="2.5600000000000005" id="T2609" font-family="'Helvetica'" class="cabinNumber" transform="matrix(0 -1 1 0 1501.1145 317.6377)">2609</text></g><g><text font-size="2.5600000000000005" id="T2611" font-family="'Helvetica'" class="cabinNumber" transform="matrix(0 -1 1 0 1501.1997 327.8877)">2611</text></g><text font-size="2.5600000000000005" id="T2551" font-family="'Helvetica'" class="cabinNumber" transform="matrix(1 0 0 1 1497.7083 158.313)">2551</text><text font-size="2.5600000000000005" id="T2553" font-family="'Helvetica'" class="cabinNumber" transform="matrix(1 0 0 1 1497.7083 164.1484)">2553</text><text font-size="2.5600000000000005" id="T2555" font-family="'Helvetica'" class="cabinNumber" transform="matrix(1 0 0 1 1497.7083 169.9858)">2555</text><text font-size="2.5600000000000005" id="T2557" font-family="'Helvetica'" class="cabinNumber" transform="matrix(1 0 0 1 1497.7083 175.8213)">2557</text><text font-size="2.5600000000000005" id="T2559" font-family="'Helvetica'" class="cabinNumber" transform="matrix(1 0 0 1 1497.7083 181.6582)">2559</text><text font-size="2.5600000000000005" id="T2561" font-family="'Helvetica'" class="cabinNumber" transform="matrix(1 0 0 1 1497.7083 187.4932)">2561</text><text font-size="2.5600000000000005" id="T2536" font-family="'Helvetica'" class="cabinNumber" transform="matrix(1 0 0 1 1482.8232 112.3906)">2536</text><text font-size="2.5600000000000005" id="T2538" font-family="'Helvetica'" class="cabinNumber" transform="matrix(1 0 0 1 1482.79 117.6958)">2538</text><text font-size="2.5600000000000005" id="T2235" font-family="'Helvetica'" class="cabinNumber" transform="matrix(1 0 0 1 1518.1158 112.6213)">2235</text><text font-size="2.5600000000000005" id="T2237" font-family="'Helvetica'" class="cabinNumber" transform="matrix(1 0 0 1 1518.1158 117.8833)">2237</text><text font-size="2.5600000000000005" id="T2239" font-family="'Helvetica'" class="cabinNumber" transform="matrix(1 0 0 1 1518.1158 123.0708)">2239</text><text font-size="2.5600000000000005" id="T2233" font-family="'Helvetica'" class="cabinNumber" transform="matrix(1 0 0 1 1508.7275 112.3909)">2233</text></g></g><g id="SYMBOLS_AND_VENUES"><g><path d="M1502.39,148.952h-2.887v-1.695h0.444v1.045h0.711v-0.964h0.444v0.964h0.844v-1.08h0.443V148.952z"/></g><g><path d="M1502.39,146.794h-2.887v-0.65h2.407v-0.972h0.479V146.794z"/></g><g><path d="M1502.39,144.887h-2.887v-1.695h0.444v1.045h0.711v-0.964h0.444v0.964h0.844v-1.08h0.443V144.887z"/></g><g><path d="M1499.503,142.984v-0.676l2.1-0.482v-0.008l-2.1-0.542v-0.641l2.887,0.822v0.762L1499.503,142.984z"/></g><g><path d="M1501.862,140.194h0.527v0.517h-0.527V140.194z"/></g><g><path d="M1536.549,148.952h-2.887v-1.695h0.444v1.045h0.711v-0.964h0.444v0.964h0.844v-1.08h0.443V148.952z"/></g><g><path d="M1536.549,146.794h-2.887v-0.65h2.407v-0.972h0.479V146.794z"/></g><g><path d="M1536.549,144.887h-2.887v-1.695h0.444v1.045h0.711v-0.964h0.444v0.964h0.844v-1.08h0.443V144.887z"/></g><g><path d="M1533.662,142.984v-0.676l2.1-0.482v-0.008l-2.1-0.542v-0.641l2.887,0.822v0.762L1533.662,142.984z"/></g><g><path d="M1536.021,140.194h0.527v0.517h-0.527V140.194z"/></g><g><path d="M1512.509,163.101c0-0.822,0-1.605,0.996-1.605c0.615,0,0.863,0.366,0.839,1.033h-0.592c0-0.413-0.067-0.568-0.247-0.568    c-0.34,0-0.384,0.344-0.384,1.141c0,0.796,0.044,1.14,0.384,1.14c0.279,0,0.268-0.387,0.275-0.632h0.596    c0,0.83-0.308,1.097-0.871,1.097C1512.509,164.706,1512.509,163.914,1512.509,163.101z"/></g><g><path d="M1514.733,163.101c0-0.822,0-1.605,0.996-1.605c0.995,0,0.995,0.783,0.995,1.605c0,0.813,0,1.605-0.995,1.605    C1514.733,164.706,1514.733,163.914,1514.733,163.101z M1516.113,163.101c0-0.796-0.044-1.141-0.384-1.141    s-0.384,0.344-0.384,1.141c0,0.796,0.044,1.14,0.384,1.14S1516.113,163.896,1516.113,163.101z"/></g><g><path d="M1517.21,164.654v-3.107h0.815l0.768,2.152h0.008v-2.152h0.564v3.107h-0.796l-0.788-2.272h-0.008v2.272H1517.21z"/></g><g><path d="M1519.862,164.654v-3.107h1.499v0.478h-0.896v0.796h0.855v0.478h-0.855v1.355H1519.862z"/></g><g><path d="M1521.65,164.654v-3.107h1.575v0.478h-0.972v0.766h0.896v0.478h-0.896v0.908h1.004v0.478H1521.65z"/></g><g><path d="M1524.242,164.654h-0.604v-3.107h1.115c0.411,0,0.676,0.284,0.676,0.813c0,0.396-0.145,0.693-0.536,0.762v0.008    c0.132,0.018,0.523,0.052,0.523,0.611c0,0.198,0.013,0.783,0.068,0.912h-0.592c-0.08-0.189-0.063-0.4-0.063-0.603    c0-0.37,0.031-0.684-0.433-0.684h-0.155V164.654z M1524.242,162.89h0.268c0.24,0,0.308-0.258,0.308-0.456    c0-0.297-0.115-0.409-0.308-0.409h-0.268V162.89z"/></g><g><path d="M1525.875,164.654v-3.107h1.575v0.478h-0.972v0.766h0.896v0.478h-0.896v0.908h1.004v0.478H1525.875z"/></g><g><path d="M1527.879,164.654v-3.107h0.815l0.768,2.152h0.008v-2.152h0.564v3.107h-0.796l-0.788-2.272h-0.008v2.272H1527.879z"/></g><g><path d="M1530.515,163.101c0-0.822,0-1.605,0.996-1.605c0.615,0,0.863,0.366,0.839,1.033h-0.592c0-0.413-0.067-0.568-0.247-0.568    c-0.34,0-0.384,0.344-0.384,1.141c0,0.796,0.044,1.14,0.384,1.14c0.279,0,0.268-0.387,0.275-0.632h0.596    c0,0.83-0.308,1.097-0.871,1.097C1530.515,164.706,1530.515,163.914,1530.515,163.101z"/></g><g><path d="M1532.768,164.654v-3.107h1.575v0.478h-0.972v0.766h0.896v0.478h-0.896v0.908h1.004v0.478H1532.768z"/></g><g><path d="M1517.065,167.406c0-0.822,0-1.605,0.996-1.605c0.615,0,0.863,0.366,0.839,1.033h-0.592c0-0.413-0.067-0.568-0.247-0.568    c-0.34,0-0.384,0.344-0.384,1.141c0,0.796,0.044,1.14,0.384,1.14c0.279,0,0.268-0.387,0.275-0.632h0.596    c0,0.83-0.308,1.097-0.871,1.097C1517.065,169.011,1517.065,168.219,1517.065,167.406z"/></g><g><path d="M1519.318,168.959v-3.107h1.575v0.478h-0.972v0.766h0.896v0.478h-0.896v0.908h1.004v0.478H1519.318z"/></g><g><path d="M1521.322,168.959v-3.107h0.815l0.768,2.152h0.008v-2.152h0.564v3.107h-0.796l-0.788-2.272h-0.008v2.272H1521.322z"/></g><g><path d="M1525.705,165.852v0.517h-0.672v2.59h-0.604v-2.59h-0.671v-0.517H1525.705z"/></g><g><path d="M1525.986,168.959v-3.107h1.575v0.478h-0.972v0.766h0.896v0.478h-0.896v0.908h1.004v0.478H1525.986z"/></g><g><path d="M1528.578,168.959h-0.604v-3.107h1.115c0.411,0,0.676,0.284,0.676,0.813c0,0.396-0.145,0.693-0.536,0.762v0.008    c0.132,0.018,0.523,0.052,0.523,0.611c0,0.198,0.013,0.783,0.068,0.912h-0.592c-0.08-0.189-0.063-0.4-0.063-0.603    c0-0.37,0.031-0.684-0.433-0.684h-0.155V168.959z M1528.578,167.195h0.268c0.24,0,0.308-0.258,0.308-0.456    c0-0.297-0.115-0.409-0.308-0.409h-0.268V167.195z"/></g><g><path d="M1538.349,348.911h-2.887v-1.695h0.444v1.046h0.711v-0.964h0.444v0.964h0.844v-1.08h0.443V348.911z"/></g><g><path d="M1538.349,346.755h-2.887v-0.649h2.407v-0.973h0.479V346.755z"/></g><g><path d="M1538.349,344.848h-2.887v-1.695h0.444v1.046h0.711v-0.964h0.444v0.964h0.844v-1.08h0.443V344.848z"/></g><g><path d="M1535.462,342.945v-0.676l2.1-0.481v-0.009l-2.1-0.542v-0.642l2.887,0.822v0.762L1535.462,342.945z"/></g><g><path d="M1537.821,340.156h0.527v0.516h-0.527V340.156z"/></g><g><path d="M1500.589,348.911h-2.887v-1.695h0.444v1.046h0.711v-0.964h0.444v0.964h0.844v-1.08h0.443V348.911z"/></g><g><path d="M1500.589,346.755h-2.887v-0.649h2.407v-0.973h0.479V346.755z"/></g><g><path d="M1500.589,344.848h-2.887v-1.695h0.444v1.046h0.711v-0.964h0.444v0.964h0.844v-1.08h0.443V344.848z"/></g><g><path d="M1497.702,342.945v-0.676l2.1-0.481v-0.009l-2.1-0.542v-0.642l2.887,0.822v0.762L1497.702,342.945z"/></g><g><path d="M1500.062,340.156h0.527v0.516h-0.527V340.156z"/></g></g><g id="ROOM_ATTRIBUTES"><polygon points="1491.186,161.271 1491.918,161.271 1491.918,158.003 1491.186,158.003 1492.301,156.437 1493.508,158.003    1492.773,158.003 1492.773,161.271 1493.598,161.271 1492.389,162.836  "/><polygon points="1491.186,196.371 1491.918,196.371 1491.918,193.103 1491.186,193.103 1492.301,191.537 1493.508,193.103    1492.773,193.103 1492.773,196.371 1493.598,196.371 1492.389,197.937  "/><polygon points="1542.639,161.271 1543.371,161.271 1543.371,158.003 1542.639,158.003 1543.756,156.437 1544.963,158.003    1544.227,158.003 1544.227,161.271 1545.051,161.271 1543.842,162.836  "/><polygon points="1542.639,172.751 1543.371,172.751 1543.371,169.484 1542.639,169.484 1543.756,167.917 1544.963,169.484    1544.227,169.484 1544.227,172.751 1545.051,172.751 1543.842,174.318  "/><polygon points="1542.639,196.084 1543.371,196.084 1543.371,192.816 1542.639,192.816 1543.756,191.251 1544.963,192.816    1544.227,192.816 1544.227,196.084 1545.051,196.084 1543.842,197.652  "/><polygon points="1491.131,254.971 1491.863,254.971 1491.863,251.703 1491.131,251.703 1492.244,250.137 1493.453,251.703    1492.717,251.703 1492.717,254.971 1493.543,254.971 1492.334,256.537  "/><polygon points="1491.186,331.69 1491.918,331.69 1491.918,328.422 1491.186,328.422 1492.301,326.857 1493.508,328.422    1492.773,328.422 1492.773,331.69 1493.598,331.69 1492.389,333.256  "/><polygon points="1491.131,396.691 1491.863,396.691 1491.863,393.42 1491.131,393.42 1492.244,391.857 1493.453,393.42    1492.717,393.42 1492.717,396.691 1493.543,396.691 1492.334,398.256  "/><polygon points="1491.131,431.73 1491.863,431.73 1491.863,428.461 1491.131,428.461 1492.244,426.895 1493.453,428.461    1492.717,428.461 1492.717,431.73 1493.543,431.73 1492.334,433.295  "/><polygon points="1491.131,455.109 1491.863,455.109 1491.863,451.842 1491.131,451.842 1492.244,450.275 1493.453,451.842    1492.717,451.842 1492.717,455.109 1493.543,455.109 1492.334,456.676  "/><polygon points="1542.639,255.029 1543.371,255.029 1543.371,251.764 1542.639,251.764 1543.756,250.197 1544.961,251.764    1544.227,251.764 1544.227,255.029 1545.051,255.029 1543.84,256.6  "/><polygon points="1542.527,308.309 1543.258,308.309 1543.258,305.043 1542.527,305.043 1543.643,303.475 1544.85,305.043    1544.113,305.043 1544.113,308.309 1544.939,308.309 1543.73,309.875  "/><polygon points="1542.527,331.809 1543.258,331.809 1543.258,328.541 1542.527,328.541 1543.643,326.975 1544.85,328.541    1544.113,328.541 1544.113,331.809 1544.939,331.809 1543.73,333.377  "/><polygon points="1542.527,343.471 1543.258,343.471 1543.258,340.201 1542.527,340.201 1543.643,338.637 1544.85,340.201    1544.113,340.201 1544.113,343.471 1544.939,343.471 1543.73,345.035  "/><polygon points="1542.527,396.75 1543.258,396.75 1543.258,393.48 1542.527,393.48 1543.643,391.914 1544.85,393.48    1544.113,393.48 1544.113,396.75 1544.939,396.75 1543.73,398.315  "/><polygon points="1542.527,431.67 1543.258,431.67 1543.258,428.402 1542.527,428.402 1543.643,426.836 1544.85,428.402    1544.113,428.402 1544.113,431.67 1544.939,431.67 1543.73,433.236  "/><polygon points="1542.527,408.109 1543.258,408.109 1543.258,404.842 1542.527,404.842 1543.643,403.275 1544.85,404.842    1544.113,404.842 1544.113,408.109 1544.939,408.109 1543.73,409.676  "/><polygon points="1542.582,455.051 1543.314,455.051 1543.314,451.781 1542.582,451.781 1543.697,450.217 1544.906,451.781    1544.168,451.781 1544.168,455.051 1544.996,455.051 1543.785,456.617  "/><polygon points="1491.131,173.26 1491.863,173.26 1491.863,169.991 1491.131,169.991 1492.244,168.426 1493.453,169.991    1492.717,169.991 1492.717,173.26 1493.543,173.26 1492.334,174.827  "/><polygon points="1491.088,243.213 1491.82,243.213 1491.82,239.947 1491.088,239.947 1492.205,238.38 1493.414,239.947    1492.678,239.947 1492.678,243.213 1493.5,243.213 1492.293,244.781  "/><g><path d="M1490.254,156.14h-0.611v-0.288h0.611v-0.645h0.354v0.645h0.611v0.288h-0.611v2.173h-0.354V156.14z"/></g><g><path d="M1490.254,121.124h-0.611v-0.289h0.611v-0.646h0.354v0.646h0.611v0.289h-0.611v2.173h-0.354V121.124z"/></g><g><path d="M1490.254,126.96h-0.611v-0.288h0.611v-0.646h0.352v0.646h0.611v0.288h-0.611v2.173h-0.352V126.96z"/></g><g><path d="M1490.254,132.078h-0.611v-0.288h0.611v-0.646h0.354v0.646h0.611v0.288h-0.611v2.173h-0.354V132.078z"/></g><g><path d="M1490.254,138.632h-0.611v-0.288h0.611v-0.645h0.352v0.645h0.611v0.288h-0.611v2.173h-0.352V138.632z"/></g><g><path d="M1490.254,179.485h-0.611v-0.289h0.611v-0.645h0.354v0.645h0.611v0.289h-0.611v2.173h-0.354V179.485z"/></g><g><path d="M1490.36,191.157h-0.611v-0.288h0.611v-0.646h0.354v0.646h0.611v0.288h-0.611v2.173h-0.354V191.157z"/></g><g><path d="M1490.36,196.993h-0.611v-0.288h0.611v-0.646h0.352v0.646h0.611v0.288h-0.611v2.173h-0.352V196.993z"/></g><g><path d="M1490.36,202.829h-0.611v-0.288h0.611v-0.645h0.354v0.645h0.611v0.288h-0.611v2.173h-0.354V202.829z"/></g><g><g><g><path d="M1553.268,150.223h-0.611v-0.289h0.611v-0.645h0.353v0.645h0.611v0.289h-0.611v2.173h-0.353V150.223z"/></g></g></g><g><g><g><path d="M1553.268,156.227h-0.611v-0.289h0.611v-0.645h0.353v0.645h0.611v0.289h-0.611v2.173h-0.353V156.227z"/></g></g></g><g><g><path d="M1553.268,179.523h-0.611v-0.289h0.611v-0.646h0.353v0.646h0.611v0.289h-0.611v2.173h-0.353V179.523z"/></g></g><g><g><path d="M1553.489,191.052h-0.611v-0.289h0.611v-0.646h0.353v0.646h0.611v0.289h-0.611v2.173h-0.353V191.052z"/></g></g><g><g><path d="M1553.489,197.176h-0.611v-0.288h0.611v-0.646h0.353v0.646h0.611v0.288h-0.611v2.173h-0.353V197.176z"/></g></g><g><g><path d="M1553.489,202.581h-0.611v-0.288h0.611v-0.645h0.353v0.645h0.611v0.288h-0.611v2.173h-0.353V202.581z"/></g></g><g><path d="M1553.271,243.862h-0.611v-0.288h0.611v-0.645h0.353v0.645h0.611v0.288h-0.611v2.173h-0.353V243.862z"/></g><g><path d="M1553.271,249.62h-0.611v-0.288h0.611v-0.645h0.353v0.645h0.611v0.288h-0.611v2.173h-0.353V249.62z"/></g><g><path d="M1553.271,261.39h-0.611v-0.288h0.611v-0.646h0.353v0.646h0.611v0.288h-0.611v2.173h-0.353V261.39z"/></g><g><path d="M1553.271,273.158h-0.611v-0.288h0.611v-0.646h0.353v0.646h0.611v0.288h-0.611v2.173h-0.353V273.158z"/></g><g><g><path d="M1553.271,303.023h-0.611v-0.288h0.611v-0.646h0.353v0.646h0.611v0.288h-0.611v2.173h-0.353V303.023z"/></g></g><g><g><path d="M1553.271,308.885h-0.611v-0.288h0.611v-0.646h0.353v0.646h0.611v0.288h-0.611v2.173h-0.353V308.885z"/></g></g><g><g><path d="M1490.193,244.067h-0.611v-0.288h0.611v-0.646h0.352v0.646h0.611v0.288h-0.611v2.173h-0.352V244.067z"/></g></g><g><g><path d="M1490.193,249.735h-0.611v-0.288h0.611v-0.646h0.352v0.646h0.611v0.288h-0.611v2.173h-0.352V249.735z"/></g></g><g><g><path d="M1490.258,261.574h-0.611v-0.288h0.611v-0.645h0.354v0.645h0.611v0.288h-0.611v2.173h-0.354V261.574z"/></g></g><g><g><path d="M1490.258,278.916h-0.611v-0.288h0.611v-0.645h0.354v0.645h0.611v0.288h-0.611v2.173h-0.354V278.916z"/></g></g><g><g><path d="M1490.258,303.288h-0.611V303h0.611v-0.645h0.354V303h0.611v0.288h-0.611v2.173h-0.354V303.288z"/></g></g><g><g><path d="M1490.258,309.125h-0.611v-0.288h0.611v-0.646h0.354v0.646h0.611v0.288h-0.611v2.173h-0.354V309.125z"/></g></g><g><g><path d="M1553.272,343.712h-0.611v-0.288h0.611v-0.645h0.353v0.645h0.611v0.288h-0.611v2.173h-0.353V343.712z"/></g></g><g><g><path d="M1553.272,349.676h-0.611v-0.288h0.611v-0.645h0.353v0.645h0.611v0.288h-0.611v2.173h-0.353V349.676z"/></g></g><g><g><path d="M1553.271,385.679h-0.611v-0.288h0.611v-0.645h0.353v0.645h0.611v0.288h-0.611v2.173h-0.353V385.679z"/></g></g><g><g><path d="M1553.271,391.441h-0.611v-0.288h0.611v-0.646h0.353v0.646h0.611v0.288h-0.611v2.173h-0.353V391.441z"/></g></g><g><g><path d="M1553.272,397.327h-0.611v-0.288h0.611v-0.645h0.353v0.645h0.611v0.288h-0.611v2.173h-0.353V397.327z"/></g></g><g><g><path d="M1553.272,403.05h-0.611v-0.288h0.611v-0.646h0.353v0.646h0.611v0.288h-0.611v2.173h-0.353V403.05z"/></g></g><g><g><path d="M1553.271,414.818h-0.611v-0.288h0.611v-0.646h0.353v0.646h0.611v0.288h-0.611v2.173h-0.353V414.818z"/></g></g><g><g><path d="M1553.271,420.624h-0.611v-0.288h0.611v-0.646h0.353v0.646h0.611v0.288h-0.611v2.173h-0.353V420.624z"/></g></g><g><g><path d="M1553.207,426.553h-0.611v-0.288h0.611v-0.646h0.353v0.646h0.611v0.288h-0.611v2.173h-0.353V426.553z"/></g></g><g><g><path d="M1553.272,443.841h-0.611v-0.288h0.611v-0.646h0.353v0.646h0.611v0.288h-0.611v2.173h-0.353V443.841z"/></g></g><g><g><path d="M1553.207,449.965h-0.611v-0.288h0.611v-0.646h0.353v0.646h0.611v0.288h-0.611v2.173h-0.353V449.965z"/></g></g><g><g><path d="M1553.207,455.61h-0.611v-0.288h0.611v-0.645h0.353v0.645h0.611v0.288h-0.611v2.173h-0.353V455.61z"/></g></g><g><g><path d="M1553.272,461.572h-0.611v-0.288h0.611v-0.646h0.353v0.646h0.611v0.288h-0.611v2.173h-0.353V461.572z"/></g></g><g><g><path d="M1553.272,467.377h-0.611v-0.288h0.611v-0.646h0.353v0.646h0.611v0.288h-0.611v2.173h-0.353V467.377z"/></g></g><g><g><path d="M1490.279,344.141h-0.611v-0.288h0.611v-0.646h0.354v0.646h0.611v0.288h-0.611v2.173h-0.354V344.141z"/></g></g><g><g><path d="M1490.279,349.979h-0.611v-0.288h0.611v-0.645h0.354v0.645h0.611v0.288h-0.611v2.173h-0.354V349.979z"/></g></g><g><g><path d="M1490.279,385.756h-0.611v-0.288h0.611v-0.646h0.354v0.646h0.611v0.288h-0.611v2.173h-0.354V385.756z"/></g></g><g><g><path d="M1490.193,391.695h-0.611v-0.288h0.611v-0.645h0.352v0.645h0.611v0.288h-0.611v2.173h-0.352V391.695z"/></g></g><g><g><path d="M1490.258,397.429h-0.611v-0.288h0.611v-0.645h0.354v0.645h0.611v0.288h-0.611v2.173h-0.354V397.429z"/></g></g><g><g><path d="M1490.258,403.263h-0.611v-0.288h0.611v-0.646h0.354v0.646h0.611v0.288h-0.611v2.173h-0.354V403.263z"/></g></g><g><g><path d="M1490.258,409.101h-0.611v-0.288h0.611v-0.646h0.354v0.646h0.611v0.288h-0.611v2.173h-0.354V409.101z"/></g></g><g><g><path d="M1490.279,414.938h-0.611v-0.288h0.611v-0.646h0.353v0.646h0.611v0.288h-0.611v2.173h-0.353V414.938z"/></g></g><g><g><path d="M1490.279,420.772h-0.611v-0.288h0.611v-0.646h0.353v0.646h0.611v0.288h-0.611v2.173h-0.353V420.772z"/></g></g><g><g><path d="M1490.192,426.609h-0.611v-0.288h0.611v-0.646h0.353v0.646h0.611v0.288h-0.611v2.173h-0.353V426.609z"/></g></g><g><g><path d="M1490.192,449.954h-0.611v-0.288h0.611v-0.645h0.353v0.645h0.611v0.288h-0.611v2.173h-0.353V449.954z"/></g></g><g><g><path d="M1490.192,455.789h-0.611v-0.288h0.611v-0.646h0.353v0.646h0.611v0.288h-0.611v2.173h-0.353V455.789z"/></g></g><g><g><path d="M1490.258,461.626h-0.611v-0.288h0.611v-0.645h0.353v0.645h0.611v0.288h-0.611v2.173h-0.353V461.626z"/></g></g><g><g><path d="M1490.258,467.462h-0.611v-0.288h0.611v-0.646h0.353v0.646h0.611v0.288h-0.611v2.173h-0.353V467.462z"/></g></g><path d="M1486.119,356.716c-0.191,0.072-0.426,0.295-0.426,0.777c0,0.496,0.389,0.914,0.838,0.914c0.453,0,0.814-0.258,1.01-0.645   l0.098,0.299c-0.188,0.285-0.559,0.604-1.117,0.604c-0.615,0-1.084-0.541-1.084-1.176c0-0.668,0.402-0.951,0.674-1.031   L1486.119,356.716z M1487.359,356.396l0.01,0.258h-0.818l0.01,0.26h1.152l0.342,1.055l0.377-0.145l0.082,0.26l-0.641,0.242   l-0.373-1.156h-1.23l-0.049-1.506c-0.006-0.113-0.078-0.154-0.08-0.262c-0.008-0.17,0.113-0.346,0.322-0.346   c0.193,0,0.354,0.102,0.354,0.346c0,0.205-0.172,0.348-0.295,0.348l0.02,0.647H1487.359z"/><path d="M1486.258,366.403c-0.191,0.07-0.428,0.291-0.428,0.777c0,0.494,0.389,0.912,0.84,0.912c0.453,0,0.814-0.258,1.01-0.645   l0.096,0.299c-0.188,0.283-0.559,0.605-1.115,0.605c-0.615,0-1.084-0.543-1.084-1.178c0-0.67,0.402-0.949,0.672-1.031   L1486.258,366.403z M1487.496,366.083l0.01,0.258h-0.816l0.01,0.256h1.152l0.342,1.059l0.375-0.146l0.084,0.258l-0.641,0.244   l-0.373-1.154h-1.23l-0.049-1.506c-0.006-0.115-0.078-0.154-0.082-0.264c-0.006-0.17,0.115-0.344,0.324-0.344   c0.193,0,0.354,0.102,0.354,0.344c0,0.207-0.172,0.346-0.295,0.346l0.02,0.65H1487.496z"/><path d="M1486.119,375.849c-0.191,0.072-0.426,0.293-0.426,0.779c0,0.492,0.389,0.912,0.838,0.912c0.453,0,0.814-0.26,1.01-0.646   l0.098,0.301c-0.188,0.283-0.559,0.602-1.117,0.602c-0.615,0-1.084-0.541-1.084-1.174c0-0.668,0.402-0.949,0.674-1.033   L1486.119,375.849z M1487.359,375.528l0.01,0.258h-0.818l0.01,0.258h1.152l0.342,1.059l0.377-0.145l0.082,0.258l-0.641,0.242   l-0.373-1.156h-1.23l-0.049-1.506c-0.006-0.113-0.078-0.154-0.08-0.262c-0.008-0.17,0.113-0.346,0.322-0.346   c0.193,0,0.354,0.103,0.354,0.346c0,0.207-0.172,0.346-0.295,0.346l0.02,0.648H1487.359z"/><path d="M1548.619,356.638c-0.191,0.072-0.426,0.295-0.426,0.777c0,0.496,0.387,0.914,0.836,0.914c0.455,0,0.816-0.258,1.01-0.645   l0.098,0.299c-0.188,0.285-0.559,0.604-1.117,0.604c-0.611,0-1.082-0.541-1.082-1.176c0-0.668,0.402-0.951,0.672-1.031   L1548.619,356.638z M1549.859,356.317l0.012,0.258h-0.822l0.01,0.26h1.154l0.34,1.055l0.379-0.145l0.084,0.26l-0.645,0.242   l-0.373-1.156h-1.232l-0.047-1.506c-0.004-0.113-0.076-0.154-0.082-0.262c-0.004-0.17,0.115-0.346,0.326-0.346   c0.191,0,0.355,0.102,0.355,0.346c0,0.205-0.174,0.348-0.299,0.348l0.02,0.647H1549.859z"/><path d="M1548.539,366.491c-0.191,0.07-0.426,0.291-0.426,0.777c0,0.494,0.387,0.912,0.838,0.912c0.453,0,0.814-0.258,1.01-0.645   l0.096,0.299c-0.186,0.283-0.559,0.605-1.115,0.605c-0.613,0-1.082-0.543-1.082-1.178c0-0.67,0.402-0.949,0.672-1.031   L1548.539,366.491z M1549.779,366.171l0.012,0.258h-0.82l0.008,0.256h1.156l0.34,1.059l0.379-0.146l0.082,0.258l-0.643,0.244   l-0.373-1.154h-1.232l-0.047-1.506c-0.006-0.115-0.078-0.154-0.084-0.264c-0.004-0.17,0.117-0.344,0.326-0.344   c0.193,0,0.355,0.102,0.355,0.344c0,0.207-0.172,0.346-0.297,0.346l0.018,0.65H1549.779z"/><path d="M1548.539,376.103c-0.191,0.072-0.426,0.295-0.426,0.779c0,0.494,0.387,0.912,0.838,0.912c0.453,0,0.814-0.258,1.01-0.645   l0.096,0.299c-0.186,0.285-0.559,0.604-1.115,0.604c-0.613,0-1.082-0.541-1.082-1.176c0-0.668,0.402-0.949,0.672-1.031   L1548.539,376.103z M1549.779,375.782l0.012,0.26h-0.82l0.008,0.256h1.156l0.34,1.06l0.379-0.146l0.082,0.258l-0.643,0.242   l-0.373-1.154h-1.232l-0.047-1.506c-0.006-0.113-0.078-0.154-0.084-0.264c-0.004-0.17,0.117-0.346,0.326-0.346   c0.193,0,0.355,0.105,0.355,0.346c0,0.207-0.172,0.348-0.297,0.348l0.018,0.646H1549.779z"/><g><g><path d="M1553.272,408.771h-0.611v-0.288h0.611v-0.646h0.353v0.646h0.611v0.288h-0.611v2.173h-0.353V408.771z"/></g></g><polygon points="1490.907,115.445 1491.64,115.445 1491.64,112.178 1490.907,112.178 1492.022,110.611 1493.229,112.178    1492.495,112.178 1492.495,115.445 1493.319,115.445 1492.11,117.011  "/></g><g id="ICONS"><path fill="#0089CF" d="M1524.045,174.846c-2.33,0-4.218,1.889-4.218,4.218c0,2.33,1.889,4.218,4.218,4.218   c2.33,0,4.219-1.888,4.219-4.218C1528.264,176.734,1526.375,174.846,1524.045,174.846z M1522.185,179.153   c0.008-0.075,0.017-0.149,0.025-0.224c0.056-0.212,0.124-0.559,0.237-0.721c0.1-0.145,0.352-0.143,0.522-0.224   c0.108-0.051,0.241-0.087,0.348-0.149c0.091-0.053,0.193-0.21,0.274-0.287c0.003-0.231-0.052-0.364-0.062-0.559   c-0.033,0-0.066,0-0.099,0c-0.012-0.022-0.016-0.021-0.025-0.05c-0.059-0.074-0.036-0.249-0.012-0.336   c0.055-0.017,0.08-0.002,0.087-0.075c-0.043-0.066-0.007-0.257,0.013-0.311c0.075-0.205,0.268-0.383,0.522-0.398   c0.316-0.019,0.556,0.216,0.61,0.472c-0.013,0.108-0.025,0.216-0.037,0.325c0.077,0.025,0.113,0.044,0.124,0.136   c-0.072,0.11-0.023,0.274-0.211,0.273c-0.017,0.147-0.07,0.286-0.075,0.46c0.111,0.074,0.192,0.199,0.299,0.274   c0.084,0.059,0.344,0.149,0.447,0.187c0.136,0.049,0.38,0.059,0.448,0.174c0.02,0.034,0.01,0.063,0.025,0.1   c0.087,0.207,0.152,0.49,0.211,0.721c0.008,0.083,0.016,0.167,0.024,0.25h-1.849c-0.009-0.129,0.014-0.257,0.069-0.373   c0.083,0,0.172-0.047,0.232-0.133c0.086-0.125,0.075-0.282-0.024-0.35c-0.099-0.068-0.25-0.022-0.336,0.103   c-0.066,0.096-0.075,0.21-0.031,0.289c-0.071,0.145-0.103,0.304-0.093,0.465h-1.669   C1522.18,179.179,1522.182,179.166,1522.185,179.153z M1526.49,180.098h-0.24h-0.522v1.879h-3.365v-1.879h-0.522h-0.24v-0.482h0.24   v-0.24h4.409v0.24h0.24V180.098z"/></g></svg>