<?xml version="1.0" encoding="utf-8"?>
<!-- Generator: Adobe Illustrator 22.1.0, SVG Export Plug-In . SVG Version: 6.00 Build 0)  -->
<svg version="1.1"
	 id="svg2" inkscape:version="0.92.5 (2060ec1f9f, 2020-04-08)" sodipodi:docname="Information_white.svg" xmlns:cc="http://creativecommons.org/ns#" xmlns:dc="http://purl.org/dc/elements/1.1/" xmlns:inkscape="http://www.inkscape.org/namespaces/inkscape" xmlns:rdf="http://www.w3.org/1999/02/22-rdf-syntax-ns#" xmlns:sodipodi="http://sodipodi.sourceforge.net/DTD/sodipodi-0.dtd" xmlns:svg="http://www.w3.org/2000/svg"
	 xmlns="http://www.w3.org/2000/svg" xmlns:xlink="http://www.w3.org/1999/xlink" x="0px" y="0px" viewBox="0 0 230 227"
	 style="enable-background:new 0 0 230 227;" xml:space="preserve">
<style type="text/css">
	.st0{fill:url(#path12053_1_);}
	.st1{fill:#B3B3B3;}
	.st2{fill:url(#path13592_1_);}
	.st3{fill:#F9F9F9;}
	.st4{opacity:0.45;fill:url(#path18502_1_);enable-background:new    ;}
</style>
<sodipodi:namedview  bordercolor="#666666" borderopacity="1" gridtolerance="10" guidetolerance="10" id="namedview4664" inkscape:current-layer="svg2" inkscape:cx="220.29084" inkscape:cy="105.25479" inkscape:pageopacity="0" inkscape:pageshadow="2" inkscape:window-height="715" inkscape:window-maximized="1" inkscape:window-width="1310" inkscape:window-x="56" inkscape:window-y="27" inkscape:zoom="3.2851562" objecttolerance="10" pagecolor="#ffffff" showgrid="false">
	</sodipodi:namedview>
<g id="layer2" transform="translate(-18.215243,-20.201841)">
	
		<radialGradient id="path12053_1_" cx="149.5725" cy="114.8306" r="115.9509" gradientTransform="matrix(0.996 0 0 -0.996 -0.8325 265.8865)" gradientUnits="userSpaceOnUse">
		<stop  offset="0" style="stop-color:#000000;stop-opacity:0.3137"/>
		<stop  offset="0.9298" style="stop-color:#000000;stop-opacity:0.1961"/>
		<stop  offset="1" style="stop-color:#000000;stop-opacity:0"/>
	</radialGradient>
	<path id="path12053" inkscape:connector-curvature="0" class="st0" d="M245.4,131.3c0,63.8-51.7,115.5-115.5,115.5
		S14.4,195.1,14.4,131.3c0-63.8,51.7-115.5,115.5-115.5S245.4,67.5,245.4,131.3L245.4,131.3z"/>
</g>
<g id="layer4" transform="translate(-18.215243,-20.201841)">
	<path id="path2175" inkscape:connector-curvature="0" class="st1" d="M235,128c0,59.1-47.9,107-107,107c-59.1,0-107-47.9-107-107
		S68.9,21,128,21S235,68.9,235,128z"/>
	
		<linearGradient id="path13592_1_" gradientUnits="userSpaceOnUse" x1="162.8701" y1="29.019" x2="101.9594" y2="216.4827" gradientTransform="matrix(1.0421 0 0 -1.0421 -2.3145 279.5463)">
		<stop  offset="0" style="stop-color:#FFFFFF;stop-opacity:0.949"/>
		<stop  offset="1" style="stop-color:#FFFFFF;stop-opacity:0.7449"/>
	</linearGradient>
	<path id="path13592" inkscape:connector-curvature="0" class="st2" d="M231,128c0,56.9-46.1,103-103,103c-56.9,0-103-46.1-103-103
		S71.1,25,128,25S231,71.1,231,128z"/>
	<path id="path14565" inkscape:connector-curvature="0" class="st3" d="M222,128c0,51.9-42.1,94-94,94c-51.9,0-94-42.1-94-94
		s42.1-94,94-94S222,76.1,222,128z"/>
</g>
<g id="layer5" transform="translate(-18.215243,-20.201841)">
</g>
<g id="layer3" transform="translate(-18.215243,-20.201841)">
	<g id="g15568">
		<path id="path3339" inkscape:connector-curvature="0" class="st1" d="M123.3,191.1c5.7-3.3,14.9-14.6,18.4-22.4l-3.5-1.5
			c-7.1,12.4-18.1,21.5-14.4,6.2l21.7-68.3c-5.7-0.5-34.5,4.1-38.9,5.1l-0.7,3.8c9.8,0.3,11.1,4.4,10.4,7.6l-16.3,52.1
			c0,0-2,5.9-2,10.3C98.1,193.9,111.1,197.7,123.3,191.1z"/>
		<path id="path7182" inkscape:connector-curvature="0" class="st1" d="M151.7,75.8c0,7.7-6.2,13.9-13.9,13.9
			c-7.7,0-13.9-6.2-13.9-13.9c0-7.7,6.2-13.9,13.9-13.9C145.5,61.9,151.7,68.2,151.7,75.8z"/>
	</g>
</g>
<g id="layer7" transform="translate(-18.215243,-20.201841)">
	
		<linearGradient id="path18502_1_" gradientUnits="userSpaceOnUse" x1="129.9208" y1="214.0916" x2="129.9208" y2="127.0602" gradientTransform="matrix(1 0 0 -1 0 268.2934)">
		<stop  offset="0" style="stop-color:#FFFFFF"/>
		<stop  offset="1" style="stop-color:#FFFFFF;stop-opacity:0.5909"/>
	</linearGradient>
	<path id="path18502" inkscape:connector-curvature="0" class="st4" d="M130.1,34C89,34,53.9,59.8,40,96.1
		c18.8,16.7,58.3,24.7,90.1,24.9c0,0,0,0,0,0c32-0.3,71.1-8.9,89.7-25.9C205.7,59.3,170.9,34,130.1,34z"/>
</g>
</svg>
