<?xml version="1.0" encoding="UTF-8"?><svg xmlns="http://www.w3.org/2000/svg" xmlns:xlink="http://www.w3.org/1999/xlink" contentScriptType="text/ecmascript" zoomAndPan="magnify" contentStyleType="text/css" enable-background="new 0 0 1526.667 783" version="1.1" width="500.0" xml:space="preserve" preserveAspectRatio="xMidYMid meet" viewBox="301.80798 117.247 98.56802 474.28375" height="2405.8704" x="0px" y="0px"><g id="DECKS"><path fill="#FFFFFF" id="IDP-Deck13" d="M371.341,569.054v-5.825   l-4.816-0.975v25.363c0,0-12.634,2.056-30.22,0l-0.107-25.363l-4.816,0.975l0.007,6.097c-4.028-2.138-9.71-5.864-13.024-9.179   c-8.743-8.742-13.557-20.365-13.557-32.728v-86.694c0-21.302,5.105-42.521,13.818-58.201l0.868-4.203l3.653-17.704l0.029-0.142   l0.041-0.139c0.134-0.457,1.443-4.525,5.832-6.107l2.142-0.772l1.579,1.64l0.604,0.628l6.351,2.809l16.931-0.578l12.171-2.293   l0.544-0.566l1.578-1.64l2.142,0.772c4.39,1.582,5.699,5.65,5.833,6.107l0.04,0.139l0.031,0.142l3.651,17.704l0.844,4.09   c8.753,15.69,13.886,36.962,13.886,58.314v86.694c0,12.363-4.814,23.986-13.556,32.728c-3.178,3.176-8.686,6.81-12.521,8.907   H371.341z M349.541,120.247c-23.417,0.167-33.083,21.5-33.083,21.5c-6,10.833-5.75,24.333-5.75,24.333l-0.25,38.167   c-0.25,9,0.75,9.917,0.75,9.917c6.75,5.833,17,4.583,17,4.583c8.5-11.75,21.25-10.917,21.25-10.917h0.043   c0,0,12.75-0.833,21.25,10.917c0,0,10.25,1.25,17-4.583c0,0,1-0.917,0.75-9.917l-0.25-38.167c0,0,0.25-13.5-5.75-24.333   c0,0-9.667-21.333-33.083-21.5" stroke-width="0.744" stroke="#939598" stroke-linejoin="round"><path fill="#FFFFFF" id="IDP-Deck13" d="M371.341,569.054v-5.825   l-4.816-0.975v25.363c0,0-12.634,2.056-30.22,0l-0.107-25.363l-4.816,0.975l0.007,6.097c-4.028-2.138-9.71-5.864-13.024-9.179   c-8.743-8.742-13.557-20.365-13.557-32.728v-86.694c0-21.302,5.105-42.521,13.818-58.201l0.868-4.203l3.653-17.704l0.029-0.142   l0.041-0.139c0.134-0.457,1.443-4.525,5.832-6.107l2.142-0.772l1.579,1.64l0.604,0.628l6.351,2.809l16.931-0.578l12.171-2.293   l0.544-0.566l1.578-1.64l2.142,0.772c4.39,1.582,5.699,5.65,5.833,6.107l0.04,0.139l0.031,0.142l3.651,17.704l0.844,4.09   c8.753,15.69,13.886,36.962,13.886,58.314v86.694c0,12.363-4.814,23.986-13.556,32.728c-3.178,3.176-8.686,6.81-12.521,8.907   H371.341z M349.541,120.247c-23.417,0.167-33.083,21.5-33.083,21.5c-6,10.833-5.75,24.333-5.75,24.333l-0.25,38.167   c-0.25,9,0.75,9.917,0.75,9.917c6.75,5.833,17,4.583,17,4.583c8.5-11.75,21.25-10.917,21.25-10.917h0.043   c0,0,12.75-0.833,21.25,10.917c0,0,10.25,1.25,17-4.583c0,0,1-0.917,0.75-9.917l-0.25-38.167c0,0,0.25-13.5-5.75-24.333   c0,0-9.667-21.333-33.083-21.5" stroke-width="0.744" stroke="#939598" stroke-linejoin="round"/></path></g><g id="DECKS_PUBLIC"><path fill="#FFFFFF" d="M394.132,527.418v-86.694   c0-23.837-6.474-46.71-16.531-61.694h1.873l-3.651-17.705c0,0-0.814-2.771-3.653-3.793l-1.828,1.897   c-3.154-0.631-10.941-1.28-13.418-1.28v20.887h-2.628c0-0.002,0.001-0.004,0.001-0.006c0-1.588-1.288-2.875-2.876-2.875   c-1.587,0-2.873,1.287-2.873,2.875c0,0.002,0,0.004,0,0.006h-8.555v-20.504c-2.478,0-4.481,0.506-7.658,0.897l-1.827-1.897   c-2.838,1.022-3.654,3.793-3.654,3.793l-3.653,17.705h1.915c-10.054,14.984-16.527,37.857-16.527,61.694v86.694" stroke-width="0.65" stroke="#939598" stroke-linejoin="round"/><path fill="none" d="M388.021,555.316   c3.838-9.889,6.049-19.998,6.049-27.979v-86.696c0-23.837-6.474-46.709-16.531-61.694h1.872l-3.65-17.703   c0,0-0.814-2.771-3.654-3.793l-1.827,1.896c-3.154-0.629-10.941-1.28-13.419-1.28v20.888h-2.628c0-0.003,0.001-0.004,0.001-0.007   c0-1.588-1.287-2.874-2.875-2.874c-1.587,0-2.874,1.286-2.874,2.874c0,0.003,0,0.004,0,0.007h-8.555v-20.505   c-2.477,0-4.481,0.507-7.658,0.897l-1.827-1.896c-2.838,1.022-3.653,3.793-3.653,3.793l-3.654,17.703h1.915   c-10.055,14.986-16.527,37.857-16.527,61.694v86.696c0,8.18,2.272,18.596,6.223,28.717" stroke-width="0.65" stroke="#939598" stroke-linejoin="round"/><g><g><rect x="332.104" y="393.572" fill="#FFFFFF" width="4.183" height="0.963" stroke="#939598" stroke-width="0.325"/></g></g><g><g><rect x="332.104" y="392.607" fill="#FFFFFF" width="4.183" height="0.965" stroke="#939598" stroke-width="0.325"/></g></g><g><g><rect x="332.104" y="391.644" fill="#FFFFFF" width="4.183" height="0.964" stroke="#939598" stroke-width="0.325"/></g></g><g><g><rect x="336.287" y="393.572" fill="#FFFFFF" width="3.143" height="0.963" stroke="#939598" stroke-width="0.325"/></g></g><g><g><rect x="336.287" y="392.607" fill="#FFFFFF" width="3.143" height="0.965" stroke="#939598" stroke-width="0.325"/></g></g><g><g><rect x="336.287" y="391.644" fill="#FFFFFF" width="3.143" height="0.964" stroke="#939598" stroke-width="0.325"/></g></g><g><g><rect x="332.104" y="390.68" fill="#FFFFFF" width="4.183" height="0.964" stroke="#939598" stroke-width="0.325"/></g></g><g><g><rect x="336.287" y="390.68" fill="#FFFFFF" width="3.143" height="0.964" stroke="#939598" stroke-width="0.325"/></g></g><g><g><rect x="332.104" y="389.716" fill="#FFFFFF" width="4.183" height="0.964" stroke="#939598" stroke-width="0.325"/></g></g><g><g><rect x="336.287" y="389.716" fill="#FFFFFF" width="3.143" height="0.964" stroke="#939598" stroke-width="0.325"/></g></g><g><g><rect x="332.104" y="388.752" fill="#FFFFFF" width="4.183" height="0.964" stroke="#939598" stroke-width="0.325"/></g></g><g><g><rect x="336.287" y="388.752" fill="#FFFFFF" width="3.143" height="0.964" stroke="#939598" stroke-width="0.325"/></g></g><g><g><rect x="328.962" y="393.572" fill="#FFFFFF" width="3.142" height="0.963" stroke="#939598" stroke-width="0.325"/></g></g><g><g><rect x="328.962" y="392.607" fill="#FFFFFF" width="3.142" height="0.965" stroke="#939598" stroke-width="0.325"/></g></g><g><g><rect x="328.962" y="391.644" fill="#FFFFFF" width="3.142" height="0.964" stroke="#939598" stroke-width="0.325"/></g></g><g><g><rect x="328.962" y="390.68" fill="#FFFFFF" width="3.142" height="0.964" stroke="#939598" stroke-width="0.325"/></g></g><g><g><rect x="328.962" y="389.716" fill="#FFFFFF" width="3.142" height="0.964" stroke="#939598" stroke-width="0.325"/></g></g><g><g><rect x="328.962" y="388.752" fill="#FFFFFF" width="3.142" height="0.964" stroke="#939598" stroke-width="0.325"/></g></g><g><rect x="328.962" y="394.535" fill="#FFFFFF" width="10.468" height="2.843" stroke="#939598" stroke-width="0.325"/></g><rect x="326.925" y="362.238" fill="#FFFFFF" width="4.988" height="14.5" stroke="#939598" stroke-width="0.325"/><path fill="none" d="M340.035,377.505h2.753c1.231,0,2.229-1.375,2.229-3.072l0,0   c0-1.694-0.999-3.071-2.229-3.071h-2.753V377.505z" stroke-width="0.325" stroke="#939598"/><path fill="none" d="M340.035,369.566h2.753c1.231,0,2.229-1.375,2.229-3.071l0,0   c0-1.697-0.999-3.072-2.229-3.072h-2.753V369.566z" stroke-width="0.325" stroke="#939598"/><path fill="none" d="M340.035,369.566h2.753c1.231,0,2.229-1.375,2.229-3.071l0,0   c0-1.697-0.999-3.072-2.229-3.072h-2.753V369.566z" stroke-width="0.325" stroke="#939598"/><g><g><rect x="368.938" y="393.536" fill="#FFFFFF" width="2.81" height="0.964" stroke="#939598" stroke-width="0.325"/></g></g><g><g><rect x="368.938" y="392.572" fill="#FFFFFF" width="2.81" height="0.964" stroke="#939598" stroke-width="0.325"/></g></g><g><g><rect x="368.938" y="391.607" fill="#FFFFFF" width="2.81" height="0.965" stroke="#939598" stroke-width="0.325"/></g></g><g><g><rect x="368.938" y="390.643" fill="#FFFFFF" width="2.81" height="0.965" stroke="#939598" stroke-width="0.325"/></g></g><g><g><rect x="371.748" y="393.536" fill="#FFFFFF" width="2.81" height="0.964" stroke="#939598" stroke-width="0.325"/></g></g><g><g><rect x="371.748" y="392.572" fill="#FFFFFF" width="2.81" height="0.964" stroke="#939598" stroke-width="0.325"/></g></g><g><g><rect x="371.748" y="391.607" fill="#FFFFFF" width="2.81" height="0.965" stroke="#939598" stroke-width="0.325"/></g></g><g><g><rect x="371.748" y="390.643" fill="#FFFFFF" width="2.81" height="0.965" stroke="#939598" stroke-width="0.325"/></g></g><g><g><rect x="368.938" y="389.679" fill="#FFFFFF" width="2.81" height="0.964" stroke="#939598" stroke-width="0.325"/></g></g><g><g><rect x="368.938" y="388.715" fill="#FFFFFF" width="2.81" height="0.964" stroke="#939598" stroke-width="0.325"/></g></g><g><g><rect x="371.748" y="389.679" fill="#FFFFFF" width="2.81" height="0.964" stroke="#939598" stroke-width="0.325"/></g></g><g><g><rect x="371.748" y="388.715" fill="#FFFFFF" width="2.81" height="0.964" stroke="#939598" stroke-width="0.325"/></g></g><g><rect x="368.938" y="394.5" fill="#FFFFFF" width="5.62" height="2.865" stroke="#939598" stroke-width="0.325"/></g><path fill="none" d="M326.854,361.324l-3.653,17.705h1.915   c-6.037,8.997-10.767,20.85-13.596,34.034c2.738,9.194,8.555,17.064,16.275,22.385c6.298-2.975,14.538-4.782,23.565-4.782   c9.028,0,17.269,1.808,23.564,4.782c7.721-5.321,13.539-13.188,16.276-22.384c-2.831-13.186-7.56-25.038-13.6-34.035h1.873   l-3.651-17.705c0,0-0.814-2.771-3.653-3.793l-1.828,1.897c-3.154-0.631-10.941-1.28-13.418-1.28v20.887h-2.628   c0-0.002,0.001-0.004,0.001-0.006c0-1.588-1.288-2.875-2.876-2.875c-1.587,0-2.873,1.287-2.873,2.875c0,0.002,0,0.004,0,0.006   h-8.555v-20.504c-2.478,0-4.481,0.506-7.658,0.897l-1.827-1.897C327.669,358.554,326.854,361.324,326.854,361.324z" stroke-width="0.325" stroke="#939598" stroke-linejoin="round"/><g><path fill="#FFFFFF" d="M331.389,433.977v-9.072h-8.89v6.205    c1.642,1.586,3.41,3.039,5.295,4.339C328.926,434.914,330.139,434.433,331.389,433.977z" stroke-width="0.325" stroke="#939598"/></g><g><path fill="#FFFFFF" d="M331.389,424.904v9.072c3.25-1.184,6.867-2.094,10.758-2.651    v-6.421H331.389z" stroke-width="0.325" stroke="#939598"/></g><g><path fill="#FFFFFF" d="M380.818,435.125c2.704-2.326,5.107-4.994,7.138-7.939L385.444,425    c-2.009,2.877-4.373,5.488-7.031,7.768L380.818,435.125z" stroke-width="0.325" stroke="#939598"/></g><g><line fill="none" x1="381.571" x2="379.083" y1="434.453" y2="432.24" stroke="#939598" stroke-width="0.325"/></g><g><line fill="none" x1="382.247" x2="379.762" y1="433.746" y2="431.534" stroke="#939598" stroke-width="0.325"/></g><g><line fill="none" x1="382.933" x2="380.448" y1="433.072" y2="430.862" stroke="#939598" stroke-width="0.325"/></g><g><line fill="none" x1="383.615" x2="381.128" y1="432.392" y2="430.179" stroke="#939598" stroke-width="0.325"/></g><g><line fill="none" x1="385.527" x2="383.04" y1="430.254" y2="428.041" stroke="#939598" stroke-width="0.325"/></g><g><line fill="none" x1="386.205" x2="383.718" y1="429.547" y2="427.334" stroke="#939598" stroke-width="0.325"/></g><g><line fill="none" x1="386.792" x2="384.307" y1="428.778" y2="426.565" stroke="#939598" stroke-width="0.325"/></g><g><line fill="none" x1="387.377" x2="384.89" y1="427.998" y2="425.786" stroke="#939598" stroke-width="0.325"/></g><g><path fill="#FFFFFF" d="M321.845,435.125c-2.705-2.326-5.108-4.994-7.139-7.939    l2.513-2.186c2.008,2.877,4.374,5.488,7.03,7.768L321.845,435.125z" stroke-width="0.325" stroke="#939598"/></g><g><line fill="none" x1="321.092" x2="323.578" y1="434.453" y2="432.24" stroke="#939598" stroke-width="0.325"/></g><g><line fill="none" x1="320.414" x2="322.9" y1="433.746" y2="431.534" stroke="#939598" stroke-width="0.325"/></g><g><line fill="none" x1="319.728" x2="322.215" y1="433.072" y2="430.862" stroke="#939598" stroke-width="0.325"/></g><g><line fill="none" x1="319.046" x2="321.533" y1="432.392" y2="430.179" stroke="#939598" stroke-width="0.325"/></g><g><line fill="none" x1="317.135" x2="319.622" y1="430.254" y2="428.041" stroke="#939598" stroke-width="0.325"/></g><g><line fill="none" x1="316.456" x2="318.943" y1="429.547" y2="427.334" stroke="#939598" stroke-width="0.325"/></g><g><line fill="none" x1="315.869" x2="318.355" y1="428.778" y2="426.565" stroke="#939598" stroke-width="0.325"/></g><g><line fill="none" x1="315.284" x2="317.772" y1="427.998" y2="425.786" stroke="#939598" stroke-width="0.325"/></g><path fill="none" d="M339.992,358.531c1.826-0.158,12.997-0.609,16.931-0.383" stroke-width="0.325" stroke="#939598"/><g><g><path fill="#FFFFFF" d="M309.78,526.617h-1.191v0.801c0,0.55,0.021,1.095,0.042,1.641     h1.115L309.78,526.617z" stroke-width="0.325" stroke="#939598"/></g></g><g><g><polygon fill="#FFFFFF" stroke-width="0.325" points="309.816,524.177 308.589,524.177 308.589,526.617      309.78,526.617    " stroke="#939598"/></g></g><g><g><polygon fill="#FFFFFF" stroke-width="0.325" points="309.851,521.734 308.589,521.734 308.589,524.177      309.816,524.177    " stroke="#939598"/></g></g><g><g><polygon fill="#FFFFFF" stroke-width="0.325" points="309.887,519.293 308.589,519.293 308.589,521.734      309.851,521.734    " stroke="#939598"/></g></g><g><g><polygon fill="#FFFFFF" stroke-width="0.325" points="309.923,516.854 308.589,516.854 308.589,519.293      309.887,519.293    " stroke="#939598"/></g></g><g><g><polygon fill="#FFFFFF" stroke-width="0.325" points="309.958,514.412 308.589,514.412 308.589,516.854      309.923,516.854    " stroke="#939598"/></g></g><g><g><polygon fill="#FFFFFF" stroke-width="0.325" points="309.994,511.972 308.589,511.972 308.589,514.412      309.958,514.412    " stroke="#939598"/></g></g><g><g><polygon fill="#FFFFFF" stroke-width="0.325" points="310.029,509.529 308.589,509.529 308.589,511.972      309.994,511.972    " stroke="#939598"/></g></g><g><g><polygon fill="#FFFFFF" stroke-width="0.325" points="310.064,507.088 308.589,507.088 308.589,509.529      310.029,509.529    " stroke="#939598"/></g></g><g><g><polygon fill="#FFFFFF" stroke-width="0.325" points="310.1,504.648 308.589,504.648 308.589,507.088      310.064,507.088    " stroke="#939598"/></g></g><g><g><polygon fill="#FFFFFF" stroke-width="0.325" points="310.135,502.207 308.589,502.207 308.589,504.648      310.1,504.648    " stroke="#939598"/></g></g><g><g><polygon fill="#FFFFFF" stroke-width="0.325" points="310.171,499.766 308.589,499.766 308.589,502.207      310.135,502.207    " stroke="#939598"/></g></g><g><g><polygon fill="#FFFFFF" stroke-width="0.325" points="310.207,497.324 308.589,497.324 308.589,499.766      310.171,499.766    " stroke="#939598"/></g></g><g><g><polygon fill="#FFFFFF" stroke-width="0.325" points="310.242,494.885 308.589,494.885 308.589,497.324      310.207,497.324    " stroke="#939598"/></g></g><g><g><polygon fill="#FFFFFF" stroke-width="0.325" points="310.277,492.441 308.589,492.441 308.589,494.885      310.242,494.885    " stroke="#939598"/></g></g><g><g><polygon fill="#FFFFFF" stroke-width="0.325" points="310.312,490.002 308.589,490.002 308.589,492.441      310.277,492.441    " stroke="#939598"/></g></g><g><g><polygon fill="#FFFFFF" stroke-width="0.325" points="310.348,487.561 308.589,487.561 308.589,490.002      310.312,490.002    " stroke="#939598"/></g></g><g><g><polygon fill="#FFFFFF" stroke-width="0.325" points="310.383,485.119 308.589,485.119 308.589,487.561      310.348,487.561    " stroke="#939598"/></g></g><g><g><polygon fill="#FFFFFF" stroke-width="0.325" points="310.419,482.678 308.589,482.678 308.589,485.119      310.383,485.119    " stroke="#939598"/></g></g><g><g><polygon fill="#FFFFFF" stroke-width="0.325" points="310.455,480.237 308.589,480.237 308.589,482.678      310.419,482.678    " stroke="#939598"/></g></g><g><g><polygon fill="#FFFFFF" stroke-width="0.325" points="310.489,477.797 308.589,477.797 308.589,480.237      310.455,480.237    " stroke="#939598"/></g></g><g><g><polygon fill="#FFFFFF" stroke-width="0.325" points="310.525,475.355 308.589,475.355 308.589,477.797      310.489,477.797    " stroke="#939598"/></g></g><g><g><polygon fill="#FFFFFF" stroke-width="0.325" points="310.56,472.914 308.589,472.914 308.589,475.355      310.525,475.355    " stroke="#939598"/></g></g><g><g><polygon fill="#FFFFFF" stroke-width="0.325" points="310.596,470.473 308.589,470.473 308.589,472.914      310.56,472.914    " stroke="#939598"/></g></g><g><g><polygon fill="#FFFFFF" stroke-width="0.325" points="310.632,468.032 308.589,468.032 308.589,470.473      310.596,470.473    " stroke="#939598"/></g></g><g><g><polygon fill="#FFFFFF" stroke-width="0.325" points="310.667,465.592 308.589,465.592 308.589,468.032      310.632,468.032    " stroke="#939598"/></g></g><g><g><polygon fill="#FFFFFF" stroke-width="0.325" points="310.703,463.15 308.589,463.15 308.589,465.592      310.667,465.592    " stroke="#939598"/></g></g><g><g><polygon fill="#FFFFFF" stroke-width="0.325" points="310.737,460.709 308.589,460.709 308.589,463.15      310.703,463.15    " stroke="#939598"/></g></g><g><g><polygon fill="#FFFFFF" stroke-width="0.325" points="310.773,458.27 308.589,458.27 308.589,460.709      310.737,460.709    " stroke="#939598"/></g></g><g><g><polygon fill="#FFFFFF" stroke-width="0.325" points="310.809,455.826 308.589,455.826 308.589,458.27      310.773,458.27    " stroke="#939598"/></g></g><g><g><polygon fill="#FFFFFF" stroke-width="0.325" points="310.844,453.387 308.589,453.387 308.589,455.826      310.809,455.826    " stroke="#939598"/></g></g><g><g><polygon fill="#FFFFFF" stroke-width="0.325" points="310.88,450.945 308.589,450.945 308.589,453.387      310.844,453.387    " stroke="#939598"/></g></g><g><g><polygon fill="#FFFFFF" stroke-width="0.325" points="310.915,448.504 308.589,448.504 308.589,450.945      310.88,450.945    " stroke="#939598"/></g></g><g><g><polygon fill="#FFFFFF" stroke-width="0.325" points="310.951,446.062 308.589,446.062 308.589,448.504      310.915,448.504    " stroke="#939598"/></g></g><g><g><polygon fill="#FFFFFF" stroke-width="0.325" points="310.986,443.622 308.589,443.622 308.589,446.062      310.951,446.062    " stroke="#939598"/></g></g><g><g><polygon fill="#FFFFFF" stroke-width="0.325" points="311.021,441.182 308.589,441.182 308.589,443.622      310.986,443.622    " stroke="#939598"/></g></g><g><g><path fill="#FFFFFF" d="M311.028,440.724c0-0.663,0.012-1.323,0.024-1.984h-2.436     c-0.011,0.661-0.028,1.321-0.028,1.984v0.458h2.432L311.028,440.724z" stroke-width="0.325" stroke="#939598"/></g></g><g><g><path fill="#FFFFFF" d="M311.113,436.299h-2.441c-0.027,0.812-0.044,1.626-0.056,2.441     h2.436C311.064,437.926,311.085,437.111,311.113,436.299z" stroke-width="0.325" stroke="#939598"/></g></g><g><g><path fill="#FFFFFF" d="M311.22,433.857h-2.448c-0.044,0.811-0.072,1.626-0.101,2.441     h2.441C311.141,435.484,311.177,434.671,311.22,433.857z" stroke-width="0.325" stroke="#939598"/></g></g><g><g><path fill="#FFFFFF" d="M311.372,431.416h-2.441c-0.057,0.814-0.117,1.625-0.158,2.441     h2.448C311.264,433.043,311.313,432.23,311.372,431.416z" stroke-width="0.325" stroke="#939598"/></g></g><g><g><path fill="#FFFFFF" d="M311.566,428.977h-2.441c-0.072,0.81-0.136,1.625-0.194,2.439     h2.441C311.43,430.602,311.493,429.787,311.566,428.977z" stroke-width="0.325" stroke="#939598"/></g></g><g><g><path fill="#FFFFFF" d="M311.817,426.535h-2.459c-0.088,0.81-0.159,1.626-0.233,2.441     h2.441C311.642,428.16,311.727,427.347,311.817,426.535z" stroke-width="0.325" stroke="#939598"/></g></g><g><g><path fill="#FFFFFF" d="M312.111,424.094h-2.46c-0.102,0.812-0.206,1.623-0.294,2.441     h2.459C311.907,425.719,312.007,424.906,312.111,424.094z" stroke-width="0.325" stroke="#939598"/></g></g><g><g><path fill="#FFFFFF" d="M312.45,421.653h-2.464c-0.118,0.81-0.23,1.622-0.335,2.44h2.46     C312.216,423.277,312.33,422.465,312.45,421.653z" stroke-width="0.325" stroke="#939598"/></g></g><g><g><path fill="#FFFFFF" d="M312.836,419.211h-2.476c-0.132,0.811-0.253,1.625-0.374,2.442     h2.464C312.571,420.836,312.699,420.023,312.836,419.211z" stroke-width="0.325" stroke="#939598"/></g></g><g><g><path fill="#FFFFFF" d="M313.127,417.492c-0.102-0.237-0.189-0.482-0.286-0.721h-2.056     c-0.148,0.809-0.289,1.623-0.425,2.439h2.476C312.931,418.639,313.024,418.062,313.127,417.492z" stroke-width="0.325" stroke="#939598"/></g></g><g><g><path fill="#FFFFFF" d="M392.946,529.059h1.144c0.021-0.546,0.042-1.091,0.042-1.641     v-0.801h-1.22L392.946,529.059z" stroke-width="0.325" stroke="#939598"/></g></g><g><g><polygon fill="#FFFFFF" stroke-width="0.325" points="392.912,526.617 394.132,526.617 394.132,524.177      392.877,524.177    " stroke="#939598"/></g></g><g><g><polygon fill="#FFFFFF" stroke-width="0.325" points="392.877,524.177 394.132,524.177 394.132,521.734      392.843,521.734    " stroke="#939598"/></g></g><g><g><polygon fill="#FFFFFF" stroke-width="0.325" points="392.843,521.734 394.132,521.734 394.132,519.293      392.809,519.293    " stroke="#939598"/></g></g><g><g><polygon fill="#FFFFFF" stroke-width="0.325" points="392.809,519.293 394.132,519.293 394.132,516.854      392.772,516.854    " stroke="#939598"/></g></g><g><g><polygon fill="#FFFFFF" stroke-width="0.325" points="392.772,516.854 394.132,516.854 394.132,514.412      392.738,514.412    " stroke="#939598"/></g></g><g><g><polygon fill="#FFFFFF" stroke-width="0.325" points="392.738,514.412 394.132,514.412 394.132,511.972      392.704,511.972    " stroke="#939598"/></g></g><g><g><polygon fill="#FFFFFF" stroke-width="0.325" points="392.704,511.972 394.132,511.972 394.132,509.529      392.67,509.529    " stroke="#939598"/></g></g><g><g><polygon fill="#FFFFFF" stroke-width="0.325" points="392.67,509.529 394.132,509.529 394.132,507.088      392.635,507.088    " stroke="#939598"/></g></g><g><g><polygon fill="#FFFFFF" stroke-width="0.325" points="392.635,507.088 394.132,507.088 394.132,504.648      392.601,504.648    " stroke="#939598"/></g></g><g><g><polygon fill="#FFFFFF" stroke-width="0.325" points="392.601,504.648 394.132,504.648 394.132,502.207      392.565,502.207    " stroke="#939598"/></g></g><g><g><polygon fill="#FFFFFF" stroke-width="0.325" points="392.565,502.207 394.132,502.207 394.132,499.766      392.53,499.766    " stroke="#939598"/></g></g><g><g><polygon fill="#FFFFFF" stroke-width="0.325" points="392.53,499.766 394.132,499.766 394.132,497.324      392.496,497.324    " stroke="#939598"/></g></g><g><g><polygon fill="#FFFFFF" stroke-width="0.325" points="392.496,497.324 394.132,497.324 394.132,494.885      392.461,494.885    " stroke="#939598"/></g></g><g><g><polygon fill="#FFFFFF" stroke-width="0.325" points="392.461,494.885 394.132,494.885 394.132,492.441      392.425,492.441    " stroke="#939598"/></g></g><g><g><polygon fill="#FFFFFF" stroke-width="0.325" points="392.425,492.441 394.132,492.441 394.132,490.002      392.391,490.002    " stroke="#939598"/></g></g><g><g><polygon fill="#FFFFFF" stroke-width="0.325" points="392.391,490.002 394.132,490.002 394.132,487.561      392.357,487.561    " stroke="#939598"/></g></g><g><g><polygon fill="#FFFFFF" stroke-width="0.325" points="392.357,487.561 394.132,487.561 394.132,485.119      392.323,485.119    " stroke="#939598"/></g></g><g><g><polygon fill="#FFFFFF" stroke-width="0.325" points="392.323,485.119 394.132,485.119 394.132,482.678      392.288,482.678    " stroke="#939598"/></g></g><g><g><polygon fill="#FFFFFF" stroke-width="0.325" points="392.288,482.678 394.132,482.678 394.132,480.237      392.252,480.237    " stroke="#939598"/></g></g><g><g><polygon fill="#FFFFFF" stroke-width="0.325" points="392.252,480.237 394.132,480.237 394.132,477.797      392.218,477.797    " stroke="#939598"/></g></g><g><g><polygon fill="#FFFFFF" stroke-width="0.325" points="392.218,477.797 394.132,477.797 394.132,475.355      392.183,475.355    " stroke="#939598"/></g></g><g><g><polygon fill="#FFFFFF" stroke-width="0.325" points="392.183,475.355 394.132,475.355 394.132,472.914      392.149,472.914    " stroke="#939598"/></g></g><g><g><polygon fill="#FFFFFF" stroke-width="0.325" points="392.149,472.914 394.132,472.914 394.132,470.473      392.115,470.473    " stroke="#939598"/></g></g><g><g><polygon fill="#FFFFFF" stroke-width="0.325" points="392.115,470.473 394.132,470.473 394.132,468.032      392.08,468.032    " stroke="#939598"/></g></g><g><g><polygon fill="#FFFFFF" stroke-width="0.325" points="392.08,468.032 394.132,468.032 394.132,465.592      392.044,465.592    " stroke="#939598"/></g></g><g><g><polygon fill="#FFFFFF" stroke-width="0.325" points="392.044,465.592 394.132,465.592 394.132,463.15      392.01,463.15    " stroke="#939598"/></g></g><g><g><polygon fill="#FFFFFF" stroke-width="0.325" points="392.01,463.15 394.132,463.15 394.132,460.709      391.976,460.709    " stroke="#939598"/></g></g><g><g><polygon fill="#FFFFFF" stroke-width="0.325" points="391.976,460.709 394.132,460.709 394.132,458.27      391.942,458.27    " stroke="#939598"/></g></g><g><g><polygon fill="#FFFFFF" stroke-width="0.325" points="391.942,458.27 394.132,458.27 394.132,455.826      391.906,455.826    " stroke="#939598"/></g></g><g><g><polygon fill="#FFFFFF" stroke-width="0.325" points="391.906,455.826 394.132,455.826 394.132,453.387      391.871,453.387    " stroke="#939598"/></g></g><g><g><polygon fill="#FFFFFF" stroke-width="0.325" points="391.871,453.387 394.132,453.387 394.132,450.945      391.837,450.945    " stroke="#939598"/></g></g><g><g><polygon fill="#FFFFFF" stroke-width="0.325" points="391.837,450.945 394.132,450.945 394.132,448.504      391.802,448.504    " stroke="#939598"/></g></g><g><g><polygon fill="#FFFFFF" stroke-width="0.325" points="391.802,448.504 394.132,448.504 394.132,446.062      391.768,446.062    " stroke="#939598"/></g></g><g><g><polygon fill="#FFFFFF" stroke-width="0.325" points="391.768,446.062 394.132,446.062 394.132,443.622      391.732,443.622    " stroke="#939598"/></g></g><g><g><polygon fill="#FFFFFF" stroke-width="0.325" points="391.732,443.622 394.132,443.622 394.132,441.182      391.698,441.182    " stroke="#939598"/></g></g><g><g><path fill="#FFFFFF" d="M391.692,440.724l0.006,0.458h2.434v-0.458     c0-0.663-0.017-1.323-0.027-1.984h-2.435C391.679,439.4,391.692,440.061,391.692,440.724z" stroke-width="0.325" stroke="#939598"/></g></g><g><g><path fill="#FFFFFF" d="M391.669,438.739h2.435c-0.013-0.815-0.03-1.628-0.057-2.441     h-2.441C391.635,437.111,391.656,437.926,391.669,438.739z" stroke-width="0.325" stroke="#939598"/></g></g><g><g><path fill="#FFFFFF" d="M391.606,436.299h2.441c-0.028-0.815-0.057-1.63-0.099-2.441     h-2.449C391.543,434.671,391.578,435.484,391.606,436.299z" stroke-width="0.325" stroke="#939598"/></g></g><g><g><path fill="#FFFFFF" d="M391.499,433.857h2.449c-0.043-0.816-0.101-1.628-0.159-2.441     h-2.439C391.406,432.23,391.455,433.043,391.499,433.857z" stroke-width="0.325" stroke="#939598"/></g></g><g><g><path fill="#FFFFFF" d="M391.349,431.416h2.439c-0.058-0.814-0.122-1.629-0.195-2.439     h-2.441C391.227,429.787,391.29,430.602,391.349,431.416z" stroke-width="0.325" stroke="#939598"/></g></g><g><g><path fill="#FFFFFF" d="M391.153,428.977h2.441c-0.073-0.816-0.143-1.631-0.232-2.441     h-2.459C390.992,427.347,391.078,428.16,391.153,428.977z" stroke-width="0.325" stroke="#939598"/></g></g><g><g><path fill="#FFFFFF" d="M390.903,426.535h2.459c-0.088-0.818-0.191-1.629-0.294-2.441     h-2.459C390.714,424.906,390.814,425.719,390.903,426.535z" stroke-width="0.325" stroke="#939598"/></g></g><g><g><path fill="#FFFFFF" d="M390.609,424.094h2.459c-0.104-0.818-0.217-1.631-0.335-2.44     h-2.464C390.388,422.465,390.503,423.277,390.609,424.094z" stroke-width="0.325" stroke="#939598"/></g></g><g><g><path fill="#FFFFFF" d="M390.268,421.653h2.464c-0.119-0.817-0.24-1.632-0.374-2.442     h-2.474C390.021,420.023,390.148,420.836,390.268,421.653z" stroke-width="0.325" stroke="#939598"/></g></g><g><g><path fill="#FFFFFF" d="M389.594,417.493c0.103,0.569,0.194,1.146,0.291,1.718h2.474     c-0.136-0.816-0.275-1.631-0.425-2.439h-2.057C389.78,417.012,389.695,417.256,389.594,417.493z" stroke-width="0.325" stroke="#939598"/></g></g><rect x="323.259" y="446.476" fill="#FFFFFF" width="56.204" height="30.069" stroke="#939598" stroke-width="0.325"/><path fill="#FFFFFF" d="M355.632,461.511c0-2.358-1.913-4.272-4.272-4.272   c-2.36,0-4.273,1.914-4.273,4.272c0,2.36,1.913,4.272,4.273,4.272C353.719,465.783,355.632,463.871,355.632,461.511z" stroke-width="0.325" stroke="#939598"/><path fill="#FFFFFF" d="M334.571,457.246l-11.312-2.59v13.716l11.395-2.589   c2.359,0,4.271-1.912,4.271-4.272c0-2.358-1.912-4.272-4.271-4.272C334.625,457.238,334.599,457.246,334.571,457.246z" stroke-width="0.325" stroke="#939598"/><line fill="#FFFFFF" x1="334.654" x2="334.654" y1="465.783" y2="457.238" stroke="#939598" stroke-width="0.325"/><path fill="#FFFFFF" d="M368.102,457.246l11.313-2.59v13.716l-11.395-2.589   c-2.359,0-4.271-1.912-4.271-4.272c0-2.358,1.911-4.272,4.271-4.272C368.049,457.238,368.073,457.246,368.102,457.246z" stroke-width="0.325" stroke="#939598"/><line fill="#FFFFFF" x1="368.02" x2="368.02" y1="465.783" y2="457.238" stroke="#939598" stroke-width="0.325"/><line fill="#FFFFFF" x1="351.36" x2="351.36" y1="476.545" y2="446.547" stroke="#939598" stroke-width="0.325"/><polygon fill="none" stroke-width="0.325" points="376.367,565.823 378.205,564.488    378.205,556.681 376.367,558.014  " stroke="#939598" stroke-linejoin="round"/><polygon fill="none" stroke-width="0.325" points="374.53,567.156 376.367,565.823    376.367,558.014 374.53,559.349  " stroke="#939598" stroke-linejoin="round"/><polygon fill="none" stroke-width="0.325" points="372.694,568.491 374.53,567.156    374.53,559.349 372.694,560.682  " stroke="#939598" stroke-linejoin="round"/><polygon fill="none" stroke-width="0.325" points="326.353,565.823 324.515,564.488    324.515,556.681 326.353,558.014  " stroke="#939598" stroke-linejoin="round"/><polygon fill="none" stroke-width="0.325" points="328.19,567.156 326.353,565.823    326.353,558.014 328.19,559.349  " stroke="#939598" stroke-linejoin="round"/><polygon fill="none" stroke-width="0.325" points="330.027,568.491 328.19,567.156    328.19,559.349 330.027,560.682  " stroke="#939598" stroke-linejoin="round"/><path fill="none" d="M336.304,587.617c5.225,0.628,10.575,0.971,15.056,0.971   c4.481,0,9.832-0.343,15.058-0.971v-44.199h-30.113V587.617z" stroke-width="0.325" stroke="#939598"/><path fill="none" d="M339.65,588.047c4.168,0.349,8.398,0.541,11.71,0.541   c3.313,0,7.543-0.192,11.711-0.541v-41.562H339.65V588.047z" stroke-width="0.325" stroke="#939598"/><path fill="#FFFFFF" id="IDP-Deck13_1_" d="M349.541,120.247   c-23.417,0.167-33.083,21.5-33.083,21.5c-6,10.833-5.75,24.333-5.75,24.333l-0.25,38.167c-0.25,9,0.75,9.917,0.75,9.917   c6.75,5.833,17,4.583,17,4.583c8.5-11.75,21.25-10.917,21.25-10.917h0.043c0,0,12.75-0.833,21.25,10.917c0,0,10.25,1.25,17-4.583   c0,0,1-0.917,0.75-9.917l-0.25-38.167c0,0,0.25-13.5-5.75-24.333c0,0-9.667-21.333-33.083-21.5" stroke-width="0.6731" stroke="#A7A9AC"/><path fill="#FFFFFF" d="M386.88,205.308l-0.24-37.047   c0,0,0.24-11.335-5.511-20.432c0,0-9.25-17.879-31.651-18.051c-22.401,0.172-31.651,18.051-31.651,18.051   c-5.751,9.096-5.511,20.432-5.511,20.432l-0.24,37.047c-0.24,7.557,0.719,8.327,0.719,8.327c6.47,4.898,15.294,2.848,15.294,2.848   c8.147-9.866,21.368-9.166,21.368-9.166h0.041c0,0,13.221-0.7,21.368,9.166c0,0,8.824,2.05,15.294-2.848   C386.162,213.635,387.12,212.865,386.88,205.308z" stroke-width="0.3562" stroke="#939598" stroke-linejoin="round"/><path fill="#FFFFFF" d="M348.417,161.622c0,0,1.772-0.001,2.187-0.001   c2.692,0.001,13.088,1.79,17.853,28.542l-1.375,0.5c0,0,3.125,12.625-2.25,20.375l-0.75,0.75c0,0-5.103-3.937-14.625-3.958   c-9.509-0.021-14.415,3.958-14.415,3.958l-0.75-0.75c-5.375-7.75-2.25-20.375-2.25-20.375l-1.375-0.5   C335.374,163.743,345.572,161.67,348.417,161.622z" stroke-width="0.7125" stroke="#939598"/><path fill="#FDFEFF" d="M357.212,192.374h-2.289c-1.024,0-1.853-1.026-1.853-2.294l0,0c0-1.267,0.829-2.294,1.853-2.294h2.289   V192.374z"/><path fill="#FDFEFF" d="M340.924,192.374h2.288c1.022,0,1.853-1.026,1.853-2.294l0,0   c0-1.267-0.831-2.294-1.853-2.294h-2.288V192.374z" stroke-width="0.3562" stroke="#939598"/><path fill="#FDFEFF" d="M349.068,187.357   c-1.032,0-1.87-0.75-1.972-1.707c-1.314,0.253-2.443,0.744-3.223,1.394h-2.945l0.001,6.141h2.133v-0.81   c0,0,0.809-0.123,1.083-0.323c1.315,0.536,3.085,0.868,5.04,0.868c1.883,0,3.588-0.31,4.886-0.812   c0.255,0.164,1.002,0.267,1.002,0.267v0.81h2.134v-6.141h-2.949c-0.779-0.65-1.908-1.141-3.221-1.394   C350.938,186.607,350.099,187.357,349.068,187.357z" stroke-width="0.7125" stroke="#939598" stroke-linejoin="round"/><path fill="none" d="M357.212,192.374h-2.289c-1.024,0-1.853-1.026-1.853-2.294l0,0   c0-1.267,0.829-2.294,1.853-2.294h2.289V192.374z" stroke-width="0.3562" stroke="#939598"/><path fill="none" d="M340.924,192.374h2.288c1.022,0,1.853-1.026,1.853-2.294l0,0   c0-1.267-0.831-2.294-1.853-2.294h-2.288V192.374z" stroke-width="0.3562" stroke="#939598"/><polygon fill="#FFFFFF" stroke-width="0.4345" points="326.995,217.418 326.995,214.555 319.987,214.555    319.987,217.418 326.995,217.418  " stroke="#939598"/><line fill="#FFFFFF" x1="326.113" x2="326.113" y1="217.418" y2="214.555" stroke="#939598" stroke-width="0.4345"/><line fill="#FFFFFF" x1="325.231" x2="325.231" y1="217.418" y2="214.555" stroke="#939598" stroke-width="0.4345"/><line fill="#FFFFFF" x1="324.35" x2="324.35" y1="217.418" y2="214.555" stroke="#939598" stroke-width="0.4345"/><line fill="#FFFFFF" x1="323.469" x2="323.469" y1="217.418" y2="214.555" stroke="#939598" stroke-width="0.4345"/><line fill="#FFFFFF" x1="322.586" x2="322.586" y1="217.418" y2="214.555" stroke="#939598" stroke-width="0.4345"/><line fill="#FFFFFF" x1="321.705" x2="321.705" y1="217.418" y2="214.555" stroke="#939598" stroke-width="0.4345"/><line fill="#FFFFFF" x1="320.868" x2="320.868" y1="217.418" y2="214.555" stroke="#939598" stroke-width="0.4345"/><polygon fill="#FFFFFF" stroke-width="0.4345" points="379.064,217.418 379.064,214.555 372.056,214.555    372.056,217.418 379.064,217.418  " stroke="#939598"/><line fill="#FFFFFF" x1="378.182" x2="378.182" y1="217.418" y2="214.555" stroke="#939598" stroke-width="0.4345"/><line fill="#FFFFFF" x1="377.3" x2="377.3" y1="217.418" y2="214.555" stroke="#939598" stroke-width="0.4345"/><line fill="#FFFFFF" x1="376.419" x2="376.419" y1="217.418" y2="214.555" stroke="#939598" stroke-width="0.4345"/><line fill="#FFFFFF" x1="375.538" x2="375.538" y1="217.418" y2="214.555" stroke="#939598" stroke-width="0.4345"/><line fill="#FFFFFF" x1="374.655" x2="374.655" y1="217.418" y2="214.555" stroke="#939598" stroke-width="0.4345"/><line fill="#FFFFFF" x1="373.774" x2="373.774" y1="217.418" y2="214.555" stroke="#939598" stroke-width="0.4345"/><line fill="#FFFFFF" x1="372.938" x2="372.938" y1="217.418" y2="214.555" stroke="#939598" stroke-width="0.4345"/><path fill="none" d="M349.069,160.357h3.028   c0,0,2.35,0.065,3.857,1.264c0,0,2.058,1.713,4.704,1.676c0,0,2.095,0.184,3.308-1.911c0,0,5.843-12.9,7.644-15.546   c0,0,2.279-2.977,1.139-6.284c0,0-0.809-3.896-14.333-7.424c0,0-6.762-2.279-17.641-0.368c0,0-7.581,1.419-12.555,4.752   c0,0-4.313,2.708-2.66,7.045c0,0,1.36,3.528,3.969,7.387c0,0,2.352,4.594,3.344,7.718c0,0,1.433,4.97,4.998,4.635   c0,0,2.058,0.093,5.255-2.105c0,0,1.286-0.986,3.969-0.912L349.069,160.357z" stroke-width="0.25" stroke="#939598" stroke-linejoin="round"/><g><g><path fill="#FFFFFF" d="M322.701,551.953l-9.277-19.466c0,0-4.667-9.164-1.48-14.116     c0,0,3.339-5.805,10.321-4.553c0,0,5.331,1.096,6.299,6.695c0,0,0.319,2.469-1.292,4.632c0,0,0.324-5.635-3.034-7.57     c0,0-3.254-2.696-7.603-0.722c0,0-5.772,2.856-1.56,12.062l10.643,21.614L322.701,551.953z" stroke-width="0.4" stroke="#939598"/></g></g><g><g><line fill="none" x1="319.972" x2="322.853" y1="546.226" y2="544.711" stroke-linejoin="round" stroke="#939598" stroke-width="0.4"/></g></g><g><g><line fill="none" x1="318.589" x2="321.47" y1="543.238" y2="541.724" stroke-linejoin="round" stroke="#939598" stroke-width="0.4"/></g></g><g><g><line fill="none" x1="317.307" x2="320.188" y1="540.567" y2="539.052" stroke-linejoin="round" stroke="#939598" stroke-width="0.4"/></g></g><g><g><line fill="none" x1="316.031" x2="318.912" y1="537.87" y2="536.355" stroke-linejoin="round" stroke="#939598" stroke-width="0.4"/></g></g><g><g><line fill="none" x1="314.695" x2="317.576" y1="535.346" y2="533.831" stroke-linejoin="round" stroke="#939598" stroke-width="0.4"/></g></g><g><g><line fill="none" x1="313.337" x2="316.217" y1="532.43" y2="530.916" stroke-linejoin="round" stroke="#939598" stroke-width="0.4"/></g></g><g><g><line fill="none" x1="312.104" x2="314.666" y1="529.144" y2="527.968" stroke-linejoin="round" stroke="#939598" stroke-width="0.4"/></g></g><g><g><line fill="none" x1="323.539" x2="322.353" y1="514.112" y2="516.67" stroke-linejoin="round" stroke="#939598" stroke-width="0.4"/></g></g><g><g><line fill="none" x1="319.505" x2="316.521" y1="546.453" y2="547.752" stroke-linejoin="round" stroke="#939598" stroke-width="0.4"/></g></g><g><g><line fill="none" x1="318.04" x2="315.056" y1="543.505" y2="544.804" stroke-linejoin="round" stroke="#939598" stroke-width="0.4"/></g></g><g><g><line fill="none" x1="316.758" x2="313.774" y1="540.834" y2="542.133" stroke-linejoin="round" stroke="#939598" stroke-width="0.4"/></g></g><g><g><line fill="none" x1="315.453" x2="312.469" y1="538.15" y2="539.449" stroke-linejoin="round" stroke="#939598" stroke-width="0.4"/></g></g><g><g><line fill="none" x1="314.32" x2="311.336" y1="535.529" y2="536.828" stroke-linejoin="round" stroke="#939598" stroke-width="0.4"/></g></g><g><g><line fill="none" x1="312.895" x2="309.911" y1="532.645" y2="533.944" stroke-linejoin="round" stroke="#939598" stroke-width="0.4"/></g></g><g><g><line fill="none" x1="311.103" x2="308.583" y1="529.627" y2="530.89" stroke-linejoin="round" stroke="#939598" stroke-width="0.4"/></g></g><g><circle fill="none" r="0.75" stroke-width="0.4" cx="321.174" cy="523.632" stroke="#939598"/></g><g><line fill="none" x1="327.042" x2="321.924" y1="523.188" y2="523.469" stroke-linejoin="round" stroke="#939598" stroke-width="0.4"/></g><g><line fill="none" x1="320.32" x2="310.916" y1="523.623" y2="524.273" stroke-linejoin="round" stroke="#939598" stroke-width="0.4"/></g><path fill="#FFFFFF" d="M349.42,129.653   c0.02,0,0.039,0.002,0.059,0.002c0.02,0,0.039-0.002,0.059-0.002H349.42z" stroke-width="0.3562" stroke="#939598" stroke-linejoin="round"/><path fill="none" d="M333.368,493.921c0,0-5.847-2.632-9.55-3.995   c-3.703-1.363-5.943-1.267-8.283-1.267c-2.338,0-5.188-1.099-5.188-1.099" stroke-width="0.325" stroke="#939598"/><path fill="none" d="M333.42,493.982c-0.479,2.416-0.741,4.968-0.741,7.609   c0,8.725,3.065,17.11,7.418,22.112" stroke-width="0.325" stroke="#939598"/><path fill="none" d="M324.485,557.204   c0-18.214,15.611-18.538,15.611-33.5" stroke-width="0.325" stroke="#939598" stroke-linejoin="round"/><circle fill="none" stroke-linejoin="round" r="13.261" cx="354.342" cy="502.517" stroke="#939598" stroke-width="0.325"/><path fill="none" d="M392.601,502.333h-14.16   c0,0-0.321,12.942-9.715,21.541l13.942,16.459" stroke-width="0.325" stroke="#939598" stroke-linejoin="round"/></g><g id="SYMBOLS_AND_VENUES"><path d="M335.628,427.603v-0.487l-1.463,0.487v0.548c-0.12-0.286-0.402-0.487-0.732-0.487c-0.438,0-0.793,0.354-0.793,0.793   c0,0.438,0.355,0.793,0.793,0.793c0.33,0,0.613-0.202,0.732-0.489v0.551l1.463,0.487v-0.487l1.951,0.487v-0.683l2.501-0.264v-0.793   l-2.501-0.263v-0.681L335.628,427.603z"/><path d="M324.651,427.846v0.301c-0.119-0.287-0.402-0.488-0.731-0.488c-0.44,0-0.793,0.355-0.793,0.792   c0,0.439,0.354,0.793,0.793,0.793c0.329,0,0.612-0.2,0.731-0.489v0.312c0,0.402,0.328,0.732,0.732,0.732h1.83   c0.51,0,0.723-0.286,0.806-0.707h2.548v-1.28h-2.55c-0.084-0.415-0.297-0.695-0.804-0.695h-1.83   C324.979,427.115,324.651,427.441,324.651,427.846z"/><g><path d="M336.435,439.992h-0.528v-2.522h0.975c0.36,0,0.59,0.23,0.59,0.661c0,0.32-0.125,0.562-0.468,0.617v0.008    c0.116,0.014,0.458,0.042,0.458,0.496c0,0.16,0.01,0.636,0.06,0.74h-0.518c-0.07-0.153-0.056-0.324-0.056-0.488    c0-0.301,0.028-0.557-0.377-0.557h-0.136V439.992z M336.435,438.561h0.234c0.21,0,0.269-0.21,0.269-0.371    c0-0.24-0.101-0.332-0.269-0.332h-0.234V438.561z"/></g><g><path d="M337.84,438.731c0-0.667,0-1.304,0.87-1.304s0.87,0.637,0.87,1.304c0,0.66,0,1.304-0.87,1.304    S337.84,439.392,337.84,438.731z M339.045,438.731c0-0.646-0.039-0.927-0.335-0.927c-0.297,0-0.335,0.28-0.335,0.927    s0.038,0.926,0.335,0.926C339.007,439.657,339.045,439.378,339.045,438.731z"/></g><g><path d="M339.978,438.731c0-0.667,0-1.304,0.87-1.304c0.538,0,0.754,0.297,0.733,0.839h-0.517c0-0.335-0.059-0.462-0.216-0.462    c-0.297,0-0.335,0.28-0.335,0.927s0.038,0.926,0.335,0.926c0.245,0,0.234-0.314,0.241-0.514h0.521    c0,0.675-0.269,0.892-0.762,0.892C339.978,440.035,339.978,439.392,339.978,438.731z"/></g><g><path d="M343.07,437.47h0.58l-0.706,1.132l0.706,1.391h-0.594l-0.604-1.293h-0.007v1.293h-0.528v-2.522h0.528v1.079h0.007    L343.07,437.47z"/></g><g><path d="M344.647,438.731c0-0.667,0-1.304,0.87-1.304c0.538,0,0.754,0.297,0.733,0.839h-0.517c0-0.335-0.059-0.462-0.216-0.462    c-0.297,0-0.335,0.28-0.335,0.927s0.038,0.926,0.335,0.926c0.245,0,0.234-0.314,0.241-0.514h0.521    c0,0.675-0.269,0.892-0.762,0.892C344.647,440.035,344.647,439.392,344.647,438.731z"/></g><g><path d="M346.621,439.992v-2.522h0.528v2.104h0.79v0.419H346.621z"/></g><g><path d="M348.172,439.992v-2.522h0.527v2.522H348.172z"/></g><g><path d="M349.134,439.992v-2.522h0.849l0.395,1.716h0.007l0.419-1.716h0.821v2.522h-0.514v-1.945h-0.007l-0.486,1.945h-0.503    l-0.461-1.945h-0.007v1.945H349.134z"/></g><g><path d="M352.067,439.992v-2.522h0.937c0.402,0,0.734,0.115,0.734,0.653c0,0.29-0.144,0.5-0.43,0.556v0.007    c0.374,0.053,0.472,0.294,0.472,0.64c0,0.64-0.556,0.667-0.779,0.667H352.067z M352.594,438.5h0.353    c0.115,0,0.276-0.076,0.276-0.32c0-0.186-0.126-0.322-0.304-0.322h-0.325V438.5z M352.594,439.605h0.293    c0.112,0,0.363-0.004,0.363-0.357c0-0.223-0.084-0.359-0.349-0.359h-0.308V439.605z"/></g><g><path d="M354.198,439.992v-2.522h0.527v2.522H354.198z"/></g><g><path d="M355.175,439.992v-2.522h0.713l0.671,1.747h0.007v-1.747h0.493v2.522h-0.695l-0.688-1.845h-0.007v1.845H355.175z"/></g><g><path d="M358.659,438.246c0.004-0.234-0.035-0.441-0.314-0.441c-0.328,0-0.328,0.444-0.328,0.934c0,0.789,0.077,0.93,0.377,0.93    c0.087,0,0.182-0.021,0.262-0.049v-0.56h-0.287v-0.388h0.814v1.279c-0.144,0.027-0.503,0.084-0.713,0.084    c-0.888,0-0.989-0.367-0.989-1.324c0-0.637,0.031-1.283,0.895-1.283c0.517,0,0.838,0.29,0.807,0.818H358.659z"/></g><g><path d="M360.197,437.47h0.542l0.329,1.771h0.007l0.398-1.771h0.622l0.377,1.771h0.007l0.314-1.771h0.517l-0.559,2.522h-0.583    l-0.395-1.845h-0.007l-0.437,1.845h-0.573L360.197,437.47z"/></g><g><path d="M363.277,439.992l0.699-2.522h0.696l0.685,2.522h-0.556l-0.14-0.559h-0.72l-0.143,0.559H363.277z M364.295,437.955h-0.007    l-0.241,1.091h0.503L364.295,437.955z"/></g><g><path d="M365.611,439.992v-2.522h0.528v2.104h0.79v0.419H365.611z"/></g><g><path d="M367.166,439.992v-2.522h0.528v2.104h0.79v0.419H367.166z"/></g><g><path d="M331.193,372.755h-2.523v-1.376h0.388v0.849h0.622v-0.783h0.388v0.783h0.737v-0.877h0.388V372.755z"/></g><g><path d="M331.193,371.001h-2.523v-0.528h2.104v-0.79h0.419V371.001z"/></g><g><path d="M331.193,369.451h-2.523v-1.376h0.388v0.849h0.622v-0.783h0.388v0.783h0.737v-0.877h0.388V369.451z"/></g><g><path d="M328.67,367.904v-0.548l1.834-0.392v-0.007l-1.834-0.44v-0.521l2.523,0.667v0.618L328.67,367.904z"/></g><g><path d="M330.731,365.636h0.461v0.419h-0.461V365.636z"/></g><g><path d="M337.215,451.583c-0.653,0-0.775-0.384-0.748-0.821h0.528c0,0.241,0.01,0.444,0.3,0.444c0.178,0,0.266-0.115,0.266-0.287    c0-0.454-1.062-0.481-1.062-1.233c0-0.395,0.189-0.709,0.832-0.709c0.514,0,0.769,0.23,0.733,0.758h-0.514    c0-0.188-0.031-0.381-0.244-0.381c-0.171,0-0.273,0.095-0.273,0.27c0,0.479,1.062,0.437,1.062,1.229    C338.096,451.506,337.617,451.583,337.215,451.583z"/></g><g><path d="M338.48,449.019h0.951c0.482,0,0.671,0.293,0.671,0.755c0,0.286-0.084,0.74-0.703,0.74h-0.391v1.027h-0.528V449.019z     M339.008,450.126h0.293c0.157,0,0.266-0.171,0.266-0.339c0-0.206-0.056-0.381-0.294-0.381h-0.265V450.126z"/></g><g><path d="M340.399,450.28c0-0.668,0-1.304,0.87-1.304s0.87,0.636,0.87,1.304c0,0.66,0,1.303-0.87,1.303    S340.399,450.94,340.399,450.28z M341.604,450.28c0-0.646-0.039-0.927-0.335-0.927c-0.297,0-0.335,0.28-0.335,0.927    c0,0.646,0.038,0.926,0.335,0.926C341.566,451.206,341.604,450.926,341.604,450.28z"/></g><g><path d="M343.078,451.541h-0.528v-2.522h0.975c0.36,0,0.59,0.23,0.59,0.66c0,0.321-0.125,0.562-0.468,0.618v0.008    c0.116,0.014,0.458,0.042,0.458,0.496c0,0.16,0.01,0.636,0.06,0.74h-0.518c-0.07-0.153-0.056-0.325-0.056-0.489    c0-0.3,0.028-0.556-0.377-0.556h-0.136V451.541z M343.078,450.108h0.234c0.21,0,0.269-0.209,0.269-0.37    c0-0.241-0.101-0.332-0.269-0.332h-0.234V450.108z"/></g><g><path d="M346.01,449.019v0.419h-0.587v2.104h-0.528v-2.104h-0.587v-0.419H346.01z"/></g><g><path d="M346.942,451.583c-0.653,0-0.775-0.384-0.748-0.821h0.528c0,0.241,0.01,0.444,0.3,0.444c0.178,0,0.266-0.115,0.266-0.287    c0-0.454-1.062-0.481-1.062-1.233c0-0.395,0.189-0.709,0.832-0.709c0.514,0,0.769,0.23,0.733,0.758h-0.514    c0-0.188-0.031-0.381-0.244-0.381c-0.171,0-0.273,0.095-0.273,0.27c0,0.479,1.062,0.437,1.062,1.229    C347.823,451.506,347.344,451.583,346.942,451.583z"/></g><g><path d="M337.383,454.58c0-0.668,0-1.304,0.87-1.304c0.538,0,0.754,0.297,0.733,0.839h-0.517c0-0.336-0.059-0.462-0.216-0.462    c-0.297,0-0.335,0.28-0.335,0.927c0,0.646,0.038,0.926,0.335,0.926c0.245,0,0.234-0.314,0.241-0.514h0.521    c0,0.674-0.269,0.891-0.762,0.891C337.383,455.883,337.383,455.24,337.383,454.58z"/></g><g><path d="M339.329,454.58c0-0.668,0-1.304,0.87-1.304s0.87,0.636,0.87,1.304c0,0.66,0,1.303-0.87,1.303    S339.329,455.24,339.329,454.58z M340.535,454.58c0-0.646-0.039-0.927-0.335-0.927c-0.297,0-0.335,0.28-0.335,0.927    c0,0.646,0.038,0.926,0.335,0.926C340.496,455.506,340.535,455.226,340.535,454.58z"/></g><g><path d="M343.197,453.318v1.789c0,0.377-0.213,0.775-0.856,0.775c-0.58,0-0.86-0.301-0.86-0.775v-1.789h0.528v1.754    c0,0.312,0.133,0.434,0.325,0.434c0.231,0,0.336-0.154,0.336-0.434v-1.754H343.197z"/></g><g><path d="M344.148,455.841h-0.528v-2.522h0.975c0.36,0,0.59,0.23,0.59,0.66c0,0.321-0.125,0.562-0.468,0.618v0.008    c0.116,0.014,0.458,0.042,0.458,0.496c0,0.16,0.01,0.636,0.06,0.74h-0.518c-0.07-0.153-0.056-0.325-0.056-0.489    c0-0.3,0.028-0.556-0.377-0.556h-0.136V455.841z M344.148,454.408h0.234c0.21,0,0.269-0.209,0.269-0.37    c0-0.241-0.101-0.332-0.269-0.332h-0.234V454.408z"/></g><g><path d="M347.079,453.318v0.419h-0.587v2.104h-0.528v-2.104h-0.587v-0.419H347.079z"/></g><g><path d="M342.751,568.86v-2.522h1.311v0.388h-0.783v0.646h0.748v0.389h-0.748v1.101H342.751z"/></g><g><path d="M344.319,568.86v-2.522h0.528v2.104h0.79v0.419H344.319z"/></g><g><path d="M345.845,567.6c0-0.668,0-1.305,0.87-1.305s0.87,0.637,0.87,1.305c0,0.66,0,1.303-0.87,1.303    S345.845,568.26,345.845,567.6z M347.05,567.6c0-0.646-0.039-0.927-0.335-0.927c-0.297,0-0.335,0.28-0.335,0.927    c0,0.646,0.038,0.926,0.335,0.926C347.012,568.525,347.05,568.245,347.05,567.6z"/></g><g><path d="M347.784,566.338h0.542l0.329,1.771h0.007l0.398-1.771h0.622l0.377,1.771h0.007l0.314-1.771h0.517l-0.559,2.522h-0.583    l-0.395-1.845h-0.007l-0.437,1.845h-0.573L347.784,566.338z"/></g><g><path d="M351.636,568.86h-0.528v-2.522h0.975c0.36,0,0.59,0.23,0.59,0.66c0,0.321-0.125,0.562-0.468,0.618v0.007    c0.116,0.014,0.458,0.043,0.458,0.496c0,0.161,0.01,0.637,0.06,0.741h-0.518c-0.07-0.153-0.056-0.325-0.056-0.489    c0-0.301,0.028-0.556-0.377-0.556h-0.136V568.86z M351.636,567.428h0.234c0.21,0,0.269-0.209,0.269-0.371    c0-0.24-0.101-0.331-0.269-0.331h-0.234V567.428z"/></g><g><path d="M353.065,568.86v-2.522h0.527v2.522H353.065z"/></g><g><path d="M354.048,566.338h0.881c0.692,0,0.821,0.461,0.821,1.247c0,0.388,0.06,1.275-0.842,1.275h-0.86V566.338z M354.576,568.473    h0.255c0.322,0,0.384-0.241,0.384-0.873c0-0.465,0-0.874-0.367-0.874h-0.272V568.473z"/></g><g><path d="M356.177,568.86v-2.522h1.376v0.388h-0.849v0.622h0.783v0.388h-0.783v0.737h0.877v0.388H356.177z"/></g><g><path d="M358.444,568.86h-0.528v-2.522h0.975c0.36,0,0.59,0.23,0.59,0.66c0,0.321-0.125,0.562-0.468,0.618v0.007    c0.116,0.014,0.458,0.043,0.458,0.496c0,0.161,0.01,0.637,0.06,0.741h-0.518c-0.07-0.153-0.056-0.325-0.056-0.489    c0-0.301,0.028-0.556-0.377-0.556h-0.136V568.86z M358.444,567.428h0.234c0.21,0,0.269-0.209,0.269-0.371    c0-0.24-0.101-0.331-0.269-0.331h-0.234V567.428z"/></g><g><g><path d="M337.435,147.502v-2.523h0.527v2.523H337.435z"/></g></g><g><g><path d="M338.411,147.502v-2.523h0.713l0.671,1.747h0.007v-1.747h0.493v2.523h-0.695l-0.688-1.845h-0.007v1.845H338.411z"/></g></g><g><g><path d="M340.753,144.979h0.881c0.692,0,0.821,0.461,0.821,1.248c0,0.388,0.06,1.275-0.842,1.275h-0.86V144.979z M341.28,147.114     h0.255c0.322,0,0.384-0.241,0.384-0.874c0-0.465,0-0.874-0.367-0.874h-0.272V147.114z"/></g></g><g><g><path d="M342.881,147.502v-2.523h1.376v0.388h-0.849v0.622h0.783v0.388h-0.783v0.737h0.877v0.388H342.881z"/></g></g><g><g><path d="M344.634,144.979h0.951c0.482,0,0.671,0.293,0.671,0.755c0,0.287-0.084,0.741-0.703,0.741h-0.391v1.027h-0.528V144.979z      M345.162,146.087h0.293c0.157,0,0.266-0.171,0.266-0.339c0-0.207-0.056-0.381-0.294-0.381h-0.265V146.087z"/></g></g><g><g><path d="M346.577,147.502v-2.523h1.376v0.388h-0.849v0.622h0.783v0.388h-0.783v0.737h0.877v0.388H346.577z"/></g></g><g><g><path d="M348.33,147.502v-2.523h0.713l0.671,1.747h0.007v-1.747h0.493v2.523h-0.695l-0.688-1.845h-0.007v1.845H348.33z"/></g></g><g><g><path d="M350.672,144.979h0.881c0.692,0,0.821,0.461,0.821,1.248c0,0.388,0.06,1.275-0.842,1.275h-0.86V144.979z      M351.199,147.114h0.255c0.322,0,0.384-0.241,0.384-0.874c0-0.465,0-0.874-0.367-0.874h-0.272V147.114z"/></g></g><g><g><path d="M352.799,147.502v-2.523h1.376v0.388h-0.849v0.622h0.783v0.388h-0.783v0.737h0.877v0.388H352.799z"/></g></g><g><g><path d="M354.553,147.502v-2.523h0.713l0.671,1.747h0.007v-1.747h0.493v2.523h-0.695l-0.688-1.845h-0.007v1.845H354.553z"/></g></g><g><g><path d="M356.86,146.241c0-0.667,0-1.304,0.87-1.304c0.538,0,0.754,0.297,0.733,0.839h-0.517c0-0.335-0.059-0.461-0.216-0.461     c-0.297,0-0.335,0.28-0.335,0.926s0.038,0.926,0.335,0.926c0.245,0,0.234-0.314,0.241-0.514h0.521     c0,0.674-0.269,0.891-0.762,0.891C356.86,147.544,356.86,146.901,356.86,146.241z"/></g></g><g><g><path d="M358.83,147.502v-2.523h1.376v0.388h-0.849v0.622h0.783v0.388h-0.783v0.737h0.877v0.388H358.83z"/></g></g><g><g><path d="M344.252,149.279h0.881c0.692,0,0.821,0.461,0.821,1.248c0,0.388,0.06,1.275-0.842,1.275h-0.86V149.279z M344.78,151.414     h0.255c0.322,0,0.385-0.241,0.385-0.874c0-0.465,0-0.874-0.367-0.874h-0.272V151.414z"/></g></g><g><g><path d="M348.086,149.279v1.789c0,0.377-0.213,0.776-0.856,0.776c-0.58,0-0.86-0.301-0.86-0.776v-1.789h0.528v1.754     c0,0.311,0.133,0.433,0.325,0.433c0.231,0,0.336-0.154,0.336-0.433v-1.754H348.086z"/></g></g><g><g><path d="M348.522,151.802v-2.523h0.713l0.671,1.747h0.007v-1.747h0.493v2.523h-0.695l-0.688-1.845h-0.007v1.845H348.522z"/></g></g><g><g><path d="M350.853,151.802v-2.523h1.376v0.388h-0.849v0.622h0.783v0.388h-0.783v0.737h0.877v0.388H350.853z"/></g></g><g><g><path d="M353.288,151.844c-0.653,0-0.775-0.384-0.748-0.821h0.528c0,0.241,0.01,0.444,0.3,0.444c0.178,0,0.266-0.115,0.266-0.287     c0-0.454-1.062-0.482-1.062-1.233c0-0.395,0.189-0.709,0.832-0.709c0.514,0,0.769,0.231,0.733,0.758h-0.514     c0-0.188-0.031-0.381-0.244-0.381c-0.171,0-0.273,0.094-0.273,0.269c0,0.479,1.062,0.437,1.062,1.23     C354.169,151.767,353.69,151.844,353.288,151.844z"/></g></g><g><g><path d="M319.689,499.979v0.419h-0.587v2.104h-0.528v-2.104h-0.587v-0.419H319.689z"/></g></g><g><g><path d="M321.086,500.989v-1.01h0.528v2.522h-0.528v-1.125h-0.604v1.125h-0.527v-2.522h0.527v1.01H321.086z"/></g></g><g><g><path d="M322.075,502.502v-2.522h1.376v0.388h-0.849v0.622h0.783v0.388h-0.783v0.737h0.877v0.388H322.075z"/></g></g><g><g><path d="M314.688,504.279h0.951c0.482,0,0.671,0.293,0.671,0.755c0,0.286-0.084,0.74-0.703,0.74h-0.391v1.027h-0.528V504.279z      M315.216,505.387h0.293c0.157,0,0.266-0.171,0.266-0.339c0-0.206-0.056-0.381-0.294-0.381h-0.265V505.387z"/></g></g><g><g><path d="M316.631,506.802v-2.522h1.376v0.388h-0.849v0.622h0.783v0.388h-0.783v0.737h0.877v0.388H316.631z"/></g></g><g><g><path d="M318.898,506.802h-0.528v-2.522h0.975c0.36,0,0.59,0.23,0.59,0.66c0,0.321-0.125,0.562-0.468,0.618v0.008     c0.116,0.014,0.458,0.042,0.458,0.496c0,0.16,0.01,0.636,0.06,0.74h-0.518c-0.07-0.153-0.056-0.325-0.056-0.489     c0-0.3,0.028-0.556-0.377-0.556h-0.136V506.802z M318.898,505.369h0.234c0.21,0,0.269-0.209,0.269-0.37     c0-0.241-0.101-0.332-0.269-0.332h-0.234V505.369z"/></g></g><g><g><path d="M320.316,506.802v-2.522h1.311v0.388h-0.783v0.646h0.748v0.388h-0.748v1.101H320.316z"/></g></g><g><g><path d="M321.881,506.802v-2.522h1.376v0.388h-0.849v0.622h0.783v0.388h-0.783v0.737h0.877v0.388H321.881z"/></g></g><g><g><path d="M323.606,505.541c0-0.668,0-1.304,0.87-1.304c0.538,0,0.754,0.297,0.733,0.839h-0.517c0-0.336-0.059-0.462-0.216-0.462     c-0.297,0-0.335,0.28-0.335,0.927s0.038,0.926,0.335,0.926c0.245,0,0.234-0.314,0.241-0.514h0.521     c0,0.674-0.269,0.891-0.762,0.891C323.606,506.844,323.606,506.201,323.606,505.541z"/></g></g><g><g><path d="M327.079,504.279v0.419h-0.587v2.104h-0.528v-2.104h-0.587v-0.419H327.079z"/></g></g><g><g><path d="M316.731,511.145c-0.653,0-0.775-0.385-0.748-0.821h0.528c0,0.241,0.01,0.443,0.3,0.443c0.178,0,0.266-0.115,0.266-0.286     c0-0.454-1.062-0.482-1.062-1.233c0-0.396,0.189-0.71,0.832-0.71c0.514,0,0.769,0.231,0.733,0.759h-0.514     c0-0.188-0.031-0.381-0.244-0.381c-0.171,0-0.273,0.094-0.273,0.269c0,0.479,1.062,0.438,1.062,1.23     C317.611,511.067,317.132,511.145,316.731,511.145z"/></g></g><g><g><path d="M319.494,508.579v0.42h-0.587v2.104h-0.528v-2.104h-0.587v-0.42H319.494z"/></g></g><g><g><path d="M319.717,509.841c0-0.667,0-1.304,0.87-1.304s0.87,0.637,0.87,1.304c0,0.66,0,1.304-0.87,1.304     S319.717,510.501,319.717,509.841z M320.923,509.841c0-0.646-0.039-0.926-0.335-0.926c-0.297,0-0.335,0.279-0.335,0.926     s0.038,0.926,0.335,0.926C320.884,510.767,320.923,510.487,320.923,509.841z"/></g></g><g><g><path d="M322.398,511.103h-0.528v-2.523h0.975c0.36,0,0.59,0.231,0.59,0.661c0,0.321-0.125,0.562-0.468,0.618v0.007     c0.116,0.014,0.458,0.042,0.458,0.496c0,0.161,0.01,0.636,0.06,0.741h-0.518c-0.07-0.154-0.056-0.325-0.056-0.489     c0-0.301,0.028-0.556-0.377-0.556h-0.136V511.103z M322.398,509.67h0.234c0.21,0,0.269-0.21,0.269-0.371     c0-0.24-0.101-0.331-0.269-0.331h-0.234V509.67z"/></g></g><g><g><path d="M323.816,511.103v-2.523h0.849l0.395,1.716h0.007l0.419-1.716h0.821v2.523h-0.514v-1.946h-0.007l-0.485,1.946h-0.503     l-0.461-1.946h-0.007v1.946H323.816z"/></g></g><g><g><path d="M352.245,502.022c-0.653,0-0.775-0.385-0.748-0.821h0.528c0,0.241,0.01,0.443,0.3,0.443c0.178,0,0.266-0.115,0.266-0.286     c0-0.454-1.062-0.482-1.062-1.233c0-0.395,0.189-0.709,0.832-0.709c0.514,0,0.769,0.23,0.733,0.758h-0.514     c0-0.188-0.031-0.381-0.244-0.381c-0.171,0-0.273,0.095-0.273,0.27c0,0.479,1.062,0.437,1.062,1.229     C353.126,501.945,352.647,502.022,352.245,502.022z"/></g></g><g><g><path d="M354.628,499.458h0.58l-0.706,1.132l0.706,1.391h-0.594l-0.604-1.293h-0.007v1.293h-0.528v-2.522h0.528v1.079h0.007     L354.628,499.458z"/></g></g><g><g><path d="M355.918,501.106l-0.661-1.648h0.577l0.377,1.065l0.402-1.065h0.538l-0.706,1.648v0.874h-0.527V501.106z"/></g></g><g><g><path d="M351.459,503.758h0.951c0.482,0,0.671,0.293,0.671,0.754c0,0.287-0.084,0.741-0.703,0.741h-0.391v1.027h-0.528V503.758z      M351.987,504.865h0.293c0.157,0,0.266-0.171,0.266-0.339c0-0.206-0.056-0.381-0.294-0.381h-0.265V504.865z"/></g></g><g><g><path d="M353.034,506.28l0.699-2.522h0.696l0.685,2.522h-0.556l-0.14-0.56h-0.72l-0.143,0.56H353.034z M354.051,504.243h-0.007     l-0.241,1.09h0.503L354.051,504.243z"/></g></g><g><g><path d="M355.376,503.758h0.881c0.692,0,0.821,0.461,0.821,1.247c0,0.388,0.06,1.275-0.842,1.275h-0.86V503.758z      M355.903,505.893h0.255c0.322,0,0.384-0.241,0.384-0.874c0-0.465,0-0.873-0.367-0.873h-0.272V505.893z"/></g></g><g><g><path d="M381.745,522.272c-0.653,0-0.775-0.385-0.748-0.821h0.528c0,0.241,0.01,0.443,0.3,0.443c0.178,0,0.266-0.115,0.266-0.286     c0-0.454-1.062-0.482-1.062-1.233c0-0.395,0.189-0.709,0.832-0.709c0.514,0,0.769,0.23,0.733,0.758h-0.514     c0-0.188-0.031-0.381-0.244-0.381c-0.171,0-0.273,0.095-0.273,0.27c0,0.479,1.062,0.437,1.062,1.229     C382.626,522.195,382.147,522.272,381.745,522.272z"/></g></g><g><g><path d="M384.128,519.708h0.58l-0.706,1.132l0.706,1.391h-0.594l-0.604-1.293h-0.007v1.293h-0.528v-2.522h0.528v1.079h0.007     L384.128,519.708z"/></g></g><g><g><path d="M385.418,521.356l-0.661-1.648h0.577l0.377,1.065l0.402-1.065h0.538l-0.706,1.648v0.874h-0.527V521.356z"/></g></g><g><g><path d="M377.344,525.269c0-0.667,0-1.303,0.87-1.303c0.538,0,0.754,0.297,0.733,0.838h-0.517c0-0.335-0.059-0.461-0.216-0.461     c-0.297,0-0.335,0.279-0.335,0.926s0.038,0.927,0.335,0.927c0.245,0,0.234-0.315,0.241-0.514h0.521     c0,0.674-0.269,0.891-0.762,0.891C377.344,526.572,377.344,525.93,377.344,525.269z"/></g></g><g><g><path d="M379.318,526.53v-2.522h0.528v2.104h0.79v0.419H379.318z"/></g></g><g><g><path d="M380.868,526.53v-2.522h0.527v2.522H380.868z"/></g></g><g><g><path d="M381.831,526.53v-2.522h0.849l0.395,1.715h0.007l0.419-1.715h0.821v2.522h-0.514v-1.946h-0.007l-0.485,1.946h-0.503     l-0.461-1.946h-0.007v1.946H381.831z"/></g></g><g><g><path d="M384.763,526.53v-2.522h0.937c0.402,0,0.734,0.115,0.734,0.653c0,0.29-0.144,0.499-0.43,0.556v0.007     c0.374,0.052,0.472,0.293,0.472,0.64c0,0.639-0.556,0.667-0.779,0.667H384.763z M385.291,525.038h0.353     c0.115,0,0.276-0.077,0.276-0.321c0-0.186-0.126-0.321-0.304-0.321h-0.325V525.038z M385.291,526.143h0.293     c0.112,0,0.363-0.004,0.363-0.356c0-0.224-0.084-0.36-0.35-0.36h-0.307V526.143z"/></g></g><g><g><path d="M386.895,526.53v-2.522h1.376v0.388h-0.849v0.622h0.783v0.388h-0.783v0.737h0.877v0.388H386.895z"/></g></g><g><g><path d="M389.162,526.53h-0.528v-2.522h0.975c0.36,0,0.59,0.23,0.59,0.66c0,0.321-0.125,0.562-0.468,0.618v0.007     c0.116,0.015,0.458,0.042,0.458,0.496c0,0.161,0.01,0.637,0.06,0.741h-0.518c-0.07-0.153-0.056-0.325-0.056-0.489     c0-0.301,0.028-0.556-0.377-0.556h-0.136V526.53z M389.162,525.098h0.234c0.21,0,0.269-0.21,0.269-0.37     c0-0.241-0.101-0.332-0.269-0.332h-0.234V525.098z"/></g></g><g><g><path d="M316.842,171.794c-0.653,0-0.775-0.384-0.748-0.821h0.528c0,0.241,0.01,0.444,0.3,0.444c0.178,0,0.266-0.115,0.266-0.287     c0-0.454-1.062-0.482-1.062-1.233c0-0.395,0.189-0.709,0.832-0.709c0.514,0,0.769,0.231,0.733,0.758h-0.514     c0-0.188-0.031-0.381-0.244-0.381c-0.171,0-0.273,0.094-0.273,0.269c0,0.479,1.062,0.437,1.062,1.23     C317.723,171.717,317.244,171.794,316.842,171.794z"/></g></g><g><g><path d="M319.808,169.229v1.789c0,0.377-0.213,0.776-0.856,0.776c-0.58,0-0.86-0.301-0.86-0.776v-1.789h0.528v1.754     c0,0.311,0.133,0.433,0.325,0.433c0.231,0,0.336-0.154,0.336-0.433v-1.754H319.808z"/></g></g><g><g><path d="M320.245,171.752v-2.523h0.713l0.671,1.747h0.007v-1.747h0.493v2.523h-0.695l-0.688-1.845h-0.007v1.845H320.245z"/></g></g><g><g><path d="M323.363,169.229h0.881c0.692,0,0.821,0.461,0.821,1.248c0,0.388,0.06,1.275-0.842,1.275h-0.86V169.229z      M323.891,171.364h0.255c0.322,0,0.385-0.241,0.385-0.874c0-0.465,0-0.874-0.367-0.874h-0.272V171.364z"/></g></g><g><g><path d="M325.492,171.752v-2.523h1.376v0.388h-0.849v0.622h0.783v0.388h-0.783v0.737h0.877v0.388H325.492z"/></g></g><g><g><path d="M327.217,170.491c0-0.667,0-1.304,0.87-1.304c0.538,0,0.754,0.297,0.733,0.839h-0.517c0-0.335-0.059-0.461-0.216-0.461     c-0.297,0-0.335,0.28-0.335,0.926s0.038,0.926,0.335,0.926c0.245,0,0.234-0.314,0.241-0.514h0.521     c0,0.674-0.269,0.891-0.762,0.891C327.217,171.794,327.217,171.151,327.217,170.491z"/></g></g><g><g><path d="M330.309,169.229h0.58l-0.706,1.132l0.706,1.391h-0.594l-0.604-1.293h-0.007v1.293h-0.528v-2.523h0.528v1.08h0.007     L330.309,169.229z"/></g></g></g><g id="ICONS"><g><path fill="#0089CF" d="M378.413,436.582c-1.812,0-3.285,1.474-3.285,3.286c0,1.811,1.474,3.283,3.285,3.283    c1.811,0,3.285-1.473,3.285-3.283C381.698,438.056,380.224,436.582,378.413,436.582z"/></g><g><g><path fill="#FFFFFF" d="M377.589,442.4c0.019,0,0.061,0.03,0.154,0.013c0.093-0.019,0.178-0.05,0.246-0.019     c0.069,0.03,0.168,0.013,0.197,0.037c0.032,0.025,0.038,0.08,0.112,0.08c0.074,0,0.129,0.005,0.141-0.049     c0.013-0.055,0.05-0.093,0.056-0.161c0.005-0.066-0.006-0.134-0.031-0.184c-0.025-0.049-0.056-0.049-0.025-0.104     c0.031-0.057,0.031-0.062,0.044-0.087c0.012-0.024-0.013-0.03,0.006-0.061c0.018-0.031,0.006-0.08,0.006-0.099     c0-0.018-0.012-0.073-0.025-0.104c-0.012-0.031-0.006,0.005-0.08-0.062c-0.074-0.069-0.098-0.036-0.11-0.094     c-0.012-0.055-0.038-0.078-0.038-0.078l-0.024-0.083v-0.03l-0.025-0.031l-0.043-0.098l-0.03-0.043l0.018-0.031     c0,0,0.036-0.018,0.024-0.037c-0.012-0.018-0.042-0.032-0.042-0.032v-0.049l-0.044-0.024v-0.062l-0.006-0.036     c-0.025-0.031-0.061-0.044-0.061-0.044l-0.025-0.053l-0.036-0.052c0,0,0-0.006,0.012-0.029c0.014-0.026,0.014-0.026,0.014-0.026     s0.049-0.03,0.054-0.091c0.007-0.063,0.012-0.124,0.032-0.129c0.018-0.007,0.073-0.043,0.073-0.043s-0.006-0.037,0-0.07     c0.007-0.029,0.038-0.023,0-0.062c-0.036-0.034-0.024-0.023-0.009-0.076c0.015-0.052,0.027-0.181,0.009-0.199     c-0.019-0.018-0.036-0.055-0.036-0.055l0.029-0.068l-0.036-0.056l-0.044-0.08c0,0,0.005-0.054,0-0.086     c-0.006-0.031,0.056-0.074,0.056-0.074s-0.051-0.018-0.038-0.074c0.012-0.055,0.032-0.049,0.056-0.093     c0.025-0.042,0.03-0.049,0.042-0.067c0.012-0.019,0.012-0.019,0.012-0.019l0.057-0.012l0.018-0.037l0.007-0.025l0.006-0.068     l0.006-0.026l0.043-0.067l0.056-0.091l0.018-0.025l0.019-0.094l0.074-0.018c0,0,0.03-0.086,0.03-0.141     c0-0.055,0.019-0.173,0.019-0.173l0.018-0.115c0,0,0.11-0.037,0.166-0.105c0.056-0.067,0.068-0.148,0.068-0.148l0.056-0.091     l0.056-0.019l0.049-0.012l0.056-0.088c0,0,0.036-0.09,0.043-0.146c0.006-0.055-0.012-0.123-0.012-0.123s0.073-0.098,0.018-0.135     c0,0-0.012-0.007-0.191-0.044c-0.178-0.035-0.166-0.042-0.203-0.084c-0.036-0.045-0.086-0.095-0.148-0.087     c-0.061,0.006-0.055,0.006-0.129,0.035c-0.074,0.032-0.086,0.052-0.154,0.052c-0.068,0-0.154,0.011-0.154,0.011l-0.388-0.319     l-0.474,0.012v5.277L377.589,442.4z"/></g></g><g><g><path fill="#FFFFFF" d="M379.29,442.489c-0.06-1.649-0.082-1.976-0.096-2.171c-0.003-0.053-0.005-0.095-0.009-0.154     c-0.009-0.171-0.254-2.22-0.257-2.243l0.03-0.004c0.01,0.085,0.248,2.07,0.257,2.245c0.002,0.057,0.006,0.102,0.01,0.155     c0.013,0.194,0.035,0.521,0.094,2.172H379.29z"/></g></g><g><g><path fill="#FFFFFF" d="M380.498,440.332c-0.017-0.006-0.089-0.079-0.12-0.106c-0.032-0.029-0.057-0.023-0.073-0.04     c-0.016-0.019-0.077-0.132-0.094-0.168c-0.017-0.036-0.04-0.107-0.04-0.107c-0.014-0.056-0.045-0.162-0.067-0.195     c-0.021-0.031-0.044-0.055-0.055-0.092c-0.01-0.039-0.044-0.153-0.064-0.195c-0.021-0.042-0.023-0.079-0.023-0.079     c0.013-0.188-0.053-0.265-0.053-0.265c-0.056-0.102-0.225-0.098-0.249-0.104c-0.025-0.005-0.024-0.009-0.024-0.026     c0-0.018,0.028-0.026,0.037-0.042c0.008-0.017-0.005-0.044,0.007-0.054c0.012-0.008,0.03-0.054,0.032-0.072     c0.002-0.019,0.013-0.058,0.013-0.058c0.04-0.359-0.227-0.347-0.227-0.347c-0.277,0.003-0.231,0.307-0.231,0.307     s0.012,0.002,0.017,0.025c0.004,0.024,0.012,0.056,0.027,0.095c0.015,0.037,0.019,0.019,0.026,0.047     c0.008,0.029,0.008,0.042,0.008,0.042c0.005,0.022,0.014,0.026,0.023,0.045c0.009,0.017,0,0.016,0.014,0.047     c0.013,0.031-0.016,0.03-0.016,0.03c-0.024-0.002-0.061,0.021-0.074,0.028c-0.011,0.011-0.028-0.007-0.071-0.007     c-0.042,0-0.092,0.007-0.135,0.031c-0.043,0.021-0.077,0.024-0.126,0.034c-0.049,0.008-0.147,0.026-0.147,0.026     c0.015-0.067,0.129-0.242,0.15-0.277c0.022-0.033,0.056-0.044,0.098-0.087c0.043-0.044,0.043-0.095,0.053-0.135     c0.008-0.045,0.002-0.05-0.009-0.06c-0.012-0.009-0.021-0.009-0.039-0.022c-0.019-0.012-0.025,0-0.025,0s-0.012-0.015-0.03-0.018     c-0.018-0.002-0.027,0.016-0.027,0.028c0,0.013,0,0.013-0.02,0.019c-0.019,0.005-0.015,0.056-0.019,0.087     c-0.003,0.03-0.03,0.08-0.056,0.101c-0.024,0.021-0.018,0.04-0.067,0.107c-0.049,0.067-0.136,0.132-0.17,0.188     c-0.033,0.054-0.073,0.086-0.104,0.135c-0.032,0.049-0.009,0.072,0.055,0.105c0.065,0.034,0.142,0.027,0.284,0.021     c0.141-0.006,0.147-0.006,0.227-0.004c0.08,0.004,0.11,0.029,0.11,0.029c0,0.037,0.033,0.181,0.05,0.227     c0.015,0.046,0.03,0.255,0.003,0.239c-0.027-0.02-0.259-0.35-0.335-0.367c-0.078-0.02-0.114,0.03-0.216,0.121     c-0.101,0.093-0.184,0.278-0.184,0.278c-0.052,0.117-0.132,0.265-0.156,0.292c-0.026,0.028-0.095,0.013-0.141,0.015     c-0.047,0.003-0.076-0.045-0.1-0.061c-0.021-0.015-0.039,0.055-0.024,0.107c0.015,0.053,0.024,0.036,0.083,0.082     c0.059,0.043,0.027,0.043,0.074,0.108c0.046,0.061,0.07,0.049,0.107,0.029c0.037-0.017,0.028-0.085,0.042-0.113     c0.016-0.029,0.151-0.242,0.262-0.287c0.11-0.048,0.169-0.187,0.181-0.226c0.012-0.04,0.031-0.014,0.046,0.017     c0.015,0.032,0.022,0.105,0.022,0.105c0.037,0.291,0.127,0.261,0.078,0.384c-0.051,0.123-0.139,0.372-0.139,0.372     c-0.028,0.102-0.068,0.142-0.09,0.222c-0.02,0.08-0.02,0.116-0.02,0.188c0,0.073-0.016,0.42-0.013,0.537     c0.003,0.116-0.053,0.283-0.061,0.255c-0.005-0.014-0.028-0.016-0.028-0.016s-0.005,0.005-0.01,0.015c0-0.01,0-0.018-0.002-0.025     c-0.003-0.014-0.013-0.023-0.022-0.022c-0.007,0.001-0.013,0.007-0.013,0.018c0,0.017,0.01,0.059,0.017,0.08     c0,0.002,0,0.004-0.002,0.005v0.002c-0.01-0.005-0.027-0.014-0.04-0.031l-0.009,0.006c0.007,0.011,0.017,0.018,0.024,0.025     c-0.005,0-0.009,0.001-0.014,0.003c-0.018,0.005-0.031,0.018-0.034,0.029c-0.001,0.006-0.001,0.013,0.003,0.017     c0.005,0.007,0.01,0.008,0.015,0.008c0.006,0,0.013-0.003,0.022-0.008c0.005-0.003,0.008-0.005,0.011-0.007l0.004-0.002     c-0.003,0.003-0.004,0.005-0.006,0.007c-0.013,0.019-0.034,0.048-0.065,0.072c-0.03,0.025-0.017,0.019-0.043,0.031     c-0.024,0.011-0.021,0.024-0.039,0.041c-0.019,0.014-0.04,0.045-0.04,0.045s0.083,0.075,0.139,0.053     c0.056-0.022,0.157-0.095,0.212-0.095c0.055,0,0.095,0,0.144-0.026c0.049-0.024,0.034-0.071,0.019-0.105     c-0.015-0.034-0.04-0.057-0.043-0.089c-0.004-0.03-0.004-0.035-0.006-0.043c-0.004-0.009,0.045-0.256,0.105-0.394     c0.059-0.137,0.031-0.322,0.031-0.322c-0.025-0.098,0.03-0.158,0.03-0.158c0.127-0.153,0.246-0.407,0.286-0.42     c0.04-0.01,0.127-0.056,0.144-0.083c0.02-0.027,0.05-0.033,0.086-0.055c0.038-0.021,0.063-0.021,0.063-0.021     c0.016-0.006,0.027-0.034,0.031-0.053c0.005-0.021,0.038-0.034,0.05-0.051c0.011-0.02,0.031-0.058,0.051-0.09     c0.017-0.03,0.005-0.078,0.008-0.11c0.005-0.032,0.018-0.04,0.018-0.04c0.012-0.035,0.004-0.155,0.01-0.187     c0.006-0.034,0.023-0.022,0.036-0.078c0.014-0.055,0.016-0.177,0.027-0.159c0.01,0.018,0.028,0.043,0.05,0.152     c0.023,0.108,0.047,0.134,0.047,0.134c0.039,0.075,0.232,0.305,0.232,0.305s-0.005,0.04,0.014,0.104     c0.019,0.065,0.021,0.033,0.028,0.048c0.006,0.013,0.009,0.022,0.009,0.057c0,0.036,0.002,0.049,0.017,0.049     c0.016,0,0.016-0.068,0.018-0.073c0.003-0.005,0.019,0,0.017,0.008c-0.002,0.01,0.003,0.026,0.002,0.044     c-0.002,0.021-0.011,0.021-0.016,0.031c-0.005,0.009,0.001,0.016,0.022,0.014c0.02-0.003,0.017-0.018,0.02-0.036     c0.004-0.017,0.005-0.053,0.009-0.046c0.003,0.004,0.009,0.018,0.011,0.031c0.001,0.016,0.003,0.008,0.001,0.037     c-0.001,0.025-0.012,0.04,0.01,0.045c0.022,0.007,0.022-0.016,0.022-0.016c0.004-0.012,0.011-0.06,0.009-0.073     c-0.002-0.013-0.013-0.031-0.019-0.041c-0.005-0.011,0.01-0.007,0.019,0.004c0.008,0.014,0.015,0.028,0.02,0.066     c0.004,0.038,0,0.038,0.021,0.03c0.02-0.009,0.013-0.068,0.008-0.091c-0.005-0.022-0.016-0.06-0.028-0.075     c-0.012-0.015-0.005-0.03,0.009-0.022c0.014,0.008,0.036,0.024,0.049,0.035c0.014,0.009,0.038,0.003,0.044-0.007     C380.513,440.341,380.498,440.332,380.498,440.332z M378.633,441.835L378.633,441.835c0.001,0,0.007,0.003,0.009,0.015     c0.003,0.011,0.001,0.031,0,0.048c-0.004-0.023-0.01-0.048-0.01-0.056C378.632,441.837,378.633,441.835,378.633,441.835z      M378.607,441.959c-0.003,0.002-0.006,0.003-0.011,0.006c-0.015,0.009-0.017,0.008-0.02,0.004c-0.001-0.001-0.001-0.005,0-0.007     c0.001-0.007,0.011-0.017,0.023-0.021c0.015-0.002,0.029-0.001,0.034-0.001c-0.001,0.005-0.003,0.007-0.003,0.008     C378.62,441.951,378.613,441.954,378.607,441.959z M379.625,438.931c-0.004-0.007-0.005-0.034-0.003-0.051     c0.003-0.016,0.016-0.031,0.022-0.038c0.007-0.005,0.012,0,0.01,0.011c-0.002,0.01,0,0.018,0,0.039     c0.001,0.021-0.007,0.015-0.012,0.025C379.638,438.923,379.625,438.931,379.625,438.931z"/></g></g><g><path fill="#0089CF" d="M354.382,557.55c0,1.815-1.471,3.286-3.285,3.286c-1.815,0-3.285-1.471-3.285-3.286    c0-1.813,1.471-3.283,3.285-3.283C352.911,554.267,354.382,555.738,354.382,557.55z"/></g><g><g><path fill="#FFFFFF" d="M351.89,559.004c-1.212,0.587-2.818,0.863-2.003,0.994c0.396,0.065-0.06,0.246-0.485,0.363     c0.162,0.073,0.393,0.206,0.393,0.206c0.547-0.199,0.854-0.545,0.455-0.601c-0.848-0.112,0.572-0.354,1.742-0.921     c1.79-0.869,2.052-2.224,2.039-2.973c0,0-0.097-0.138-0.111-0.161C354.018,556.414,353.741,558.108,351.89,559.004z"/></g></g><g><g><path fill="#FFFFFF" d="M351.035,560.836c0.828-0.48,1.154-1.051,0.381-1.028c-0.479,0.012,0.63-0.721,1.013-1.044l-0.513,0.321     c-0.614,0.425-1.335,0.836-0.586,0.82c0.527-0.01-0.311,0.825-1.022,0.841L351.035,560.836z"/></g></g><g><g><path fill="#FFFFFF" d="M352.058,560.702c0.67-0.32,1.163-1.16,0.636-1.208c-0.51-0.047-0.413-0.411,0.205-1.126l0.3-0.26     c-0.541,0.635-0.821,1.159-0.31,1.188c0.447,0.025,0.438,0.494,0.235,0.838l-0.665,0.413L352.058,560.702z"/></g></g><g><g><g><path fill="#FFFFFF" d="M350.499,557.545c-0.034,0.068-0.022,0.343,0.064,0.568c0.087,0.229,0.34,0.623,0.364,0.739      c-0.006,0.089-0.016,0.12,0.037,0.15c0.052,0.03,0.05,0.085,0.074,0.2c0.315-0.058,0.61-0.195,0.716-0.264      c-0.033-0.059-0.134-0.053-0.208-0.051c-0.146,0.005-0.209-0.036-0.296-0.047c-0.07-0.007-0.106-0.082-0.135-0.131      c-0.028-0.051-0.11-0.295-0.132-0.517c-0.022-0.223-0.056-0.573-0.085-0.637C350.869,557.491,350.652,557.231,350.499,557.545z"/></g></g></g><g><g><g><path fill="#FFFFFF" clip-rule="evenodd" d="M350.263,555.575c-0.002-0.001-0.004-0.002-0.005-0.002      c-0.011-0.001-0.026,0.002-0.036,0.002c-0.018,0.001-0.037,0.003-0.054,0c-0.024-0.002-0.037-0.021-0.041-0.044      c-0.003-0.009,0-0.022-0.003-0.03c-0.004-0.011-0.015-0.014-0.021-0.023c-0.01-0.01,0-0.024-0.005-0.031      c-0.003-0.005-0.014,0-0.018-0.005c-0.004-0.005-0.002-0.012-0.001-0.017c0.003-0.017-0.002-0.035-0.014-0.042      c-0.012-0.006-0.028-0.005-0.038-0.014c-0.009-0.005-0.007-0.017-0.005-0.027c0.001-0.011,0.006-0.02,0.008-0.03      c0.004-0.011,0.005-0.02,0.011-0.032c0.005-0.011,0.01-0.021,0.014-0.033c0.01-0.024,0.005-0.045-0.005-0.069      c-0.008-0.02,0.003-0.043,0.003-0.064c0.001-0.021-0.003-0.043,0-0.065c0.002-0.02,0.009-0.036,0.014-0.048      c0.004-0.013,0-0.015,0-0.015s-0.002,0.002-0.005,0.006c-0.003,0.004-0.02,0.011-0.025,0.011s0.002-0.006,0.002-0.006      s-0.009,0.001-0.017,0.007c-0.008,0.003-0.015,0.001-0.013-0.01c0.002-0.01-0.005-0.004-0.007,0      c-0.002,0.003-0.005,0.003-0.002-0.004c0.005-0.008-0.004-0.016,0.003-0.027c0.006-0.012-0.005-0.012-0.008-0.019      c-0.002-0.008-0.002,0-0.005-0.009c-0.003-0.008,0.004-0.011,0.01-0.013c0.008-0.001,0.008-0.001-0.001-0.007      c-0.007-0.007,0-0.012,0-0.012s0.008-0.002,0.014-0.003c0.007,0-0.006-0.004-0.006-0.004s0.01,0.002,0.013-0.001      c0.005-0.003-0.02-0.004-0.02-0.008c0-0.004,0.01,0.001,0.016,0.003c0.005,0.002,0.006-0.003,0.013,0      c0.006,0.003,0.008,0.004,0.017-0.003c0.008-0.008-0.016-0.009-0.021-0.009s-0.003,0.001-0.008-0.003      c-0.005-0.002-0.013,0-0.013,0s0.008-0.005,0.016-0.006c0.006-0.002,0.022,0.006,0.036,0.01      c0.017,0.002,0.017-0.007,0.028-0.011c0.012-0.006,0.026-0.013,0.032-0.015c0.006-0.002-0.008-0.004-0.018-0.001      c-0.008,0.002-0.011,0.005-0.011,0.005s0.01-0.01,0.018-0.011c0.008-0.002,0.009-0.003,0.01-0.006      c0.001-0.003,0.014-0.003,0.019-0.006c0.005-0.001,0.005-0.001,0.012-0.001c0.009-0.002,0.01-0.005,0.013-0.008      c0.004-0.002-0.011-0.003-0.011-0.003s0.012-0.004,0.018-0.005c0.007-0.002,0.017-0.006,0.017-0.006s0.015-0.002,0.026-0.008      c0.011-0.005-0.023-0.003-0.023-0.003s0.01-0.004,0.03-0.007c0.018-0.004,0.021-0.011,0.029-0.017      c0.008-0.005,0.033-0.005,0.037-0.005c0.004-0.001,0.011-0.003,0.022,0c0.011,0.003,0.008-0.001,0.011-0.004      c0.004-0.003,0.002,0.005,0.009,0.005c0.006,0,0.002-0.004-0.002-0.009c-0.004-0.007-0.006-0.008-0.006-0.008      s0.002,0,0.007,0.005c0.004,0.004,0.007,0.003,0.015,0.005c0.005,0.003,0.01,0.011,0.016,0.013      c0.004,0.003,0.001-0.004-0.004-0.008c-0.003-0.006-0.003-0.009-0.005-0.02c-0.001-0.009,0.006,0.003,0.006,0.003      s0,0,0.006-0.007c0.006-0.006,0.018-0.004,0.024-0.002c0.007,0.001,0.01,0.005,0.014,0.009c0.005,0.006,0.014,0.004,0.014,0.004      s-0.01,0-0.019,0s-0.012,0.004-0.014,0.012c-0.002,0.007,0.012,0.011,0.012,0.011s0.006-0.014,0.016-0.018      c0.01-0.006,0.031,0.004,0.054,0.009c0.022,0.004,0.021,0.002,0.046,0.005c0.025,0.003,0.046,0.015,0.083,0.049      c0.038,0.036,0.051,0.081,0.07,0.109c0.02,0.03,0.027,0.048,0.035,0.056c0.007,0.007,0.003,0.019,0.014,0.047      c0.01,0.028,0.007,0.042,0.008,0.07c0.001,0.025,0.004,0.04,0.007,0.05c0.004,0.013-0.003,0.016-0.003,0.016      s0.002,0.005,0,0.018c-0.001,0.011-0.006,0.041-0.01,0.052c-0.003,0.01-0.002,0.04,0.006,0.061      c0.008,0.022-0.009,0.019-0.009,0.037c0,0.009,0.009,0.031,0.025,0.067c-0.047,0.02-0.039-0.016-0.08-0.006      c-0.001,0.017-0.007,0.041,0.036,0.088c0.17-0.044,0.245-0.044,0.398,0.002c0.221-0.028,0.418,0.048,0.513,0.076      c0.053,0.015,0.125,0.068,0.347,0.12c0.166,0,0.396,0.121,0.48,0.163c0.088,0.041,0.172,0.092,0.257,0.141      c0.038,0.021,0.076,0.044,0.115,0.064c0.008,0.006,0.018,0.013,0.027,0.016c0.021,0.008,0.047,0.012,0.069,0.018      c0.017,0.006,0.033,0.008,0.049,0.013c0.038,0.012,0.082,0.019,0.118,0.036c0.025,0.011,0.048,0.027,0.07,0.043      c0.009,0.008,0.017,0.016,0.027,0.022c0.008,0.005,0.018,0.008,0.025,0.018c0.009,0.013,0.013,0.031,0.02,0.045      c0.008,0.019,0.018,0.034,0.029,0.049c0.009,0.015,0.032,0.044,0.014,0.062c0.009,0.012,0.026,0.031,0.009,0.044      c0.009,0.011,0,0.018-0.003,0.028c-0.004,0.011-0.004,0.018-0.021,0.018c-0.009,0-0.019-0.006-0.025-0.012      c-0.004-0.004-0.005-0.009-0.009-0.012c-0.039-0.04-0.086-0.096-0.141-0.121c-0.079-0.031-0.148-0.018-0.148-0.018      c-0.034,0.004-0.002,0.085,0.004,0.106c0.018,0.018,0.018,0.021,0.035,0.036c0.015,0.015,0.022,0.038,0.018,0.061      c-0.006,0.027-0.036,0.006-0.052-0.004c-0.015-0.008-0.039-0.018-0.047-0.034c-0.004-0.009-0.007-0.018-0.01-0.027      c-0.009-0.02-0.022-0.037-0.032-0.056c-0.012-0.02-0.028-0.04-0.036-0.065c-0.007-0.017-0.01-0.036-0.014-0.057      c-0.001-0.011-0.003-0.02-0.008-0.028c-0.007-0.013-0.021-0.026-0.032-0.035c-0.032-0.022-0.07-0.038-0.11-0.048      c-0.106-0.026-0.215-0.062-0.328-0.082c-0.198-0.032-0.324-0.078-0.421-0.151c-0.111,0.01-0.171-0.006-0.261-0.025      c-0.186-0.039-0.24-0.022-0.462-0.054c-0.033,0.085-0.049,0.167-0.113,0.275c-0.007,0.027-0.014,0.171-0.056,0.277      c-0.039,0.108-0.085,0.476-0.066,0.602c0.248,0.022,0.777,0.097,0.837,0.098c0.007,0.009,0.005,0.031,0.005,0.031      s0.214,0.024,0.277,0.055c0.039,0.019,0.073,0.045,0.106,0.074c0.032,0.031,0.05,0.121,0.05,0.121s0.025,0.124,0.027,0.156      c0.004,0.093,0.021,0.443,0.025,0.537c0.004,0.096,0.031,0.27,0.031,0.27s0.081,0.142,0.256,0.128      c0.07-0.015,0.128-0.01,0.163-0.008c0.031,0.003,0.043,0.004,0.038,0.029c-0.003,0.026-0.576,0.262-0.576,0.262      s-0.031-0.043-0.049-0.103c0.005-0.043,0-0.084-0.02-0.101c-0.015-0.011-0.024-0.018-0.028-0.058      c-0.009-0.082,0.011-0.102-0.038-0.274c-0.09-0.32-0.176-0.368-0.14-0.639c-0.073,0.005-0.114,0.042-0.164,0.05      c-0.013,0.059-0.042,0.148-0.042,0.148s-0.773-0.03-1.208-0.047c-0.434,0.015-0.491-0.231-0.497-0.452      c0.009-0.069,0.007-0.25,0.054-0.262c0.005-0.055,0.019-0.081,0.02-0.123c0-0.155,0.009-0.29,0.009-0.29      s-0.026-0.155-0.017-0.263c-0.105,0.247-0.114,0.35-0.28,0.59c-0.005,0.043-0.032,0.136-0.044,0.178      c-0.07,0.156-0.156,0.308-0.225,0.465c-0.013,0.03-0.026,0.06-0.036,0.093c-0.005,0.012-0.014,0.03-0.014,0.044      c-0.002,0.024,0.02,0.046,0.023,0.069c0.004,0.033-0.003,0.056-0.018,0.084c-0.028,0.055-0.024,0.07-0.015,0.128      c0.003,0.019,0.005,0.039,0.005,0.057c0.001,0.023-0.005,0.109-0.048,0.09c-0.017-0.006-0.016-0.066-0.016-0.082      c0-0.028-0.011-0.045-0.011-0.077c-0.029,0.058-0.068,0.112-0.077,0.143c-0.008,0.025-0.013,0.078-0.053,0.091      c-0.015,0.025-0.04,0.041-0.049,0.023c-0.017,0.008-0.021-0.009-0.023-0.015c-0.004-0.014,0.003-0.033,0.003-0.045      c0-0.03,0.036-0.169,0.048-0.204c0.014-0.037,0.034-0.149,0.05-0.191c0.005-0.015,0.014-0.029,0.015-0.043      c0.002-0.029,0.013-0.056,0.021-0.082c0.059-0.217,0.07-0.45,0.157-0.658c0.028-0.067,0.058-0.127,0.086-0.176      c0.127-0.219,0.056-0.404,0.239-0.695c0.009-0.143,0.027-0.187,0.059-0.259c0.04-0.092,0.127-0.133,0.197-0.154      c0.133-0.038,0.154-0.086,0.255-0.101c0.004-0.001-0.004-0.019-0.006-0.021C350.273,555.582,350.268,555.576,350.263,555.575z" fill-rule="evenodd"/></g></g></g><g><g><g><path fill="#FFFFFF" d="M351.528,559.19c-0.493,0.209-1.353,0.378-1.91,0.397c-0.122-0.005-0.237-0.028-0.003-0.083      c1.248-0.283,3.183-0.677,3.96-2.073C353.454,558.302,352.176,558.916,351.528,559.19z"/></g></g></g><g><g><path fill="#FFFFFF" d="M354.278,558.373c-0.02-0.125-0.073-0.177-0.448-0.065c-0.525,0.16,0.003-0.758,0.138-1.569     c-0.035,0.114-0.167,0.534-0.244,0.696c-0.258,0.536-0.489,1.267-0.095,1.127c0.517-0.183,0.503,0.169,0.34,0.639"/></g></g><g><g><g><path fill="#0089CF" d="M365.388,470.7c0,1.812-1.471,3.285-3.286,3.285c-1.813,0-3.284-1.472-3.284-3.285      c0-1.813,1.472-3.285,3.284-3.285C363.917,467.415,365.388,468.886,365.388,470.7z"/></g></g></g><g><path fill="#FFFFFF" d="M363.21,471.048c0,0-0.13,0.007-0.209-0.052c-0.078-0.056-0.112-0.122-0.174-0.129    c-0.063-0.005-0.096,0.04-0.13,0.101c-0.033,0.063-0.113,0.095-0.146,0.095c-0.034,0-0.22,0.101-0.276,0.101    c-0.056,0-0.22,0.029-0.338,0.123c-0.118,0.096-0.102-0.095-0.113-0.15c-0.011-0.058-0.04-0.237-0.069-0.338    c-0.028-0.102,0.074-0.039,0.057-0.266c0,0,0.011-0.061-0.062-0.186c0,0,0.028-0.038,0.017-0.078    c-0.012-0.04-0.097-0.14-0.118-0.338c-0.022-0.198-0.034-0.309-0.04-0.371c-0.006-0.061-0.012-0.068,0.102-0.046    c0.113,0.023,0.187,0.029,0.253,0.017c0,0,0,0.101,0.069,0.232c0.066,0.13,0.079,0.277,0.066,0.338    c-0.01,0.062-0.01,0.068-0.039,0.107c0,0-0.035,0.014-0.035,0.052c0,0.035-0.002,0.035,0.006,0.052    c0.005,0.015,0.017,0.059,0.012,0.073c-0.004,0.012,0.014,0.018,0.031,0.019c0.018,0.002,0.015,0.028,0.05,0.016    c0.036-0.01,0.045,0.018,0.07-0.014c0.026-0.031,0.043-0.034,0.043-0.059c0-0.025-0.022-0.134-0.022-0.193    c0,0,0.008-0.373-0.019-0.537c-0.028-0.166-0.032-0.166-0.061-0.188c-0.029-0.023-0.203-0.149-0.348-0.187    c0,0-0.048-0.017-0.121-0.024c0,0-0.13-0.131-0.288-0.122c0,0-0.128-0.048-0.152-0.095c-0.003-0.007-0.005-0.017-0.008-0.025    c0.023-0.117,0.111-0.243,0.068-0.385c-0.039-0.126-0.225-0.201-0.38-0.136c-0.027,0.012-0.03,0.039-0.053,0.053    c-0.017,0.012-0.039,0.004-0.05,0.02c0.003,0.008,0.006,0.018,0.01,0.025c0.01,0.008,0.035,0.013,0.042,0.022    c-0.018,0.039-0.037,0.078-0.053,0.118c-0.007,0.025,0.008,0.033,0.01,0.056c-0.019,0.02-0.036,0.04-0.056,0.061    c0.002,0.007,0.004,0.013,0.005,0.02c0.013,0.004,0.025,0.008,0.038,0.014c0.002,0.004,0.003,0.007,0.004,0.012    c-0.005,0.01-0.011,0.012-0.013,0.026c0.007,0.007,0.014,0.012,0.018,0.018c-0.003,0.015-0.01,0.018-0.018,0.03    c0.008,0.009,0.015,0.011,0.017,0.027c-0.042,0.07,0.056,0.074,0.115,0.087c0.001,0.003,0.002,0.005,0.002,0.005    c0.003,0.035-0.014,0.071-0.056,0.077c-0.043,0.007-0.146,0.049-0.17,0.118c-0.025,0.068-0.029,0.094-0.002,0.178    c0.026,0.084,0.026,0.107,0.026,0.121c0,0.014-0.024,0.044-0.004,0.139c0.02,0.096,0.032,0.111,0.002,0.115    c-0.03,0.006-0.092,0.044-0.164,0.034c-0.073-0.007-0.134,0.005-0.154-0.034c-0.02-0.038,0.003-0.087-0.047-0.097    c-0.05-0.007-0.047,0.009-0.07,0c-0.023-0.006-0.052-0.033-0.076-0.021c-0.022,0.01-0.022,0.017-0.026,0.034    c-0.005,0.016-0.034,0.015-0.034,0.037c0,0.022-0.004,0.015,0,0.048c0.006,0.034-0.015,0.05-0.002,0.08    c0.015,0.029,0.066,0.033,0.102,0.042c0.036,0.006,0.093,0.013,0.116,0.022c0.022,0.008,0.298,0.109,0.353,0.113    c0.055,0.004,0.127,0.018,0.154-0.012c0,0,0.059-0.076,0.085-0.11c0.028-0.033,0.05,0.073,0.053,0.11    c0.002,0.038,0.077,0.254,0.099,0.305c0.023,0.053,0.037,0.106,0.03,0.162c0,0,0.007,0.023-0.022,0.051    c-0.03,0.028-0.378,0.403-0.482,0.566c0,0-0.03,0.049-0.051,0.063c-0.02,0.016-0.045,0.043-0.046,0.085c0,0,0.004,0.076,0,0.103    c-0.005,0.026-0.043,0.243-0.043,0.26c0,0.018-0.161,0.584-0.189,0.617c-0.027,0.032-0.044,0.087-0.066,0.072    c-0.023-0.016-0.038-0.043-0.056-0.027c-0.018,0.016-0.031,0.066-0.077,0.091c0,0-0.055,0.032-0.125,0.042    c-0.069,0.008-0.131-0.003-0.17-0.004c-0.038-0.003-0.066,0.001-0.077,0.057c-0.01,0.058-0.009,0.038,0.018,0.064    c0.027,0.028,0.116,0.113,0.24,0.123c0.123,0.007,0.185,0,0.215,0.01c0.033,0.01,0.121,0.03,0.121,0.03s0.123,0.007,0.129-0.1    c0.006-0.109-0.034-0.14,0.022-0.248c0.056-0.107,0.113-0.304,0.22-0.477c0.107-0.176,0.117-0.311,0.117-0.452    c0-0.141,0.096-0.129,0.119-0.141c-0.008,0.005-0.023,0.012-0.023,0.012s0.31-0.108,0.395-0.227c0,0,0.112,0.199,0.209,0.311    c0.095,0.113,0.09,0.168,0.146,0.221c0.056,0.05,0.085,0.1,0.202,0.042c0.119-0.055,0.377-0.225,0.547-0.327    c0.169-0.101,0.36-0.14,0.36-0.14s0.011,0.039,0.057,0.039c0.044,0,0.044-0.017,0.192-0.017c0.146,0,0.27,0.035,0.343,0.012    C363.368,471.222,363.436,471.144,363.21,471.048z"/></g><g><path fill="#FFFFFF" d="M365.079,471.048c0,0-0.13,0.007-0.209-0.052c-0.078-0.056-0.112-0.122-0.173-0.129    c-0.063-0.005-0.096,0.04-0.13,0.101c-0.034,0.063-0.113,0.095-0.146,0.095c-0.034,0-0.221,0.101-0.276,0.101    c-0.057,0-0.219,0.029-0.338,0.123c-0.119,0.096-0.102-0.095-0.113-0.15c-0.01-0.058-0.04-0.237-0.068-0.338    c-0.028-0.102,0.074-0.039,0.057-0.266c0,0,0.01-0.061-0.063-0.186c0,0,0.028-0.038,0.018-0.078    c-0.012-0.04-0.096-0.14-0.119-0.338c-0.021-0.198-0.033-0.309-0.04-0.371c-0.006-0.061-0.011-0.068,0.103-0.046    c0.112,0.023,0.186,0.029,0.253,0.017c0,0,0,0.101,0.068,0.232c0.067,0.13,0.079,0.277,0.067,0.338    c-0.011,0.062-0.011,0.068-0.039,0.107c0,0-0.035,0.014-0.035,0.052c0,0.035-0.002,0.035,0.005,0.052    c0.006,0.015,0.018,0.059,0.014,0.073c-0.006,0.012,0.013,0.018,0.031,0.019c0.018,0.002,0.013,0.028,0.05,0.016    c0.035-0.01,0.044,0.018,0.07-0.014c0.024-0.031,0.043-0.034,0.043-0.059c0-0.025-0.023-0.134-0.023-0.193    c0,0,0.008-0.373-0.018-0.537c-0.028-0.166-0.032-0.166-0.061-0.188c-0.03-0.023-0.203-0.149-0.349-0.187    c0,0-0.046-0.017-0.119-0.024c0,0-0.131-0.131-0.289-0.122c0,0-0.128-0.048-0.152-0.095c-0.003-0.007-0.007-0.017-0.009-0.025    c0.022-0.117,0.112-0.243,0.068-0.385c-0.038-0.126-0.224-0.201-0.38-0.136c-0.028,0.012-0.03,0.039-0.052,0.053    c-0.018,0.012-0.039,0.004-0.052,0.02c0.003,0.008,0.006,0.018,0.011,0.025c0.01,0.008,0.034,0.013,0.042,0.022    c-0.018,0.039-0.036,0.078-0.053,0.118c-0.007,0.025,0.008,0.033,0.011,0.056c-0.018,0.02-0.037,0.04-0.056,0.061    c0.002,0.007,0.003,0.013,0.004,0.02c0.013,0.004,0.026,0.008,0.038,0.014c0.002,0.004,0.004,0.007,0.005,0.012    c-0.006,0.01-0.01,0.012-0.011,0.026c0.007,0.007,0.012,0.012,0.018,0.018c-0.004,0.015-0.01,0.018-0.018,0.03    c0.007,0.009,0.013,0.011,0.016,0.027c-0.042,0.07,0.056,0.074,0.114,0.087c0.002,0.003,0.003,0.005,0.003,0.005    c0.003,0.035-0.014,0.071-0.056,0.077c-0.044,0.007-0.145,0.049-0.17,0.118c-0.026,0.068-0.03,0.094-0.002,0.178    c0.027,0.084,0.027,0.107,0.027,0.121c0,0.014-0.025,0.044-0.004,0.139c0.019,0.096,0.031,0.111,0.002,0.115    c-0.03,0.006-0.093,0.044-0.165,0.034c-0.072-0.007-0.134,0.005-0.153-0.034c-0.02-0.038,0.002-0.087-0.048-0.097    c-0.05-0.007-0.047,0.009-0.069,0c-0.023-0.006-0.053-0.033-0.075-0.021c-0.023,0.01-0.023,0.017-0.028,0.034    c-0.005,0.016-0.033,0.015-0.033,0.037c0,0.022-0.005,0.015,0,0.048c0.005,0.034-0.017,0.05-0.002,0.08    c0.013,0.029,0.066,0.033,0.101,0.042c0.037,0.006,0.093,0.013,0.115,0.022c0.023,0.008,0.299,0.109,0.354,0.113    c0.053,0.004,0.126,0.018,0.154-0.012c0,0,0.058-0.076,0.086-0.11c0.027-0.033,0.049,0.073,0.051,0.11    c0.003,0.038,0.078,0.254,0.101,0.305c0.022,0.053,0.035,0.106,0.029,0.162c0,0,0.007,0.023-0.022,0.051    c-0.03,0.028-0.379,0.403-0.482,0.566c0,0-0.029,0.049-0.05,0.063c-0.02,0.016-0.045,0.043-0.047,0.085c0,0,0.005,0.076,0,0.103    c-0.004,0.026-0.043,0.243-0.043,0.26c0,0.018-0.16,0.584-0.188,0.617c-0.027,0.032-0.043,0.087-0.065,0.072    c-0.023-0.016-0.04-0.043-0.057-0.027c-0.018,0.016-0.031,0.066-0.079,0.091c0,0-0.053,0.032-0.123,0.042    c-0.069,0.008-0.13-0.003-0.17-0.004c-0.038-0.003-0.065,0.001-0.078,0.057c-0.011,0.058-0.008,0.038,0.02,0.064    c0.027,0.028,0.115,0.113,0.24,0.123c0.124,0.007,0.185,0,0.217,0.01c0.032,0.01,0.119,0.03,0.119,0.03s0.123,0.007,0.129-0.1    c0.005-0.109-0.034-0.14,0.023-0.248c0.055-0.107,0.112-0.304,0.218-0.477c0.108-0.176,0.119-0.311,0.119-0.452    c0-0.141,0.095-0.129,0.118-0.141c-0.008,0.005-0.023,0.012-0.023,0.012s0.31-0.108,0.395-0.227c0,0,0.115,0.199,0.209,0.311    c0.096,0.113,0.09,0.168,0.147,0.221c0.055,0.05,0.084,0.1,0.202,0.042c0.118-0.055,0.378-0.225,0.547-0.327    c0.169-0.101,0.361-0.14,0.361-0.14s0.01,0.039,0.055,0.039c0.045,0,0.045-0.017,0.192-0.017c0.146,0,0.27,0.035,0.343,0.012    C365.236,471.222,365.304,471.144,365.079,471.048z"/></g><g><path fill="#0089CF" d="M384.004,510.473c-1.811,0-3.285,1.474-3.285,3.284c0,1.812,1.474,3.285,3.285,3.285    c1.812,0,3.285-1.473,3.285-3.285C387.289,511.947,385.816,510.473,384.004,510.473z"/></g><g><path fill="#FFFFFF" d="M385.684,515.422c-0.025-0.039-0.043-0.082-0.077-0.097c-0.066-0.037-0.124-0.112-0.137-0.197    c-0.012-0.087-0.098-0.118-0.15-0.06c-0.051,0.056-0.092,0.098-0.092,0.098s-0.012-0.066-0.035-0.082    c-0.051,0.032-0.152,0.127-0.188,0.098c-0.065-0.052,0.053-0.193,0.086-0.325c0.034-0.133-0.003-0.276-0.101-0.387    c0.08-0.054,0.164-0.061,0.236-0.085c-0.026-0.054-0.101-0.167-0.119-0.193c0.068-0.066,0.172-0.144,0.239-0.227    c0.068-0.086,0.115-0.184,0.103-0.217c-0.01-0.034-0.098-0.112-0.139-0.165c-0.04-0.05-0.112-0.114-0.112-0.114l0.033-0.058    c0,0-0.168-0.086-0.259-0.117c-0.032-0.01-0.079-0.023-0.131-0.043c-0.059-0.026-0.192-0.096-0.225-0.177    c-0.028-0.064-0.025-0.139,0.046-0.219c0.042-0.046,0.055-0.157,0.033-0.233c0.013-0.008,0.032,0.001,0.062,0.044    c0.07,0.104,0.185,0.181,0.313,0.177c-0.018-0.012-0.064-0.042-0.079-0.077c0.064,0.036,0.158,0.074,0.266,0.073    c0.116,0,0.25-0.039,0.318-0.105c-0.134,0.026-0.309,0.005-0.358-0.059c0.127,0.046,0.274,0.046,0.33,0.02    c-0.186-0.016-0.278-0.049-0.434-0.151c-0.155-0.104-0.363-0.153-0.455-0.032c-0.039-0.043-0.079-0.116-0.207-0.165    c-0.15-0.059-0.36-0.006-0.511,0.077c-0.1,0.056-0.117,0.168-0.117,0.21c0.032-0.031,0.042-0.081,0.085-0.097    c-0.017,0.025-0.077,0.133-0.022,0.23c0.009-0.01,0.017-0.028,0.034-0.028c-0.001,0.044,0.017,0.095,0.03,0.122    c0.013,0.03,0.006,0.036-0.004,0.057c-0.006,0.012-0.018,0.033-0.043,0.061c-0.01,0.009-0.005,0.034,0.007,0.04    c0.014,0.007,0.031,0.01,0.031,0.01s0.01,0.015,0,0.025c-0.011,0.012-0.008,0.033,0.013,0.034c0.02,0.002,0.044-0.009,0.059,0.005    c-0.006,0.03-0.051,0.042-0.037,0.063c0.007,0.014,0.018,0.007,0.029,0.02c-0.002,0.052,0.025,0.111,0.158,0.062    c0.006,0.003,0.008,0.009,0.008,0.017c-0.038,0.047-0.173,0.141-0.188,0.194c-0.015,0.061-0.033,0.136-0.064,0.214    c0.017,0.022,0.03,0.026,0.057,0.023c0.015,0.094,0.023,0.113,0.025,0.19c0.003,0.052,0.006,0.078-0.008,0.11    c-0.012,0.033-0.033,0.01-0.103,0.027c-0.069,0.018-0.159,0.047-0.213,0.055c-0.054,0.006-0.081-0.022-0.119-0.032    c-0.035-0.009-0.063,0.001-0.086-0.006c-0.029-0.007-0.071-0.038-0.089,0.008c-0.048-0.007-0.06,0.042-0.03,0.067    c-0.004,0.01-0.01,0.037,0.021,0.044c-0.004,0.01,0,0.036,0.023,0.038c0.004,0.027,0.024,0.03,0.036,0.032    c0.019,0.039,0.118,0.01,0.181-0.003c0.073,0.005,0.325-0.044,0.447-0.025c0.122,0.018,0.137-0.086,0.141-0.152    c0.055,0.076,0.037,0.471,0.058,0.538c0.039,0.025,0.033,0.02,0.052,0.023c-0.013,0.075-0.031,0.107-0.132,0.244    c-0.101,0.137-0.097,0.222-0.164,0.291c-0.068,0.07-0.248,0.173-0.252,0.195c0.067,0.037,0.104,0.067,0.096,0.165    c-0.007,0.099,0.025,0.126,0.075,0.142c0.004,0.002,0.012,0.003,0.023,0.004c0.017,0.116,0.14,0.45,0.174,0.631    c0.02,0.105-0.025,0.165-0.066,0.187c-0.009,0.007-0.11,0.062-0.187,0.095c-0.041,0.017-0.056,0.023-0.103,0.032    c-0.04,0.01-0.044,0.045-0.016,0.054c0.032,0.009,0.121,0.003,0.145,0.002c0.107-0.003,0.166-0.03,0.276-0.024    c0.131,0.006,0.17,0.035,0.209-0.033c0.041-0.059-0.029-0.136-0.04-0.237c-0.014-0.119,0-0.255-0.014-0.411    c-0.009-0.107-0.037-0.178-0.054-0.242c0.159,0.023,0.334,0.048,0.429,0.055c0.197,0.017,0.396,0.024,0.462-0.256    c0.054-0.23,0.238-0.085,0.28-0.069c0.041,0.017,0.147,0.072,0.224,0.049C385.71,515.485,385.748,515.439,385.684,515.422z     M384.925,513.651c0,0,0.085,0.035,0.108,0.061c0.017-0.008,0.03-0.026,0.03-0.026s0.12,0.049,0.147,0.078    c-0.002,0.05-0.087,0.127-0.201,0.314C384.964,514.046,384.915,513.769,384.925,513.651z"/></g><g><path fill="#FFFFFF" d="M384.444,511.319c-0.196-0.13-0.512-0.041-0.667,0.226c-0.127,0.215-0.105,0.48,0.023,0.673l-0.041,0.021    c0.003,0.013,0.018,0.023,0.031,0.021c-0.363,0.512-0.507,1.23-0.365,1.79c-0.209-0.298-0.396-0.93-0.34-1.335    c0.008,0.01,0.023,0.015,0.037,0.007l-0.015-0.045c0.249-0.042,0.405-0.202,0.489-0.471c0.093-0.296-0.066-0.569-0.297-0.617    c-0.106-0.024-0.218,0.008-0.311,0.076c-0.034-0.25-0.229-0.422-0.436-0.414c-0.237,0.008-0.438,0.27-0.407,0.577    c0.025,0.245,0.199,0.449,0.416,0.527l-0.019,0.041c0.01,0.01,0.026,0.01,0.036,0c0.01,0.604,0.38,1.348,0.875,1.757l0.015,0.042    c0.048,0.163,0.083,0.268,0.134,0.336c0,0.093-0.019,0.181-0.061,0.248l0.031,0.02c0.04-0.064,0.06-0.146,0.064-0.229    c0.016,0.013,0.033,0.024,0.052,0.032c-0.012,0.04-0.03,0.081-0.056,0.125l0.031,0.019c0.028-0.047,0.046-0.089,0.059-0.129    c0.022,0.008,0.046,0.014,0.075,0.018l0.005-0.037c-0.025-0.004-0.048-0.008-0.069-0.016c0.037-0.156-0.035-0.28-0.232-0.438    c-0.006-0.006-0.012-0.014-0.018-0.021l-0.002-0.007c-0.177-0.56-0.038-1.313,0.337-1.838l0.002,0.001    c0.003,0.013,0.016,0.022,0.031,0.02l0.005-0.047c0.245,0.051,0.451-0.036,0.63-0.254    C384.685,511.767,384.641,511.452,384.444,511.319z M382.616,512.397c0.001,0,0.002,0,0.002-0.001    c0.012,0.009,0.028,0.009,0.038-0.001l-0.024-0.041c0.055-0.024,0.102-0.052,0.143-0.086c0.035,0.162,0.134,0.307,0.267,0.396    l-0.029,0.037c0.008,0.012,0.025,0.016,0.037,0.008h0.001c-0.058,0.396,0.107,0.984,0.309,1.309    C382.939,513.603,382.625,512.933,382.616,512.397z M383.515,514.22c0.046,0.064,0.075,0.149,0.086,0.237    C383.572,514.403,383.547,514.325,383.515,514.22z M383.701,514.572c-0.023-0.013-0.042-0.031-0.061-0.052    c-0.001-0.088-0.019-0.174-0.054-0.248C383.687,514.374,383.723,514.466,383.701,514.572z"/></g></g></svg>