<?xml version="1.0" encoding="UTF-8"?><svg xmlns="http://www.w3.org/2000/svg" xmlns:xlink="http://www.w3.org/1999/xlink" contentScriptType="text/ecmascript" zoomAndPan="magnify" contentStyleType="text/css" enable-background="new 0 0 1526.667 783" version="1.1" width="500.0" xml:space="preserve" preserveAspectRatio="xMidYMid meet" viewBox="1192.3573 121.35089 88.48572 470.7901" height="2660.2605" x="0px" y="0px"><g id="DECKS"><path fill="#FFFFFF" id="IDP-Deck04" d="M1273.744,589.141v-19.104h0.004l1.14-4.765   l0.94-4.025l0.671-3.559l0.469-3.354l0.472-3.893l0.266-3.892l0.137-4.161l-0.137-4.362l-0.2-4.764l-0.537-5.167l-0.536-4.632   l-0.673-4.898l-0.871-5.234l-1.14-6.175h-0.004v-332.84c0-19.76-1.244-36.105-3.438-49.857l-67.432-0.108   c-2.183,13.731-3.422,30.256-3.422,49.965v332.84h-0.002l-1.14,6.175l-0.871,5.234l-0.673,4.898l-0.536,4.632l-0.539,5.167   l-0.2,4.764l-0.135,4.362l0.135,4.161l0.268,3.892l0.472,3.893l0.469,3.354l0.671,3.559l0.94,4.025l1.14,4.765h0.002v19.104   H1273.744z" stroke-width="0.6761" stroke="#939598"><path fill="#FFFFFF" id="IDP-Deck04" d="M1273.744,589.141v-19.104h0.004l1.14-4.765   l0.94-4.025l0.671-3.559l0.469-3.354l0.472-3.893l0.266-3.892l0.137-4.161l-0.137-4.362l-0.2-4.764l-0.537-5.167l-0.536-4.632   l-0.673-4.898l-0.871-5.234l-1.14-6.175h-0.004v-332.84c0-19.76-1.244-36.105-3.438-49.857l-67.432-0.108   c-2.183,13.731-3.422,30.256-3.422,49.965v332.84h-0.002l-1.14,6.175l-0.871,5.234l-0.673,4.898l-0.536,4.632l-0.539,5.167   l-0.2,4.764l-0.135,4.362l0.135,4.161l0.268,3.892l0.472,3.893l0.469,3.354l0.671,3.559l0.94,4.025l1.14,4.765h0.002v19.104   H1273.744z" stroke-width="0.6761" stroke="#939598"/></path></g><g id="DECKS_PUBLIC"><path fill="none" d="M1214.464,126.53h44.209v14.075h-5.47l-1.507,2.655l5.816,3.374   l0.79,1.221c-1.514,5.453-0.233,8.322,0.135,9.713c0.367,1.39,2.866,6.723-0.656,13.182c-3.988,7.305-11.595,8.113-21.325,8.113   c-9.729,0-17.336-0.809-21.324-8.113c-3.524-6.459-1.023-11.792-0.656-13.182c0.368-1.392,1.483-4.328-0.03-9.78l0.989-1.065   l6.032-3.392l-1.723-2.855h-5.28V126.53z" stroke-width="0.6761" stroke="#939598"/><g><path fill="#FFFFFF" d="M1246.988,196.144    c-0.062,0.237-0.095,0.487-0.095,0.746c0,0.767,0.296,1.46,0.777,1.963c0.482,0.502,1.146,0.813,1.88,0.813s1.266-0.408,1.7-0.863    c0.437-0.455,0.483-1.028,0.483-1.659c0-0.631-0.325-0.749-0.687-1.127c-0.538-0.562-0.854-0.881-2.44-0.463    c-2.046,0.538-2.529,1.022-3.445,2.584c-0.916,1.562,0.055,3.286,0.989,3.947c0.364,0.271,0.752,0.515,1.175,0.695    c0.685,0.29,1.437,0.449,2.225,0.449c0.79,0,1.54-0.16,2.225-0.449c0.683-0.29,1.298-0.707,1.816-1.224    c0.518-0.517,0.935-1.134,1.225-1.816c0.289-0.685,0.449-1.436,0.449-2.225c0-0.788-0.16-1.54-0.451-2.225    c-0.288-0.684-0.981-2.322-0.981-2.322" stroke-width="0.3381" stroke="#939598" stroke-linejoin="round"/></g><g><line fill="none" x1="1251.535" x2="1254.613" y1="196.474" y2="194.863" stroke="#939598" stroke-width="0.3381"/></g><g><line fill="none" x1="1251.777" x2="1255.172" y1="197.11" y2="196.493" stroke="#939598" stroke-width="0.3381"/></g><g><line fill="none" x1="1251.679" x2="1255.222" y1="197.778" y2="198.217" stroke="#939598" stroke-width="0.3381"/></g><g><line fill="none" x1="1251.517" x2="1254.754" y1="198.407" y2="199.876" stroke="#939598" stroke-width="0.3381"/></g><g><line fill="none" x1="1251.147" x2="1253.813" y1="198.941" y2="201.321" stroke="#939598" stroke-width="0.3381"/></g><g><line fill="none" x1="1250.666" x2="1252.482" y1="199.378" y2="202.419" stroke="#939598" stroke-width="0.3381"/></g><g><line fill="none" x1="1250.052" x2="1250.887" y1="199.604" y2="203.071" stroke="#939598" stroke-width="0.3381"/></g><g><line fill="none" x1="1249.402" x2="1249.169" y1="199.71" y2="203.216" stroke="#939598" stroke-width="0.3381"/></g><g><line fill="none" x1="1248.744" x2="1247.486" y1="199.595" y2="202.842" stroke="#939598" stroke-width="0.3381"/></g><g><line fill="none" x1="1248.129" x2="1245.989" y1="199.298" y2="201.984" stroke="#939598" stroke-width="0.3381"/></g><polyline fill="none" stroke-width="0.3381" points="1253.833,192.967 1256.382,192.183    1257.764,195.606 1257.764,214.079 1263.254,214.079  " stroke="#939598" stroke-linejoin="round"/><path fill="none" d="M1232.059,206.162h-3.216v-11.256   c0,0-10.555-2.1-12.117-2.639l-1.507,2.962v18.795h-5.602" stroke-width="0.3381" stroke="#939598" stroke-linejoin="round"/><path fill="none" d="M1203.033,155.487l5.671-4.04   c1.428-1.776,4.562-3.658,5.741-3.658" stroke-width="0.3381" stroke="#939598" stroke-linejoin="round"/><path fill="none" d="M1258.302,147.856   c1.723,0,4.415,1.598,5.959,3.519l5.904,4.11" stroke-width="0.3381" stroke="#939598" stroke-linejoin="round"/><path fill="none" d="M1269.648,568.181L1269.648,568.181l0.938-1.588l0.807-2.216   l0.67-2.818l0.604-3.423l0.402-4.093l0.335-4.766l0.203-5.302v-3.6v-4.723v-3.69l-0.203-5.302l-0.335-4.697l-0.402-4.094   l-0.604-3.488l-0.67-2.82l-0.807-2.214l-0.938-1.565l0,0l-2.282-1.255l-3.883,0.004l0.022-317.819l6.105-4.362h1.025l0.008-10.663   c0-6.426-0.134-12.482-0.393-18.197" stroke-width="0.6761" stroke="#939598"/><g><rect x="1206.22" stroke-linecap="round" y="192.308" fill="#FFFFFF" width="3.232" stroke-linejoin="round" height="0.851" stroke="#939598" stroke-width="0.3381"/></g><g><rect x="1206.22" stroke-linecap="round" y="193.159" fill="#FFFFFF" width="3.232" stroke-linejoin="round" height="0.851" stroke="#939598" stroke-width="0.3381"/></g><g><rect x="1206.22" stroke-linecap="round" y="194.011" fill="#FFFFFF" width="3.232" stroke-linejoin="round" height="0.851" stroke="#939598" stroke-width="0.3381"/></g><g><rect x="1206.22" stroke-linecap="round" y="194.862" fill="#FFFFFF" width="3.232" stroke-linejoin="round" height="0.852" stroke="#939598" stroke-width="0.3381"/></g><g><rect x="1206.22" stroke-linecap="round" y="195.714" fill="#FFFFFF" width="3.232" stroke-linejoin="round" height="0.851" stroke="#939598" stroke-width="0.3381"/></g><g><rect x="1206.22" stroke-linecap="round" y="196.565" fill="#FFFFFF" width="3.232" stroke-linejoin="round" height="0.852" stroke="#939598" stroke-width="0.3381"/></g><g><polygon fill="#FFFFFF" stroke-width="0.3381" points="    1206.22,187.256 1207.405,187.256 1208.429,188.107 1206.22,188.107   " stroke="#939598" stroke-linecap="round" stroke-linejoin="round"/></g><g><polygon fill="#FFFFFF" stroke-width="0.3381" points="    1206.22,188.107 1208.429,188.107 1209.453,188.958 1206.22,188.958   " stroke="#939598" stroke-linecap="round" stroke-linejoin="round"/></g><g><rect x="1206.22" stroke-linecap="round" y="188.958" fill="#FFFFFF" width="3.232" stroke-linejoin="round" height="0.852" stroke="#939598" stroke-width="0.3381"/></g><g><rect x="1206.22" stroke-linecap="round" y="189.81" fill="#FFFFFF" width="3.232" stroke-linejoin="round" height="2.509" stroke="#939598" stroke-width="0.3381"/></g><g><rect x="1263.644" stroke-linecap="round" y="192.125" fill="#FFFFFF" width="3.233" stroke-linejoin="round" height="0.851" stroke="#939598" stroke-width="0.3381"/></g><g><rect x="1263.644" stroke-linecap="round" y="192.976" fill="#FFFFFF" width="3.233" stroke-linejoin="round" height="0.852" stroke="#939598" stroke-width="0.3381"/></g><g><rect x="1263.644" stroke-linecap="round" y="193.828" fill="#FFFFFF" width="3.233" stroke-linejoin="round" height="0.851" stroke="#939598" stroke-width="0.3381"/></g><g><rect x="1263.644" stroke-linecap="round" y="194.679" fill="#FFFFFF" width="3.233" stroke-linejoin="round" height="0.852" stroke="#939598" stroke-width="0.3381"/></g><g><rect x="1263.644" stroke-linecap="round" y="195.53" fill="#FFFFFF" width="3.233" stroke-linejoin="round" height="0.851" stroke="#939598" stroke-width="0.3381"/></g><g><rect x="1263.644" stroke-linecap="round" y="196.381" fill="#FFFFFF" width="3.233" stroke-linejoin="round" height="0.852" stroke="#939598" stroke-width="0.3381"/></g><g><polygon fill="#FFFFFF" stroke-width="0.3381" points="    1266.877,187.071 1265.69,187.071 1264.668,187.924 1266.877,187.924   " stroke="#939598" stroke-linecap="round" stroke-linejoin="round"/></g><g><polygon fill="#FFFFFF" stroke-width="0.3381" points="    1266.877,187.924 1264.668,187.924 1263.644,188.774 1266.877,188.774   " stroke="#939598" stroke-linecap="round" stroke-linejoin="round"/></g><g><rect x="1263.644" stroke-linecap="round" y="188.774" fill="#FFFFFF" width="3.233" stroke-linejoin="round" height="0.852" stroke="#939598" stroke-width="0.3381"/></g><g><rect x="1263.644" stroke-linecap="round" y="189.626" fill="#FFFFFF" width="3.233" stroke-linejoin="round" height="2.509" stroke="#939598" stroke-width="0.3381"/></g><line fill="none" x1="1202.51" x2="1199.494" y1="184.082" y2="184.082" stroke="#939598" stroke-width="0.6761"/><line fill="none" x1="1270.635" x2="1273.672" y1="184.351" y2="184.351" stroke="#939598" stroke-width="0.6761"/><g><path fill="none" d="M1202.944,155.487c-0.256,5.712-0.389,11.766-0.389,18.188    l-0.045,10.395h1.726l5.379,4.247l0.024,318.216l-3.881-0.003l-2.281,1.254l0,0l-0.939,1.565l-0.807,2.215l-0.67,2.818    l-0.604,3.488l-0.404,4.094l-0.334,4.697l-0.201,5.303v3.689v4.723v3.6l0.201,5.302l0.334,4.767l0.404,4.093l0.604,3.423    l0.67,2.818l0.807,2.215l0.939,1.588l0,0" stroke-width="0.6761" stroke="#A7A9AC"/></g><g><g><rect x="1248.313" y="209.469" fill="#FFFFFF" width="3.695" height="0.851" stroke="#939598" stroke-width="0.3381"/></g></g><g><g><rect x="1248.313" y="210.32" fill="#FFFFFF" width="3.695" height="0.851" stroke="#939598" stroke-width="0.3381"/></g></g><g><g><rect x="1248.313" y="211.171" fill="#FFFFFF" width="3.695" height="0.852" stroke="#939598" stroke-width="0.3381"/></g></g><g><g><rect x="1245.538" y="209.469" fill="#FFFFFF" width="2.775" height="0.851" stroke="#939598" stroke-width="0.3381"/></g></g><g><g><rect x="1245.538" y="210.32" fill="#FFFFFF" width="2.775" height="0.851" stroke="#939598" stroke-width="0.3381"/></g></g><g><g><rect x="1245.538" y="211.171" fill="#FFFFFF" width="2.775" height="0.852" stroke="#939598" stroke-width="0.3381"/></g></g><g><g><rect x="1248.313" y="212.023" fill="#FFFFFF" width="3.695" height="0.851" stroke="#939598" stroke-width="0.3381"/></g></g><g><g><rect x="1245.538" y="212.023" fill="#FFFFFF" width="2.775" height="0.851" stroke="#939598" stroke-width="0.3381"/></g></g><g><g><rect x="1248.313" y="212.874" fill="#FFFFFF" width="3.695" height="0.852" stroke="#939598" stroke-width="0.3381"/></g></g><g><g><rect x="1245.538" y="212.874" fill="#FFFFFF" width="2.775" height="0.852" stroke="#939598" stroke-width="0.3381"/></g></g><g><g><rect x="1248.313" y="213.725" fill="#FFFFFF" width="3.695" height="0.851" stroke="#939598" stroke-width="0.3381"/></g></g><g><g><rect x="1245.538" y="213.725" fill="#FFFFFF" width="2.775" height="0.851" stroke="#939598" stroke-width="0.3381"/></g></g><g><g><rect x="1252.008" y="209.469" fill="#FFFFFF" width="2.775" height="0.851" stroke="#939598" stroke-width="0.3381"/></g></g><g><g><rect x="1252.008" y="210.32" fill="#FFFFFF" width="2.775" height="0.851" stroke="#939598" stroke-width="0.3381"/></g></g><g><g><rect x="1252.008" y="211.171" fill="#FFFFFF" width="2.775" height="0.852" stroke="#939598" stroke-width="0.3381"/></g></g><g><g><rect x="1252.008" y="212.023" fill="#FFFFFF" width="2.775" height="0.851" stroke="#939598" stroke-width="0.3381"/></g></g><g><g><rect x="1252.008" y="212.874" fill="#FFFFFF" width="2.775" height="0.852" stroke="#939598" stroke-width="0.3381"/></g></g><g><g><rect x="1252.008" y="213.725" fill="#FFFFFF" width="2.775" height="0.851" stroke="#939598" stroke-width="0.3381"/></g></g><g><rect x="1245.538" y="206.97" fill="#FFFFFF" width="9.246" height="2.509" stroke="#939598" stroke-width="0.3381"/></g><g><g><rect x="1220.902" y="209.522" fill="#FFFFFF" width="3.695" height="0.851" stroke="#939598" stroke-width="0.3381"/></g></g><g><g><rect x="1220.902" y="210.373" fill="#FFFFFF" width="3.695" height="0.852" stroke="#939598" stroke-width="0.3381"/></g></g><g><g><rect x="1220.902" y="211.225" fill="#FFFFFF" width="3.695" height="0.851" stroke="#939598" stroke-width="0.3381"/></g></g><g><g><rect x="1218.127" y="209.522" fill="#FFFFFF" width="2.775" height="0.851" stroke="#939598" stroke-width="0.3381"/></g></g><g><g><rect x="1218.127" y="210.373" fill="#FFFFFF" width="2.775" height="0.852" stroke="#939598" stroke-width="0.3381"/></g></g><g><g><rect x="1218.127" y="211.225" fill="#FFFFFF" width="2.775" height="0.851" stroke="#939598" stroke-width="0.3381"/></g></g><g><g><rect x="1220.902" y="212.076" fill="#FFFFFF" width="3.695" height="0.851" stroke="#939598" stroke-width="0.3381"/></g></g><g><g><rect x="1218.127" y="212.076" fill="#FFFFFF" width="2.775" height="0.851" stroke="#939598" stroke-width="0.3381"/></g></g><g><g><rect x="1220.902" y="212.928" fill="#FFFFFF" width="3.695" height="0.851" stroke="#939598" stroke-width="0.3381"/></g></g><g><g><rect x="1218.127" y="212.928" fill="#FFFFFF" width="2.775" height="0.851" stroke="#939598" stroke-width="0.3381"/></g></g><g><g><rect x="1220.902" y="213.779" fill="#FFFFFF" width="3.695" height="0.851" stroke="#939598" stroke-width="0.3381"/></g></g><g><g><rect x="1218.127" y="213.779" fill="#FFFFFF" width="2.775" height="0.851" stroke="#939598" stroke-width="0.3381"/></g></g><g><g><rect x="1224.597" y="209.522" fill="#FFFFFF" width="2.775" height="0.851" stroke="#939598" stroke-width="0.3381"/></g></g><g><g><rect x="1224.597" y="210.373" fill="#FFFFFF" width="2.775" height="0.852" stroke="#939598" stroke-width="0.3381"/></g></g><g><g><rect x="1224.597" y="211.225" fill="#FFFFFF" width="2.775" height="0.851" stroke="#939598" stroke-width="0.3381"/></g></g><g><g><rect x="1224.597" y="212.076" fill="#FFFFFF" width="2.775" height="0.851" stroke="#939598" stroke-width="0.3381"/></g></g><g><g><rect x="1224.597" y="212.928" fill="#FFFFFF" width="2.775" height="0.851" stroke="#939598" stroke-width="0.3381"/></g></g><g><g><rect x="1224.597" y="213.779" fill="#FFFFFF" width="2.775" height="0.851" stroke="#939598" stroke-width="0.3381"/></g></g><g><rect x="1218.127" y="207.023" fill="#FFFFFF" width="9.246" height="2.51" stroke="#939598" stroke-width="0.3381"/></g><rect x="1232.059" y="206.352" fill="none" width="9.155" height="7.78" stroke="#939598" stroke-width="0.6761"/><path fill="none" d="M1240.692,206.104V205.3c0,0,4.065-0.233,5.654-3.015" stroke-width="0.3381" stroke="#939598"/><g><polygon fill="none" stroke-width="0.3381" points="1240.089,239.464 1233.122,239.464 1233.122,237.478     1240.089,237.478 1240.089,239.464   " stroke="#939598"/></g><rect x="1217.882" y="223.937" fill="#FFFFFF" width="4.404" height="12.805" stroke="#939598" stroke-width="0.3381"/><rect x="1251.011" y="223.937" fill="#FFFFFF" width="4.404" height="12.805" stroke="#939598" stroke-width="0.3381"/><path fill="#FFFFFF" d="M1245.288,236.569v-14.246h-3.643   c-0.886,2.019-2.642,2.415-5.018,2.415c-2.379,0-4.133-0.395-5.019-2.415h-3.62v14.244c2.19,0.998,5.254,2.339,8.651,2.339   C1240.036,238.906,1243.099,237.565,1245.288,236.569z" stroke-width="0.6761" stroke="#939598"/><path fill="none" d="M1263.471,302.162h-5.169c0-3.09-2.306-4.276-3.12-4.276v-3.516   h-10.47v-8.127l0.019-0.988v-16.765l2.729-4.38h16.057" stroke-width="0.3381" stroke="#939598"/><polyline fill="none" stroke-width="0.3381" points="1263.507,286.152 1255.196,286.152 1255.196,297.885  " stroke="#939598"/><path fill="none" d="M1250.978,235.458l-0.414,0.205c-0.669,0.662-1.083,1.581-1.083,2.595   c0,2.019,1.638,3.656,3.657,3.656c2.018,0,3.655-1.638,3.655-3.656c0-0.692-0.204-1.331-0.537-1.883v-3.124h7.225" stroke-width="0.3381" stroke="#939598"/><polygon fill="none" stroke-width="0.3381" points="1256.094,221.779 1256.094,227.435 1263.471,227.435    1263.471,222.749 1258.088,222.749 1258.088,221.779  " stroke="#939598"/><polygon fill="none" stroke-width="0.3381" points="1214.93,222.749 1209.636,222.749 1209.636,227.344    1217.086,227.344 1217.086,221.671 1214.93,221.671  " stroke="#939598"/><path fill="none" d="M1235.148,230.91   c-0.206,1.484-0.222,5.115-0.812,5.84c-0.431,0.593-1.747-1.713-1.747-3.05v-0.002v-1.922c-0.518-0.516-1.219-0.637-1.932-0.637   c-0.823,0-1.369,0.186-1.867,0.686v1.887c0,1.274,0.292,2.477,0.803,3.554c0.938,0.392,1.975,0.768,3.088,1.068   c-1.211-1.16-1.969-2.801-1.969-4.626" stroke-width="0.3381" stroke="#939598" stroke-linejoin="round"/><path fill="none" d="M1242.486,233.709   c0,1.825-0.758,3.466-1.969,4.626c1.113-0.3,2.149-0.676,3.088-1.068c0.511-1.077,0.803-2.28,0.803-3.554v-1.887   c-0.526-0.526-1.119-0.742-1.94-0.742c-0.713,0-1.255,0.154-1.794,0.693v1.92l-0.002,0.002c0,1.339-0.894,3.107-1.769,3.019   c-0.48-0.662-0.568-3.267-0.698-4.967c0.02-0.007,0.046-0.014,0.066-0.019h-0.069c-0.023-0.322-0.051-0.612-0.083-0.849   c0.017-0.003,0.032-0.005,0.047-0.009h-0.047c-0.002-0.016-0.004-0.034-0.006-0.048" stroke-width="0.3381" stroke="#939598" stroke-linejoin="round"/><path fill="none" d="M1234.646,236.211   c0.51,0.188,1.213,0.376,1.99,0.376c0.778,0,1.481-0.188,1.991-0.376" stroke-width="0.3381" stroke="#939598" stroke-linejoin="round"/><g><path fill="none" d="M1234.727,235.32    c0.498,0.178,1.17,0.349,1.909,0.349c0.742,0,1.417-0.172,1.914-0.35" stroke-width="0.3381" stroke="#939598" stroke-linejoin="round"/></g><g><path fill="none" d="M1234.808,234.43    c0.485,0.166,1.126,0.323,1.828,0.323c0.707,0,1.352-0.159,1.839-0.326" stroke-width="0.3381" stroke="#939598" stroke-linejoin="round"/></g><g><path fill="none" d="M1234.889,233.539    c0.474,0.155,1.083,0.296,1.747,0.296c0.673,0,1.286-0.143,1.762-0.302" stroke-width="0.3381" stroke="#939598" stroke-linejoin="round"/></g><g><path fill="none" d="M1234.971,232.648    c0.461,0.144,1.038,0.27,1.665,0.27c0.637,0,1.222-0.129,1.687-0.276" stroke-width="0.3381" stroke="#939598" stroke-linejoin="round"/></g><g><path fill="none" d="M1235.052,231.757    c0.447,0.133,0.995,0.245,1.584,0.245c0.602,0,1.158-0.116,1.609-0.252" stroke-width="0.3381" stroke="#939598" stroke-linejoin="round"/></g><path fill="none" d="M1235.133,230.866   c0.437,0.122,0.951,0.217,1.503,0.217c0.566,0,1.092-0.1,1.532-0.226" stroke-width="0.3381" stroke="#939598" stroke-linejoin="round"/><line fill="#FFFFFF" x1="1232.59" x2="1228.791" y1="233.7" y2="233.712" stroke-linejoin="round" stroke="#939598" stroke-width="0.3381"/><line fill="#FFFFFF" x1="1232.618" x2="1228.87" y1="234.275" y2="234.824" stroke-linejoin="round" stroke="#939598" stroke-width="0.3381"/><line fill="#FFFFFF" x1="1232.738" x2="1229.105" y1="234.838" y2="235.912" stroke-linejoin="round" stroke="#939598" stroke-width="0.3381"/><line fill="#FFFFFF" x1="1232.949" x2="1229.492" y1="235.375" y2="236.955" stroke-linejoin="round" stroke="#939598" stroke-width="0.3381"/><line fill="#FFFFFF" x1="1233.174" x2="1230.479" y1="235.911" y2="237.643" stroke-linejoin="round" stroke="#939598" stroke-width="0.3381"/><line fill="#FFFFFF" x1="1233.512" x2="1231.594" y1="236.388" y2="238.048" stroke-linejoin="round" stroke="#939598" stroke-width="0.3381"/><line fill="#FFFFFF" x1="1240.607" x2="1244.408" y1="233.7" y2="233.712" stroke-linejoin="round" stroke="#939598" stroke-width="0.3381"/><line fill="#FFFFFF" x1="1240.581" x2="1244.329" y1="234.275" y2="234.824" stroke-linejoin="round" stroke="#939598" stroke-width="0.3381"/><line fill="#FFFFFF" x1="1240.459" x2="1244.093" y1="234.838" y2="235.912" stroke-linejoin="round" stroke="#939598" stroke-width="0.3381"/><line fill="#FFFFFF" x1="1240.25" x2="1243.707" y1="235.375" y2="236.955" stroke-linejoin="round" stroke="#939598" stroke-width="0.3381"/><line fill="#FFFFFF" x1="1240.024" x2="1242.719" y1="235.911" y2="237.643" stroke-linejoin="round" stroke="#939598" stroke-width="0.3381"/><line fill="#FFFFFF" x1="1239.686" x2="1241.604" y1="236.388" y2="238.048" stroke-linejoin="round" stroke="#939598" stroke-width="0.3381"/><line fill="#FFFFFF" x1="1233.898" x2="1232.681" y1="236.831" y2="238.335" stroke-linejoin="round" stroke="#939598" stroke-width="0.3381"/><line fill="#FFFFFF" x1="1239.3" x2="1240.517" y1="236.831" y2="238.335" stroke-linejoin="round" stroke="#939598" stroke-width="0.3381"/><g><path fill="none" d="M1241.384,308.594    c3.383,3.384,3.02,8.858,0.068,11.81c-1.158,1.158-1.735,2.56-2.15,3.625l-2.407-0.933c0.392-1.02,1.127-2.919,2.729-4.519    c0.993-0.993,1.587-2.515,1.587-4.067c0-1.57-0.588-3.021-1.654-4.088L1241.384,308.594z" stroke-width="0.3381" stroke="#939598" stroke-linejoin="round"/></g><g><line fill="none" x1="1239.556" x2="1241.384" y1="310.422" y2="308.594" stroke-linejoin="round" stroke="#939598" stroke-width="0.3381"/></g><g><line fill="none" x1="1240.15" x2="1242.244" y1="311.195" y2="309.681" stroke-linejoin="round" stroke="#939598" stroke-width="0.3381"/></g><g><line fill="none" x1="1240.613" x2="1242.921" y1="312.052" y2="310.89" stroke-linejoin="round" stroke="#939598" stroke-width="0.3381"/></g><g><line fill="none" x1="1240.934" x2="1243.398" y1="312.971" y2="312.192" stroke-linejoin="round" stroke="#939598" stroke-width="0.3381"/></g><g><line fill="none" x1="1241.104" x2="1243.661" y1="313.93" y2="313.554" stroke-linejoin="round" stroke="#939598" stroke-width="0.3381"/></g><g><line fill="none" x1="1241.119" x2="1243.705" y1="314.904" y2="314.939" stroke-linejoin="round" stroke="#939598" stroke-width="0.3381"/></g><g><line fill="none" x1="1240.98" x2="1243.526" y1="315.868" y2="316.312" stroke-linejoin="round" stroke="#939598" stroke-width="0.3381"/></g><g><line fill="none" x1="1240.688" x2="1243.132" y1="316.798" y2="317.643" stroke-linejoin="round" stroke="#939598" stroke-width="0.3381"/></g><g><line fill="none" x1="1240.254" x2="1242.531" y1="317.669" y2="318.891" stroke-linejoin="round" stroke="#939598" stroke-width="0.3381"/></g><g><line fill="none" x1="1238.565" x2="1240.68" y1="320.002" y2="321.409" stroke="#939598" stroke-width="0.3381"/></g><g><g><line fill="none" x1="1240.222" x2="1238.008" y1="322.283" y2="321.034" stroke="#939598" stroke-width="0.3381"/></g></g><g><g><line fill="none" x1="1239.763" x2="1237.452" y1="323.155" y2="322.065" stroke="#939598" stroke-width="0.3381"/></g></g><path fill="none" d="M1237.783,315.293c1.292-3.647,0.892-7.091-0.896-7.694   c-1.787-0.602-4.286,1.867-5.581,5.516c-1.294,3.647-0.892,7.09,0.897,7.694C1233.992,321.41,1236.489,318.94,1237.783,315.293z" stroke-width="0.3381" stroke="#939598"/><rect x="1233.157" y="237.912" fill="#FFFFFF" width="6.967" height="1.987" stroke="#939598" stroke-width="0.3381"/><polyline fill="none" stroke-width="0.3381" points="1209.62,286.207 1228.415,286.207    1228.415,276.118 1230.124,276.118 1231.538,272.98  " stroke="#939598" stroke-linejoin="round"/><path fill="none" d="M1222.287,236.742c0,14.667,6.036,10.572,6.036,14.667   c0,4.096,0,16.517,0,16.517" stroke-width="0.3381" stroke="#939598"/><polygon fill="none" stroke-width="0.3381" points="1217.159,292.196 1217.159,286.207 1209.636,286.207    1209.636,294.411 1214.945,294.411 1217.159,292.196  " stroke="#939598"/><polyline fill="none" stroke-width="0.3381" points="1263.63,353.472 1258.252,353.472 1258.252,356.288    1241.515,356.288 1241.515,371.46 1263.63,371.46  " stroke="#939598"/><path fill="none" d="M1263.63,374.901h-6.788c0,0,4.454,1.366,4.454,6.336   c0,4.224,0,3.098,0,7.323c0,6.061-7.268,5.739-7.268,5.739s7.268,0.467,7.268,6.881c0,6.414,0,3.986,0,7.898   c0,5.032-6.642,6.024-6.642,6.024v7.195h-4.381c0,0,0.736,1.306,1.524,2.835c0.739,1.44,0.745,3.031,0.745,3.031h2.111v2.581h8.972   " stroke-width="0.3381" stroke="#939598"/><path fill="none" d="M1209.772,427.621h10.042l0.866,3.116h5.542   c0,0,0.175-2.597,1.038-4.156c0.868-1.56,3.334-4.028,3.334-4.028h-4.112c0,0-0.865,1.517-2.251,1.517   c-0.982,0-1.386-0.78-1.386-1.905c0-1.126,0.823-1.949,0.823-1.949s-1.776,0.131-2.296,0.648c-0.52,0.521-1.617,0.868-2.857,0.868   c-1.863,0-5.457-3.696-5.457-9.526c0-7.188,5.109-8.92,5.109-8.92s-6.841-1.297-6.841-8.745c0-7.448,3.55-8.141,3.55-8.141h-5.107" stroke-width="0.3381" stroke="#939598"/><path fill="none" d="M1209.766,337.56h5.111c0,0-1.038,8.486,5.284,14.808   c6.32,6.322,11.256,5.369,11.256,5.369v13.942h-4.502l-0.693,2.339c0,0-1.038-1.56-4.415-1.56c-3.378,0-5.109,2.59-5.109,5.022   c0,2.247,0.857,3.243,2.089,4.25c0.788,0.644,2.011,1.122,2.343,0.671c-0.596,0.809-1.596,2.107-2.354,3.132   c0.78-1.002-0.497-2.164-1.138-2.164c-0.888,0-7.868,0-7.868,0" stroke-width="0.3381" stroke="#939598"/><g><g><rect x="1249.426" y="485.637" fill="#FFFFFF" width="3.693" height="0.851" stroke="#939598" stroke-width="0.3381"/></g></g><g><g><rect x="1249.426" y="484.786" fill="#FFFFFF" width="3.693" height="0.851" stroke="#939598" stroke-width="0.3381"/></g></g><g><g><rect x="1249.426" y="483.934" fill="#FFFFFF" width="3.693" height="0.852" stroke="#939598" stroke-width="0.3381"/></g></g><g><g><rect x="1253.12" y="485.637" fill="#FFFFFF" width="2.775" height="0.851" stroke="#939598" stroke-width="0.3381"/></g></g><g><g><rect x="1253.12" y="484.786" fill="#FFFFFF" width="2.775" height="0.851" stroke="#939598" stroke-width="0.3381"/></g></g><g><g><rect x="1253.12" y="483.934" fill="#FFFFFF" width="2.775" height="0.852" stroke="#939598" stroke-width="0.3381"/></g></g><g><g><rect x="1249.426" y="483.082" fill="#FFFFFF" width="3.693" height="0.852" stroke="#939598" stroke-width="0.3381"/></g></g><g><g><rect x="1253.12" y="483.082" fill="#FFFFFF" width="2.775" height="0.852" stroke="#939598" stroke-width="0.3381"/></g></g><g><g><rect x="1249.426" y="482.23" fill="#FFFFFF" width="3.693" height="0.851" stroke="#939598" stroke-width="0.3381"/></g></g><g><g><rect x="1253.12" y="482.23" fill="#FFFFFF" width="2.775" height="0.851" stroke="#939598" stroke-width="0.3381"/></g></g><g><g><rect x="1249.426" y="481.379" fill="#FFFFFF" width="3.693" height="0.852" stroke="#939598" stroke-width="0.3381"/></g></g><g><g><rect x="1253.12" y="481.379" fill="#FFFFFF" width="2.775" height="0.852" stroke="#939598" stroke-width="0.3381"/></g></g><g><g><rect x="1246.651" y="485.637" fill="#FFFFFF" width="2.775" height="0.851" stroke="#939598" stroke-width="0.3381"/></g></g><g><g><rect x="1246.651" y="484.786" fill="#FFFFFF" width="2.775" height="0.851" stroke="#939598" stroke-width="0.3381"/></g></g><g><g><rect x="1246.651" y="483.934" fill="#FFFFFF" width="2.775" height="0.852" stroke="#939598" stroke-width="0.3381"/></g></g><g><g><rect x="1246.651" y="483.082" fill="#FFFFFF" width="2.775" height="0.852" stroke="#939598" stroke-width="0.3381"/></g></g><g><g><rect x="1246.651" y="482.23" fill="#FFFFFF" width="2.775" height="0.851" stroke="#939598" stroke-width="0.3381"/></g></g><g><g><rect x="1246.651" y="481.379" fill="#FFFFFF" width="2.775" height="0.852" stroke="#939598" stroke-width="0.3381"/></g></g><g><rect x="1246.651" y="486.477" fill="#FFFFFF" width="9.244" height="2.509" stroke="#939598" stroke-width="0.3381"/></g><g><g><rect x="1220.267" y="485.637" fill="#FFFFFF" width="3.694" height="0.851" stroke="#939598" stroke-width="0.3381"/></g></g><g><g><rect x="1220.267" y="484.786" fill="#FFFFFF" width="3.694" height="0.851" stroke="#939598" stroke-width="0.3381"/></g></g><g><g><rect x="1220.267" y="483.934" fill="#FFFFFF" width="3.694" height="0.852" stroke="#939598" stroke-width="0.3381"/></g></g><g><g><rect x="1223.962" y="485.637" fill="#FFFFFF" width="2.775" height="0.851" stroke="#939598" stroke-width="0.3381"/></g></g><g><g><rect x="1223.962" y="484.786" fill="#FFFFFF" width="2.775" height="0.851" stroke="#939598" stroke-width="0.3381"/></g></g><g><g><rect x="1223.962" y="483.934" fill="#FFFFFF" width="2.775" height="0.852" stroke="#939598" stroke-width="0.3381"/></g></g><g><g><rect x="1220.267" y="483.082" fill="#FFFFFF" width="3.694" height="0.852" stroke="#939598" stroke-width="0.3381"/></g></g><g><g><rect x="1223.962" y="483.082" fill="#FFFFFF" width="2.775" height="0.852" stroke="#939598" stroke-width="0.3381"/></g></g><g><g><rect x="1220.267" y="482.23" fill="#FFFFFF" width="3.694" height="0.851" stroke="#939598" stroke-width="0.3381"/></g></g><g><g><rect x="1223.962" y="482.23" fill="#FFFFFF" width="2.775" height="0.851" stroke="#939598" stroke-width="0.3381"/></g></g><g><g><rect x="1220.267" y="481.379" fill="#FFFFFF" width="3.694" height="0.852" stroke="#939598" stroke-width="0.3381"/></g></g><g><g><rect x="1223.962" y="481.379" fill="#FFFFFF" width="2.775" height="0.852" stroke="#939598" stroke-width="0.3381"/></g></g><g><g><rect x="1217.493" y="485.637" fill="#FFFFFF" width="2.774" height="0.851" stroke="#939598" stroke-width="0.3381"/></g></g><g><g><rect x="1217.493" y="484.786" fill="#FFFFFF" width="2.774" height="0.851" stroke="#939598" stroke-width="0.3381"/></g></g><g><g><rect x="1217.493" y="483.934" fill="#FFFFFF" width="2.774" height="0.852" stroke="#939598" stroke-width="0.3381"/></g></g><g><g><rect x="1217.493" y="483.082" fill="#FFFFFF" width="2.774" height="0.852" stroke="#939598" stroke-width="0.3381"/></g></g><g><g><rect x="1217.493" y="482.23" fill="#FFFFFF" width="2.774" height="0.851" stroke="#939598" stroke-width="0.3381"/></g></g><g><g><rect x="1217.493" y="481.379" fill="#FFFFFF" width="2.774" height="0.852" stroke="#939598" stroke-width="0.3381"/></g></g><g><rect x="1217.493" y="486.477" fill="#FFFFFF" width="9.244" height="2.509" stroke="#939598" stroke-width="0.3381"/></g><rect x="1215.972" y="459.643" fill="#FFFFFF" width="4.405" height="12.804" stroke="#939598" stroke-width="0.3381"/><rect x="1252.685" y="459.605" fill="#FFFFFF" width="4.404" height="12.806" stroke="#939598" stroke-width="0.3381"/><path fill="#FFFFFF" d="M1238.772,467.099c0-2.932,0.872-5.839,2.153-7.54   c0.769-1.021,2.514-1.077,2.514-1.077h2.513v15.58h-5.53C1240.422,474.061,1238.772,471.117,1238.772,467.099z" stroke-width="0.6761" stroke="#939598"/><path fill="#FFFFFF" d="M1234.306,467.099c0-2.932-0.873-5.839-2.155-7.54   c-0.769-1.021-2.514-1.077-2.514-1.077h-2.511v15.58h5.528C1232.655,474.061,1234.306,471.117,1234.306,467.099z" stroke-width="0.6761" stroke="#939598"/><path fill="none" d="M1245.94,473.368h-2.432c-1.087,0-1.969-1.214-1.969-2.711l0,0   c0-1.499,0.882-2.713,1.969-2.713h2.432V473.368z" stroke-width="0.3381" stroke="#939598"/><path fill="none" d="M1227.13,473.368h2.43c1.087,0,1.971-1.214,1.971-2.711l0,0   c0-1.499-0.884-2.713-1.971-2.713h-2.43V473.368z" stroke-width="0.3381" stroke="#939598"/><path fill="none" d="M1245.94,466.357h-2.432c-1.087,0-1.969-1.213-1.969-2.711l0,0   c0-1.498,0.882-2.713,1.969-2.713h2.432V466.357z" stroke-width="0.3381" stroke="#939598"/><path fill="none" d="M1227.13,466.357h2.43c1.087,0,1.971-1.213,1.971-2.711l0,0   c0-1.498-0.884-2.713-1.971-2.713h-2.43V466.357z" stroke-width="0.3381" stroke="#939598"/><polyline fill="none" stroke-width="0.3381" points="1227.606,481.064 1228.705,481.085 1230.083,486.232    1230.412,488.61 1232.222,490.757 1231.412,499.778 1232.884,500.17 1230.124,512.691 1220.066,512.691 1220.066,513.806    1218.006,513.806 1218.006,507.705 1216.889,507.705 1216.889,504.865 1218.02,504.865 1218.02,501.527 1209.833,501.527  " stroke="#939598"/><path fill="#FFFFFF" d="M1230.568,567.227   c0.441,2.927,2.963,5.172,6.012,5.172c3.048,0,5.562-2.241,6.008-5.165v-2.468c0.312,0.061,0.634,0.094,0.965,0.094   c2.739,0,4.96-2.221,4.96-4.96c0-1.888-1.061-3.513-2.609-4.352c-0.564-0.177-1.099-0.472-1.546-0.917   c-0.737-0.739-1.107-1.705-1.107-2.671c0-0.97,0.368-1.936,1.107-2.674c0.731-0.73,1.688-1.095,2.647-1.104   c2.08-2.117,3.533-4.856,4.015-7.927c-0.609-0.566-0.996-1.368-0.996-2.264c0-0.902,0.391-1.707,1.006-2.273   c-0.459-2.903-1.771-5.521-3.679-7.582c-0.212,0.034-0.425,0.061-0.639,0.061c-0.965,0-1.934-0.37-2.671-1.107   c-0.738-0.739-1.105-1.705-1.105-2.673c0-0.965,0.367-1.933,1.105-2.669c0.134-0.135,0.28-0.242,0.426-0.35l-0.119-0.096   c-2.235-0.923-4.864-1.467-7.694-1.467c-2.832,0-5.467,0.546-7.704,1.471l-0.117,0.098c0.134,0.102,0.271,0.199,0.394,0.321   c0.739,0.737,1.107,1.705,1.107,2.672c0,0.006,0,0.012,0,0.016v0.004c0,0-0.002,0.002-0.002,0.004   c-0.006,0.959-0.372,1.916-1.105,2.646c-0.735,0.74-1.702,1.108-2.67,1.108c-0.196,0-0.394-0.028-0.591-0.059   c-1.95,2.106-3.279,4.788-3.712,7.765c0.516,0.553,0.837,1.292,0.837,2.109c0,0.811-0.317,1.542-0.827,2.097   c0.455,3.147,1.931,5.957,4.062,8.114c0.886,0.057,1.756,0.406,2.432,1.083c0.74,0.738,1.107,1.704,1.107,2.674   c0,0.966-0.367,1.932-1.107,2.671c-0.444,0.445-0.98,0.74-1.544,0.917c-1.55,0.839-2.61,2.464-2.61,4.352   c0,2.739,2.223,4.96,4.961,4.96c0.344,0,0.681-0.033,1.006-0.102V567.227z" stroke-width="0.6761" stroke="#939598" stroke-linejoin="round"/><line fill="none" x1="1231.418" x2="1231.418" y1="567.113" y2="567.113" stroke="#000000" stroke-width="0.3381"/><g><path fill="#FFFFFF" d="M1233.23,558.805    c0.154,0.204,0.282,0.427,0.39,0.656c0.107,0.227,0.191,0.465,0.248,0.713c0.057,0.248,0.085,0.503,0.085,0.767    c0,0.264-0.028,0.52-0.085,0.767c-0.057,0.247-0.141,0.488-0.248,0.716c-0.107,0.227-0.239,0.443-0.392,0.646    c-0.155,0.202-0.327,0.391-0.521,0.563c-0.193,0.172-0.404,0.327-0.63,0.463c-0.228,0.139-0.47,0.256-0.726,0.352    c-0.254,0.097-0.52,0.173-0.796,0.222c-0.278,0.051-0.565,0.079-0.859,0.079c-0.295,0-0.581-0.028-0.857-0.079    c-0.278-0.049-0.545-0.125-0.799-0.222c-0.254-0.096-0.498-0.213-0.723-0.35l-1.258,2.473c0.26,0.134,0.53,0.253,0.807,0.359    c0.435,0.163,0.892,0.293,1.365,0.378c0.473,0.086,0.963,0.133,1.465,0.133s0.991-0.047,1.467-0.133    c0.471-0.085,0.929-0.215,1.363-0.378c0.436-0.164,0.849-0.365,1.235-0.599c0.386-0.234,0.747-0.5,1.076-0.795    c0.049-0.045,0.092-0.09,0.139-0.136c0.483-0.314,1.057-0.498,1.676-0.498c0.589,0,1.132,0.173,1.602,0.457    c0.061,0.06,0.117,0.121,0.181,0.177c0.329,0.295,0.688,0.56,1.076,0.795c0.387,0.233,0.799,0.435,1.235,0.599    c0.433,0.163,0.89,0.293,1.363,0.378c0.474,0.086,0.965,0.133,1.465,0.133c0.504,0,0.994-0.047,1.465-0.133    c0.474-0.085,0.931-0.215,1.365-0.378c0.278-0.106,0.549-0.226,0.807-0.359l-1.255-2.473c-0.225,0.137-0.47,0.254-0.724,0.35    c-0.254,0.097-0.522,0.173-0.799,0.222c-0.276,0.051-0.564,0.079-0.859,0.079c-0.292,0-0.579-0.028-0.857-0.079    c-0.276-0.049-0.544-0.125-0.798-0.222c-0.254-0.096-0.498-0.213-0.724-0.352c-0.226-0.136-0.438-0.291-0.63-0.463    c-0.193-0.173-0.367-0.361-0.52-0.563c-0.155-0.202-0.285-0.419-0.393-0.646c-0.107-0.228-0.193-0.469-0.248-0.716    c-0.057-0.247-0.087-0.503-0.087-0.767c0-0.264,0.03-0.518,0.087-0.767c0.055-0.248,0.141-0.486,0.248-0.713    c0.107-0.229,0.235-0.452,0.388-0.656c-0.948-0.711-2.127-1.147-3.405-1.147C1235.359,557.657,1234.178,558.094,1233.23,558.805z" stroke-width="0.3381" stroke="#939598" stroke-linejoin="round"/></g><g><g><path fill="none" d="M1239.554,559.625c-0.85-0.519-1.849-0.827-2.918-0.827     c-1.074,0-2.078,0.312-2.932,0.836" stroke-width="0.3381" stroke="#939598"/></g></g><g><g><path fill="none" d="M1239.357,560.651c-0.805-0.449-1.732-0.713-2.721-0.713     c-0.997,0-1.932,0.268-2.744,0.725" stroke-width="0.3381" stroke="#939598"/></g></g><g><path fill="none" d="M1239.447,561.834c-0.829-0.478-1.788-0.754-2.811-0.754    c-1.038,0-2.011,0.286-2.848,0.773" stroke-width="0.3381" stroke="#939598"/></g><g><line fill="none" x1="1240.581" x2="1238.663" y1="563.551" y2="565.818" stroke="#939598" stroke-width="0.3381"/></g><g><line fill="none" x1="1241.249" x2="1239.851" y1="564.072" y2="566.497" stroke="#939598" stroke-width="0.3381"/></g><g><line fill="none" x1="1241.988" x2="1241.096" y1="564.528" y2="567.013" stroke="#939598" stroke-width="0.3381"/></g><g><line fill="none" x1="1242.847" x2="1242.388" y1="564.646" y2="567.389" stroke="#939598" stroke-width="0.3381"/></g><g><line fill="none" x1="1243.697" x2="1243.734" y1="564.691" y2="567.44" stroke="#939598" stroke-width="0.3381"/></g><g><line fill="none" x1="1244.547" x2="1245.07" y1="564.636" y2="567.331" stroke="#939598" stroke-width="0.3381"/></g><g><line fill="none" x1="1245.353" x2="1246.367" y1="564.362" y2="566.973" stroke="#939598" stroke-width="0.3381"/></g><g><line fill="none" x1="1232.726" x2="1234.644" y1="563.551" y2="565.818" stroke="#939598" stroke-width="0.3381"/></g><g><line fill="none" x1="1232.057" x2="1233.456" y1="564.072" y2="566.497" stroke="#939598" stroke-width="0.3381"/></g><g><line fill="none" x1="1231.318" x2="1232.21" y1="564.528" y2="567.013" stroke="#939598" stroke-width="0.3381"/></g><g><line fill="none" x1="1230.459" x2="1230.918" y1="564.646" y2="567.389" stroke="#939598" stroke-width="0.3381"/></g><g><line fill="none" x1="1229.609" x2="1229.573" y1="564.691" y2="567.44" stroke="#939598" stroke-width="0.3381"/></g><g><line fill="none" x1="1228.76" x2="1228.236" y1="564.636" y2="567.331" stroke="#939598" stroke-width="0.3381"/></g><g><line fill="none" x1="1227.952" x2="1226.94" y1="564.362" y2="566.973" stroke="#939598" stroke-width="0.3381"/></g><g><path fill="#FFFFFF" d="M1233.12,566.797    c-0.188,0.114-0.575,0.214-0.807,0.298c-0.233,0.082-0.485,0.149-0.751,0.199c-0.267,0.049-0.551,0.083-0.848,0.097    c-0.295,0.014-0.604,0.095-0.92,0.073c-0.317-0.025-0.65,0.037-0.985-0.012c-0.336-0.05-0.661-0.119-0.974-0.204    c-0.312-0.085-0.697-0.183-0.979-0.299c-0.282-0.115-0.548-0.24-0.796-0.38l-1.284,2.091c0.264,0.14,0.54,0.275,0.827,0.399    c0.448,0.193,1.01,0.366,1.505,0.51c0.494,0.146,1.01,0.263,1.544,0.351c0.533,0.085,1.049,0.079,1.553,0.12    c0.504,0.039,0.993-0.041,1.465-0.066c0.469-0.025,0.918-0.08,1.343-0.168c0.425-0.086,0.823-0.115,1.192-0.26L1233.12,566.797z" stroke-width="0.3381" stroke="#939598" stroke-linejoin="round"/></g><g><line fill="none" x1="1230.489" x2="1230.489" y1="569.865" y2="569.865" stroke="#939598" stroke-width="0.3381"/></g><g><line fill="none" x1="1232.34" x2="1233.174" y1="567.038" y2="569.751" stroke="#939598" stroke-width="0.3381"/></g><g><line fill="none" x1="1231.54" x2="1232.145" y1="567.273" y2="569.947" stroke="#939598" stroke-width="0.3381"/></g><g><line fill="none" x1="1230.666" x2="1230.796" y1="567.441" y2="570.052" stroke="#939598" stroke-width="0.3381"/></g><g><line fill="none" x1="1229.688" x2="1229.66" y1="567.423" y2="570.025" stroke="#939598" stroke-width="0.3381"/></g><g><line fill="none" x1="1228.714" x2="1228.238" y1="567.396" y2="569.892" stroke="#939598" stroke-width="0.3381"/></g><g><line fill="none" x1="1227.749" x2="1227.11" y1="567.209" y2="569.588" stroke="#939598" stroke-width="0.3381"/></g><g><line fill="none" x1="1226.765" x2="1225.676" y1="566.874" y2="569.102" stroke="#939598" stroke-width="0.3381"/></g><g><path fill="#FFFFFF" d="M1240.154,566.797    c0.188,0.114,0.574,0.214,0.807,0.298c0.231,0.082,0.483,0.149,0.751,0.199c0.267,0.049,0.551,0.083,0.848,0.097    c0.295,0.014,0.602,0.095,0.92,0.073c0.317-0.025,0.65,0.037,0.983-0.012c0.336-0.05,0.663-0.119,0.974-0.204    c0.312-0.085,0.696-0.183,0.982-0.299c0.282-0.115,0.546-0.24,0.794-0.38l1.286,2.091c-0.266,0.14-0.54,0.275-0.829,0.399    c-0.446,0.193-1.008,0.366-1.503,0.51c-0.496,0.146-1.012,0.263-1.544,0.351c-0.532,0.085-1.051,0.079-1.553,0.12    c-0.504,0.039-0.993-0.041-1.465-0.066c-0.467-0.025-0.918-0.08-1.343-0.168c-0.425-0.086-0.825-0.115-1.194-0.26    L1240.154,566.797z" stroke-width="0.3381" stroke="#939598" stroke-linejoin="round"/></g><g><line fill="none" x1="1242.785" x2="1242.785" y1="569.865" y2="569.865" stroke="#939598" stroke-width="0.3381"/></g><g><line fill="none" x1="1240.934" x2="1240.099" y1="567.038" y2="569.751" stroke="#939598" stroke-width="0.3381"/></g><g><line fill="none" x1="1241.732" x2="1241.129" y1="567.273" y2="569.947" stroke="#939598" stroke-width="0.3381"/></g><g><line fill="none" x1="1242.606" x2="1242.476" y1="567.441" y2="570.052" stroke="#939598" stroke-width="0.3381"/></g><g><line fill="none" x1="1243.586" x2="1243.612" y1="567.423" y2="570.025" stroke="#939598" stroke-width="0.3381"/></g><g><line fill="none" x1="1244.558" x2="1245.036" y1="567.396" y2="569.892" stroke="#939598" stroke-width="0.3381"/></g><g><line fill="none" x1="1245.525" x2="1246.164" y1="567.209" y2="569.588" stroke="#939598" stroke-width="0.3381"/></g><g><line fill="none" x1="1246.508" x2="1247.597" y1="566.874" y2="569.102" stroke="#939598" stroke-width="0.3381"/></g><polygon fill="none" stroke-width="0.3381" points="1215.65,489.463 1215.65,483.323 1210.697,483.323    1210.697,496.122 1216.726,496.122  " stroke="#939598"/><polyline fill="none" stroke-width="0.3381" points="1245.592,481.064 1244.496,481.085 1243.116,486.232    1242.787,488.61 1240.976,490.757 1241.785,499.778 1240.314,500.17 1243.075,512.691 1253.132,512.691 1253.132,513.806    1255.192,513.806 1255.192,507.705 1256.309,507.705 1256.309,504.865 1255.178,504.865 1255.178,500.431 1263.364,500.431  " stroke="#939598"/><polygon fill="none" stroke-width="0.3381" points="1257.386,489.519 1257.386,483.378 1263.471,483.378    1263.471,500.431 1255.501,500.431  " stroke="#939598"/><path fill="none" d="M1249.041,458.12c0.698,0.701,2.368,0.539,3.015-0.969   c0.646-1.508,5.053-2.424,5.053,0.107v9.263l1.463,2.101v5.296l4.9-0.013" stroke-width="0.3381" stroke="#939598"/><path fill="none" d="M1223.727,458.12c-0.698,0.701-2.368,0.539-3.015-0.969   c-0.646-1.508-4.094-3.015-6.14,0.754c0,0,1.399,0.433,1.399,1.737c0,1.064-1.076,2.033-1.076,4.186   c0,2.154,0.969,2.154,0.969,4.525c0,2.368-1.292,1.615-1.292,3.229c0,1.617,0,2.37,0,2.37h-4.955" stroke-width="0.3381" stroke="#939598"/><path fill="none" d="M1221.466,441.01c0-1.643-1.333-2.976-2.977-2.976l0,0   c-1.642,0-2.975,1.333-2.975,2.976v3.253c0,1.643,1.333,2.975,2.975,2.975l0,0c1.644,0,2.977-1.332,2.977-2.975V441.01z" stroke-width="0.3381" stroke="#939598"/><path fill="none" d="M1220.78,441.385c0-1.263-1.024-2.287-2.29-2.287l0,0   c-1.262,0-2.285,1.024-2.285,2.287v2.502c0,1.264,1.023,2.287,2.285,2.287l0,0c1.266,0,2.29-1.023,2.29-2.287V441.385z" stroke-width="0.3381" stroke="#939598"/><path fill="none" d="M1236.636,435.773   c-0.735,0-1.416-0.201-2.023-0.525l-0.564,0.815c-0.398,0.522-0.931,1.44-1.223,2.036c0.402,0.404,0.426,1.053,0.036,1.479   c-0.193,0.214-0.455,0.325-0.722,0.345c-0.266,0.991-0.397,2.041-0.347,3.128c0.036,0.796,0.171,1.565,0.376,2.302l-0.039,0.01   c0.269,0.004,0.536,0.102,0.744,0.301c0.412,0.402,0.424,1.053,0.046,1.479c0.329,0.579,0.915,1.463,1.344,1.959l0.593,0.798   c0.545-0.247,1.144-0.393,1.779-0.393c0.628,0,1.222,0.142,1.76,0.384l0.536-0.788c0.429-0.496,1.017-1.38,1.344-1.959   c-0.376-0.427-0.366-1.077,0.048-1.479c0.208-0.199,0.476-0.297,0.744-0.301l-0.041-0.01c0.205-0.737,0.342-1.506,0.378-2.302   c0.051-1.087-0.081-2.137-0.347-3.128c-0.267-0.02-0.528-0.131-0.724-0.345c-0.388-0.426-0.364-1.074,0.038-1.479   c-0.292-0.597-0.824-1.514-1.225-2.036l-0.604-0.754C1237.967,435.598,1237.326,435.773,1236.636,435.773z" stroke-width="0.6761" stroke="#939598" stroke-linejoin="round"/><path fill="none" d="M1203.478,568.181c6.436,8.558,17.783,13.87,33.579,13.87   c14.935,0,26.156-5.17,32.591-13.87" stroke-width="0.3381" stroke="#939598"/></g><g id="SYMBOLS_AND_VENUES"><g><path d="M1231.989,157.158h-0.527v-2.523h0.975c0.36,0,0.591,0.23,0.591,0.661c0,0.321-0.126,0.562-0.469,0.618v0.007    c0.115,0.014,0.458,0.042,0.458,0.496c0,0.161,0.011,0.636,0.06,0.741h-0.518c-0.069-0.154-0.056-0.325-0.056-0.489    c0-0.3,0.028-0.556-0.377-0.556h-0.137V157.158z M1231.989,155.725h0.234c0.209,0,0.269-0.209,0.269-0.371    c0-0.241-0.102-0.332-0.269-0.332h-0.234V155.725z"/></g><g><path d="M1233.393,155.896c0-0.667,0-1.304,0.87-1.304s0.87,0.636,0.87,1.304c0,0.66,0,1.303-0.87,1.303    S1233.393,156.557,1233.393,155.896z M1234.599,155.896c0-0.646-0.039-0.926-0.336-0.926s-0.335,0.28-0.335,0.926    s0.038,0.926,0.335,0.926S1234.599,156.543,1234.599,155.896z"/></g><g><path d="M1236.021,156.284l-0.66-1.649h0.576l0.378,1.066l0.401-1.066h0.538l-0.705,1.649v0.874h-0.528V156.284z"/></g><g><path d="M1237.311,157.158l0.698-2.523h0.695l0.686,2.523h-0.556l-0.14-0.559h-0.721l-0.143,0.559H1237.311z M1238.328,155.121    h-0.007l-0.241,1.09h0.503L1238.328,155.121z"/></g><g><path d="M1239.645,157.158v-2.523h0.527v2.104h0.79v0.419H1239.645z"/></g><g><path d="M1231.224,158.512v0.419h-0.587v2.104h-0.527v-2.104h-0.588v-0.419H1231.224z"/></g><g><path d="M1232.622,159.522v-1.01h0.527v2.523h-0.527v-1.125h-0.604v1.125h-0.528v-2.523h0.528v1.01H1232.622z"/></g><g><path d="M1233.61,161.035v-2.523h1.377v0.388h-0.849v0.622h0.782v0.388h-0.782v0.737h0.877v0.388H1233.61z"/></g><g><path d="M1235.169,161.035l0.698-2.523h0.695l0.686,2.523h-0.556l-0.14-0.559h-0.721l-0.143,0.559H1235.169z M1236.185,158.998    h-0.007l-0.241,1.09h0.503L1236.185,158.998z"/></g><g><path d="M1239.002,158.512v0.419h-0.587v2.104h-0.527v-2.104h-0.588v-0.419H1239.002z"/></g><g><path d="M1239.249,161.035v-2.523h1.377v0.388h-0.849v0.622h0.782v0.388h-0.782v0.737h0.877v0.388H1239.249z"/></g><g><path d="M1241.516,161.035h-0.527v-2.523h0.975c0.36,0,0.591,0.231,0.591,0.661c0,0.321-0.126,0.562-0.469,0.618v0.007    c0.115,0.014,0.458,0.042,0.458,0.496c0,0.161,0.011,0.636,0.06,0.741h-0.518c-0.069-0.154-0.056-0.325-0.056-0.489    c0-0.3,0.028-0.556-0.377-0.556h-0.137V161.035z M1241.516,159.603h0.234c0.209,0,0.269-0.209,0.269-0.371    c0-0.241-0.102-0.332-0.269-0.332h-0.234V159.603z"/></g><g><path d="M1245.546,252.195c-0.653,0-0.776-0.384-0.748-0.821h0.527c0,0.241,0.011,0.444,0.301,0.444    c0.179,0,0.266-0.115,0.266-0.287c0-0.454-1.062-0.482-1.062-1.233c0-0.395,0.188-0.709,0.832-0.709    c0.514,0,0.769,0.231,0.733,0.758h-0.514c0-0.188-0.031-0.381-0.244-0.381c-0.172,0-0.272,0.094-0.272,0.269    c0,0.479,1.062,0.437,1.062,1.23C1246.425,252.118,1245.947,252.195,1245.546,252.195z"/></g><g><path d="M1246.782,250.892c0-0.667,0-1.304,0.87-1.304c0.538,0,0.755,0.297,0.734,0.839h-0.518c0-0.335-0.06-0.461-0.217-0.461    c-0.297,0-0.335,0.28-0.335,0.926s0.038,0.926,0.335,0.926c0.245,0,0.234-0.314,0.241-0.514h0.521    c0,0.674-0.269,0.891-0.762,0.891C1246.782,252.195,1246.782,251.552,1246.782,250.892z"/></g><g><path d="M1249.903,250.64v-1.01h0.527v2.523h-0.527v-1.125h-0.604v1.125h-0.528v-2.523h0.528v1.01H1249.903z"/></g><g><path d="M1250.867,250.892c0-0.667,0-1.304,0.87-1.304s0.87,0.636,0.87,1.304c0,0.66,0,1.303-0.87,1.303    S1250.867,251.552,1250.867,250.892z M1252.073,250.892c0-0.646-0.039-0.926-0.336-0.926s-0.335,0.28-0.335,0.926    s0.038,0.926,0.335,0.926S1252.073,251.538,1252.073,250.892z"/></g><g><path d="M1253.005,250.892c0-0.667,0-1.304,0.87-1.304s0.87,0.636,0.87,1.304c0,0.66,0,1.303-0.87,1.303    S1253.005,251.552,1253.005,250.892z M1254.212,250.892c0-0.646-0.039-0.926-0.336-0.926s-0.335,0.28-0.335,0.926    s0.038,0.926,0.335,0.926S1254.212,251.538,1254.212,250.892z"/></g><g><path d="M1255.172,252.153v-2.523h0.713l0.671,1.747h0.007v-1.747h0.493v2.523h-0.695l-0.688-1.845h-0.007v1.845H1255.172z"/></g><g><path d="M1257.503,252.153v-2.523h1.377v0.388h-0.849v0.622h0.782v0.388h-0.782v0.737h0.877v0.388H1257.503z"/></g><g><path d="M1259.77,252.153h-0.527v-2.523h0.975c0.36,0,0.591,0.23,0.591,0.661c0,0.321-0.126,0.562-0.469,0.618v0.007    c0.115,0.014,0.458,0.042,0.458,0.496c0,0.161,0.011,0.636,0.06,0.741h-0.518c-0.069-0.154-0.056-0.325-0.056-0.489    c0-0.3,0.028-0.556-0.377-0.556h-0.137V252.153z M1259.77,250.72h0.234c0.209,0,0.269-0.209,0.269-0.371    c0-0.241-0.102-0.332-0.269-0.332h-0.234V250.72z"/></g><g><path d="M1249.925,256.03v-2.523h0.937c0.401,0,0.733,0.115,0.733,0.653c0,0.29-0.144,0.5-0.43,0.556v0.007    c0.374,0.052,0.472,0.293,0.472,0.639c0,0.64-0.556,0.667-0.779,0.667H1249.925z M1250.453,254.538h0.353    c0.115,0,0.276-0.077,0.276-0.321c0-0.185-0.126-0.321-0.304-0.321h-0.325V254.538z M1250.453,255.643h0.293    c0.112,0,0.364-0.004,0.364-0.356c0-0.224-0.084-0.36-0.35-0.36h-0.308V255.643z"/></g><g><path d="M1251.865,256.03l0.698-2.523h0.695l0.686,2.523h-0.556l-0.14-0.559h-0.721l-0.143,0.559H1251.865z M1252.881,253.993    h-0.007l-0.241,1.09h0.503L1252.881,253.993z"/></g><g><path d="M1254.713,256.03h-0.527v-2.523h0.975c0.36,0,0.591,0.231,0.591,0.661c0,0.321-0.126,0.562-0.469,0.618v0.007    c0.115,0.014,0.458,0.042,0.458,0.496c0,0.161,0.011,0.636,0.06,0.741h-0.518c-0.069-0.154-0.056-0.325-0.056-0.489    c0-0.3,0.028-0.556-0.377-0.556h-0.137V256.03z M1254.713,254.598h0.234c0.209,0,0.269-0.209,0.269-0.371    c0-0.241-0.102-0.332-0.269-0.332h-0.234V254.598z"/></g><g><path d="M1221.441,233.651h-2.522v-1.376h0.388v0.849h0.622v-0.783h0.388v0.783h0.737v-0.877h0.388V233.651z"/></g><g><path d="M1221.441,231.898h-2.522v-0.528h2.104v-0.79h0.419V231.898z"/></g><g><path d="M1221.441,230.348h-2.522v-1.376h0.388v0.849h0.622v-0.783h0.388v0.783h0.737v-0.877h0.388V230.348z"/></g><g><path d="M1218.919,228.8v-0.548l1.834-0.392v-0.007l-1.834-0.44v-0.521l2.522,0.667v0.618L1218.919,228.8z"/></g><g><path d="M1220.98,226.274h0.461v0.419h-0.461V226.274z"/></g><g><path d="M1254.57,233.651h-2.522v-1.376h0.388v0.849h0.622v-0.783h0.388v0.783h0.737v-0.877h0.388V233.651z"/></g><g><path d="M1254.57,231.898h-2.522v-0.528h2.104v-0.79h0.419V231.898z"/></g><g><path d="M1254.57,230.348h-2.522v-1.376h0.388v0.849h0.622v-0.783h0.388v0.783h0.737v-0.877h0.388V230.348z"/></g><g><path d="M1252.047,228.8v-0.548l1.834-0.392v-0.007l-1.834-0.44v-0.521l2.522,0.667v0.618L1252.047,228.8z"/></g><g><path d="M1254.109,226.274h0.461v0.419h-0.461V226.274z"/></g><path d="M1211.722,224.672v0.215c-0.085-0.205-0.286-0.349-0.524-0.349c-0.312,0-0.567,0.254-0.567,0.567   c0,0.312,0.254,0.567,0.567,0.567c0.238,0,0.439-0.145,0.524-0.35v0.221c0,0.29,0.235,0.524,0.524,0.524h1.309   c0.365,0,0.516-0.205,0.574-0.506h1.825v-0.917h-1.825c-0.061-0.295-0.213-0.497-0.574-0.497h-1.309   C1211.958,224.148,1211.722,224.383,1211.722,224.672z"/><path d="M1259.248,224.497v-0.35l-1.047,0.35v0.393c-0.085-0.204-0.286-0.35-0.523-0.35c-0.313,0-0.567,0.254-0.567,0.567   c0,0.314,0.254,0.568,0.567,0.568c0.237,0,0.438-0.144,0.523-0.35v0.392l1.047,0.35v-0.35l1.395,0.35v-0.488l1.79-0.189v-0.566   l-1.79-0.188v-0.489L1259.248,224.497z"/><g><path d="M1231.485,315.657v-2.523h0.937c0.401,0,0.733,0.115,0.733,0.653c0,0.29-0.144,0.5-0.43,0.556v0.007    c0.374,0.052,0.472,0.293,0.472,0.639c0,0.64-0.556,0.667-0.779,0.667H1231.485z M1232.012,314.165h0.353    c0.115,0,0.276-0.077,0.276-0.321c0-0.185-0.126-0.321-0.304-0.321h-0.325V314.165z M1232.012,315.269h0.293    c0.112,0,0.364-0.003,0.364-0.356c0-0.224-0.084-0.36-0.35-0.36h-0.308V315.269z"/></g><g><path d="M1233.424,315.657l0.698-2.523h0.695l0.686,2.523h-0.556l-0.14-0.559h-0.721l-0.143,0.559H1233.424z M1234.441,313.62    h-0.007l-0.241,1.09h0.503L1234.441,313.62z"/></g><g><path d="M1236.272,315.657h-0.527v-2.523h0.975c0.36,0,0.591,0.23,0.591,0.661c0,0.321-0.126,0.562-0.469,0.618v0.007    c0.115,0.014,0.458,0.042,0.458,0.496c0,0.161,0.011,0.636,0.06,0.741h-0.518c-0.069-0.154-0.056-0.325-0.056-0.489    c0-0.3,0.028-0.556-0.377-0.556h-0.137V315.657z M1236.272,314.224h0.234c0.209,0,0.269-0.209,0.269-0.371    c0-0.241-0.102-0.332-0.269-0.332h-0.234V314.224z"/></g><g><path d="M1221.883,331.927c0-0.667,0-1.304,0.87-1.304c0.538,0,0.755,0.297,0.734,0.839h-0.518c0-0.335-0.06-0.461-0.217-0.461    c-0.297,0-0.335,0.28-0.335,0.926s0.038,0.926,0.335,0.926c0.245,0,0.234-0.314,0.241-0.514h0.521    c0,0.674-0.269,0.891-0.762,0.891C1221.883,333.23,1221.883,332.587,1221.883,331.927z"/></g><g><path d="M1223.663,333.188l0.698-2.523h0.695l0.686,2.523h-0.556l-0.14-0.559h-0.721l-0.143,0.559H1223.663z M1224.679,331.151    h-0.007l-0.241,1.09h0.503L1224.679,331.151z"/></g><g><path d="M1226.678,333.23c-0.653,0-0.776-0.384-0.748-0.821h0.527c0,0.241,0.011,0.444,0.301,0.444    c0.179,0,0.266-0.115,0.266-0.287c0-0.454-1.062-0.482-1.062-1.233c0-0.395,0.188-0.709,0.832-0.709    c0.514,0,0.769,0.231,0.733,0.758h-0.514c0-0.188-0.031-0.381-0.244-0.381c-0.172,0-0.272,0.094-0.272,0.269    c0,0.479,1.062,0.437,1.062,1.23C1227.558,333.153,1227.08,333.23,1226.678,333.23z"/></g><g><path d="M1227.939,333.188v-2.523h0.528v2.523H1227.939z"/></g><g><path d="M1228.916,333.188v-2.523h0.713l0.671,1.747h0.007v-1.747h0.493v2.523h-0.695l-0.688-1.845h-0.007v1.845H1228.916z"/></g><g><path d="M1231.222,331.927c0-0.667,0-1.304,0.87-1.304s0.87,0.636,0.87,1.304c0,0.66,0,1.303-0.87,1.303    S1231.222,332.587,1231.222,331.927z M1232.428,331.927c0-0.646-0.039-0.926-0.336-0.926s-0.335,0.28-0.335,0.926    s0.038,0.926,0.335,0.926S1232.428,332.573,1232.428,331.927z"/></g><g><path d="M1222.427,337.065h-0.527v-2.523h0.975c0.36,0,0.591,0.231,0.591,0.661c0,0.321-0.126,0.562-0.469,0.618v0.007    c0.115,0.014,0.458,0.042,0.458,0.496c0,0.161,0.011,0.636,0.06,0.741h-0.518c-0.069-0.154-0.056-0.325-0.056-0.489    c0-0.3,0.028-0.556-0.377-0.556h-0.137V337.065z M1222.427,335.633h0.234c0.209,0,0.269-0.209,0.269-0.371    c0-0.241-0.102-0.332-0.269-0.332h-0.234V335.633z"/></g><g><path d="M1223.832,335.804c0-0.667,0-1.304,0.87-1.304s0.87,0.636,0.87,1.304c0,0.66,0,1.303-0.87,1.303    S1223.832,336.464,1223.832,335.804z M1225.038,335.804c0-0.646-0.039-0.926-0.336-0.926s-0.335,0.28-0.335,0.926    c0,0.646,0.038,0.926,0.335,0.926S1225.038,336.45,1225.038,335.804z"/></g><g><path d="M1226.46,336.192l-0.66-1.649h0.576l0.378,1.066l0.401-1.066h0.538l-0.705,1.649v0.874h-0.528V336.192z"/></g><g><path d="M1227.75,337.065l0.698-2.523h0.695l0.686,2.523h-0.556l-0.14-0.559h-0.721l-0.143,0.559H1227.75z M1228.766,335.028    h-0.007l-0.241,1.09h0.503L1228.766,335.028z"/></g><g><path d="M1230.084,337.065v-2.523h0.527v2.104h0.79v0.419H1230.084z"/></g><g><path d="M1231.633,337.065v-2.523h1.377v0.388h-0.849v0.622h0.782v0.388h-0.782v0.737h0.877v0.388H1231.633z"/></g><g><path d="M1247.219,444.027v-2.522h0.937c0.401,0,0.733,0.115,0.733,0.653c0,0.29-0.144,0.499-0.43,0.556v0.007    c0.374,0.052,0.472,0.293,0.472,0.64c0,0.639-0.556,0.667-0.779,0.667H1247.219z M1247.747,442.535h0.353    c0.115,0,0.276-0.077,0.276-0.321c0-0.186-0.126-0.321-0.304-0.321h-0.325V442.535z M1247.747,443.64h0.293    c0.112,0,0.364-0.004,0.364-0.356c0-0.224-0.084-0.36-0.35-0.36h-0.308V443.64z"/></g><g><path d="M1249.326,442.766c0-0.667,0-1.303,0.87-1.303s0.87,0.636,0.87,1.303c0,0.661,0,1.304-0.87,1.304    S1249.326,443.427,1249.326,442.766z M1250.532,442.766c0-0.646-0.039-0.926-0.336-0.926s-0.335,0.279-0.335,0.926    s0.038,0.926,0.335,0.926S1250.532,443.412,1250.532,442.766z"/></g><g><path d="M1251.493,444.027v-2.522h0.527v2.104h0.79v0.419H1251.493z"/></g><g><path d="M1253.043,444.027v-2.522h1.377v0.388h-0.849v0.622h0.782v0.388h-0.782v0.737h0.877v0.388H1253.043z"/></g><g><path d="M1255.31,444.027h-0.527v-2.522h0.975c0.36,0,0.591,0.23,0.591,0.66c0,0.321-0.126,0.562-0.469,0.618v0.007    c0.115,0.015,0.458,0.042,0.458,0.496c0,0.161,0.011,0.637,0.06,0.741h-0.518c-0.069-0.153-0.056-0.325-0.056-0.489    c0-0.301,0.028-0.556-0.377-0.556h-0.137V444.027z M1255.31,442.595h0.234c0.209,0,0.269-0.21,0.269-0.37    c0-0.241-0.102-0.332-0.269-0.332h-0.234V442.595z"/></g><g><path d="M1256.714,442.766c0-0.667,0-1.303,0.87-1.303s0.87,0.636,0.87,1.303c0,0.661,0,1.304-0.87,1.304    S1256.714,443.427,1256.714,442.766z M1257.921,442.766c0-0.646-0.039-0.926-0.336-0.926s-0.335,0.279-0.335,0.926    s0.038,0.926,0.335,0.926S1257.921,443.412,1257.921,442.766z"/></g><g><path d="M1259.563,444.069c-0.653,0-0.776-0.385-0.748-0.821h0.527c0,0.241,0.011,0.443,0.301,0.443    c0.179,0,0.266-0.115,0.266-0.286c0-0.454-1.062-0.482-1.062-1.233c0-0.395,0.188-0.709,0.832-0.709    c0.514,0,0.769,0.23,0.733,0.758h-0.514c0-0.188-0.031-0.381-0.244-0.381c-0.172,0-0.272,0.095-0.272,0.27    c0,0.479,1.062,0.437,1.062,1.229C1260.443,443.992,1259.964,444.069,1259.563,444.069z"/></g><g><path d="M1212.737,452.603v-2.522h0.937c0.401,0,0.733,0.115,0.733,0.653c0,0.29-0.144,0.499-0.43,0.556v0.007    c0.374,0.052,0.472,0.293,0.472,0.64c0,0.639-0.556,0.667-0.779,0.667H1212.737z M1213.264,451.11h0.353    c0.115,0,0.276-0.077,0.276-0.321c0-0.186-0.126-0.321-0.304-0.321h-0.325V451.11z M1213.264,452.215h0.293    c0.112,0,0.364-0.004,0.364-0.356c0-0.224-0.084-0.36-0.35-0.36h-0.308V452.215z"/></g><g><path d="M1214.843,451.341c0-0.667,0-1.303,0.87-1.303s0.87,0.636,0.87,1.303c0,0.661,0,1.304-0.87,1.304    S1214.843,452.002,1214.843,451.341z M1216.049,451.341c0-0.646-0.039-0.926-0.336-0.926s-0.335,0.279-0.335,0.926    s0.038,0.926,0.335,0.926S1216.049,451.987,1216.049,451.341z"/></g><g><path d="M1217.01,452.603v-2.522h0.527v2.104h0.79v0.419H1217.01z"/></g><g><path d="M1218.56,452.603v-2.522h1.377v0.388h-0.849v0.622h0.782v0.388h-0.782v0.737h0.877v0.388H1218.56z"/></g><g><path d="M1220.828,452.603h-0.527v-2.522h0.975c0.36,0,0.591,0.23,0.591,0.66c0,0.321-0.126,0.562-0.469,0.618v0.007    c0.115,0.015,0.458,0.042,0.458,0.496c0,0.161,0.011,0.637,0.06,0.741h-0.518c-0.069-0.153-0.056-0.325-0.056-0.489    c0-0.301,0.028-0.556-0.377-0.556h-0.137V452.603z M1220.828,451.17h0.234c0.209,0,0.269-0.21,0.269-0.37    c0-0.241-0.102-0.332-0.269-0.332h-0.234V451.17z"/></g><g><path d="M1222.232,451.341c0-0.667,0-1.303,0.87-1.303s0.87,0.636,0.87,1.303c0,0.661,0,1.304-0.87,1.304    S1222.232,452.002,1222.232,451.341z M1223.438,451.341c0-0.646-0.039-0.926-0.336-0.926s-0.335,0.279-0.335,0.926    s0.038,0.926,0.335,0.926S1223.438,451.987,1223.438,451.341z"/></g><g><path d="M1225.081,452.645c-0.653,0-0.776-0.385-0.748-0.821h0.527c0,0.241,0.011,0.443,0.301,0.443    c0.179,0,0.266-0.115,0.266-0.286c0-0.454-1.062-0.482-1.062-1.233c0-0.395,0.188-0.709,0.832-0.709    c0.514,0,0.769,0.23,0.733,0.758h-0.514c0-0.188-0.031-0.381-0.244-0.381c-0.172,0-0.272,0.095-0.272,0.27    c0,0.479,1.062,0.437,1.062,1.229C1225.961,452.567,1225.482,452.645,1225.081,452.645z"/></g><path d="M1213.791,487.814h-0.264c0.252-0.105,0.431-0.354,0.431-0.647c0-0.386-0.313-0.7-0.701-0.7   c-0.386,0-0.699,0.314-0.699,0.7c0,0.293,0.177,0.541,0.431,0.647h-0.274c-0.355,0-0.646,0.288-0.646,0.646v1.615   c0,0.452,0.252,0.64,0.623,0.712v2.25h1.132v-2.251c0.366-0.074,0.614-0.263,0.614-0.711v-1.615   C1214.437,488.102,1214.148,487.814,1213.791,487.814z"/><path d="M1261.17,491.733h0.429l-0.429-1.291h-0.488c0.255-0.104,0.434-0.355,0.434-0.648c0-0.386-0.313-0.698-0.701-0.698   c-0.386,0-0.699,0.312-0.699,0.698c0,0.293,0.179,0.544,0.431,0.648h-0.485l-0.431,1.291h0.431l-0.431,1.724h0.604l0.231,2.208   h0.701l0.229-2.208h0.604L1261.17,491.733z"/><g><path d="M1219.533,469.357h-2.522v-1.377h0.388v0.849h0.622v-0.782h0.388v0.782h0.737v-0.877h0.388V469.357z"/></g><g><path d="M1219.533,467.604h-2.522v-0.527h2.104v-0.79h0.419V467.604z"/></g><g><path d="M1219.533,466.054h-2.522v-1.377h0.388v0.849h0.622v-0.782h0.388v0.782h0.737v-0.877h0.388V466.054z"/></g><g><path d="M1217.01,464.506v-0.549l1.834-0.391v-0.008l-1.834-0.439v-0.521l2.522,0.668v0.618L1217.01,464.506z"/></g><g><path d="M1219.072,461.979h0.461v0.42h-0.461V461.979z"/></g><g><path d="M1256.244,469.319h-2.522v-1.377h0.388v0.849h0.622v-0.782h0.388v0.782h0.737v-0.877h0.388V469.319z"/></g><g><path d="M1256.244,467.565h-2.522v-0.527h2.104v-0.79h0.419V467.565z"/></g><g><path d="M1256.244,466.016h-2.522v-1.377h0.388v0.849h0.622v-0.782h0.388v0.782h0.737v-0.877h0.388V466.016z"/></g><g><path d="M1253.721,464.468v-0.549l1.834-0.391v-0.008l-1.834-0.439v-0.521l2.522,0.668v0.618L1253.721,464.468z"/></g><g><path d="M1255.783,461.941h0.461v0.42h-0.461V461.941z"/></g><g><g><path d="M1214.371,271.004v-2.522h0.528v2.522H1214.371z"/></g></g><g><g><path d="M1215.25,268.481h1.52v0.457l-1.062,1.678h1.086v0.388h-1.593v-0.461l1.059-1.674h-1.01V268.481z"/></g></g><g><g><path d="M1218.799,268.481v1.789c0,0.377-0.214,0.775-0.856,0.775c-0.58,0-0.859-0.301-0.859-0.775v-1.789h0.527v1.754     c0,0.311,0.133,0.433,0.325,0.433c0.23,0,0.335-0.153,0.335-0.433v-1.754H1218.799z"/></g></g><g><g><path d="M1219.222,271.004v-2.522h0.849l0.395,1.715h0.008l0.419-1.715h0.821v2.522h-0.514v-1.946h-0.007l-0.486,1.946h-0.503     l-0.461-1.946h-0.007v1.946H1219.222z"/></g></g><g><g><path d="M1222.147,271.004v-2.522h0.528v2.522H1222.147z"/></g></g><g><g><path d="M1246.903,422.825v-0.95c0-0.482,0.293-0.671,0.754-0.671c0.287,0,0.741,0.084,0.741,0.702v0.392h1.027v0.527H1246.903z      M1248.01,422.298v-0.294c0-0.157-0.171-0.266-0.339-0.266c-0.206,0-0.381,0.056-0.381,0.294v0.266H1248.01z"/></g></g><g><g><path d="M1249.425,420.879h-2.522v-0.527h2.104v-0.79h0.419V420.879z"/></g></g><g><g><path d="M1249.425,419.521l-2.522-0.698v-0.695l2.522-0.686v0.556l-0.559,0.14v0.721l0.559,0.143V419.521z M1247.388,418.504     v0.007l1.09,0.241v-0.503L1247.388,418.504z"/></g></g><g><g><path d="M1248.551,416.726l-1.648,0.66v-0.576l1.065-0.378l-1.065-0.401v-0.538l1.648,0.705h0.874v0.528H1248.551z"/></g></g><g><g><path d="M1249.425,415.254h-2.522v-0.849l1.715-0.396v-0.007l-1.715-0.419v-0.821h2.522v0.514h-1.946v0.007l1.946,0.486v0.503     l-1.946,0.461v0.007h1.946V415.254z"/></g></g><g><g><path d="M1249.425,412.521l-2.522-0.698v-0.695l2.522-0.686v0.556l-0.559,0.14v0.721l0.559,0.143V412.521z M1247.388,411.504     v0.007l1.09,0.241v-0.503L1247.388,411.504z"/></g></g><g><g><path d="M1246.903,409.068v-0.58l1.132,0.706l1.391-0.706v0.594l-1.293,0.604v0.007h1.293v0.528h-2.522v-0.528h1.079v-0.007     L1246.903,409.068z"/></g></g><g><g><path d="M1249.425,408.244h-2.522v-1.377h0.388v0.849h0.622v-0.782h0.388v0.782h0.737v-0.877h0.388V408.244z"/></g></g><g><g><path d="M1249.425,405.977v0.527h-2.522v-0.975c0-0.36,0.23-0.591,0.66-0.591c0.321,0,0.562,0.126,0.618,0.469h0.007     c0.015-0.115,0.042-0.458,0.496-0.458c0.161,0,0.637-0.011,0.741-0.06v0.518c-0.153,0.069-0.325,0.056-0.489,0.056     c-0.301,0-0.556-0.028-0.556,0.377v0.137H1249.425z M1247.993,405.977v-0.234c0-0.209-0.21-0.269-0.37-0.269     c-0.241,0-0.332,0.102-0.332,0.269v0.234H1247.993z"/></g></g><g><g><path d="M1249.467,403.862c0,0.653-0.385,0.776-0.821,0.748v-0.527c0.241,0,0.443-0.011,0.443-0.301     c0-0.179-0.115-0.266-0.286-0.266c-0.454,0-0.482,1.062-1.233,1.062c-0.395,0-0.709-0.188-0.709-0.832     c0-0.514,0.23-0.769,0.758-0.733v0.514c-0.188,0-0.381,0.031-0.381,0.244c0,0.172,0.095,0.272,0.27,0.272     c0.479,0,0.437-1.062,1.229-1.062C1249.39,402.982,1249.467,403.461,1249.467,403.862z"/></g></g><g><g><path d="M1249.467,401.139c0,0.653-0.385,0.776-0.821,0.748v-0.527c0.241,0,0.443-0.011,0.443-0.301     c0-0.179-0.115-0.266-0.286-0.266c-0.454,0-0.482,1.062-1.233,1.062c-0.395,0-0.709-0.188-0.709-0.832     c0-0.514,0.23-0.769,0.758-0.733v0.514c-0.188,0-0.381,0.031-0.381,0.244c0,0.172,0.095,0.272,0.27,0.272     c0.479,0,0.437-1.062,1.229-1.062C1249.39,400.259,1249.467,400.737,1249.467,401.139z"/></g></g><g><g><path d="M1246.903,399.874v-0.95c0-0.482,0.293-0.671,0.754-0.671c0.287,0,0.741,0.084,0.741,0.702v0.392h1.027v0.527H1246.903z      M1248.01,399.347v-0.294c0-0.157-0.171-0.266-0.339-0.266c-0.206,0-0.381,0.056-0.381,0.294v0.266H1248.01z"/></g></g><g><g><path d="M1248.164,397.956c-0.667,0-1.303,0-1.303-0.87s0.636-0.87,1.303-0.87c0.661,0,1.304,0,1.304,0.87     S1248.825,397.956,1248.164,397.956z M1248.164,396.75c-0.646,0-0.926,0.039-0.926,0.336s0.279,0.335,0.926,0.335     s0.926-0.038,0.926-0.335S1248.81,396.75,1248.164,396.75z"/></g></g><g><g><path d="M1249.425,395.275v0.527h-2.522v-0.975c0-0.36,0.23-0.591,0.66-0.591c0.321,0,0.562,0.126,0.618,0.469h0.007     c0.015-0.115,0.042-0.458,0.496-0.458c0.161,0,0.637-0.011,0.741-0.06v0.518c-0.153,0.069-0.325,0.056-0.489,0.056     c-0.301,0-0.556-0.028-0.556,0.377v0.137H1249.425z M1247.993,395.275v-0.234c0-0.209-0.21-0.269-0.37-0.269     c-0.241,0-0.332,0.102-0.332,0.269v0.234H1247.993z"/></g></g><g><g><path d="M1246.903,392.344h0.419v0.587h2.104v0.527h-2.104v0.588h-0.419V392.344z"/></g></g><g><g><path d="M1249.467,391.411c0,0.653-0.385,0.776-0.821,0.748v-0.527c0.241,0,0.443-0.011,0.443-0.301     c0-0.179-0.115-0.266-0.286-0.266c-0.454,0-0.482,1.062-1.233,1.062c-0.395,0-0.709-0.188-0.709-0.832     c0-0.514,0.23-0.769,0.758-0.733v0.514c-0.188,0-0.381,0.031-0.381,0.244c0,0.172,0.095,0.272,0.27,0.272     c0.479,0,0.437-1.062,1.229-1.062C1249.39,390.531,1249.467,391.01,1249.467,391.411z"/></g></g><g><g><path d="M1249.425,389.365h-2.522v-0.937c0-0.401,0.115-0.733,0.653-0.733c0.29,0,0.499,0.144,0.556,0.43h0.007     c0.052-0.374,0.293-0.472,0.64-0.472c0.639,0,0.667,0.556,0.667,0.779V389.365z M1247.933,388.838v-0.353     c0-0.115-0.077-0.276-0.321-0.276c-0.186,0-0.321,0.126-0.321,0.304v0.325H1247.933z M1249.038,388.838v-0.293     c0-0.112-0.004-0.364-0.356-0.364c-0.224,0-0.36,0.084-0.36,0.35v0.308H1249.038z"/></g></g><g><g><path d="M1249.425,387.426l-2.522-0.698v-0.695l2.522-0.686v0.556l-0.559,0.14v0.721l0.559,0.143V387.426z M1247.388,386.409     v0.007l1.09,0.241v-0.503L1247.388,386.409z"/></g></g><g><g><path d="M1249.425,384.578v0.527h-2.522v-0.975c0-0.36,0.23-0.591,0.66-0.591c0.321,0,0.562,0.126,0.618,0.469h0.007     c0.015-0.115,0.042-0.458,0.496-0.458c0.161,0,0.637-0.011,0.741-0.06v0.518c-0.153,0.069-0.325,0.056-0.489,0.056     c-0.301,0-0.556-0.028-0.556,0.377v0.137H1249.425z M1247.993,384.578v-0.234c0-0.209-0.21-0.269-0.37-0.269     c-0.241,0-0.332,0.102-0.332,0.269v0.234H1247.993z"/></g></g><g><g><path d="M1253.104,409.149c0.195,0.199,0.241,0.433,0.241,0.702c0,0.58-0.272,0.901-0.766,0.901c-0.335,0-0.548-0.234-0.72-0.496     c-0.171,0.133-0.37,0.279-0.632,0.279c-0.28,0-0.489-0.332-0.489-0.762c0-0.241,0.111-0.64,0.492-0.64     c0.329,0,0.496,0.228,0.678,0.43l0.518-0.395c-0.164-0.045-0.259-0.056-0.503-0.056v-0.427c0.262,0,0.59,0,0.862,0.172     l0.518-0.381v0.517L1253.104,409.149z M1251.27,409.617c-0.133,0-0.217,0.08-0.217,0.217c0,0.112,0.08,0.22,0.199,0.22     c0.143,0,0.258-0.094,0.363-0.185C1251.539,409.747,1251.427,409.617,1251.27,409.617z M1252.172,409.971     c0.098,0.125,0.241,0.255,0.408,0.255c0.241,0,0.389-0.144,0.389-0.385c0-0.15-0.05-0.293-0.168-0.384L1252.172,409.971z"/></g></g><g><g><path d="M1253.303,407.655l-2.522-0.698v-0.695l2.522-0.686v0.556l-0.56,0.14v0.721l0.56,0.143V407.655z M1251.266,406.639v0.007     l1.09,0.241v-0.503L1251.266,406.639z"/></g></g><g><g><path d="M1253.303,404.808v0.527h-2.522v-0.975c0-0.36,0.23-0.591,0.66-0.591c0.321,0,0.562,0.126,0.618,0.469h0.007     c0.015-0.115,0.042-0.458,0.496-0.458c0.161,0,0.637-0.011,0.741-0.06v0.518c-0.153,0.069-0.325,0.056-0.489,0.056     c-0.301,0-0.556-0.028-0.556,0.377v0.137H1253.303z M1251.871,404.808v-0.234c0-0.209-0.21-0.269-0.37-0.269     c-0.241,0-0.332,0.102-0.332,0.269v0.234H1251.871z"/></g></g><g><g><path d="M1252.042,403.403c-0.667,0-1.303,0-1.303-0.87c0-0.538,0.297-0.755,0.838-0.734v0.518c-0.335,0-0.461,0.06-0.461,0.217     c0,0.297,0.279,0.335,0.926,0.335s0.927-0.038,0.927-0.335c0-0.245-0.315-0.234-0.514-0.241v-0.521     c0.674,0,0.891,0.269,0.891,0.762C1253.345,403.403,1252.703,403.403,1252.042,403.403z"/></g></g><g><g><path d="M1253.303,401.624l-2.522-0.698v-0.695l2.522-0.686v0.556l-0.56,0.14v0.721l0.56,0.143V401.624z M1251.266,400.607v0.007     l1.09,0.241v-0.503L1251.266,400.607z"/></g></g><g><g><path d="M1250.781,399.283v-0.881c0-0.691,0.461-0.821,1.247-0.821c0.388,0,1.275-0.06,1.275,0.843v0.859H1250.781z      M1252.916,398.756V398.5c0-0.321-0.241-0.384-0.874-0.384c-0.465,0-0.873,0-0.873,0.366v0.273H1252.916z"/></g></g><g><g><path d="M1253.303,397.155h-2.522v-1.377h0.388v0.849h0.622v-0.782h0.388v0.782h0.737v-0.877h0.388V397.155z"/></g></g><g><path d="M1231.09,532.592h0.881c0.691,0,0.821,0.461,0.821,1.247c0,0.388,0.06,1.275-0.843,1.275h-0.859V532.592z     M1231.618,534.727h0.256c0.321,0,0.384-0.241,0.384-0.874c0-0.465,0-0.873-0.366-0.873h-0.273V534.727z"/></g><g><path d="M1233.218,535.114v-2.522h0.528v2.522H1233.218z"/></g><g><path d="M1234.195,535.114v-2.522h0.713l0.671,1.747h0.007v-1.747h0.493v2.522h-0.695l-0.688-1.845h-0.007v1.845H1234.195z"/></g><g><path d="M1236.526,535.114v-2.522h0.528v2.522H1236.526z"/></g><g><path d="M1237.503,535.114v-2.522h0.713l0.671,1.747h0.007v-1.747h0.493v2.522h-0.695l-0.688-1.845h-0.007v1.845H1237.503z"/></g><g><path d="M1240.986,533.367c0.004-0.234-0.035-0.44-0.314-0.44c-0.328,0-0.328,0.444-0.328,0.933c0,0.79,0.077,0.93,0.377,0.93    c0.088,0,0.182-0.021,0.263-0.049v-0.559h-0.287v-0.389h0.814v1.279c-0.144,0.028-0.503,0.084-0.713,0.084    c-0.888,0-0.989-0.367-0.989-1.324c0-0.636,0.032-1.282,0.895-1.282c0.518,0,0.839,0.29,0.808,0.817H1240.986z"/></g><g><path d="M1232.474,538.992h-0.527v-2.522h0.975c0.36,0,0.591,0.23,0.591,0.66c0,0.321-0.126,0.562-0.469,0.618v0.007    c0.115,0.015,0.458,0.042,0.458,0.496c0,0.161,0.011,0.637,0.06,0.741h-0.518c-0.069-0.153-0.056-0.325-0.056-0.489    c0-0.301,0.028-0.556-0.377-0.556h-0.137V538.992z M1232.474,537.56h0.234c0.209,0,0.269-0.21,0.269-0.37    c0-0.241-0.102-0.332-0.269-0.332h-0.234V537.56z"/></g><g><path d="M1233.879,537.73c0-0.667,0-1.303,0.87-1.303s0.87,0.636,0.87,1.303c0,0.661,0,1.304-0.87,1.304    S1233.879,538.392,1233.879,537.73z M1235.085,537.73c0-0.646-0.039-0.926-0.336-0.926s-0.335,0.279-0.335,0.926    s0.038,0.927,0.335,0.927S1235.085,538.377,1235.085,537.73z"/></g><g><path d="M1236.017,537.73c0-0.667,0-1.303,0.87-1.303s0.87,0.636,0.87,1.303c0,0.661,0,1.304-0.87,1.304    S1236.017,538.392,1236.017,537.73z M1237.223,537.73c0-0.646-0.039-0.926-0.336-0.926s-0.335,0.279-0.335,0.926    s0.038,0.927,0.335,0.927S1237.223,538.377,1237.223,537.73z"/></g><g><path d="M1238.171,538.992v-2.522h0.849l0.395,1.715h0.008l0.419-1.715h0.821v2.522h-0.514v-1.946h-0.007l-0.486,1.946h-0.503    l-0.461-1.946h-0.007v1.946H1238.171z"/></g></g><g id="ICONS"><g><path fill="#0089CF" d="M1248.823,258.384c0,1.814-1.471,3.286-3.287,3.286c-1.814,0-3.283-1.472-3.283-3.286    c0-1.815,1.469-3.287,3.283-3.287C1247.352,255.097,1248.823,256.569,1248.823,258.384z"/></g><g><g><path fill="#FFFFFF" d="M1247.314,256.922c0,0-1.139,1.187-1.478,1.526c-0.212,0.214-0.256,0.31-0.256,0.565     c0,0.158,0,1.072,0,1.292c0.11,0.021,0.104,0.128,0.065,0.155c0.151,0.113,0.159,0.123,0.44,0.158     c0.222,0.025,0.214,0.118,0.159,0.118h-1.564c-0.057,0-0.065-0.093,0.158-0.118c0.281-0.035,0.288-0.045,0.44-0.158     c-0.038-0.027-0.044-0.134,0.065-0.155c0-0.22,0-1.135,0-1.292c0-0.254-0.043-0.35-0.257-0.565     c-0.339-0.339-1.479-1.526-1.479-1.526H1247.314z"/></g></g><g><g><polygon fill="#0089CF" points="1246.644,256.727 1245.353,258.306 1245.388,258.333 1245.413,258.331 1246.705,256.752    "/></g></g><g><g><path fill="#0089CF" d="M1245.641,258.15c-0.183-0.033-0.311-0.177-0.286-0.317c0.026-0.142,0.196-0.232,0.378-0.2     c0.184,0.033,0.312,0.176,0.287,0.318C1245.995,258.093,1245.825,258.182,1245.641,258.15z"/></g></g><g><path fill="#0089CF" d="M1240.074,170.203c0,1.815-1.471,3.286-3.287,3.286c-1.813,0-3.284-1.471-3.284-3.286    c0-1.813,1.471-3.281,3.284-3.281C1238.603,166.921,1240.074,168.39,1240.074,170.203z"/></g><g><path fill="#FFFFFF" d="M1235.073,172.271c-0.01-0.009-0.019-0.019-0.029-0.028    C1235.055,172.252,1235.063,172.262,1235.073,172.271z"/></g><g><path fill="#FFFFFF" d="M1235.149,172.339c-0.014-0.01-0.028-0.022-0.04-0.034    C1235.121,172.317,1235.135,172.328,1235.149,172.339z"/></g><g><path fill="#FFFFFF" d="M1235.01,172.203c-0.013-0.014-0.027-0.032-0.041-0.046    C1234.982,172.171,1234.997,172.189,1235.01,172.203z"/></g><g><path fill="#FFFFFF" d="M1234.952,172.136c-0.02-0.026-0.039-0.048-0.06-0.075C1234.912,172.087,1234.932,172.11,1234.952,172.136    z"/></g><g><path fill="#FFFFFF" d="M1235.165,172.352c0.094,0.076,0.194,0.123,0.311,0.142l0.031-0.004c-0.015-0.001-0.029-0.003-0.043-0.006    C1235.351,172.469,1235.254,172.422,1235.165,172.352z"/></g><g><path fill="#FFFFFF" d="M1236.239,169.355c-0.108,0.024-0.229,0.048-0.356,0.066c-0.323,0.085-0.521,0.664-0.228,1.071    c0.3,0.415,0.024,0.521-0.117,0.517c0,0.106,0,0.24,0,0.24s0.416-0.072,0.623,0.449c-0.154-0.16-0.502-0.261-0.688-0.195    c-0.047,0.153-0.084,0.32,0.096,0.446c0.165,0.117,0.154,0.472-0.061,0.503c0.01,0.002,0.042,0.043,0.066,0.043    c0.291,0,0.467-0.16,0.681-0.433c0.212-0.274,0.549-0.45,0.538-0.894c-0.008-0.29-0.122-0.132,0.088-0.894    c-0.042-0.085-0.135-0.218-0.36-0.494C1236.384,169.617,1236.295,169.476,1236.239,169.355z M1235.915,171.016    c0.155-0.102,0.486-0.007,0.562,0.329C1236.353,171.203,1236.128,171.044,1235.915,171.016z M1236.484,170.426    c-0.013,0.038-0.052,0.042-0.089,0.03c-0.12-0.033-0.176-0.061-0.356-0.031c-0.021,0.003-0.045,0.001-0.068-0.008    c-0.075-0.024-0.118-0.1-0.09-0.176c0.025-0.076,0.106-0.105,0.186-0.114c0.147-0.016,0.302,0.084,0.368,0.151    C1236.494,170.337,1236.495,170.394,1236.484,170.426z M1236.169,169.967c-0.1-0.03-0.204-0.017-0.316,0.01    c0.038-0.154,0.184-0.19,0.315-0.156c0.13,0.034,0.263,0.125,0.372,0.389C1236.385,170.07,1236.269,169.999,1236.169,169.967z"/></g><g><path fill="#FFFFFF" d="M1235.077,170.127c-0.145-0.016-0.302,0.084-0.367,0.151c-0.059,0.059-0.062,0.116-0.05,0.149    c0.012,0.038,0.052,0.042,0.089,0.03c0.119-0.033,0.177-0.061,0.356-0.031c0.023,0.003,0.045,0.001,0.069-0.008    c0.075-0.024,0.116-0.1,0.09-0.176C1235.238,170.165,1235.156,170.135,1235.077,170.127z"/></g><g><path fill="#FFFFFF" d="M1234.978,169.821c-0.132,0.034-0.264,0.125-0.373,0.389c0.155-0.141,0.27-0.212,0.371-0.243    c0.1-0.03,0.205-0.017,0.316,0.01C1235.254,169.823,1235.108,169.787,1234.978,169.821z"/></g><g><path fill="#FFFFFF" d="M1234.679,171.345c0.124-0.142,0.35-0.301,0.562-0.329    C1235.086,170.914,1234.755,171.009,1234.679,171.345z"/></g><g><path fill="#FFFFFF" d="M1238.11,169.608c0.023,0.036,0.036,0.071,0.038,0.103C1238.146,169.679,1238.133,169.644,1238.11,169.608    z"/></g><g><path fill="#FFFFFF" d="M1236.89,170.233c-0.043-0.115-0.113-0.243-0.291-0.457c-0.142-0.169-0.237-0.314-0.291-0.437    c-0.022,0.006-0.044,0.011-0.069,0.017c0.056,0.12,0.145,0.261,0.28,0.424c0.225,0.275,0.318,0.408,0.36,0.494l0.002-0.006    C1236.885,170.254,1236.888,170.243,1236.89,170.233z"/></g><g><path fill="#FFFFFF" d="M1237.34,170.595c0.055-0.18,0.196-0.416,0.38-0.528C1237.535,170.036,1237.271,170.256,1237.34,170.595z"/></g><g><path fill="#FFFFFF" d="M1236.962,169.767c0.013-0.003,0.025-0.008,0.039-0.016c0.104-0.066,0.152-0.107,0.332-0.128    c0.023-0.003,0.044-0.011,0.065-0.026c0.067-0.044,0.087-0.13,0.04-0.194c-0.045-0.066-0.132-0.071-0.212-0.059    c-0.122,0.02-0.229,0.126-0.287,0.208C1236.954,169.61,1236.963,169.682,1236.962,169.767z"/></g><g><path fill="#FFFFFF" d="M1236.908,169.747c0.013,0.018,0.033,0.023,0.055,0.02c0.001-0.085-0.008-0.156-0.024-0.214    c-0.01,0.012-0.019,0.026-0.024,0.037C1236.874,169.661,1236.888,169.719,1236.908,169.747z"/></g><g><path fill="#FFFFFF" d="M1236.857,169.382c0.095-0.084,0.179-0.122,0.256-0.146c0.102-0.031,0.184-0.027,0.322,0.046    c-0.109-0.33-0.483-0.173-0.621,0.058C1236.83,169.352,1236.844,169.365,1236.857,169.382z"/></g><g><path fill="#FFFFFF" d="M1236.857,169.382c-0.013-0.018-0.027-0.031-0.043-0.042c-0.025,0.042-0.042,0.089-0.048,0.132    C1236.798,169.438,1236.827,169.407,1236.857,169.382z"/></g><g><path fill="#FFFFFF" d="M1235.552,172.564c-0.284,0-0.547-0.162-0.784-0.485c-0.052-0.071-0.112-0.137-0.176-0.203    c-0.183-0.195-0.37-0.394-0.352-0.749c0.005-0.088,0.018-0.139,0.028-0.181c0.024-0.095,0.04-0.164-0.094-0.702    c-0.138-0.555-0.047-0.815,0.054-0.936c0.074-0.09,0.177-0.132,0.291-0.126c0.078,0.005,0.19,0.032,0.321,0.065    c0.158,0.04,0.337,0.085,0.481,0.095l0.097,0.007c0.269,0.022,0.524,0.041,0.796-0.059c0.038-0.011,0.078,0.007,0.091,0.043    c0.014,0.037-0.006,0.076-0.042,0.091c-0.302,0.111-0.582,0.088-0.856,0.067l-0.096-0.008c-0.157-0.011-0.342-0.056-0.506-0.098    c-0.118-0.029-0.231-0.058-0.295-0.062c-0.047-0.004-0.117,0.007-0.174,0.076c-0.067,0.078-0.156,0.288-0.027,0.811    c0.137,0.549,0.128,0.64,0.094,0.769c-0.01,0.04-0.019,0.082-0.023,0.156c-0.016,0.295,0.144,0.463,0.313,0.644    c0.064,0.068,0.13,0.139,0.187,0.218c0.215,0.289,0.445,0.435,0.689,0.426c0.246-0.007,0.421-0.146,0.568-0.453    c0.017-0.035,0.06-0.051,0.094-0.033c0.036,0.017,0.05,0.06,0.033,0.094c-0.107,0.225-0.295,0.523-0.69,0.534    C1235.567,172.564,1235.559,172.564,1235.552,172.564z"/></g><g><path fill="#FFFFFF" d="M1238.321,171.436c-0.19,0-0.399-0.069-0.627-0.206c-0.066-0.041-0.14-0.079-0.211-0.111    c-0.246-0.123-0.502-0.249-0.625-0.594c-0.027-0.074-0.036-0.123-0.044-0.16c-0.02-0.095-0.03-0.14-0.372-0.603    c-0.34-0.459-0.357-0.736-0.31-0.885c0.034-0.111,0.114-0.19,0.221-0.229c0.071-0.024,0.184-0.04,0.315-0.06    c0.164-0.024,0.348-0.05,0.485-0.098c0.43-0.148,0.715-0.279,0.87-0.401c0.032-0.022,0.076-0.017,0.1,0.014    c0.023,0.03,0.018,0.075-0.012,0.098c-0.17,0.131-0.468,0.268-0.912,0.422c-0.15,0.053-0.342,0.08-0.51,0.105    c-0.119,0.018-0.231,0.033-0.291,0.054c-0.045,0.017-0.104,0.051-0.131,0.139c-0.031,0.095-0.034,0.324,0.287,0.759    c0.363,0.488,0.372,0.54,0.398,0.656c0.007,0.035,0.017,0.075,0.04,0.141c0.104,0.292,0.323,0.4,0.554,0.516    c0.074,0.036,0.149,0.074,0.222,0.119c0.31,0.186,0.58,0.229,0.801,0.129c0.224-0.101,0.332-0.297,0.349-0.638    c0.002-0.038,0.034-0.068,0.074-0.068c0.039,0.003,0.069,0.036,0.066,0.075c-0.011,0.248-0.071,0.595-0.432,0.76    C1238.531,171.412,1238.429,171.436,1238.321,171.436z"/></g><g><path fill="#FFFFFF" d="M1237.912,169.067c-0.207-0.355,0.343-0.536,0.589-0.371c-0.203-0.002-0.319,0.046-0.409,0.101    C1238.003,168.85,1237.949,168.917,1237.912,169.067z M1238.174,169.25c-0.079,0.019-0.153-0.022-0.172-0.101    c-0.018-0.078,0.033-0.144,0.096-0.196c0.115-0.09,0.3-0.09,0.391-0.07c0.081,0.017,0.115,0.065,0.122,0.099    c0.008,0.037-0.022,0.063-0.059,0.072c-0.118,0.036-0.182,0.044-0.316,0.163C1238.218,169.235,1238.198,169.244,1238.174,169.25z     M1238.514,169.69c0.155-0.101,0.486-0.005,0.56,0.331C1238.951,169.879,1238.726,169.719,1238.514,169.69z M1238.592,171.265    c0.241-0.041,0.397-0.323,0.478-0.662c0.081-0.337,0.316-0.636,0.125-1.035c-0.127-0.262-0.165-0.072-0.286-0.861    c-0.122-0.788-0.439-0.888-0.628-0.793c-0.143,0.072-0.357,0.264-0.628,0.432c-0.259,0.211-0.204,0.821,0.23,1.069    c0.013,0.008,0.025,0.016,0.038,0.024c0.005,0.003,0.007,0.007,0.012,0.008c0.007,0.005,0.015,0.009,0.022,0.013    c0.005,0.004,0.008,0.006,0.013,0.01c0.006,0.004,0.013,0.008,0.019,0.012c0.005,0.005,0.009,0.007,0.013,0.01    c0.006,0.004,0.011,0.008,0.016,0.012c0.005,0.004,0.008,0.007,0.012,0.009c0.005,0.007,0.007,0.009,0.013,0.013    c0.004,0.004,0.007,0.007,0.012,0.01c0.004,0.006,0.006,0.008,0.009,0.012c0.004,0.003,0.008,0.007,0.011,0.009    c0.003,0.004,0.005,0.006,0.008,0.011c0.004,0.004,0.008,0.007,0.011,0.01c0.001,0.003,0.004,0.005,0.005,0.008    c0.004,0.004,0.007,0.007,0.011,0.012c0.001,0.003,0.003,0.003,0.005,0.007c0.023,0.036,0.036,0.071,0.038,0.103l0,0    c0.001,0.005,0.002,0.011,0.002,0.016c0,0.104-0.093,0.179-0.165,0.211c0.044,0.095,0.109,0.246,0.109,0.246    s0.226,0.038,0.602-0.304c0.029,0.182-0.091,0.502-0.501,0.596c0.006,0.122,0.045,0.269,0.224,0.281    C1238.601,170.771,1238.775,171.051,1238.592,171.265z"/></g><g><path fill="#0089CF" d="M1240.737,549.93c0,1.813-1.47,3.286-3.285,3.286c-1.815,0-3.286-1.473-3.286-3.286    c0-1.814,1.471-3.286,3.286-3.286C1239.267,546.644,1240.737,548.116,1240.737,549.93z"/></g><g><path fill="#FFFFFF" d="M1236.307,548.812c0.026,0,0.046-0.023,0.046-0.046l0.013-0.851h0.045l0.035,0.851    c0,0.023,0.02,0.046,0.046,0.046c0.024,0,0.045-0.023,0.045-0.046l0-0.851h0.045l0.065,1.305c0,0,0.039,0.248-0.163,0.291    c0,0,0.002,0.229-0.103,0.229c-0.035,0.386,0.002,1.165,0.081,1.708c0.045,0.304,0.101,0.771-0.154,0.771    c-0.257,0-0.199-0.467-0.154-0.771c0.079-0.543,0.115-1.321,0.081-1.708c-0.105,0-0.103-0.229-0.103-0.229    c-0.201-0.043-0.164-0.291-0.164-0.291l0.066-1.305h0.045l-0.001,0.851c0,0.023,0.02,0.046,0.046,0.046    c0.025,0,0.045-0.023,0.045-0.046l0.034-0.851h0.045l0.012,0.851C1236.261,548.789,1236.281,548.812,1236.307,548.812z"/></g><g><path fill="#FFFFFF" d="M1237.446,549.856c-0.035,0.385,0.001,1.509,0.082,2.049c0.044,0.306,0.101,0.77-0.154,0.77    c-0.257,0-0.201-0.464-0.155-0.77c0.08-0.54,0.116-1.664,0.082-2.049c-0.018-0.081-0.032-0.208-0.145-0.249    c-0.114-0.039-0.098-2.177,0.364-2.352c0,0,0.091,0.013,0.083,0.175c-0.008,0.162,0.045,2.049,0.045,2.049    s0.016,0.106-0.042,0.162C1237.605,549.642,1237.45,549.748,1237.446,549.856z"/></g><g><path fill="#FFFFFF" d="M1238.419,549.739c0.035,0.386-0.002,1.165-0.082,1.708c-0.045,0.304-0.101,0.771,0.155,0.771    c0.256,0,0.199-0.467,0.155-0.771c-0.08-0.543-0.116-1.321-0.082-1.708c0.105,0,0.103-0.229,0.103-0.229    c0.196-0.09,0.32-0.26,0.289-0.775c-0.025-0.43-0.197-0.778-0.465-0.778c-0.267,0-0.438,0.347-0.464,0.778    c-0.031,0.516,0.092,0.686,0.289,0.775C1238.317,549.51,1238.314,549.739,1238.419,549.739L1238.419,549.739z"/></g><g><path fill="#0089CF" d="M1230.412,314.177c0,1.814-1.471,3.286-3.287,3.286c-1.814,0-3.283-1.472-3.283-3.286    c0-1.815,1.469-3.287,3.283-3.287C1228.94,310.89,1230.412,312.362,1230.412,314.177z"/></g><g><g><path fill="#FFFFFF" d="M1228.903,312.715c0,0-1.139,1.187-1.478,1.526c-0.212,0.214-0.256,0.31-0.256,0.565     c0,0.158,0,1.072,0,1.292c0.11,0.021,0.104,0.128,0.065,0.155c0.151,0.113,0.16,0.123,0.441,0.158     c0.222,0.025,0.213,0.118,0.158,0.118h-1.564c-0.057,0-0.065-0.093,0.158-0.118c0.281-0.035,0.288-0.045,0.44-0.158     c-0.038-0.027-0.044-0.134,0.065-0.155c0-0.22,0-1.134,0-1.292c0-0.254-0.043-0.35-0.257-0.565     c-0.339-0.339-1.478-1.526-1.478-1.526H1228.903z"/></g></g><g><g><polygon fill="#0089CF" points="1228.233,312.52 1226.942,314.099 1226.977,314.126 1227.002,314.124 1228.294,312.545    "/></g></g><g><g><path fill="#0089CF" d="M1227.23,313.943c-0.183-0.033-0.311-0.177-0.286-0.317c0.026-0.142,0.196-0.232,0.378-0.2     c0.184,0.033,0.312,0.176,0.287,0.318C1227.584,313.886,1227.414,313.975,1227.23,313.943z"/></g></g><g><path fill="#0089CF" d="M1217.722,433.733c0,1.814-1.471,3.286-3.287,3.286c-1.814,0-3.283-1.472-3.283-3.286    c0-1.815,1.469-3.287,3.283-3.287C1216.251,430.446,1217.722,431.918,1217.722,433.733z"/></g><g><g><path fill="#FFFFFF" d="M1216.214,432.271c0,0-1.139,1.187-1.478,1.526c-0.212,0.214-0.256,0.311-0.256,0.565     c0,0.158,0,1.072,0,1.292c0.11,0.021,0.104,0.128,0.065,0.155c0.151,0.113,0.159,0.123,0.44,0.158     c0.222,0.025,0.214,0.118,0.159,0.118h-1.564c-0.057,0-0.065-0.093,0.158-0.118c0.281-0.035,0.288-0.045,0.44-0.158     c-0.038-0.027-0.044-0.133,0.065-0.155c0-0.22,0-1.135,0-1.292c0-0.254-0.043-0.35-0.257-0.565     c-0.339-0.339-1.479-1.526-1.479-1.526H1216.214z"/></g></g><g><g><polygon fill="#0089CF" points="1215.543,432.076 1214.253,433.655 1214.288,433.682 1214.313,433.68 1215.604,432.101    "/></g></g><g><g><path fill="#0089CF" d="M1214.541,433.499c-0.183-0.033-0.311-0.176-0.286-0.317c0.026-0.142,0.196-0.232,0.378-0.2     c0.184,0.033,0.312,0.176,0.287,0.318C1214.894,433.442,1214.724,433.531,1214.541,433.499z"/></g></g><g><path fill="#0089CF" d="M1239.319,345.955c0,1.747-1.416,3.163-3.163,3.163c-1.747,0-3.162-1.416-3.162-3.163    c0-1.747,1.416-3.163,3.162-3.163C1237.903,342.793,1239.319,344.208,1239.319,345.955z"/></g><g><g><path fill="#FFFFFF" d="M1237.472,347.838c-0.047,0.171-0.226,0.272-0.398,0.225l-1.819-0.505     c-0.171-0.048-0.272-0.226-0.225-0.398l0.818-2.943c0.047-0.171,0.226-0.272,0.398-0.225l1.82,0.505     c0.171,0.048,0.272,0.226,0.225,0.398L1237.472,347.838z"/></g></g><g><path fill="#0089CF" d="M1237.161,348.146c-0.035,0-0.071-0.005-0.105-0.014l-1.819-0.505c-0.21-0.058-0.333-0.276-0.275-0.486    l0.818-2.943c0.047-0.17,0.204-0.289,0.381-0.289c0.035,0,0.071,0.005,0.105,0.014l1.819,0.505    c0.21,0.058,0.333,0.276,0.275,0.486l-0.818,2.943C1237.494,348.027,1237.338,348.146,1237.161,348.146z M1236.16,344.052    c-0.113,0-0.213,0.076-0.243,0.184l-0.818,2.943c-0.037,0.133,0.042,0.272,0.175,0.309l1.819,0.505    c0.132,0.037,0.273-0.045,0.309-0.175l0.818-2.943c0.037-0.133-0.042-0.272-0.175-0.309l-1.819-0.505    C1236.205,344.055,1236.182,344.052,1236.16,344.052z"/></g><g><g><path fill="#FFFFFF" d="M1237.497,347.336c0.014,0.177-0.12,0.333-0.297,0.347l-1.883,0.147c-0.177,0.014-0.333-0.12-0.347-0.297     l-0.238-3.045c-0.014-0.177,0.12-0.333,0.297-0.347l1.883-0.147c0.177-0.014,0.333,0.12,0.347,0.297L1237.497,347.336z"/></g></g><g><path fill="#0089CF" d="M1235.292,347.903c-0.205,0-0.378-0.16-0.394-0.364l-0.238-3.045c-0.017-0.217,0.146-0.407,0.363-0.424    l1.883-0.147c0.218-0.016,0.408,0.148,0.424,0.363l0.238,3.045c0.008,0.105-0.025,0.207-0.094,0.287    c-0.069,0.08-0.164,0.129-0.269,0.137l-1.882,0.147C1235.313,347.903,1235.303,347.903,1235.292,347.903z M1236.937,344.065    c-0.006,0-0.013,0-0.02,0.001l-1.883,0.147c-0.138,0.011-0.242,0.132-0.231,0.27l0.238,3.045c0.011,0.136,0.132,0.241,0.27,0.231    l1.883-0.147c0.066-0.005,0.127-0.036,0.171-0.087c0.044-0.051,0.065-0.116,0.06-0.183l-0.238-3.045    C1237.177,344.166,1237.067,344.065,1236.937,344.065z"/></g><g><g><path fill="#FFFFFF" d="M1237.346,346.82c0.074,0.162,0.001,0.354-0.16,0.428l-1.719,0.782c-0.162,0.074-0.354,0.002-0.428-0.16     l-1.266-2.78c-0.073-0.162-0.001-0.354,0.16-0.428l1.719-0.782c0.162-0.074,0.354-0.002,0.428,0.16L1237.346,346.82z"/></g></g><g><path fill="#0089CF" d="M1235.335,348.131c-0.155,0-0.296-0.091-0.36-0.231l-1.266-2.78c-0.09-0.198-0.002-0.432,0.196-0.523    l1.719-0.782c0.052-0.023,0.106-0.035,0.163-0.035c0.155,0,0.296,0.091,0.36,0.231l1.266,2.78c0.09,0.198,0.002,0.433-0.196,0.523    l-1.719,0.782C1235.446,348.119,1235.391,348.131,1235.335,348.131z M1235.786,343.923c-0.036,0-0.07,0.008-0.103,0.022    l-1.719,0.782c-0.126,0.057-0.182,0.207-0.125,0.333l1.266,2.78c0.041,0.089,0.131,0.147,0.229,0.147    c0.036,0,0.07-0.008,0.103-0.022l1.719-0.782c0.126-0.057,0.182-0.207,0.125-0.333l-1.266-2.78    C1235.975,343.981,1235.885,343.923,1235.786,343.923z"/></g><g><path fill="#0089CF" d="M1235.925,346.728l0.409-0.186c-0.331,0.072-0.487-0.144-0.609-0.412c0.052,0.038,0.186,0.096,0.381,0.007    c0.377-0.171,0.26-0.522,0.108-0.695c-0.205-0.233-0.693-0.135-1.057-0.402c-0.038,0.45-0.432,0.754-0.391,1.061    c0.03,0.228,0.219,0.546,0.595,0.375c0.195-0.089,0.239-0.228,0.245-0.292c0.122,0.267,0.182,0.528-0.09,0.73L1235.925,346.728z"/></g><g><path fill="#0089CF" d="M1254.297,433.448c0,1.814-1.471,3.286-3.287,3.286c-1.814,0-3.283-1.472-3.283-3.286    c0-1.815,1.469-3.287,3.283-3.287C1252.825,430.161,1254.297,431.633,1254.297,433.448z"/></g><g><g><path fill="#FFFFFF" d="M1252.788,431.986c0,0-1.139,1.187-1.478,1.526c-0.212,0.214-0.256,0.311-0.256,0.565     c0,0.158,0,1.072,0,1.292c0.11,0.021,0.104,0.128,0.065,0.155c0.151,0.113,0.159,0.123,0.44,0.158     c0.222,0.025,0.214,0.118,0.159,0.118h-1.564c-0.057,0-0.065-0.093,0.158-0.118c0.281-0.035,0.288-0.045,0.44-0.158     c-0.038-0.027-0.044-0.133,0.065-0.155c0-0.22,0-1.134,0-1.292c0-0.254-0.043-0.35-0.257-0.565     c-0.339-0.339-1.478-1.526-1.478-1.526H1252.788z"/></g></g><g><g><polygon fill="#0089CF" points="1252.118,431.791 1250.827,433.37 1250.862,433.397 1250.887,433.395 1252.178,431.816    "/></g></g><g><g><path fill="#0089CF" d="M1251.115,433.214c-0.183-0.033-0.311-0.177-0.286-0.317c0.026-0.142,0.196-0.232,0.378-0.2     c0.184,0.033,0.312,0.176,0.287,0.318C1251.468,433.157,1251.298,433.246,1251.115,433.214z"/></g></g></g></svg>