<?xml version="1.0" encoding="UTF-8"?><svg xmlns="http://www.w3.org/2000/svg" xmlns:xlink="http://www.w3.org/1999/xlink" contentScriptType="text/ecmascript" zoomAndPan="magnify" contentStyleType="text/css" enable-background="new 0 0 1526.667 783" version="1.1" width="500.0" xml:space="preserve" preserveAspectRatio="xMidYMid meet" viewBox="180.05103 115.944984 86.02197 134.10797" height="779.49835" x="0px" y="0px"><g id="DECKS"><path fill="#FFFFFF" id="IDP-Deck14" d="M222.907,118.951   l-2.252,0.119l-0.116,0.006l-0.116,0.016l-2.251,0.296l-0.197,0.026l-0.191,0.052l-2.193,0.592l-0.093,0.024l-0.094,0.032   l-2.25,0.771l-0.123,0.043l-0.117,0.051l-2.549,1.127l-0.103,0.046l-0.099,0.053l-2.432,1.304l-0.072,0.039l-0.069,0.042   l-2.429,1.482l-0.068,0.04l-0.064,0.043l-2.251,1.542l-0.08,0.055l-0.076,0.059l-2.192,1.719l-0.087,0.068l-0.081,0.075   l-2.016,1.838l-0.049,0.045l-0.048,0.048l-1.957,1.957l-0.047,0.046l-0.045,0.049l-1.896,2.075l-0.077,0.083l-0.069,0.089   l-1.719,2.193l-0.074,0.095l-0.068,0.101l-1.956,2.963l-0.061,0.092l-0.055,0.097l-1.718,3.083l-0.054,0.097l-0.047,0.102   l-1.481,3.201l-0.047,0.101l-0.038,0.104l-1.247,3.32l-0.046,0.125l-0.034,0.128l-0.948,3.438l-0.026,0.093l-0.019,0.094   l-0.712,3.438l-0.026,0.127l-0.017,0.13l-0.415,3.556l-0.011,0.097l-0.005,0.099l-0.177,3.557l-0.006,0.131l0.005,0.132   l0.117,3.022l0.004,0.09l0.008,0.089l0.296,2.963l0.01,0.087l0.013,0.087l0.475,2.963l0.014,0.09l0.021,0.09l0.651,2.905   l0.027,0.119l0.037,0.116l0.889,2.846l0.029,0.092l0.035,0.091l1.006,2.607l0.026,0.066l0.029,0.065l0.75,1.696l-0.71,3.651   l-0.011,0.055l-0.008,0.056l-0.712,4.564l-0.015,0.095l-0.007,0.095l-0.415,4.624l-0.008,0.094l-0.003,0.094   c0,0-0.119,4.623-0.119,4.699v43.345l7.171-2.048v-27.858l0.105-1.502l0.193-1.302l0.33-1.179l0.444-1.182l0.527-1.102l0.616-0.995   l0.709-0.946c0.259-0.274,0.879-0.933,0.833-0.884l0.858-0.859l0.912-0.684l1.049-0.648l2.731-1.45l2.83-1.277l2.959-1.06   l2.964-0.895l3.012-0.669l3.069-0.503l3.132-0.278l3.135-0.113l3.134,0.113l3.133,0.278l3.07,0.503l3.01,0.669l2.964,0.895   l2.959,1.06l2.83,1.277l2.733,1.45l1.047,0.648l0.947,0.71l0.849,0.802l0.782,0.879l0.736,0.981l0.616,0.995l0.525,1.102   l0.444,1.182l0.331,1.179l0.193,1.302l0.103,1.502v27.858l7.173,2.048c0,0,0-43.345-0.002-43.421l-0.119-4.623l-0.003-0.094   l-0.008-0.094l-0.415-4.624l-0.007-0.095l-0.015-0.095l-0.712-4.564l-0.008-0.056l-0.011-0.055l-0.71-3.651l0.749-1.696   l0.029-0.065l0.026-0.066l1.008-2.607l0.033-0.091l0.031-0.092l0.889-2.846l0.035-0.116l0.027-0.119l0.651-2.905l0.021-0.09   l0.014-0.09l0.474-2.963l0.013-0.087l0.01-0.087l0.296-2.963l0.009-0.089l0.003-0.089l0.119-3.023l0.003-0.107l-0.003-0.108   l-0.119-3.557l-0.004-0.148l-0.02-0.145l-0.475-3.556l-0.011-0.081l-0.015-0.08l-0.653-3.438l-0.027-0.142l-0.041-0.139   l-1.006-3.437l-0.03-0.105l-0.039-0.102l-1.245-3.32l-0.039-0.104l-0.047-0.101l-1.481-3.201l-0.047-0.102l-0.054-0.097   l-1.718-3.083l-0.055-0.097l-0.061-0.092l-1.956-2.963l-0.068-0.101l-0.074-0.095l-1.719-2.193l-0.054-0.07l-0.06-0.066   l-1.836-2.074l-0.062-0.067l-0.062-0.063l-1.956-1.957l-0.063-0.063l-0.067-0.059l-2.075-1.838l-0.065-0.059l-0.071-0.055   l-2.193-1.719l-0.076-0.059l-0.079-0.055l-2.253-1.542l-0.05-0.034l-0.052-0.032l-2.372-1.482l-0.095-0.06l-0.1-0.052l-2.489-1.304   l-0.088-0.045l-0.09-0.039l-2.549-1.127l-0.117-0.051l-0.121-0.043l-2.252-0.771l-0.092-0.032l-0.095-0.024l-2.193-0.592   l-0.191-0.052l-0.195-0.026l-2.253-0.296l-0.116-0.016l-0.115-0.006l-2.251-0.119l-0.156-0.008L222.907,118.951z" stroke-width="0.5984" stroke="#939598" stroke-linejoin="round"><path fill="#FFFFFF" id="IDP-Deck14" d="M222.907,118.951   l-2.252,0.119l-0.116,0.006l-0.116,0.016l-2.251,0.296l-0.197,0.026l-0.191,0.052l-2.193,0.592l-0.093,0.024l-0.094,0.032   l-2.25,0.771l-0.123,0.043l-0.117,0.051l-2.549,1.127l-0.103,0.046l-0.099,0.053l-2.432,1.304l-0.072,0.039l-0.069,0.042   l-2.429,1.482l-0.068,0.04l-0.064,0.043l-2.251,1.542l-0.08,0.055l-0.076,0.059l-2.192,1.719l-0.087,0.068l-0.081,0.075   l-2.016,1.838l-0.049,0.045l-0.048,0.048l-1.957,1.957l-0.047,0.046l-0.045,0.049l-1.896,2.075l-0.077,0.083l-0.069,0.089   l-1.719,2.193l-0.074,0.095l-0.068,0.101l-1.956,2.963l-0.061,0.092l-0.055,0.097l-1.718,3.083l-0.054,0.097l-0.047,0.102   l-1.481,3.201l-0.047,0.101l-0.038,0.104l-1.247,3.32l-0.046,0.125l-0.034,0.128l-0.948,3.438l-0.026,0.093l-0.019,0.094   l-0.712,3.438l-0.026,0.127l-0.017,0.13l-0.415,3.556l-0.011,0.097l-0.005,0.099l-0.177,3.557l-0.006,0.131l0.005,0.132   l0.117,3.022l0.004,0.09l0.008,0.089l0.296,2.963l0.01,0.087l0.013,0.087l0.475,2.963l0.014,0.09l0.021,0.09l0.651,2.905   l0.027,0.119l0.037,0.116l0.889,2.846l0.029,0.092l0.035,0.091l1.006,2.607l0.026,0.066l0.029,0.065l0.75,1.696l-0.71,3.651   l-0.011,0.055l-0.008,0.056l-0.712,4.564l-0.015,0.095l-0.007,0.095l-0.415,4.624l-0.008,0.094l-0.003,0.094   c0,0-0.119,4.623-0.119,4.699v43.345l7.171-2.048v-27.858l0.105-1.502l0.193-1.302l0.33-1.179l0.444-1.182l0.527-1.102l0.616-0.995   l0.709-0.946c0.259-0.274,0.879-0.933,0.833-0.884l0.858-0.859l0.912-0.684l1.049-0.648l2.731-1.45l2.83-1.277l2.959-1.06   l2.964-0.895l3.012-0.669l3.069-0.503l3.132-0.278l3.135-0.113l3.134,0.113l3.133,0.278l3.07,0.503l3.01,0.669l2.964,0.895   l2.959,1.06l2.83,1.277l2.733,1.45l1.047,0.648l0.947,0.71l0.849,0.802l0.782,0.879l0.736,0.981l0.616,0.995l0.525,1.102   l0.444,1.182l0.331,1.179l0.193,1.302l0.103,1.502v27.858l7.173,2.048c0,0,0-43.345-0.002-43.421l-0.119-4.623l-0.003-0.094   l-0.008-0.094l-0.415-4.624l-0.007-0.095l-0.015-0.095l-0.712-4.564l-0.008-0.056l-0.011-0.055l-0.71-3.651l0.749-1.696   l0.029-0.065l0.026-0.066l1.008-2.607l0.033-0.091l0.031-0.092l0.889-2.846l0.035-0.116l0.027-0.119l0.651-2.905l0.021-0.09   l0.014-0.09l0.474-2.963l0.013-0.087l0.01-0.087l0.296-2.963l0.009-0.089l0.003-0.089l0.119-3.023l0.003-0.107l-0.003-0.108   l-0.119-3.557l-0.004-0.148l-0.02-0.145l-0.475-3.556l-0.011-0.081l-0.015-0.08l-0.653-3.438l-0.027-0.142l-0.041-0.139   l-1.006-3.437l-0.03-0.105l-0.039-0.102l-1.245-3.32l-0.039-0.104l-0.047-0.101l-1.481-3.201l-0.047-0.102l-0.054-0.097   l-1.718-3.083l-0.055-0.097l-0.061-0.092l-1.956-2.963l-0.068-0.101l-0.074-0.095l-1.719-2.193l-0.054-0.07l-0.06-0.066   l-1.836-2.074l-0.062-0.067l-0.062-0.063l-1.956-1.957l-0.063-0.063l-0.067-0.059l-2.075-1.838l-0.065-0.059l-0.071-0.055   l-2.193-1.719l-0.076-0.059l-0.079-0.055l-2.253-1.542l-0.05-0.034l-0.052-0.032l-2.372-1.482l-0.095-0.06l-0.1-0.052l-2.489-1.304   l-0.088-0.045l-0.09-0.039l-2.549-1.127l-0.117-0.051l-0.121-0.043l-2.252-0.771l-0.092-0.032l-0.095-0.024l-2.193-0.592   l-0.191-0.052l-0.195-0.026l-2.253-0.296l-0.116-0.016l-0.115-0.006l-2.251-0.119l-0.156-0.008L222.907,118.951z" stroke-width="0.5984" stroke="#939598" stroke-linejoin="round"/></path></g><g id="DECKS_PUBLIC"><g><path fill="#FFFFFF" d="M227.319,161.796v5.112h-2.478v1.829h11.143v-8.662    C231.338,161.535,228.665,161.762,227.319,161.796z" stroke-width="0.2992" stroke="#939598"/></g><g><polyline fill="none" stroke-width="0.2992" points="203.385,160.616 201.725,160.616 201.013,165.536     201.013,180.116   " stroke="#939598"/></g><g><polygon fill="#FFFFFF" stroke-width="0.5984" points="215.95,138.922 215.95,138.922 217.493,140.167     218.796,141.826 219.626,143.664 220.041,145.917 219.981,147.753 219.388,149.71 218.379,151.546 216.958,153.087     213.767,153.087 213.767,138.922   " stroke="#939598"/></g><g><polygon fill="none" stroke-width="0.5984" points="220.811,122.029 218.558,122.326 216.365,122.918     214.113,123.689 211.564,124.814 209.135,126.12 206.703,127.602 204.451,129.143 202.258,130.861 200.243,132.699     198.288,134.655 196.39,136.729 194.672,138.922 192.715,141.885 190.996,144.967 189.514,148.168 188.269,151.487     187.322,154.925 186.61,158.363 186.195,161.92 186.018,165.477 186.135,168.499 186.432,171.462 186.906,174.426     187.558,177.331 188.448,180.176 189.456,182.784 190.581,185.333 189.692,189.896 188.981,194.46 188.566,199.084     188.448,203.707 188.448,217.043 189.692,217.043 189.811,215.325 190.048,213.724 190.462,212.243 190.996,210.82     191.649,209.457 192.419,208.211 193.307,207.026 194.316,205.96 195.323,204.952 196.51,204.063 197.754,203.292     200.658,201.751 203.681,200.388 206.822,199.262 209.964,198.313 213.164,197.602 216.425,197.069 219.744,196.772     223.063,196.653 226.382,196.772 229.702,197.069 232.961,197.602 236.161,198.313 239.303,199.262 242.445,200.388     245.468,201.751 248.373,203.292 249.618,204.063 250.802,204.952 251.868,205.96 252.818,207.026 253.706,208.211     254.478,209.457 255.129,210.82 255.663,212.243 256.078,213.724 256.314,215.325 256.433,217.043 257.678,217.043     257.678,203.707 257.559,199.084 257.144,194.46 256.433,189.896 255.544,185.333 256.671,182.784 257.678,180.176     258.567,177.331 259.22,174.426 259.692,171.462 259.99,168.499 260.109,165.477 259.99,161.92 259.515,158.363 258.865,154.925     257.857,151.487 256.612,148.168 255.129,144.967 253.411,141.885 251.455,138.922 249.735,136.729 247.899,134.655     245.942,132.699 243.868,130.861 241.674,129.143 239.422,127.602 237.05,126.12 234.561,124.814 232.013,123.689 229.76,122.918     227.567,122.326 225.316,122.029 223.063,121.911   " stroke="#939598"/></g><g><path fill="#FFFFFF" d="M224.248,161.963c-3.907-0.077-6.413-0.606-9.168-1.401h-0.73    v8.174h7.202v-2.489h0.503v-1.939h2.193V161.963z" stroke-width="0.2992" stroke="#939598"/></g><g><rect x="202.495" y="139.076" fill="#FFFFFF" width="4.208" height="12.234" stroke="#939598" stroke-width="0.2992"/></g><g><g><g><g><rect x="237.765" y="165.511" fill="#FFFFFF" width="2.251" height="0.814" stroke="#939598" stroke-width="0.2992"/></g></g></g></g><g><g><g><g><rect x="237.765" y="164.698" fill="#FFFFFF" width="2.251" height="0.813" stroke="#939598" stroke-width="0.2992"/></g></g></g></g><g><g><g><g><rect x="237.765" y="163.885" fill="#FFFFFF" width="2.251" height="0.812" stroke="#939598" stroke-width="0.2992"/></g></g></g></g><g><g><g><g><rect x="237.765" y="163.072" fill="#FFFFFF" width="2.251" height="0.813" stroke="#939598" stroke-width="0.2992"/></g></g></g></g><g><g><g><g><rect x="237.765" y="162.258" fill="#FFFFFF" width="2.251" height="0.814" stroke="#939598" stroke-width="0.2992"/></g></g></g></g><g><g><g><g><rect x="237.765" y="161.445" fill="#FFFFFF" width="2.251" height="0.813" stroke="#939598" stroke-width="0.2992"/></g></g></g></g><g><g><g><g><rect x="237.765" y="160.632" fill="#FFFFFF" width="2.251" height="0.812" stroke="#939598" stroke-width="0.2992"/></g></g></g></g><g><g><g><g><rect x="236.956" y="166.32" fill="#FFFFFF" width="0.814" height="2.416" stroke="#939598" stroke-width="0.2992"/></g></g></g></g><g><g><g><g><rect x="236.143" y="166.32" fill="#FFFFFF" width="0.813" height="2.416" stroke="#939598" stroke-width="0.2992"/></g></g></g></g><g><g><rect x="237.771" y="166.325" fill="#FFFFFF" width="2.245" height="2.411" stroke="#939598" stroke-width="0.2992"/></g></g><g><g><g><rect x="240.549" y="163.472" fill="#FFFFFF" width="2.25" height="0.812" stroke="#939598" stroke-width="0.2992"/></g></g></g><g><g><g><rect x="240.549" y="164.284" fill="#FFFFFF" width="2.25" height="0.813" stroke="#939598" stroke-width="0.2992"/></g></g></g><g><g><g><rect x="240.549" y="162.657" fill="#FFFFFF" width="2.25" height="0.815" stroke="#939598" stroke-width="0.2992"/></g></g></g><g><g><g><rect x="240.549" y="161.844" fill="#FFFFFF" width="2.25" height="0.812" stroke="#939598" stroke-width="0.2992"/></g></g></g><g><g><g><rect x="240.549" y="161.031" fill="#FFFFFF" width="2.25" height="0.813" stroke="#939598" stroke-width="0.2992"/></g></g></g><g><g><g><g><rect x="206.469" y="165.511" fill="#FFFFFF" width="2.251" height="0.814" stroke="#939598" stroke-width="0.2992"/></g></g></g></g><g><g><g><g><rect x="206.469" y="164.698" fill="#FFFFFF" width="2.251" height="0.813" stroke="#939598" stroke-width="0.2992"/></g></g></g></g><g><g><g><g><rect x="206.469" y="163.885" fill="#FFFFFF" width="2.251" height="0.812" stroke="#939598" stroke-width="0.2992"/></g></g></g></g><g><g><g><g><rect x="206.469" y="163.072" fill="#FFFFFF" width="2.251" height="0.813" stroke="#939598" stroke-width="0.2992"/></g></g></g></g><g><g><g><g><rect x="206.469" y="162.258" fill="#FFFFFF" width="2.251" height="0.814" stroke="#939598" stroke-width="0.2992"/></g></g></g></g><g><g><g><g><rect x="206.469" y="161.445" fill="#FFFFFF" width="2.251" height="0.813" stroke="#939598" stroke-width="0.2992"/></g></g></g></g><g><g><g><g><rect x="206.469" y="160.632" fill="#FFFFFF" width="2.251" height="0.812" stroke="#939598" stroke-width="0.2992"/></g></g></g></g><g><g><g><g><rect x="208.713" y="166.32" fill="#FFFFFF" width="0.813" height="2.416" stroke="#939598" stroke-width="0.2992"/></g></g></g></g><g><g><g><g><rect x="209.527" y="166.32" fill="#FFFFFF" width="0.813" height="2.416" stroke="#939598" stroke-width="0.2992"/></g></g></g></g><g><g><rect x="206.469" y="166.325" fill="#FFFFFF" width="2.245" height="2.411" stroke="#939598" stroke-width="0.2992"/></g></g><g><g><g><rect x="203.685" y="163.472" fill="#FFFFFF" width="2.25" height="0.812" stroke="#939598" stroke-width="0.2992"/></g></g></g><g><g><g><rect x="203.685" y="164.284" fill="#FFFFFF" width="2.25" height="0.813" stroke="#939598" stroke-width="0.2992"/></g></g></g><g><g><g><rect x="203.685" y="162.657" fill="#FFFFFF" width="2.25" height="0.815" stroke="#939598" stroke-width="0.2992"/></g></g></g><g><g><g><rect x="203.685" y="161.844" fill="#FFFFFF" width="2.25" height="0.812" stroke="#939598" stroke-width="0.2992"/></g></g></g><g><g><g><rect x="203.685" y="161.031" fill="#FFFFFF" width="2.25" height="0.813" stroke="#939598" stroke-width="0.2992"/></g></g></g><g><g><path fill="none" d="M188.536,180.116l16.153,0.009v4.997     c0,3.226,4.558,6.937,6.804,6.551c0,0,4.561-0.788,9.08-1.062v-1.959h4.98v1.924c4.523,0.23,8.84,1.061,8.84,1.061     c3.848,0.557,7.104-4.38,7.104-6.682c0-1.44,0-4.779,0-4.779h16.181" stroke-width="0.2992" stroke="#939598"/></g></g><g><path fill="none" d="M213.821,152.242h2.322c1.039,0,1.881-1.16,1.881-2.591l0,0    c0-1.431-0.842-2.592-1.881-2.592h-2.322V152.242z" stroke-width="0.2992" stroke="#939598"/></g><g><path fill="none" d="M213.821,145.544h2.322c1.039,0,1.881-1.161,1.881-2.592l0,0    c0-1.431-0.842-2.592-1.881-2.592h-2.322V145.544z" stroke-width="0.2992" stroke="#939598"/></g><g><path fill="none" d="M213.821,145.544h2.322c1.039,0,1.881-1.161,1.881-2.592l0,0    c0-1.431-0.842-2.592-1.881-2.592h-2.322V145.544z" stroke-width="0.2992" stroke="#939598"/></g><g><path fill="none" d="M241.496,180.176l2.667-10.314v-11.617l3.497-1.185l0.949-1.778    l-0.77-0.475c0,0,1.076-1.973-0.296-4.03" stroke-width="0.2992" stroke="#939598"/></g><g><path fill="none" d="M242.86,148.999l0.059,0.415l-0.004,0.046    c0.327-0.091,0.663-0.155,1.018-0.155c1.243,0,2.336,0.605,3.033,1.525l4.963-2.305l-0.652-1.363L242.86,148.999z" stroke-width="0.2992" stroke="#939598"/></g><g><path fill="#FFFFFF" d="M201.903,199.973    c-1.622-1.399-6.279-5.581-8.95-10.017l-2.219,1.724c-0.208,1.336-0.529,2.942-0.522,2.892c0,0-0.415,4.622-0.411,4.543    c0,0-0.118,4.624-0.118,4.592v4.208C190.535,207.211,196.688,201.569,201.903,199.973z" stroke-width="0.5984" stroke="#939598" stroke-linejoin="round"/></g><g><g><path fill="#FFFFFF" d="M196.381,198.699     c-2.17-2.085-4.071-4.444-5.647-7.019l2.219-1.724c1.56,2.517,3.43,4.825,5.563,6.869L196.381,198.699z" stroke-width="0.2992" stroke="#939598" stroke-linejoin="round"/></g></g><g><g><line fill="none" x1="195.778" x2="197.976" y1="198.097" y2="196.349" stroke="#939598" stroke-width="0.2992"/></g></g><g><g><line fill="none" x1="195.239" x2="197.437" y1="197.471" y2="195.722" stroke="#939598" stroke-width="0.2992"/></g></g><g><g><line fill="none" x1="194.692" x2="196.891" y1="196.873" y2="195.125" stroke="#939598" stroke-width="0.2992"/></g></g><g><g><line fill="none" x1="194.151" x2="196.348" y1="196.267" y2="194.517" stroke="#939598" stroke-width="0.2992"/></g></g><g><g><line fill="none" x1="192.639" x2="194.836" y1="194.377" y2="192.629" stroke="#939598" stroke-width="0.2992"/></g></g><g><g><line fill="none" x1="192.101" x2="194.297" y1="193.751" y2="192.002" stroke="#939598" stroke-width="0.2992"/></g></g><g><g><line fill="none" x1="191.641" x2="193.837" y1="193.075" y2="191.328" stroke="#939598" stroke-width="0.2992"/></g></g><g><g><line fill="none" x1="191.184" x2="193.382" y1="192.391" y2="190.643" stroke="#939598" stroke-width="0.2992"/></g></g><g><path fill="#FFFFFF" d="M244.223,199.973    c1.624-1.399,6.279-5.581,8.951-10.017l2.217,1.724c0.208,1.336,0.529,2.942,0.524,2.892c0,0,0.415,4.622,0.41,4.543    c0,0,0.119,4.624,0.117,4.592v4.208C255.591,207.211,249.437,201.569,244.223,199.973z" stroke-width="0.5984" stroke="#939598" stroke-linejoin="round"/></g><g><g><path fill="#FFFFFF" d="M249.744,198.699     c2.172-2.085,4.071-4.444,5.647-7.019l-2.217-1.724c-1.559,2.517-3.431,4.825-5.563,6.869L249.744,198.699z" stroke-width="0.2992" stroke="#939598" stroke-linejoin="round"/></g></g><g><g><line fill="none" x1="250.348" x2="248.149" y1="198.097" y2="196.349" stroke="#939598" stroke-width="0.2992"/></g></g><g><g><line fill="none" x1="250.886" x2="248.688" y1="197.471" y2="195.722" stroke="#939598" stroke-width="0.2992"/></g></g><g><g><line fill="none" x1="251.433" x2="249.236" y1="196.873" y2="195.125" stroke="#939598" stroke-width="0.2992"/></g></g><g><g><line fill="none" x1="251.974" x2="249.778" y1="196.267" y2="194.517" stroke="#939598" stroke-width="0.2992"/></g></g><g><g><line fill="none" x1="253.486" x2="251.289" y1="194.377" y2="192.629" stroke="#939598" stroke-width="0.2992"/></g></g><g><g><line fill="none" x1="254.024" x2="251.828" y1="193.751" y2="192.002" stroke="#939598" stroke-width="0.2992"/></g></g><g><g><line fill="none" x1="254.485" x2="252.288" y1="193.075" y2="191.328" stroke="#939598" stroke-width="0.2992"/></g></g><g><g><line fill="none" x1="254.941" x2="252.744" y1="192.391" y2="190.643" stroke="#939598" stroke-width="0.2992"/></g></g><g><line fill="none" x1="200.992" x2="206.703" y1="132.207" y2="139.076" stroke="#939598" stroke-width="0.2992"/></g></g><g id="SYMBOLS_AND_VENUES"><g><path d="M206.361,148.673h-2.523v-1.376h0.388v0.849h0.622v-0.783h0.388v0.783h0.737v-0.877h0.388V148.673z"/></g><g><path d="M206.361,146.919h-2.523v-0.528h2.104v-0.79h0.419V146.919z"/></g><g><path d="M206.361,145.369h-2.523v-1.376h0.388v0.849h0.622v-0.783h0.388v0.783h0.737v-0.877h0.388V145.369z"/></g><g><path d="M203.838,143.822v-0.548l1.834-0.392v-0.007l-1.834-0.44v-0.521l2.523,0.667v0.618L203.838,143.822z"/></g><g><path d="M205.899,141.554h0.461v0.419h-0.461V141.554z"/></g><g><path d="M227.028,138.146c0-0.667,0-1.304,0.87-1.304s0.87,0.636,0.87,1.304c0,0.66,0,1.303-0.87,1.303    S227.028,138.807,227.028,138.146z M228.234,138.146c0-0.646-0.039-0.926-0.335-0.926c-0.297,0-0.335,0.28-0.335,0.926    c0,0.646,0.038,0.926,0.335,0.926C228.195,139.072,228.234,138.792,228.234,138.146z"/></g><g><path d="M229.195,139.408v-2.523h0.528v2.104h0.79v0.419H229.195z"/></g><g><path d="M230.745,139.408v-2.523h0.527v2.523H230.745z"/></g><g><path d="M231.515,136.885h0.548l0.392,1.834h0.007l0.44-1.834h0.521l-0.667,2.523h-0.618L231.515,136.885z"/></g><g><path d="M233.664,139.408v-2.523h1.376v0.388h-0.849v0.622h0.783v0.388h-0.783v0.737h0.877v0.388H233.664z"/></g><g><path d="M236.166,138.146c0-0.667,0-1.304,0.87-1.304s0.87,0.636,0.87,1.304c0,0.66,0,1.303-0.87,1.303    S236.166,138.807,236.166,138.146z M237.372,138.146c0-0.646-0.039-0.926-0.335-0.926c-0.297,0-0.335,0.28-0.335,0.926    c0,0.646,0.038,0.926,0.335,0.926C237.333,139.072,237.372,138.792,237.372,138.146z"/></g><g><path d="M238.846,139.408h-0.528v-2.523h0.975c0.36,0,0.59,0.231,0.59,0.661c0,0.321-0.125,0.562-0.468,0.618v0.007    c0.116,0.014,0.458,0.042,0.458,0.496c0,0.161,0.01,0.636,0.06,0.741h-0.518c-0.07-0.154-0.056-0.325-0.056-0.489    c0-0.3,0.028-0.556-0.377-0.556h-0.136V139.408z M238.846,137.975h0.234c0.21,0,0.269-0.209,0.269-0.371    c0-0.241-0.101-0.332-0.269-0.332h-0.234V137.975z"/></g><g><path d="M230.401,141.185v0.419h-0.587v2.104h-0.528v-2.104h-0.587v-0.419H230.401z"/></g><g><path d="M230.425,141.185h0.542l0.329,1.771h0.007l0.398-1.771h0.622l0.377,1.771h0.007l0.314-1.771h0.517l-0.559,2.523h-0.583    l-0.395-1.845h-0.007l-0.437,1.845h-0.573L230.425,141.185z"/></g><g><path d="M233.76,143.708v-2.523h0.527v2.523H233.76z"/></g><g><path d="M235.418,143.75c-0.653,0-0.775-0.384-0.748-0.821h0.528c0,0.241,0.01,0.444,0.3,0.444c0.178,0,0.266-0.115,0.266-0.287    c0-0.454-1.062-0.482-1.062-1.233c0-0.395,0.189-0.709,0.832-0.709c0.514,0,0.769,0.231,0.733,0.758h-0.514    c0-0.188-0.031-0.381-0.244-0.381c-0.171,0-0.273,0.094-0.273,0.269c0,0.479,1.062,0.437,1.062,1.23    C236.299,143.672,235.82,143.75,235.418,143.75z"/></g><g><path d="M238.181,141.185v0.419h-0.587v2.104h-0.528v-2.104h-0.587v-0.419H238.181z"/></g><g><path d="M250.863,176.866v-0.881c0-0.692,0.461-0.821,1.248-0.821c0.388,0,1.275-0.06,1.275,0.842v0.86H250.863z M252.999,176.338    v-0.255c0-0.322-0.241-0.385-0.874-0.385c-0.465,0-0.874,0-0.874,0.367v0.272H252.999z"/></g><g><path d="M253.386,174.737h-2.523v-0.527h2.523V174.737z"/></g><g><path d="M253.386,173.957l-2.523-0.699v-0.695l2.523-0.685v0.556l-0.559,0.14v0.72l0.559,0.143V173.957z M251.349,172.94v0.007    l1.09,0.241v-0.503L251.349,172.94z"/></g><g><path d="M253.386,171.637h-2.523v-0.849l1.716-0.395v-0.007l-1.716-0.419v-0.821h2.523v0.514h-1.946v0.007l1.946,0.485v0.503    l-1.946,0.461v0.007h1.946V171.637z"/></g><g><path d="M252.125,168.735c-0.667,0-1.304,0-1.304-0.87s0.636-0.87,1.304-0.87c0.66,0,1.303,0,1.303,0.87    S252.785,168.735,252.125,168.735z M252.125,167.529c-0.646,0-0.926,0.039-0.926,0.335c0,0.297,0.28,0.335,0.926,0.335    s0.926-0.038,0.926-0.335C253.051,167.568,252.772,167.529,252.125,167.529z"/></g><g><path d="M253.386,166.569h-2.523v-0.713l1.747-0.671v-0.007h-1.747v-0.493h2.523v0.695l-1.845,0.688v0.007h1.845V166.569z"/></g><g><path d="M250.863,164.228v-0.881c0-0.692,0.461-0.821,1.248-0.821c0.388,0,1.275-0.06,1.275,0.842v0.86H250.863z M252.999,163.7    v-0.255c0-0.322-0.241-0.384-0.874-0.384c-0.465,0-0.874,0-0.874,0.367v0.272H252.999z"/></g><g><path d="M256.425,173.401c-0.667,0-1.304,0-1.304-0.87c0-0.538,0.297-0.754,0.839-0.733v0.517c-0.335,0-0.461,0.059-0.461,0.216    c0,0.297,0.28,0.335,0.926,0.335c0.646,0,0.926-0.038,0.926-0.335c0-0.245-0.314-0.234-0.514-0.241v-0.521    c0.674,0,0.891,0.269,0.891,0.762C257.728,173.401,257.085,173.401,256.425,173.401z"/></g><g><path d="M257.686,171.427h-2.523v-0.528h2.104v-0.79h0.419V171.427z"/></g><g><path d="M255.163,168.171h1.789c0.377,0,0.776,0.213,0.776,0.856c0,0.58-0.301,0.86-0.776,0.86h-1.789v-0.528h1.754    c0.311,0,0.433-0.133,0.433-0.325c0-0.23-0.154-0.335-0.433-0.335h-1.754V168.171z"/></g><g><path d="M257.686,167.731h-2.523v-0.937c0-0.402,0.115-0.734,0.653-0.734c0.29,0,0.5,0.144,0.556,0.43h0.007    c0.052-0.374,0.293-0.472,0.639-0.472c0.64,0,0.667,0.556,0.667,0.779V167.731z M256.194,167.204v-0.353    c0-0.115-0.077-0.276-0.321-0.276c-0.185,0-0.321,0.126-0.321,0.304v0.325H256.194z M257.298,167.204v-0.293    c0-0.112-0.003-0.363-0.356-0.363c-0.224,0-0.36,0.084-0.36,0.35v0.307H257.298z"/></g><path d="M218.746,163.444h-0.227c0.216-0.091,0.37-0.305,0.37-0.554c0-0.331-0.269-0.601-0.6-0.601   c-0.333,0-0.601,0.269-0.601,0.601c0,0.25,0.153,0.463,0.369,0.554h-0.235c-0.305,0-0.554,0.247-0.554,0.554v1.384   c0,0.387,0.218,0.547,0.535,0.611v1.927h0.969v-1.93c0.314-0.063,0.526-0.224,0.526-0.608v-1.384   C219.299,163.692,219.053,163.444,218.746,163.444z"/><path d="M232.243,164.414h0.369l-0.369-1.107h-0.416c0.216-0.091,0.37-0.305,0.37-0.554c0-0.331-0.268-0.601-0.6-0.601   c-0.332,0-0.6,0.27-0.6,0.601c0,0.249,0.154,0.463,0.37,0.554h-0.415l-0.369,1.107h0.369l-0.369,1.477h0.516l0.2,1.892h0.599   l0.199-1.892h0.517L232.243,164.414z"/><g><g><path d="M211.978,180.475h0.548l0.392,1.834h0.007l0.44-1.834h0.521l-0.667,2.523H212.6L211.978,180.475z"/></g></g><g><g><path d="M214.126,182.998v-2.523h0.527v2.523H214.126z"/></g></g><g><g><path d="M216.221,180.475h0.58l-0.706,1.132l0.706,1.391h-0.594l-0.604-1.293h-0.007v1.293h-0.528v-2.523h0.528v1.08h0.007     L216.221,180.475z"/></g></g><g><g><path d="M217.046,182.998v-2.523h0.527v2.523H217.046z"/></g></g><g><g><path d="M218.022,182.998v-2.523h0.713l0.671,1.747h0.007v-1.747h0.493v2.523h-0.695l-0.688-1.845h-0.007v1.845H218.022z"/></g></g><g><g><path d="M221.506,181.25c0.004-0.234-0.035-0.44-0.314-0.44c-0.328,0-0.328,0.444-0.328,0.933c0,0.79,0.077,0.929,0.377,0.929     c0.087,0,0.182-0.021,0.262-0.049v-0.559h-0.287v-0.388h0.814v1.279c-0.144,0.028-0.503,0.084-0.713,0.084     c-0.888,0-0.989-0.367-0.989-1.324c0-0.636,0.031-1.283,0.895-1.283c0.517,0,0.838,0.29,0.807,0.818H221.506z"/></g></g><g><g><path d="M223.244,181.736c0-0.667,0-1.304,0.87-1.304c0.538,0,0.754,0.297,0.733,0.839h-0.517c0-0.335-0.059-0.461-0.216-0.461     c-0.297,0-0.335,0.28-0.335,0.926s0.038,0.926,0.335,0.926c0.245,0,0.234-0.314,0.241-0.514h0.521     c0,0.674-0.269,0.891-0.762,0.891C223.244,183.04,223.244,182.396,223.244,181.736z"/></g></g><g><g><path d="M225.731,182.998h-0.528v-2.523h0.975c0.36,0,0.59,0.23,0.59,0.661c0,0.321-0.125,0.562-0.468,0.618v0.007     c0.116,0.014,0.458,0.042,0.458,0.496c0,0.161,0.01,0.636,0.06,0.741H226.3c-0.07-0.154-0.056-0.325-0.056-0.489     c0-0.3,0.028-0.556-0.377-0.556h-0.136V182.998z M225.731,181.565h0.234c0.21,0,0.269-0.209,0.269-0.371     c0-0.241-0.101-0.332-0.269-0.332h-0.234V181.565z"/></g></g><g><g><path d="M227.136,181.736c0-0.667,0-1.304,0.87-1.304s0.87,0.636,0.87,1.304c0,0.66,0,1.303-0.87,1.303     S227.136,182.396,227.136,181.736z M228.341,181.736c0-0.646-0.039-0.926-0.335-0.926c-0.297,0-0.335,0.28-0.335,0.926     s0.038,0.926,0.335,0.926C228.303,182.662,228.341,182.383,228.341,181.736z"/></g></g><g><g><path d="M229.075,180.475h0.542l0.329,1.771h0.007l0.398-1.771h0.622l0.377,1.771h0.007l0.314-1.771h0.517l-0.559,2.523h-0.583     l-0.395-1.845h-0.007l-0.437,1.845h-0.573L229.075,180.475z"/></g></g><g><g><path d="M232.414,182.998v-2.523h0.713l0.671,1.747h0.007v-1.747h0.493v2.523h-0.695l-0.688-1.845h-0.007v1.845H232.414z"/></g></g><g><g><path d="M217.439,187.297v-2.523h0.528v2.104h0.79v0.419H217.439z"/></g></g><g><g><path d="M218.965,186.036c0-0.667,0-1.304,0.87-1.304s0.87,0.636,0.87,1.304c0,0.66,0,1.303-0.87,1.303     S218.965,186.696,218.965,186.036z M220.171,186.036c0-0.646-0.039-0.926-0.335-0.926c-0.297,0-0.335,0.28-0.335,0.926     s0.038,0.926,0.335,0.926C220.132,186.962,220.171,186.683,220.171,186.036z"/></g></g><g><g><path d="M222.833,184.774v1.789c0,0.377-0.213,0.776-0.856,0.776c-0.58,0-0.86-0.301-0.86-0.776v-1.789h0.528v1.754     c0,0.311,0.133,0.433,0.325,0.433c0.231,0,0.336-0.154,0.336-0.433v-1.754H222.833z"/></g></g><g><g><path d="M223.27,187.297v-2.523h0.713l0.671,1.747h0.007v-1.747h0.493v2.523h-0.695l-0.688-1.845h-0.007v1.845H223.27z"/></g></g><g><g><path d="M226.754,185.55c0.004-0.234-0.035-0.44-0.314-0.44c-0.328,0-0.328,0.444-0.328,0.933c0,0.79,0.077,0.929,0.377,0.929     c0.087,0,0.182-0.021,0.262-0.049v-0.559h-0.287v-0.388h0.814v1.279c-0.144,0.028-0.503,0.084-0.713,0.084     c-0.888,0-0.989-0.367-0.989-1.324c0-0.636,0.031-1.283,0.895-1.283c0.517,0,0.838,0.29,0.807,0.818H226.754z"/></g></g><g><g><path d="M227.739,187.297v-2.523h1.376v0.388h-0.849v0.622h0.783v0.388h-0.783v0.737h0.877v0.388H227.739z"/></g></g><g><g><path d="M192.419,153.409c-0.653,0-0.775-0.384-0.748-0.821h0.528c0,0.241,0.01,0.444,0.3,0.444c0.178,0,0.266-0.115,0.266-0.287     c0-0.454-1.062-0.482-1.062-1.233c0-0.395,0.189-0.709,0.832-0.709c0.514,0,0.769,0.231,0.733,0.758h-0.514     c0-0.188-0.031-0.381-0.244-0.381c-0.171,0-0.273,0.094-0.273,0.269c0,0.479,1.062,0.437,1.062,1.23     C193.299,153.332,192.82,153.409,192.419,153.409z"/></g></g><g><g><path d="M195.385,150.844v1.789c0,0.377-0.213,0.776-0.856,0.776c-0.58,0-0.86-0.301-0.86-0.776v-1.789h0.528v1.754     c0,0.311,0.133,0.433,0.325,0.433c0.23,0,0.335-0.154,0.335-0.433v-1.754H195.385z"/></g></g><g><g><path d="M195.819,153.367v-2.523h0.527v2.523H195.819z"/></g></g><g><g><path d="M198.294,150.844v0.419h-0.587v2.104h-0.528v-2.104h-0.587v-0.419H198.294z"/></g></g><g><g><path d="M198.542,153.367v-2.523h1.376v0.388h-0.849v0.622h0.783v0.388h-0.783v0.737h0.877v0.388H198.542z"/></g></g><g><g><path d="M189.989,157.667v-2.523h0.528v2.104h0.79v0.419H189.989z"/></g></g><g><g><path d="M191.515,156.406c0-0.667,0-1.304,0.87-1.304s0.87,0.636,0.87,1.304c0,0.66,0,1.303-0.87,1.303     S191.515,157.066,191.515,156.406z M192.721,156.406c0-0.646-0.039-0.926-0.335-0.926c-0.297,0-0.335,0.28-0.335,0.926     s0.038,0.926,0.335,0.926C192.682,157.332,192.721,157.052,192.721,156.406z"/></g></g><g><g><path d="M195.383,155.144v1.789c0,0.377-0.213,0.776-0.856,0.776c-0.58,0-0.86-0.301-0.86-0.776v-1.789h0.528v1.754     c0,0.311,0.133,0.433,0.325,0.433c0.231,0,0.336-0.154,0.336-0.433v-1.754H195.383z"/></g></g><g><g><path d="M195.82,157.667v-2.523h0.713l0.671,1.747h0.007v-1.747h0.493v2.523h-0.695l-0.688-1.845h-0.007v1.845H195.82z"/></g></g><g><g><path d="M199.304,155.92c0.004-0.234-0.035-0.44-0.314-0.44c-0.328,0-0.328,0.444-0.328,0.933c0,0.79,0.077,0.929,0.377,0.929     c0.087,0,0.182-0.021,0.262-0.049v-0.559h-0.287v-0.388h0.814v1.279c-0.144,0.028-0.503,0.084-0.713,0.084     c-0.888,0-0.989-0.367-0.989-1.324c0-0.636,0.031-1.283,0.895-1.283c0.517,0,0.838,0.29,0.807,0.818H199.304z"/></g></g><g><g><path d="M200.29,157.667v-2.523h1.376v0.388h-0.849v0.622h0.783v0.388h-0.783v0.737h0.877v0.388H200.29z"/></g></g></g><g id="ICONS"><g><path fill="#0089CF" d="M227.013,175.269c0,1.814-1.471,3.286-3.287,3.286c-1.814,0-3.283-1.472-3.283-3.286    c0-1.815,1.469-3.287,3.283-3.287C225.542,171.983,227.013,173.454,227.013,175.269z"/></g><g><g><path fill="#FFFFFF" d="M225.505,173.807c0,0-1.139,1.187-1.478,1.526c-0.212,0.214-0.256,0.311-0.256,0.565     c0,0.158,0,1.072,0,1.292c0.11,0.021,0.104,0.128,0.065,0.155c0.151,0.113,0.16,0.123,0.44,0.158     c0.222,0.025,0.213,0.118,0.158,0.118h-1.564c-0.057,0-0.065-0.093,0.158-0.118c0.281-0.035,0.288-0.045,0.44-0.158     c-0.038-0.027-0.044-0.133,0.065-0.155c0-0.22,0-1.135,0-1.292c0-0.254-0.043-0.35-0.257-0.565     c-0.339-0.339-1.478-1.526-1.478-1.526H225.505z"/></g></g><g><g><polygon fill="#0089CF" points="224.835,173.612 223.544,175.191 223.579,175.218 223.604,175.216 224.895,173.637    "/></g></g><g><g><path fill="#0089CF" d="M223.832,175.035c-0.183-0.033-0.311-0.176-0.286-0.317c0.026-0.142,0.196-0.232,0.378-0.2     c0.184,0.033,0.312,0.176,0.287,0.318C224.185,174.978,224.015,175.067,223.832,175.035z"/></g></g><g><path fill="#0089CF" d="M231.743,131.284c0,1.814-1.471,3.286-3.287,3.286c-1.814,0-3.283-1.472-3.283-3.286    c0-1.815,1.469-3.287,3.283-3.287C230.271,127.998,231.743,129.469,231.743,131.284z"/></g><g><g><path fill="#FFFFFF" d="M230.234,129.822c0,0-1.139,1.187-1.478,1.526c-0.212,0.214-0.256,0.311-0.256,0.565     c0,0.158,0,1.072,0,1.292c0.11,0.021,0.104,0.128,0.065,0.155c0.151,0.113,0.16,0.123,0.44,0.158     c0.222,0.025,0.213,0.118,0.158,0.118H227.6c-0.057,0-0.065-0.093,0.158-0.118c0.281-0.035,0.288-0.045,0.44-0.158     c-0.038-0.027-0.044-0.133,0.065-0.155c0-0.22,0-1.134,0-1.292c0-0.254-0.043-0.35-0.257-0.565     c-0.339-0.339-1.478-1.526-1.478-1.526H230.234z"/></g></g><g><g><polygon fill="#0089CF" points="229.564,129.627 228.273,131.206 228.308,131.233 228.333,131.232 229.624,129.652    "/></g></g><g><g><path fill="#0089CF" d="M228.561,131.05c-0.183-0.033-0.311-0.177-0.286-0.317c0.026-0.142,0.196-0.232,0.378-0.2     c0.184,0.033,0.312,0.176,0.287,0.318C228.914,130.993,228.744,131.082,228.561,131.05z"/></g></g><g><path fill="#0089CF" d="M257.128,155.203c0,1.814-1.471,3.286-3.287,3.286c-1.814,0-3.283-1.472-3.283-3.286    c0-1.815,1.469-3.287,3.283-3.287C255.656,151.916,257.128,153.388,257.128,155.203z"/></g><g><g><path fill="#FFFFFF" d="M255.619,153.741c0,0-1.139,1.187-1.478,1.526c-0.212,0.214-0.256,0.311-0.256,0.565     c0,0.158,0,1.072,0,1.292c0.11,0.021,0.104,0.128,0.065,0.155c0.151,0.113,0.16,0.123,0.44,0.158     c0.222,0.025,0.214,0.118,0.159,0.118h-1.564c-0.056,0-0.065-0.093,0.158-0.118c0.281-0.035,0.288-0.045,0.44-0.158     c-0.038-0.027-0.044-0.133,0.065-0.155c0-0.22,0-1.135,0-1.292c0-0.254-0.043-0.35-0.257-0.565     c-0.339-0.339-1.478-1.526-1.478-1.526H255.619z"/></g></g><g><g><polygon fill="#0089CF" points="254.949,153.546 253.658,155.125 253.693,155.152 253.718,155.15 255.009,153.571    "/></g></g><g><g><path fill="#0089CF" d="M253.946,154.969c-0.183-0.033-0.311-0.176-0.286-0.317c0.026-0.142,0.196-0.232,0.378-0.2     c0.184,0.033,0.312,0.176,0.287,0.318C254.3,154.912,254.129,155.001,253.946,154.969z"/></g></g></g></svg>