<?xml version="1.0" encoding="UTF-8"?><svg xmlns="http://www.w3.org/2000/svg" xmlns:xlink="http://www.w3.org/1999/xlink" contentScriptType="text/ecmascript" zoomAndPan="magnify" contentStyleType="text/css" enable-background="new 0 0 1526.667 783" version="1.1" width="500.0" xml:space="preserve" preserveAspectRatio="xMidYMid meet" viewBox="48.066 120.963 93.33199 72.686005" height="389.3949" x="0px" y="0px"><g id="DECKS"><polygon fill="#FFFFFF" stroke-width="0.603" id="IDP-Deck15" points="51.164,123.963 51.066,190.649    138.282,190.527 138.398,145.545 133.483,145.545 118.318,145.545 117.786,145.545 117.786,144.698 117.786,139.812    115.514,139.799 115.526,135.825 115.539,130.897 110.61,130.897 81.276,130.897 81.276,124.029  " stroke="#939598"><polygon fill="#FFFFFF" stroke-width="0.603" id="IDP-Deck15" points="51.164,123.963 51.066,190.649    138.282,190.527 138.398,145.545 133.483,145.545 118.318,145.545 117.786,145.545 117.786,144.698 117.786,139.812    115.514,139.799 115.526,135.825 115.539,130.897 110.61,130.897 81.276,130.897 81.276,124.029  " stroke="#939598"/></polygon></g><g id="DECKS_PUBLIC"><g><polygon fill="none" stroke-width="0.603" points="110.61,135.812 110.584,144.685 112.871,144.698     112.871,157.32 118.318,157.32 118.318,150.461 133.483,150.461 133.333,184.724 56.015,184.738 56.079,129.083 76.327,129.083     76.327,135.812   " stroke="#939598"/></g><g><polyline fill="none" stroke-width="0.3015" points="101.538,157.595 112.598,157.595     112.598,145.067 110.31,145.067 110.31,136.358 75.949,136.358 75.949,145.128 74.377,145.128 74.377,157.595 85.17,157.595   " stroke="#939598" stroke-linejoin="round"/></g><g><path fill="none" d="M88.103,158.287    c-2.469-0.385-4.708-1.158-6.579-2.21c-1.549,1.484-4.006,1.47-5.531-0.057c-1.547-1.546-1.547-4.053,0-5.601    c0.085-0.083,0.182-0.144,0.27-0.218c-0.212-0.68-0.333-1.382-0.333-2.104c0-1.503,0.484-2.927,1.343-4.218    c-1.21-1.554-1.118-3.792,0.31-5.221c1.546-1.546,4.055-1.546,5.602,0c0.147,0.148,0.268,0.312,0.387,0.476    c2.388-0.958,7.907-1.52,10.899-1.52c3.025,0,5.841,0.574,8.244,1.55c0.125-0.176,0.256-0.35,0.414-0.507    c1.545-1.546,4.053-1.546,5.599,0c1.448,1.448,1.523,3.73,0.258,5.285c0.831,1.274,1.296,2.677,1.296,4.153    c0,0.699-0.115,1.379-0.312,2.04c0.118,0.093,0.24,0.176,0.348,0.283c1.547,1.548,1.547,4.055,0,5.601    c-1.537,1.537-4.021,1.544-5.57,0.024c-1.884,1.068-4.145,1.854-6.639,2.243" stroke-width="0.3015" stroke="#939598" stroke-linejoin="round"/></g><g><path fill="none" d="M104.236,139.767    c0.935-0.933,2.45-0.933,3.383,0c0.773,0.773,0.899,1.941,0.388,2.85l0.979,1.326c1.265-1.555,1.19-3.837-0.258-5.285    c-1.546-1.546-4.054-1.546-5.599,0c-0.158,0.157-0.289,0.331-0.414,0.507L104.236,139.767z" stroke-width="0.3015" stroke="#939598" stroke-linejoin="round"/></g><g><path fill="none" d="M106.229,155.235    c1.112,0.71,2.591,0.386,3.301-0.727c0.591-0.922,0.461-2.089-0.232-2.867l0.671-1.506c1.569,1.248,1.988,3.492,0.883,5.218    c-1.177,1.842-3.628,2.38-5.468,1.202c-0.188-0.121-0.478-0.368-0.638-0.512L106.229,155.235z" stroke-width="0.3015" stroke="#939598" stroke-linejoin="round"/></g><g><path fill="none" d="M82.02,139.703    c-0.934-0.934-2.447-0.934-3.382,0c-0.773,0.774-0.898,1.941-0.387,2.848l-0.979,1.327c-1.265-1.555-1.191-3.837,0.258-5.286    c1.547-1.546,4.053-1.546,5.599,0c0.159,0.158,0.29,0.332,0.415,0.506L82.02,139.703z" stroke-width="0.3015" stroke="#939598" stroke-linejoin="round"/></g><g><path fill="none" d="M80.043,155.268    c-1.113,0.71-2.592,0.386-3.305-0.727c-0.588-0.92-0.46-2.089,0.233-2.866l-0.67-1.506c-1.57,1.248-1.987,3.493-0.882,5.217    c1.178,1.842,3.625,2.381,5.468,1.203c0.188-0.119,0.477-0.368,0.638-0.512L80.043,155.268z" stroke-width="0.3015" stroke="#939598" stroke-linejoin="round"/></g><g><rect x="89.516" y="137.341" fill="#FFFFFF" width="7.254" stroke-linejoin="round" height="2.458" stroke="#939598" stroke-width="0.3015"/></g><g><g><g><rect x="119.579" y="157.207" fill="#FFFFFF" width="4.75" height="1.349" stroke="#939598" stroke-width="0.3015"/></g></g></g><g><g><g><rect x="119.579" y="155.858" fill="#FFFFFF" width="4.75" height="1.349" stroke="#939598" stroke-width="0.3015"/></g></g></g><g><g><g><rect x="119.579" y="154.509" fill="#FFFFFF" width="4.75" height="1.349" stroke="#939598" stroke-width="0.3015"/></g></g></g><g><g><g><rect x="119.579" y="153.16" fill="#FFFFFF" width="4.75" height="1.349" stroke="#939598" stroke-width="0.3015"/></g></g></g><g><g><g><rect x="118.24" y="158.545" fill="#FFFFFF" width="1.35" height="4.75" stroke="#939598" stroke-width="0.3015"/></g></g></g><g><g><g><rect x="115.542" y="158.545" fill="#FFFFFF" width="1.35" height="4.75" stroke="#939598" stroke-width="0.3015"/></g></g></g><g><g><g><rect x="116.892" y="158.545" fill="#FFFFFF" width="1.348" height="4.75" stroke="#939598" stroke-width="0.3015"/></g></g></g><g><rect x="119.589" y="158.556" fill="#FFFFFF" width="4.74" height="4.74" stroke="#939598" stroke-width="0.3015"/></g><g><g><g><rect x="63.315" y="157.207" fill="#FFFFFF" width="4.748" height="1.349" stroke="#939598" stroke-width="0.3015"/></g></g></g><g><g><g><rect x="63.315" y="155.858" fill="#FFFFFF" width="4.748" height="1.349" stroke="#939598" stroke-width="0.3015"/></g></g></g><g><g><g><rect x="63.315" y="154.509" fill="#FFFFFF" width="4.748" height="1.349" stroke="#939598" stroke-width="0.3015"/></g></g></g><g><g><g><rect x="63.315" y="153.16" fill="#FFFFFF" width="4.748" height="1.349" stroke="#939598" stroke-width="0.3015"/></g></g></g><g><g><g><rect x="68.055" y="158.545" fill="#FFFFFF" width="1.349" height="4.75" stroke="#939598" stroke-width="0.3015"/></g></g></g><g><g><g><rect x="70.753" y="158.545" fill="#FFFFFF" width="1.35" height="4.75" stroke="#939598" stroke-width="0.3015"/></g></g></g><g><g><g><rect x="69.403" y="158.545" fill="#FFFFFF" width="1.35" height="4.75" stroke="#939598" stroke-width="0.3015"/></g></g></g><g><rect x="63.315" y="158.556" fill="#FFFFFF" width="4.74" height="4.74" stroke="#939598" stroke-width="0.3015"/></g><g><rect x="63.738" y="146.484" fill="none" width="5.21" height="3.834" stroke="#939598" stroke-width="0.3015"/></g></g><g id="SYMBOLS_AND_VENUES"><g><g><path d="M82.226,150.485v-2.522h1.376v0.388h-0.849v0.622h0.783v0.388h-0.783v0.737h0.877v0.388H82.226z"/></g></g><g><g><path d="M84.661,150.527c-0.653,0-0.775-0.385-0.748-0.821h0.528c0,0.241,0.01,0.443,0.3,0.443c0.178,0,0.266-0.115,0.266-0.286     c0-0.454-1.062-0.482-1.062-1.233c0-0.395,0.189-0.709,0.832-0.709c0.514,0,0.769,0.23,0.733,0.758h-0.514     c0-0.188-0.031-0.381-0.244-0.381c-0.171,0-0.273,0.095-0.273,0.27c0,0.479,1.062,0.437,1.062,1.229     C85.542,150.45,85.063,150.527,84.661,150.527z"/></g></g><g><g><path d="M85.898,149.223c0-0.667,0-1.303,0.87-1.303c0.538,0,0.754,0.297,0.733,0.838h-0.517c0-0.335-0.059-0.461-0.216-0.461     c-0.297,0-0.335,0.279-0.335,0.926s0.038,0.926,0.335,0.926c0.245,0,0.234-0.314,0.241-0.513h0.521     c0,0.674-0.269,0.891-0.762,0.891C85.898,150.527,85.898,149.884,85.898,149.223z"/></g></g><g><g><path d="M87.676,150.485l0.699-2.522h0.696l0.685,2.522h-0.556l-0.14-0.559h-0.72l-0.143,0.559H87.676z M88.693,148.448h-0.007     l-0.241,1.09h0.503L88.693,148.448z"/></g></g><g><g><path d="M90.01,147.962h0.951c0.482,0,0.671,0.293,0.671,0.754c0,0.287-0.084,0.741-0.703,0.741h-0.391v1.027H90.01V147.962z      M90.538,149.07h0.293c0.157,0,0.266-0.171,0.266-0.339c0-0.206-0.056-0.381-0.294-0.381h-0.265V149.07z"/></g></g><g><g><path d="M91.953,150.485v-2.522h1.376v0.388H92.48v0.622h0.783v0.388H92.48v0.737h0.877v0.388H91.953z"/></g></g><g><g><path d="M94.997,150.485h-0.528v-2.522h0.975c0.36,0,0.59,0.23,0.59,0.66c0,0.321-0.125,0.562-0.468,0.618v0.007     c0.116,0.015,0.458,0.042,0.458,0.496c0,0.161,0.01,0.637,0.06,0.741h-0.518c-0.07-0.153-0.056-0.325-0.056-0.489     c0-0.301,0.028-0.556-0.377-0.556h-0.136V150.485z M94.997,149.052h0.234c0.21,0,0.269-0.21,0.269-0.37     c0-0.241-0.101-0.332-0.269-0.332h-0.234V149.052z"/></g></g><g><g><path d="M96.401,149.223c0-0.667,0-1.303,0.87-1.303s0.87,0.636,0.87,1.303c0,0.661,0,1.304-0.87,1.304     S96.401,149.884,96.401,149.223z M97.607,149.223c0-0.646-0.039-0.926-0.335-0.926c-0.297,0-0.335,0.279-0.335,0.926     s0.038,0.926,0.335,0.926C97.568,150.149,97.607,149.87,97.607,149.223z"/></g></g><g><g><path d="M98.54,149.223c0-0.667,0-1.303,0.87-1.303s0.87,0.636,0.87,1.303c0,0.661,0,1.304-0.87,1.304     S98.54,149.884,98.54,149.223z M99.745,149.223c0-0.646-0.039-0.926-0.335-0.926c-0.297,0-0.335,0.279-0.335,0.926     s0.038,0.926,0.335,0.926C99.707,150.149,99.745,149.87,99.745,149.223z"/></g></g><g><g><path d="M100.692,150.485v-2.522h0.849l0.395,1.715h0.007l0.419-1.715h0.821v2.522h-0.514v-1.946h-0.007l-0.485,1.946h-0.503     l-0.461-1.946h-0.007v1.946H100.692z"/></g></g></g></svg>