<?xml version="1.0" encoding="utf-8"?>
<!-- Generator: Adobe Illustrator 22.1.0, SVG Export Plug-In . SVG Version: 6.00 Build 0)  -->
<svg version="1.1" id="Layer_1" xmlns="http://www.w3.org/2000/svg" xmlns:xlink="http://www.w3.org/1999/xlink" x="0px" y="0px"
	 viewBox="0 0 463.9 2852.9" style="enable-background:new 0 0 463.9 2852.9;" xml:space="preserve">
<style type="text/css">
	.st0{fill:none;}
	.st1{fill:#FFFFFF;stroke:#939598;stroke-width:0.6748;stroke-linejoin:round;}
	.st2{fill:none;stroke:#939598;stroke-width:0.6748;stroke-linejoin:round;}
	.st3{fill:none;stroke:#939598;stroke-width:0.3374;}
	.st4{fill:#FFFFFF;stroke:#939598;stroke-width:0.3374;}
	.st5{fill:#FFFFFF;}
	.st6{fill:none;stroke:#939598;stroke-width:0.3374;stroke-linejoin:round;}
	.st7{fill:none;stroke:#939598;stroke-width:0.25;stroke-linejoin:round;}
	.st8{fill:none;stroke:#939598;stroke-width:0.3373;stroke-linejoin:round;}
	.st9{fill:#7CCAAE;stroke:#000000;stroke-width:0.3402;}
	.st10{fill:#62A0D6;stroke:#000000;stroke-width:0.3402;}
	.st11{fill:#CD82B7;stroke:#000000;stroke-width:0.3402;}
	.st12{fill:#C2CAE7;stroke:#000000;stroke-width:0.3402;}
	.st13{fill:#C16DAC;stroke:#000000;stroke-width:0.3402;}
	.st14{font-family:'ArialMT';}
	.st15{font-size:13.9177px;}
	.st16{letter-spacing:-1;}
	.st17{fill:#0089CF;}
</style>
<title>deckFloor1</title>
<g id="DECKS">
	<path class="st0" d="M-18.1-18.1"/>
	<path id="IDP-Deck02" class="st1" d="M417.6,95.3l11.1,0.5c-7.1-32.7-15.8-62.6-24.6-94.5l-343.2-1c-8.6,31.7-17.1,62.2-24.6,96
		l5.8-1l-4.5,22.6C14.7,215.7,0.3,364.1,0.3,576.6V2752l0,0c0,35.5,3.3,69.1,9.8,100.2l442.8,0.4c6.8-32.1,10.3-64.7,10.5-97.5h0.1
		V576.4C463.5,347.5,443.1,206.5,417.6,95.3z"/>
	<path id="IDP-Deck02-2" class="st1" d="M2655.7,2970.8"/>
</g>
<g id="DECKS_PUBLIC">
	<path class="st2" d="M78.8,176.6c10.5,36.2,4.3,59.1,1.7,68.3s-20,44.6,4.6,87.5c27.7,48.5,80.7,53.8,148.4,53.8
		s120.7-5.4,148.4-53.8c24.5-42.9,7.1-78.3,4.6-87.5s-9.1-30.7,1.5-66.9"/>
	<path class="st2" d="M165.5,137.3c0,2.3-0.3,6.3-0.3,8.8c0,26.4,31.2,35.6,69.6,35.6s69.6-9.2,69.6-35.6c0-2.7,0-6.5-0.1-9"/>
	<path class="st2" d="M99,39.8v82.1h31.3l4.4,20l-34.9,26.7H86.9l-44.6,38.3c-16.2,98-27,244.6-27,411.1v2095.6"/>
	<polyline class="st2" points="365.2,71 365.2,41.1 98.5,41.1 	"/>
	<path class="st2" d="M449,2710.2V618c0-167.8-12.8-359.6-27.6-410.9c-10.1-10.7-43.1-37.2-43.1-37.2l-14.1-0.6l-38.8-28.9l8.7-18.5
		h31.7V41.6"/>
	<path class="st2" d="M327.6,139.7c-8.8-2.7-20.7-4.7-32.6-1c-21.1,6.6-44,8.2-60.8,8.2s-38.8-1.1-59.8-7.8
		c-14.8-4.7-28.9-1.5-39.5,2.8"/>
	<path class="st1" d="M15.3,2678.7v36.3c-0.2,40.3,2.3,80.5,7.3,120.5l418.2,0.9c5.5-40.2,8.3-80.8,8.2-121.4v-7.5"/>
	<line class="st2" x1="359.3" y1="2714.2" x2="449" y2="2714.2"/>
	<line class="st2" x1="15.3" y1="2710.8" x2="104.3" y2="2710.8"/>
	<line class="st3" x1="104.3" y1="2618.1" x2="104.3" y2="2710.8"/>
	<line class="st3" x1="359.3" y1="2555.9" x2="359.3" y2="2714.4"/>
	<rect x="111.7" y="2005.5" class="st4" width="26" height="75.6"/>
	<rect x="328.4" y="2005.5" class="st4" width="26" height="75.6"/>
	<rect x="135.9" y="2143.7" class="st4" width="24.9" height="5"/>
	<rect x="135.9" y="2138.7" class="st4" width="24.9" height="5"/>
	<rect x="135.9" y="2133.7" class="st4" width="24.9" height="5"/>
	<rect x="160.8" y="2143.7" class="st4" width="18.7" height="5"/>
	<rect x="160.8" y="2138.7" class="st4" width="18.7" height="5"/>
	<rect x="160.8" y="2133.7" class="st4" width="18.7" height="5"/>
	<rect x="135.9" y="2128.7" class="st4" width="24.9" height="5"/>
	<rect x="160.8" y="2128.7" class="st4" width="18.7" height="5"/>
	<rect x="135.9" y="2123.6" class="st4" width="24.9" height="5"/>
	<rect x="160.8" y="2123.6" class="st4" width="18.7" height="5"/>
	<rect x="135.9" y="2118.6" class="st4" width="24.9" height="5"/>
	<rect x="160.8" y="2118.6" class="st4" width="18.7" height="5"/>
	<rect x="117.2" y="2143.7" class="st4" width="18.7" height="5"/>
	<rect x="117.2" y="2138.7" class="st4" width="18.7" height="5"/>
	<rect x="117.2" y="2133.7" class="st4" width="18.7" height="5"/>
	<rect x="117.2" y="2128.7" class="st4" width="18.7" height="5"/>
	<rect x="117.2" y="2123.6" class="st4" width="18.7" height="5"/>
	<rect x="117.2" y="2118.6" class="st4" width="18.7" height="5"/>
	<rect x="117.2" y="2148.7" class="st4" width="62.4" height="14.8"/>
	<path class="st3" d="M289.4,2081.3H275c-6.4,0-11.6-7.2-11.6-16l0,0c0-8.8,5.2-16,11.6-16h14.4L289.4,2081.3z"/>
	<path class="st3" d="M178.8,2081.9h14.4c6.4,0,11.6-7.2,11.6-16l0,0c0-8.8-5.2-16-11.6-16h-14.4V2081.9z"/>
	<path class="st3" d="M289.4,2039.9H275c-6.4,0-11.6-7.2-11.6-16l0,0c0-8.8,5.2-16,11.6-16h14.4L289.4,2039.9z"/>
	<path class="st3" d="M178.8,2040.5h14.4c6.4,0,11.6-7.2,11.6-16l0,0c0-8.8-5.2-16-11.6-16h-14.4V2040.5z"/>
	<line class="st2" x1="104.3" y1="2367.2" x2="104.3" y2="2186.5"/>
	<line class="st2" x1="104.3" y1="2186.5" x2="359.8" y2="2186.5"/>
	<line class="st2" x1="359.3" y1="2338" x2="359.3" y2="2185.9"/>
	<rect x="305.2" y="2143.2" class="st4" width="24.9" height="5"/>
	<rect x="305.2" y="2138.1" class="st4" width="24.9" height="5"/>
	<rect x="305.2" y="2133.1" class="st4" width="24.9" height="5"/>
	<rect x="330.1" y="2143.2" class="st4" width="18.7" height="5"/>
	<rect x="330.1" y="2138.1" class="st4" width="18.7" height="5"/>
	<rect x="330.1" y="2133.1" class="st4" width="18.7" height="5"/>
	<rect x="305.2" y="2128.1" class="st4" width="24.9" height="5"/>
	<rect x="330.1" y="2128.1" class="st4" width="18.7" height="5"/>
	<rect x="305.2" y="2123.1" class="st4" width="24.9" height="5"/>
	<rect x="330.1" y="2123.1" class="st4" width="18.7" height="5"/>
	<rect x="305.2" y="2118" class="st4" width="24.9" height="5"/>
	<rect x="330.1" y="2118" class="st4" width="18.7" height="5"/>
	<rect x="286.4" y="2143.2" class="st4" width="18.7" height="5"/>
	<rect x="286.4" y="2138.1" class="st4" width="18.7" height="5"/>
	<rect x="286.4" y="2133.1" class="st4" width="18.7" height="5"/>
	<rect x="286.4" y="2128.1" class="st4" width="18.7" height="5"/>
	<rect x="286.4" y="2123.1" class="st4" width="18.7" height="5"/>
	<rect x="286.4" y="2118" class="st4" width="18.7" height="5"/>
	<rect x="286.4" y="2148.1" class="st4" width="62.4" height="14.8"/>
	<rect x="95.9" y="1987.7" class="st5" width="271.1" height="14.6"/>
	<line class="st2" x1="165.5" y1="1990.1" x2="298.7" y2="1990.1"/>
	<line class="st2" x1="246.2" y1="1752.4" x2="246.2" y2="1704.6"/>
	<line class="st2" x1="103.5" y1="1751.5" x2="246.1" y2="1751.5"/>
	<line class="st2" x1="103.5" y1="1812.3" x2="103.5" y2="1751.5"/>
	<line class="st2" x1="360.1" y1="1736.3" x2="360.1" y2="1834.3"/>
	<polyline class="st3" points="246.2,1071.1 246.2,1039 362.7,1039 362.7,710.7 242.7,710.7 242.7,690.2 221.1,690.2 221.1,710.7 
		101,710.7 101,1039 217.9,1039 218,1071.1 	"/>
	<rect x="141" y="528.2" class="st4" width="24.9" height="5"/>
	<rect x="141" y="533.2" class="st4" width="24.9" height="5"/>
	<rect x="141" y="538.2" class="st4" width="24.9" height="5"/>
	<rect x="122.3" y="528.2" class="st4" width="18.7" height="5"/>
	<rect x="122.3" y="533.2" class="st4" width="18.7" height="5"/>
	<rect x="122.3" y="538.2" class="st4" width="18.7" height="5"/>
	<rect x="141" y="543.2" class="st4" width="24.9" height="5"/>
	<rect x="122.3" y="543.2" class="st4" width="18.7" height="5"/>
	<rect x="141" y="548.2" class="st4" width="24.9" height="5"/>
	<rect x="122.3" y="548.2" class="st4" width="18.7" height="5"/>
	<rect x="141" y="553.3" class="st4" width="24.9" height="5"/>
	<rect x="122.3" y="553.3" class="st4" width="18.7" height="5"/>
	<rect x="166" y="528.2" class="st4" width="18.7" height="5"/>
	<rect x="166" y="533.2" class="st4" width="18.7" height="5"/>
	<rect x="166" y="538.2" class="st4" width="18.7" height="5"/>
	<rect x="166" y="543.2" class="st4" width="18.7" height="5"/>
	<rect x="166" y="548.2" class="st4" width="18.7" height="5"/>
	<rect x="166" y="553.3" class="st4" width="18.7" height="5"/>
	<rect x="122.3" y="513.4" class="st4" width="62.4" height="14.8"/>
	<rect x="121.7" y="614.4" class="st4" width="26" height="75.6"/>
	<rect x="317.7" y="615.5" class="st4" width="26" height="75.6"/>
	<polyline class="st3" points="218,1068.5 102.1,1068.5 102.1,1350.9 151.3,1350.9 151.3,1387.8 315.1,1387.8 315.1,1350.9 
		364.2,1350.9 364.2,1068.5 246.3,1068.5 	"/>
	<rect x="169.4" y="1367.8" class="st3" width="130.4" height="12.1"/>
	<rect x="169.4" y="1355.8" class="st3" width="130.4" height="12.1"/>
	<path class="st3" d="M287.8,636.8h-14.3c-6.4,0-11.6-7.2-11.6-16l0,0c0-8.8,5.2-16,11.6-16h14.3V636.8z"/>
	<path class="st3" d="M186.1,636.8h14.3c6.4,0,11.6-7.2,11.6-16l0,0c0-8.8-5.2-16-11.6-16h-14.3V636.8z"/>
	<rect x="303.9" y="527.6" class="st4" width="24.9" height="5"/>
	<rect x="303.9" y="532.7" class="st4" width="24.9" height="5"/>
	<rect x="303.9" y="537.7" class="st4" width="24.9" height="5"/>
	<rect x="285.2" y="527.6" class="st4" width="18.7" height="5"/>
	<rect x="285.2" y="532.7" class="st4" width="18.7" height="5"/>
	<rect x="285.2" y="537.7" class="st4" width="18.7" height="5"/>
	<rect x="303.9" y="542.7" class="st4" width="24.9" height="5"/>
	<rect x="285.2" y="542.7" class="st4" width="18.7" height="5"/>
	<rect x="303.9" y="547.7" class="st4" width="24.9" height="5"/>
	<rect x="285.2" y="547.7" class="st4" width="18.7" height="5"/>
	<rect x="303.9" y="552.8" class="st4" width="24.9" height="5"/>
	<rect x="285.2" y="552.8" class="st4" width="18.7" height="5"/>
	<rect x="328.9" y="527.6" class="st4" width="18.7" height="5"/>
	<rect x="328.9" y="532.7" class="st4" width="18.7" height="5"/>
	<rect x="328.9" y="537.7" class="st4" width="18.7" height="5"/>
	<rect x="328.9" y="542.7" class="st4" width="18.7" height="5"/>
	<rect x="328.9" y="547.7" class="st4" width="18.7" height="5"/>
	<rect x="328.9" y="552.8" class="st4" width="18.7" height="5"/>
	<rect x="285.2" y="512.9" class="st4" width="62.4" height="14.8"/>
	<line class="st6" x1="315.1" y1="1387.6" x2="360.7" y2="1387.6"/>
	<line class="st6" x1="103.4" y1="1387.6" x2="151.7" y2="1387.6"/>
	<line class="st6" x1="103.4" y1="1387.8" x2="103.4" y2="1525.1"/>
	<line class="st6" x1="360.7" y1="1387.8" x2="360.7" y2="1525.1"/>
	<line class="st6" x1="20.8" y1="447.8" x2="122.2" y2="447.8"/>
	<line class="st7" x1="121.9" y1="513.3" x2="385" y2="512.1"/>
	<line class="st6" x1="122.1" y1="447.4" x2="122.1" y2="514.1"/>
	<line class="st8" x1="103.5" y1="1525.3" x2="360.7" y2="1525.3"/>
</g>
<g id="DECK_ELEMENTS">
	<rect id="R293" x="308.5" y="1626.3" class="st9" width="51.9" height="78.6"/>
	<rect id="R294" x="308.5" y="1548.5" class="st9" width="51.9" height="76.9"/>
	<rect id="R149" x="16.4" y="920.4" class="st9" width="62" height="61.7"/>
	<rect id="R248" x="385.1" y="918.1" class="st9" width="63.1" height="62.8"/>
	<rect id="R136" x="16.5" y="513.2" class="st10" width="62" height="31"/>
	<rect id="R137" x="16.5" y="544.5" class="st10" width="62" height="31"/>
	<rect id="R138" x="16.5" y="575.9" class="st10" width="62" height="31"/>
	<rect id="R139" x="16.5" y="607.2" class="st10" width="62" height="31"/>
	<rect id="R140" x="16.5" y="638.5" class="st10" width="62" height="31"/>
	<rect id="R142" x="16.5" y="701.2" class="st10" width="62" height="31"/>
	<rect id="R146" x="16.5" y="826.5" class="st10" width="62" height="31"/>
	<rect id="R148" x="16.5" y="889.1" class="st10" width="62" height="31"/>
	<rect id="R256" x="385" y="668.7" class="st10" width="62" height="31"/>
	<rect id="R255" x="385" y="700" class="st10" width="62" height="31"/>
	<rect id="R251" x="385" y="825.3" class="st10" width="62" height="31"/>
	<rect id="R249" x="385" y="888" class="st10" width="62" height="31"/>
	<rect id="R152" x="15.8" y="1172.1" class="st10" width="62" height="31"/>
	<rect id="R153" x="15.8" y="1203.4" class="st10" width="62" height="31"/>
	<rect id="R155" x="15.8" y="1266.1" class="st10" width="62" height="31"/>
	<rect id="R158" x="15.8" y="1360.1" class="st10" width="62" height="31"/>
	<rect id="R245" x="385.4" y="1171.7" class="st10" width="62" height="31"/>
	<rect id="R244" x="385.4" y="1203.1" class="st10" width="62" height="31"/>
	<rect id="R242" x="385.4" y="1265.7" class="st10" width="62" height="31"/>
	<rect id="R240" x="385.4" y="1328.4" class="st10" width="62" height="31"/>
	<rect id="R163" x="16.5" y="1519.9" class="st10" width="62" height="31"/>
	<rect id="R168" x="16.5" y="1676.5" class="st10" width="62" height="31"/>
	<rect id="R234" x="385.5" y="1518.7" class="st10" width="62" height="31"/>
	<rect id="R229" x="385.5" y="1675.4" class="st10" width="62" height="31"/>
	<rect id="R172" x="16.4" y="1804.6" class="st10" width="62" height="31"/>
	<rect id="R173" x="16.5" y="1835.7" class="st10" width="62" height="31"/>
	<rect id="R179" x="16.5" y="2023.7" class="st10" width="62" height="31"/>
	<rect id="R180" x="16.5" y="2055" class="st10" width="62" height="31"/>
	<rect id="R225" x="384.9" y="1805.7" class="st10" width="62" height="31"/>
	<rect id="R224" x="385" y="1836.8" class="st10" width="62" height="31"/>
	<rect id="R221" x="385" y="1930.8" class="st10" width="62" height="31"/>
	<rect id="R218" x="385" y="2024.8" class="st10" width="62" height="31"/>
	<rect id="R217" x="385" y="2056.1" class="st10" width="62" height="31"/>
	<rect id="R184" x="15.9" y="2241.8" class="st10" width="62" height="31"/>
	<rect id="R185" x="15.9" y="2273.1" class="st10" width="62" height="31"/>
	<rect id="R186" x="16" y="2304.2" class="st10" width="62" height="31"/>
	<rect id="R187" x="16" y="2335.5" class="st10" width="62" height="31"/>
	<rect id="R188" x="16" y="2366.9" class="st10" width="62" height="31"/>
	<rect id="R189" x="16" y="2398.2" class="st10" width="62" height="31"/>
	<rect id="R190" x="16" y="2429.5" class="st10" width="62" height="31"/>
	<rect id="R191" x="16" y="2460.9" class="st10" width="62" height="31"/>
	<rect id="R195" x="16" y="2586.4" class="st10" width="62" height="31"/>
	<rect id="R196" x="16" y="2617.5" class="st10" width="62" height="31"/>
	<rect id="R197" x="16" y="2648.9" class="st10" width="62" height="31"/>
	<rect id="R198" x="16" y="2680.2" class="st10" width="62" height="31"/>
	<rect id="R213" x="386" y="2243.7" class="st10" width="62" height="31"/>
	<rect id="R212" x="386" y="2275" class="st10" width="62" height="31"/>
	<rect id="R211" x="386.1" y="2306.2" class="st10" width="62" height="31"/>
	<rect id="R210" x="386.1" y="2337.5" class="st10" width="62" height="31"/>
	<rect id="R209" x="386.1" y="2368.8" class="st10" width="62" height="31"/>
	<rect id="R208" x="386.1" y="2400.1" class="st10" width="62" height="31"/>
	<rect id="R207" x="386.1" y="2431.5" class="st10" width="62" height="31"/>
	<rect id="R206" x="386.1" y="2462.8" class="st10" width="62" height="31"/>
	<rect id="R203" x="386" y="2557.3" class="st10" width="62" height="31"/>
	<rect id="R202" x="386" y="2588.7" class="st10" width="62" height="31"/>
	<rect id="R201" x="386.1" y="2619.8" class="st10" width="62" height="31"/>
	<rect id="R200" x="386.1" y="2651.1" class="st10" width="62" height="31"/>
	<rect id="R199" x="386.1" y="2682.4" class="st10" width="62" height="31"/>
	<rect id="R141" x="16.5" y="669.8" class="st11" width="62" height="31"/>
	<rect id="R143" x="16.5" y="732.5" class="st11" width="62" height="31"/>
	<rect id="R144" x="16.5" y="763.8" class="st11" width="62" height="31"/>
	<rect id="R145" x="16.5" y="795.1" class="st11" width="62" height="31"/>
	<rect id="R147" x="16.5" y="857.8" class="st11" width="62" height="31"/>
	<rect id="R261" x="385" y="512.1" class="st12" width="62" height="31"/>
	<rect id="R260" x="385" y="543.4" class="st12" width="62" height="31"/>
	<rect id="R259" x="385" y="574.7" class="st11" width="62" height="31"/>
	<rect id="R258" x="385" y="606.1" class="st11" width="62" height="31"/>
	<rect id="R257" x="385" y="637.4" class="st11" width="62" height="31"/>
	<rect id="R254" x="385" y="731.4" class="st11" width="62" height="31"/>
	<rect id="R253" x="385" y="762.7" class="st11" width="62" height="31"/>
	<rect id="R252" x="385" y="794" class="st11" width="62" height="31"/>
	<rect id="R250" x="385" y="856.7" class="st11" width="62" height="31"/>
	<rect id="R150" x="15.8" y="1109.4" class="st11" width="62" height="31"/>
	<rect id="R151" x="15.8" y="1140.8" class="st11" width="62" height="31"/>
	<rect id="R154" x="15.8" y="1234.8" class="st11" width="62" height="31"/>
	<rect id="R156" x="15.8" y="1297.4" class="st11" width="62" height="31"/>
	<rect id="R157" x="15.8" y="1328.7" class="st11" width="62" height="31"/>
	<rect id="R159" x="15.8" y="1391.4" class="st11" width="62" height="31"/>
	<rect id="R160" x="15.8" y="1422.7" class="st11" width="62" height="28.2"/>
	<rect id="R161" x="16.4" y="1458.8" class="st11" width="62" height="29.6"/>
	<rect id="R162" x="16.4" y="1488.7" class="st11" width="62" height="31"/>
	<rect id="R247" x="385.4" y="1109.1" class="st11" width="62" height="31"/>
	<rect id="R246" x="385.4" y="1140.4" class="st11" width="62" height="31"/>
	<rect id="R243" x="385.4" y="1234.4" class="st11" width="62" height="31"/>
	<rect id="R241" x="385.4" y="1297" class="st11" width="62" height="31"/>
	<rect id="R239" x="385.4" y="1359.7" class="st11" width="62" height="31"/>
	<rect id="R238" x="385.4" y="1391" class="st11" width="62" height="31"/>
	<rect id="R237" x="385.4" y="1422.3" class="st11" width="62" height="28.9"/>
	<rect id="R164" x="16.5" y="1551.2" class="st11" width="62" height="31"/>
	<rect id="R165" x="16.5" y="1582.5" class="st11" width="62" height="31"/>
	<rect id="R166" x="16.5" y="1613.8" class="st11" width="62" height="31"/>
	<rect id="R167" x="16.5" y="1645.2" class="st11" width="62" height="31"/>
	<rect id="R169" x="16.5" y="1707.8" class="st11" width="62" height="31"/>
	<rect id="R170" x="16.5" y="1739.2" class="st11" width="62" height="28.2"/>
	<rect id="R236" x="385.4" y="1459.1" class="st11" width="62" height="28.2"/>
	<rect id="R235" x="385.4" y="1487.6" class="st11" width="62" height="31"/>
	<rect id="R233" x="385.5" y="1550.1" class="st11" width="62" height="31"/>
	<rect id="R232" x="385.5" y="1581.4" class="st11" width="62" height="31"/>
	<rect id="R231" x="385.5" y="1612.7" class="st11" width="62" height="31"/>
	<rect id="R230" x="385.5" y="1644.1" class="st11" width="62" height="31"/>
	<rect id="R228" x="385.5" y="1706.7" class="st11" width="62" height="31"/>
	<rect id="R227" x="385.5" y="1738" class="st11" width="62" height="31"/>
	<rect id="R171" x="16.4" y="1775.4" class="st11" width="62" height="28.9"/>
	<rect id="R174" x="16.5" y="1867.1" class="st11" width="62" height="31"/>
	<rect id="R175" x="16.5" y="1898.4" class="st11" width="62" height="31"/>
	<rect id="R176" x="16.5" y="1929.7" class="st11" width="62" height="31"/>
	<rect id="R177" x="16.5" y="1961" class="st11" width="62" height="31"/>
	<rect id="R178" x="16.5" y="1992.4" class="st11" width="62" height="31"/>
	<rect id="R226" x="384.9" y="1774.4" class="st11" width="62" height="31"/>
	<rect id="R223" x="385" y="1868.2" class="st11" width="62" height="31"/>
	<rect id="R222" x="385" y="1899.5" class="st11" width="62" height="31"/>
	<rect id="R220" x="385" y="1962.2" class="st11" width="62" height="31"/>
	<rect id="R219" x="385" y="1993.5" class="st11" width="62" height="31"/>
	<rect id="R192" x="16" y="2492.2" class="st12" width="62" height="31"/>
	<rect id="R193" x="16" y="2523.5" class="st12" width="62" height="31"/>
	<rect id="R194" x="16.1" y="2554.9" class="st12" width="62" height="31"/>
	<rect id="R205" x="386.1" y="2494.1" class="st12" width="62" height="31"/>
	<rect id="R204" x="386.1" y="2525.4" class="st12" width="62" height="31"/>
	<rect id="R181" x="16.2" y="2086.1" class="st12" width="62" height="51.2"/>
	<rect id="R182" x="16.3" y="2137.4" class="st12" width="62" height="50.2"/>
	<rect id="R183" x="16.2" y="2187.4" class="st12" width="62" height="53.6"/>
	<rect id="R216" x="385.2" y="2088.4" class="st12" width="62" height="51.2"/>
	<rect id="R215" x="385.4" y="2139.7" class="st12" width="62" height="50.2"/>
	<rect id="R214" x="385.7" y="2189.8" class="st12" width="62" height="53.6"/>
	<rect id="R282" x="297.3" y="2462.5" class="st12" width="62" height="31"/>
	<rect id="R266" x="103.8" y="1674.7" class="st13" width="62" height="31"/>
	<rect id="R264" x="103.8" y="1612.4" class="st13" width="62" height="31"/>
	<rect id="R279" x="104.3" y="2587.1" class="st12" width="62" height="31"/>
	<rect id="R278" x="104.3" y="2555.6" class="st12" width="62" height="31"/>
	<rect id="R277" x="104.3" y="2524.2" class="st12" width="62" height="31"/>
	<rect id="R276" x="104.3" y="2492.8" class="st12" width="62" height="31"/>
	<rect id="R275" x="104.3" y="2461.4" class="st12" width="62" height="31"/>
	<rect id="R274" x="104.3" y="2430" class="st12" width="62" height="31"/>
	<rect id="R273" x="104.3" y="2398.6" class="st12" width="62" height="31"/>
	<rect id="R272" x="104.3" y="2367.2" class="st12" width="62" height="31"/>
	<rect id="R280" x="297.3" y="2524.8" class="st12" width="62" height="31"/>
	<rect id="R281" x="297.3" y="2493.7" class="st12" width="62" height="31"/>
	<rect id="R283" x="297.3" y="2431.4" class="st12" width="62" height="31"/>
	<rect id="R284" x="297.3" y="2400.2" class="st12" width="62" height="31"/>
	<rect id="R285" x="297.3" y="2369.1" class="st12" width="62" height="31"/>
	<rect id="R286" x="297.3" y="2338" class="st12" width="62" height="31"/>
	<rect id="R268" x="103.5" y="1812.3" class="st12" width="62" height="48.9"/>
	<rect id="R269" x="103.5" y="1862.2" class="st13" width="62" height="31"/>
	<rect id="R270" x="103.5" y="1893.6" class="st12" width="62" height="47.8"/>
	<rect id="R271" x="103.5" y="1942.3" class="st12" width="62" height="47.8"/>
	<rect id="R291" x="298.7" y="1834" class="st13" width="62" height="31"/>
	<rect id="R290" x="298.7" y="1865.1" class="st13" width="62" height="31"/>
	<rect id="R289" x="298.7" y="1896.2" class="st13" width="62" height="31"/>
	<rect id="R288" x="298.7" y="1927.3" class="st13" width="62" height="31"/>
	<rect id="R287" x="298.7" y="1958.4" class="st13" width="62" height="31"/>
	<rect id="R267" x="103.8" y="1705.8" class="st13" width="62" height="31"/>
	<rect id="R265" x="103.8" y="1643.5" class="st13" width="62" height="31"/>
	<rect id="R263" x="103.8" y="1581.2" class="st13" width="62" height="31"/>
	<rect id="R262" x="103.8" y="1550.1" class="st13" width="62" height="31"/>
	<rect id="R300" x="165.4" y="1705.8" class="st13" width="62" height="31"/>
	<rect id="R299" x="165.4" y="1674.7" class="st13" width="62" height="31"/>
	<rect id="R298" x="165.4" y="1643.5" class="st13" width="62" height="31"/>
	<rect id="R297" x="165.4" y="1612.4" class="st13" width="62" height="31"/>
	<rect id="R296" x="165.4" y="1581.2" class="st13" width="62" height="31"/>
	<rect id="R295" x="165.4" y="1550.1" class="st13" width="62" height="31"/>
	<rect id="R292" x="298.1" y="1705.2" class="st13" width="62" height="31"/>
	<rect id="R301" x="246.1" y="1673.5" class="st13" width="62" height="31"/>
	<rect id="R302" x="246.1" y="1642.4" class="st13" width="62" height="31"/>
	<rect id="R303" x="246.1" y="1611.3" class="st13" width="62" height="31"/>
	<rect id="R304" x="246.1" y="1580.1" class="st13" width="62" height="31"/>
	<rect id="R305" x="246.1" y="1549" class="st13" width="62" height="31"/>
</g>
<g id="TEXT">
	<g id="ROOM_NUMBERS">
		<text transform="matrix(1 0 0 1 26.24 1133.24)" class="st14 st15">150</text>
		<text transform="matrix(1 0 0 1 26.24 1164.6)" class="st14 st15">151</text>
		<text transform="matrix(1 0 0 1 22.18 1196.98)" class="st14 st15">152</text>
		<text transform="matrix(1 0 0 1 20.65 1228.85)" class="st14 st15">153</text>
		<text transform="matrix(1 0 0 1 26.24 1255.55)" class="st14 st15">154</text>
		<text transform="matrix(1 0 0 1 21.16 1291.0699)" class="st14 st15">155</text>
		<text transform="matrix(1 0 0 1 26.24 1319.04)" class="st14 st15">156</text>
		<text transform="matrix(1 0 0 1 26.24 1349.92)" class="st14 st15">157</text>
		<text transform="matrix(1 0 0 1 22.18 1384.64)" class="st14 st15">158</text>
		<text transform="matrix(1 0 0 1 26.24 1412.86)" class="st14 st15">159</text>
		<text transform="matrix(1 0 0 1 26.24 1443.0601)" class="st14 st15">160</text>
		<text transform="matrix(1 0 0 1 26.24 1480.79)" class="st14 st15">161</text>
		<text transform="matrix(1 0 0 1 26.24 1510.55)" class="st14 st15">162</text>
		<text transform="matrix(1 0 0 1 22.44 1544.51)" class="st14 st15">163</text>
		<text transform="matrix(1 0 0 1 26.02 1574.87)" class="st14 st15">164</text>
		<text transform="matrix(1 0 0 1 27.04 1606.73)" class="st14 st15">165</text>
		<text transform="matrix(1 0 0 1 27.04 1640.14)" class="st14 st15">166</text>
		<text transform="matrix(1 0 0 1 26.02 1667.09)" class="st14 st15">167</text>
		<text transform="matrix(1 0 0 1 21.93 1700.3199)" class="st14 st15">168</text>
		<text transform="matrix(1 0 0 1 24.7 1732.1899)" class="st14 st15">169</text>
		<text transform="matrix(1 0 0 1 25.72 1761.5)" class="st14 st15">170</text>
		<text transform="matrix(1 0 0 1 27.11 1798.74)" class="st14 st15">171</text>
		<text transform="matrix(1 0 0 1 22.59 1829.21)" class="st14 st15">172</text>
		<text transform="matrix(1 0 0 1 22.59 1860.5699)" class="st14 st15">173</text>
		<text transform="matrix(1 0 0 1 25.72 1891.4301)" class="st14 st15">174</text>
		<text transform="matrix(1 0 0 1 25.72 1922.79)" class="st14 st15">175</text>
		<text transform="matrix(1 0 0 1 25.72 1954.16)" class="st14 st15">176</text>
		<text transform="matrix(1 0 0 1 25.72 1985.51)" class="st14 st15">177</text>
		<text transform="matrix(1 0 0 1 25.72 2016.88)" class="st14 st15">178</text>
		<text transform="matrix(1 0 0 1 22.59 2048.76)" class="st14 st15">179</text>
		<text transform="matrix(1 0 0 1 21.41 2080.1201)" class="st14 st15">180</text>
		<text transform="matrix(1 0 0 1 25.72 2133.23)" class="st14 st15">181</text>
		<text transform="matrix(1 0 0 1 25.72 2183.6299)" class="st14 st15">182</text>
		<text transform="matrix(1 0 0 1 25.72 2233.4199)" class="st14 st15">183</text>
		<text transform="matrix(1 0 0 1 396.09 1130.89)" class="st14 st15">247</text>
		<text transform="matrix(1 0 0 1 396.09 1161.8)" class="st14 st15">246</text>
		<text transform="matrix(1 0 0 1 391.16 1196.0699)" class="st14 st15">245</text>
		<text transform="matrix(1 0 0 1 391.16 1227.4301)" class="st14 st15">244</text>
		<text transform="matrix(1 0 0 1 396.09 1255.55)" class="st14 st15">243</text>
		<text transform="matrix(1 0 0 1 391.16 1290.15)" class="st14 st15">242</text>
		<text transform="matrix(1 0 0 1 395.06 1318.64)" class="st14 st15">241</text>
		<text transform="matrix(1 0 0 1 391.16 1352.88)" class="st14 st15">240</text>
		<text transform="matrix(1 0 0 1 396.09 1383.74)" class="st14 st15">239</text>
		<text transform="matrix(1 0 0 1 396.09 1412.86)" class="st14 st15">238</text>
		<text transform="matrix(1 0 0 1 396.09 1443.0601)" class="st14 st15">237</text>
		<text transform="matrix(1 0 0 1 396.09 1480.79)" class="st14 st15">236</text>
		<text transform="matrix(1 0 0 1 395.73 1510.55)" class="st14 st15">235</text>
		<text transform="matrix(1 0 0 1 391.3 1543.61)" class="st14 st15">234</text>
		<text transform="matrix(1 0 0 1 396.91 1573.97)" class="st14 st15">233</text>
		<text transform="matrix(1 0 0 1 396.91 1603.8)" class="st14 st15">232</text>
		<text transform="matrix(1 0 0 1 396.91 1635.15)" class="st14 st15">231</text>
		<text transform="matrix(1 0 0 1 396.37 1665.67)" class="st14 st15">230</text>
		<text transform="matrix(1 0 0 1 391.58 1699.4)" class="st14 st15">229</text>
		<text transform="matrix(1 0 0 1 396.37 1730.76)" class="st14 st15">228</text>
		<text transform="matrix(1 0 0 1 396.37 1762.13)" class="st14 st15">227</text>
		<text transform="matrix(1 0 0 1 396.37 1795.9)" class="st14 st15">226</text>
		<text transform="matrix(1 0 0 1 389.39 1829.87)" class="st14 st15">225</text>
		<text transform="matrix(1 0 0 1 390.92 1859.6899)" class="st14 st15">224</text>
		<text transform="matrix(1 0 0 1 396.37 1891.14)" class="st14 st15">223</text>
		<text transform="matrix(1 0 0 1 396.37 1922.51)" class="st14 st15">222</text>
		<text transform="matrix(1 0 0 1 390.04 1954.89)" class="st14 st15">221</text>
		<text transform="matrix(1 0 0 1 396.37 1986.14)" class="st14 st15">220</text>
		<text transform="matrix(1 0 0 1 396.37 2017.51)" class="st14 st15">219</text>
		<text transform="matrix(1 0 0 1 391.57 2047.45)" class="st14 st15">218</text>
		<text transform="matrix(1 0 0 1 391.57 2078.8101)" class="st14 st15">217</text>
		<text transform="matrix(1 0 0 1 395.57 2134.5601)" class="st14 st15">216</text>
		<text transform="matrix(1 0 0 1 395.57 2186.0801)" class="st14 st15">215</text>
		<text transform="matrix(1 0 0 1 395.57 2235.3701)" class="st14 st15">214</text>
		<text transform="matrix(1 0 0 1 391.58 2299.05)" class="st14 st15">212</text>
		<text transform="matrix(1 0 0 1 391.58 2330.4099)" class="st14 st15">2</text>
		<text transform="matrix(1 0 0 1 399.32 2330.4099)" class="st14 st15 st16">1</text>
		<text transform="matrix(1 0 0 1 406.03 2330.4099)" class="st14 st15">1</text>
		<text transform="matrix(1 0 0 1 391.58 2361.77)" class="st14 st15">210</text>
		<text transform="matrix(1 0 0 1 391.58 2393.1299)" class="st14 st15">209</text>
		<text transform="matrix(1 0 0 1 391.58 2424.49)" class="st14 st15">208</text>
		<text transform="matrix(1 0 0 1 391.58 2455.8501)" class="st14 st15">207</text>
		<text transform="matrix(1 0 0 1 391.58 2487.22)" class="st14 st15">206</text>
		<text transform="matrix(1 0 0 1 396.6 2518.5801)" class="st14 st15">205</text>
		<text transform="matrix(1 0 0 1 396.6 2549.9399)" class="st14 st15">204</text>
		<text transform="matrix(1 0 0 1 391.1 2581.3)" class="st14 st15">203</text>
		<text transform="matrix(1 0 0 1 391.68 2613.9099)" class="st14 st15">202</text>
		<text transform="matrix(1 0 0 1 392.05 2644.02)" class="st14 st15">201</text>
		<text transform="matrix(1 0 0 1 392.05 2675.3899)" class="st14 st15">200</text>
		<text transform="matrix(1 0 0 1 392.05 2706.75)" class="st14 st15">199</text>
		<text transform="matrix(1 0 0 1 113.98 2391.1001)" class="st14 st15">272</text>
		<text transform="matrix(1 0 0 1 113.98 2422.46)" class="st14 st15">273</text>
		<text transform="matrix(1 0 0 1 113.98 2453.8201)" class="st14 st15">274</text>
		<text transform="matrix(1 0 0 1 113.98 2485.1799)" class="st14 st15">275</text>
		<text transform="matrix(1 0 0 1 113.98 2516.54)" class="st14 st15">276</text>
		<text transform="matrix(1 0 0 1 113.98 2547.9099)" class="st14 st15">277</text>
		<text transform="matrix(1 0 0 1 113.98 2579.27)" class="st14 st15">278</text>
		<text transform="matrix(1 0 0 1 113.98 2610.6299)" class="st14 st15">279</text>
		<text transform="matrix(1 0 0 1 307.34 2362.1899)" class="st14 st15">286</text>
		<text transform="matrix(1 0 0 1 307.34 2393.54)" class="st14 st15">285</text>
		<text transform="matrix(1 0 0 1 307.34 2424.8999)" class="st14 st15">284</text>
		<text transform="matrix(1 0 0 1 307.34 2456.27)" class="st14 st15">283</text>
		<text transform="matrix(1 0 0 1 307.34 2519)" class="st14 st15">281</text>
		<text transform="matrix(1 0 0 1 307.34 2550.3601)" class="st14 st15">280</text>
		<text transform="matrix(1 0 0 1 113.66 1854.3101)" class="st14 st15">268</text>
		<text transform="matrix(1 0 0 1 114.17 1883.99)" class="st14 st15">269</text>
		<text transform="matrix(1 0 0 1 114.06 1935.46)" class="st14 st15">270</text>
		<text transform="matrix(1 0 0 1 115.7 1983.02)" class="st14 st15">271</text>
		<text transform="matrix(1 0 0 1 308.87 1857.23)" class="st14 st15">291</text>
		<text transform="matrix(1 0 0 1 308.87 1888.58)" class="st14 st15">290</text>
		<text transform="matrix(1 0 0 1 308.87 1919.9399)" class="st14 st15">289</text>
		<text transform="matrix(1 0 0 1 308.87 1951.3199)" class="st14 st15">288</text>
		<text transform="matrix(1 0 0 1 308.87 1982.67)" class="st14 st15">287</text>
		<text transform="matrix(1 0 0 1 256.17 1572.29)" class="st14 st15">305</text>
		<text transform="matrix(1 0 0 1 256.17 1603.65)" class="st14 st15">304</text>
		<text transform="matrix(1 0 0 1 256.17 1635.01)" class="st14 st15">303</text>
		<text transform="matrix(1 0 0 1 256.17 1666.38)" class="st14 st15">302</text>
		<text transform="matrix(1 0 0 1 256.17 1697.74)" class="st14 st15">301</text>
		<text transform="matrix(1 0 0 1 176.64 1573.83)" class="st14 st15">295</text>
		<text transform="matrix(1 0 0 1 176.64 1605.1899)" class="st14 st15">296</text>
		<text transform="matrix(1 0 0 1 176.64 1636.55)" class="st14 st15">297</text>
		<text transform="matrix(1 0 0 1 176.64 1667.92)" class="st14 st15">298</text>
		<text transform="matrix(1 0 0 1 176.64 1699.28)" class="st14 st15">299</text>
		<text transform="matrix(1 0 0 1 176.64 1730.64)" class="st14 st15">300</text>
		<text transform="matrix(1 0 0 1 114.22 1573.97)" class="st14 st15">262</text>
		<text transform="matrix(1 0 0 1 114.22 1605.34)" class="st14 st15">263</text>
		<text transform="matrix(1 0 0 1 110.2 1637.21)" class="st14 st15">264</text>
		<text transform="matrix(1 0 0 1 114.22 1668.0601)" class="st14 st15">265</text>
		<text transform="matrix(1 0 0 1 109.64 1699.4301)" class="st14 st15">266</text>
		<text transform="matrix(1 0 0 1 114.22 1730.79)" class="st14 st15">267</text>
		<text transform="matrix(1 0 0 1 308.89 1729.72)" class="st14 st15">292</text>
		<text transform="matrix(6.123234e-17 -1 1 6.123234e-17 331.79 1607.0695)" class="st14 st15">294</text>
		<text transform="matrix(6.123234e-17 -1 1 6.123234e-17 331.28 1679.171)" class="st14 st15">293</text>
		<text transform="matrix(1 0 0 1 22.18 537.9501)" class="st14 st15">136</text>
		<text transform="matrix(1 0 0 1 22.18 569.3099)" class="st14 st15">137</text>
		<text transform="matrix(1 0 0 1 22.18 600.67)" class="st14 st15">138</text>
		<text transform="matrix(1 0 0 1 22.18 632.03)" class="st14 st15">139</text>
		<text transform="matrix(1 0 0 1 22.95 663.4)" class="st14 st15">140</text>
		<text transform="matrix(1 0 0 1 26.04 693.73)" class="st14 st15">141</text>
		<text transform="matrix(1 0 0 1 21.41 726.11)" class="st14 st15">142</text>
		<text transform="matrix(1 0 0 1 26.04 756.4601)" class="st14 st15">143</text>
		<text transform="matrix(1 0 0 1 26.04 786.41)" class="st14 st15">144</text>
		<text transform="matrix(1 0 0 1 26.04 816.4)" class="st14 st15">145</text>
		<text transform="matrix(1 0 0 1 22.95 849.14)" class="st14 st15">146</text>
		<text transform="matrix(1 0 0 1 26.04 877.98)" class="st14 st15">147</text>
		<text transform="matrix(1 0 0 1 22.95 912.76)" class="st14 st15">148</text>
		<text transform="matrix(1 0 0 1 26.38 948.48)" class="st14 st15">149</text>
		<text transform="matrix(1 0 0 1 394.62 535.39)" class="st14 st15">261</text>
		<text transform="matrix(1 0 0 1 394.62 566.74)" class="st14 st15">260</text>
		<text transform="matrix(1 0 0 1 394.62 598.1)" class="st14 st15">259</text>
		<text transform="matrix(1 0 0 1 394.62 629.4601)" class="st14 st15">258</text>
		<text transform="matrix(1 0 0 1 394.62 660.83)" class="st14 st15">257</text>
		<text transform="matrix(1 0 0 1 391.16 692.1901)" class="st14 st15">256</text>
		<text transform="matrix(1 0 0 1 391.16 723.5499)" class="st14 st15">255</text>
		<text transform="matrix(1 0 0 1 394.62 754.92)" class="st14 st15">254</text>
		<text transform="matrix(1 0 0 1 394.62 784.4601)" class="st14 st15">253</text>
		<text transform="matrix(1 0 0 1 394.62 817.64)" class="st14 st15">252</text>
		<text transform="matrix(1 0 0 1 391.16 849.01)" class="st14 st15">251</text>
		<text transform="matrix(1 0 0 1 394.62 877.98)" class="st14 st15">250</text>
		<text transform="matrix(1 0 0 1 391.16 911.73)" class="st14 st15">249</text>
		<text transform="matrix(1 0 0 1 395.93 944.38)" class="st14 st15">248</text>
		<text transform="matrix(1 0 0 1 22.19 2265.24)" class="st14 st15">184</text>
		<text transform="matrix(1 0 0 1 22.19 2296.5901)" class="st14 st15">185</text>
		<text transform="matrix(1 0 0 1 21.68 2327.96)" class="st14 st15">186</text>
		<text transform="matrix(1 0 0 1 22.19 2359.3201)" class="st14 st15">187</text>
		<text transform="matrix(1 0 0 1 22.19 2390.6799)" class="st14 st15">188</text>
		<text transform="matrix(1 0 0 1 22.19 2422.05)" class="st14 st15">189</text>
		<text transform="matrix(1 0 0 1 22.19 2453.4099)" class="st14 st15">190</text>
		<text transform="matrix(1 0 0 1 21.68 2484.76)" class="st14 st15">191</text>
		<text transform="matrix(1 0 0 1 25.21 2516.1399)" class="st14 st15">192</text>
		<text transform="matrix(1 0 0 1 24.7 2547.5)" class="st14 st15">193</text>
		<text transform="matrix(1 0 0 1 25.72 2578.3401)" class="st14 st15">194</text>
		<text transform="matrix(1 0 0 1 20.39 2610.21)" class="st14 st15">195</text>
		<text transform="matrix(1 0 0 1 20.39 2641.5901)" class="st14 st15">196</text>
		<text transform="matrix(1 0 0 1 20.91 2672.9399)" class="st14 st15">197</text>
		<text transform="matrix(1 0 0 1 20.91 2704.3)" class="st14 st15">198</text>
		<text transform="matrix(1 0 0 1 391.58 2267.6799)" class="st14 st15">213</text>
		<text transform="matrix(1 0 0 1 304.61 2485.55)" class="st14 st15">282</text>
	</g>
</g>
<g id="SYMBOLS_AND_VENUES">
	<path d="M180.9,825.6c0-4.1,0-8,5.3-8c3.3,0,4.6,1.8,4.5,5.1h-3.2c0-2.1-0.4-2.8-1.3-2.8c-1.8,0-2.1,1.7-2.1,5.7s0.2,5.7,2.1,5.7
		c1.5,0,1.4-1.9,1.5-3.2h3.2c0,4.1-1.7,5.5-4.7,5.5C180.9,833.6,180.9,829.6,180.9,825.6z"/>
	<path d="M192.9,825.6c0-4.1,0-8,5.3-8s5.3,3.9,5.3,8s0,8-5.3,8S192.9,829.6,192.9,825.6z M200.3,825.6c0-4-0.2-5.7-2.1-5.7
		s-2.1,1.7-2.1,5.7s0.2,5.7,2.1,5.7S200.3,829.5,200.3,825.6z"/>
	<path d="M206.2,833.3v-15.5h4.4l4.1,10.7l0,0v-10.7h3v15.5h-4.3l-4.2-11.3l0,0v11.3H206.2z"/>
	<path d="M220.4,833.3v-15.5h8v2.4h-4.8v4h4.6v2.4h-4.6v6.8h-3.2V833.3z"/>
	<path d="M230,833.3v-15.5h8.5v2.4h-5.2v3.8h4.8v2.4h-4.8v4.5h5.4v2.4L230,833.3z"/>
	<path d="M243.9,833.3h-3.2v-15.5h6c2.2,0,3.6,1.4,3.6,4.1c0,2-0.8,3.4-2.9,3.8l0,0c1.5,0,2.8,1.2,2.8,2.7c0,0,0,0,0,0l0,0
		c0,0.1,0,0.2,0,0.3c0,1.5,0.1,3,0.4,4.5h-3.2c-0.3-1-0.4-2-0.3-3c0-1.8,0.2-3.4-2.3-3.4H244L243.9,833.3L243.9,833.3z M243.9,824.5
		h1.4c1.3,0,1.7-1.3,1.7-2.3c0-1.5-0.6-2-1.7-2h-1.4V824.5z"/>
	<path d="M252.7,833.3v-15.5h8.5v2.4H256v3.8h4.8v2.4H256v4.5h5.4v2.4L252.7,833.3z"/>
	<path d="M263.5,833.3v-15.5h4.4l4.1,10.7l0,0v-10.7h3v15.5h-4.3l-4.2-11.3l0,0v11.3H263.5z"/>
	<path d="M277.6,825.6c0-4.1,0-8,5.3-8c3.3,0,4.6,1.8,4.5,5.1h-3.2c0-2.1-0.4-2.8-1.3-2.8c-1.8,0-2.1,1.7-2.1,5.7s0.2,5.7,2.1,5.7
		c1.5,0,1.4-1.9,1.5-3.2h3.2c0,4.1-1.7,5.5-4.7,5.5C277.6,833.6,277.6,829.6,277.6,825.6z"/>
	<path d="M289.7,833.3v-15.5h8.5v2.4H293v3.8h4.8v2.4H293v4.5h5.4v2.4L289.7,833.3z"/>
	<path d="M205.4,851.5c0-4.1,0-8,5.3-8c3.3,0,4.6,1.8,4.5,5.1H212c0-2.1-0.4-2.8-1.3-2.8c-1.8,0-2.1,1.7-2.1,5.7s0.2,5.7,2.1,5.7
		c1.5,0,1.4-1.9,1.5-3.2h3.2c0,4.1-1.7,5.5-4.7,5.5C205.4,859.5,205.4,855.6,205.4,851.5z"/>
	<path d="M217.5,859.3v-15.5h8.5v2.4h-5.2v3.8h4.8v2.4h-4.8v4.5h5.4v2.4L217.5,859.3z"/>
	<path d="M228.3,859.3v-15.5h4.4l4.1,10.7l0,0v-10.7h3v15.5h-4.3l-4.2-11.3l0,0v11.3H228.3z"/>
	<path d="M251.8,843.8v2.6h-3.6v12.9H245v-12.9h-3.6v-2.6H251.8z"/>
	<path d="M253.3,859.3v-15.5h8.5v2.4h-5.2v3.8h4.8v2.4h-4.8v4.5h5.4v2.4L253.3,859.3z"/>
	<path d="M267.2,859.3H264v-15.5h6c2.2,0,3.6,1.4,3.6,4.1c0,2-0.8,3.4-2.9,3.8l0,0c1.5,0,2.8,1.2,2.8,2.7c0,0,0,0,0,0l0,0v0.3
		c0,1.5,0.1,3,0.4,4.5h-3.2c-0.3-1-0.4-2-0.3-3c0-1.8,0.2-3.4-2.3-3.4h-0.8L267.2,859.3L267.2,859.3z M267.2,850.5h1.4
		c1.3,0,1.7-1.3,1.7-2.3c0-1.5-0.6-2-1.7-2h-1.4V850.5z"/>
	<path d="M144.4,680.2h-15.5v-8.4h2.4v5.2h3.8v-4.8h2.4v4.8h4.5v-5.4h2.4L144.4,680.2L144.4,680.2z"/>
	<path d="M144.4,669.4h-15.5v-3.2h12.9v-4.8h2.6V669.4z"/>
	<path d="M144.4,659.9h-15.5v-8.4h2.4v5.2h3.8v-4.8h2.4v4.8h4.5v-5.4h2.4L144.4,659.9L144.4,659.9z"/>
	<path d="M128.9,650.4V647l11.3-2.4l0,0l-11.3-2.7v-3.2l15.5,4.1v3.8L128.9,650.4z"/>
	<path d="M141.5,636.5h2.8v2.6h-2.8V636.5z"/>
	<path d="M340.2,679.7h-15.5v-8.4h2.4v5.2h3.8v-4.8h2.4v4.8h4.5v-5.4h2.4L340.2,679.7L340.2,679.7z"/>
	<path d="M340.2,668.9h-15.5v-3.2h12.9v-4.8h2.6V668.9z"/>
	<path d="M340.2,659.4h-15.5V651h2.4v5.2h3.8v-4.8h2.4v4.8h4.5v-5.4h2.4L340.2,659.4L340.2,659.4z"/>
	<path d="M324.8,649.9v-3.4l11.3-2.4l0,0l-11.3-2.7v-3.2l15.5,4.1v3.8L324.8,649.9z"/>
	<path d="M337.4,636h2.8v2.6h-2.8V636z"/>
	<path d="M134.3,2065.4h-15.5v-8.5h2.4v5.2h3.8v-4.8h2.4v4.8h4.5v-5.4h2.4L134.3,2065.4z"/>
	<path d="M134.3,2054.7h-15.5v-3.2h12.9v-4.8h2.6V2054.7z"/>
	<path d="M134.3,2045.2h-15.5v-8.5h2.4v5.2h3.8v-4.8h2.4v4.8h4.5v-5.4h2.4L134.3,2045.2z"/>
	<path d="M118.8,2035.7v-3.4l11.3-2.4l0,0l-11.3-2.7v-3.2l15.5,4.1v3.8L118.8,2035.7z"/>
	<path d="M131.5,2020.2h2.8v2.6h-2.8V2020.2z"/>
	<path d="M350.6,2065.4h-15.5v-8.5h2.4v5.2h3.8v-4.8h2.4v4.8h4.5v-5.4h2.4L350.6,2065.4L350.6,2065.4z"/>
	<path d="M350.6,2054.7h-15.5v-3.2H348v-4.8h2.6L350.6,2054.7z"/>
	<path d="M350.6,2045.2h-15.5v-8.5h2.4v5.2h3.8v-4.8h2.4v4.8h4.5v-5.4h2.4L350.6,2045.2L350.6,2045.2z"/>
	<path d="M335.2,2035.7v-3.4l11.3-2.4l0,0l-11.3-2.7v-3.2l15.5,4.1v3.8L335.2,2035.7z"/>
	<path d="M347.8,2020.2h2.8v2.6h-2.8V2020.2z"/>
</g>
<g id="ROOM_ATTRIBUTES">
	<path d="M412.2,2103.7c-1.1,0.4-2.4,1.6-2.4,4.1c0.1,2.6,2.2,4.8,4.8,4.9c2.4,0,4.6-1.3,5.8-3.4l0.6,1.6c-1.5,2-3.9,3.2-6.4,3.2
		c-3.4,0-6.2-2.8-6.2-6.2c-0.2-2.5,1.4-4.8,3.8-5.5L412.2,2103.7z M419.3,2102v1.4h-4.7v1.4h6.6l1.9,5.6l2.2-0.8l0.5,1.4l-3.7,1.3
		l-2.2-6.1h-7l-0.3-8c0-0.6-0.4-0.8-0.5-1.4c0-1,0.8-1.8,1.8-1.8c0,0,0,0,0,0h0.1c1.1,0,2,0.5,2,1.8c0,0.9-0.8,1.7-1.7,1.8l0.1,3.4
		L419.3,2102z"/>
	<path d="M47.3,2204.3c-1.1,0.4-2.4,1.6-2.4,4.1c0.1,2.6,2.2,4.8,4.8,4.9c2.4,0,4.6-1.3,5.8-3.4l0.6,1.6c-1.5,2-3.9,3.2-6.4,3.2
		c-3.4,0-6.2-2.8-6.2-6.2c-0.2-2.5,1.4-4.8,3.8-5.5L47.3,2204.3z M54.4,2202.5l0.1,1.4h-4.7l0.1,1.4h6.6l2,5.6l2.2-0.8l0.5,1.4
		l-3.7,1.3l-2.1-6.1h-7l-0.3-8c0-0.6-0.4-0.8-0.5-1.4c0-1,0.8-1.8,1.8-1.8c0,0,0,0,0,0h0.1c1.1,0,2,0.5,2,1.8c0,0.9-0.8,1.7-1.7,1.8
		l0.1,3.4L54.4,2202.5z"/>
	<path d="M412.2,2152.4c-1.1,0.4-2.4,1.6-2.4,4.1c0,2.6,2.2,4.8,4.8,4.8c2.4,0,4.6-1.3,5.8-3.4l0.6,1.6c-1.5,2-3.9,3.2-6.4,3.2
		c-3.4,0-6.2-2.8-6.2-6.2c-0.2-2.5,1.4-4.8,3.8-5.5L412.2,2152.4z M419.3,2150.7l0.1,1.4h-4.7v1.4h6.6l1.9,5.6l2.2-0.8l0.5,1.4
		l-3.7,1.3l-2.1-6.1h-7l-0.3-8c0-0.6-0.4-0.8-0.5-1.4c0-1,0.8-1.8,1.8-1.8c0,0,0,0,0,0h0.1c1.1,0,2,0.5,2,1.8c0,0.9-0.8,1.7-1.7,1.8
		l0.1,3.4L419.3,2150.7z"/>
	<path d="M412.2,2207.4c-1.1,0.4-2.4,1.6-2.4,4.1c0,2.6,2.2,4.8,4.8,4.8c2.4,0,4.6-1.3,5.8-3.4l0.5,1.6c-1.5,2-3.9,3.2-6.4,3.2
		c-3.4,0-6.2-2.8-6.2-6.2c-0.2-2.5,1.4-4.8,3.8-5.5L412.2,2207.4z M419.3,2205.7l0.1,1.4h-4.7v1.4h6.6l1.9,5.6l2.2-0.8l0.5,1.4
		l-3.7,1.3l-2.1-6.1h-7l-0.3-8c0-0.6-0.4-0.8-0.5-1.4c0-1,0.7-1.8,1.7-1.8c0,0,0,0,0,0h0.1c1.1,0,2,0.5,2,1.8c0,1-0.8,1.8-1.7,1.9
		l0.1,3.4L419.3,2205.7L419.3,2205.7z"/>
	<path d="M129.3,1825.4c-1.1,0.4-2.4,1.6-2.4,4.1c0,2.6,2.2,4.8,4.8,4.8c2.4,0,4.6-1.3,5.8-3.4l0.6,1.6c-1.5,2-3.9,3.2-6.4,3.2
		c-3.4,0-6.2-2.8-6.2-6.2c-0.2-2.5,1.4-4.8,3.8-5.5L129.3,1825.4z M136.4,1823.7l0.1,1.4h-4.7v1.4h6.6l1.9,5.6l2.2-0.8l0.5,1.4
		l-3.7,1.3l-2.1-6.1h-7l-0.3-8c0-0.6-0.4-0.8-0.5-1.4c0-1,0.8-1.8,1.8-1.8c0,0,0,0,0,0h0.1c1-0.1,1.9,0.6,2,1.6l0,0
		c0,0.1,0,0.2,0,0.2c0,1-0.8,1.8-1.7,1.9l0.1,3.4L136.4,1823.7z"/>
	<path d="M131.4,1906.8c-1.1,0.4-2.4,1.6-2.4,4.1c0.1,2.6,2.2,4.8,4.8,4.9c2.4,0,4.6-1.3,5.8-3.4l0.6,1.6c-1.5,2-3.9,3.2-6.4,3.2
		c-3.4,0-6.2-2.8-6.2-6.2c-0.2-2.5,1.4-4.8,3.8-5.5L131.4,1906.8z M138.5,1905.1v1.4h-4.6v1.4h6.6l1.9,5.6l2.2-0.8l0.5,1.4l-3.7,1.3
		l-2.1-6.1h-7l-0.3-8c0-0.6-0.4-0.8-0.5-1.4c0-1,0.8-1.8,1.8-1.8c0,0,0,0,0,0h0.1c1-0.1,1.9,0.6,2,1.6l0,0c0,0.1,0,0.2,0,0.2
		c0,0.9-0.8,1.7-1.7,1.8l0.1,3.5L138.5,1905.1z"/>
	<path d="M135.4,1955.7c-1.1,0.4-2.4,1.6-2.4,4.1c0.1,2.6,2.2,4.8,4.8,4.9c2.4,0,4.6-1.3,5.8-3.4l0.6,1.6c-1.5,2-3.9,3.2-6.4,3.2
		c-3.4,0-6.2-2.8-6.2-6.2c-0.2-2.5,1.4-4.8,3.8-5.5L135.4,1955.7z M142.5,1954v1.4h-4.6v1.4h6.6l1.9,5.6l2.2-0.8l0.5,1.4l-3.7,1.3
		l-2.1-6.1h-7l-0.3-8c0-0.6-0.4-0.8-0.5-1.4c0-1,0.8-1.8,1.8-1.8c0,0,0,0,0,0h0.1c1.1,0,2,0.5,2,1.8c0,0.9-0.8,1.7-1.7,1.8l0.1,3.4
		L142.5,1954z"/>
	<path d="M47.3,2150.5c-1.1,0.4-2.4,1.6-2.4,4.1c0,2.6,2.2,4.8,4.8,4.8c2.4,0,4.6-1.3,5.8-3.4l0.6,1.6c-1.5,2-3.9,3.2-6.4,3.2
		c-3.4,0-6.2-2.8-6.2-6.2c-0.2-2.5,1.4-4.8,3.8-5.5L47.3,2150.5z M54.4,2148.8l0.1,1.4h-4.7l0.1,1.4h6.6l2,5.6l2.2-0.8l0.5,1.4
		l-3.7,1.3l-2.1-6.1h-7l-0.3-8c0-0.6-0.4-0.8-0.5-1.4c0-1,0.8-1.8,1.8-1.8c0,0,0,0,0,0h0.1c1.1,0,2,0.5,2,1.8c0,1-0.8,1.8-1.7,1.9
		l0.1,3.4L54.4,2148.8L54.4,2148.8z"/>
	<path d="M47.3,2101.1c-1.1,0.4-2.4,1.6-2.4,4.1c0,2.7,2.1,4.9,4.8,4.9c2.4,0,4.6-1.3,5.8-3.4l0.5,1.6c-1.5,2-3.9,3.2-6.4,3.2
		c-3.4,0-6.2-2.8-6.2-6.2c-0.2-2.5,1.4-4.8,3.8-5.5L47.3,2101.1z M54.4,2099.4l0.1,1.4h-4.7v1.4h6.6l2,5.6l2.2-0.8l0.5,1.4l-3.7,1.3
		l-2.1-6.1h-7l-0.3-8c0-0.6-0.4-0.8-0.5-1.4c0-1,0.7-1.8,1.7-1.8c0,0,0,0,0,0h0.2c1.1,0,2,0.5,2,1.8c0,0.9-0.8,1.7-1.7,1.8l0.1,3.5
		L54.4,2099.4L54.4,2099.4z"/>
</g>
<g id="ICONS">
	<path class="st17" d="M237.7,919.7c-10.5,0-19,8.5-19,19s8.5,19,19,19s19-8.5,19-19l0,0l0,0C256.7,928.2,248.2,919.7,237.7,919.7z
		 M229.4,939.1c0-0.3,0.1-0.7,0.1-1c0.2-1.1,0.6-2.2,1.1-3.2c0.4-0.7,1.6-0.6,2.3-1c0.6-0.2,1.1-0.4,1.6-0.7
		c0.5-0.4,0.9-0.8,1.2-1.3c0-0.8-0.1-1.7-0.3-2.5H235c-0.1-0.1-0.1-0.1-0.1-0.2c-0.3-0.3-0.2-1.1-0.1-1.5c0.2-0.1,0.4,0,0.4-0.3
		c-0.1-0.5-0.1-1,0.1-1.4c0.4-1,1.3-1.7,2.3-1.8c1.3-0.1,2.4,0.8,2.7,2.1c-0.1,0.5-0.1,1-0.2,1.5c0.3,0,0.6,0.3,0.6,0.6
		c-0.3,0.5-0.1,1.2-1,1.2c-0.2,0.7-0.3,1.4-0.3,2.1c0.5,0.4,0.9,0.8,1.3,1.2c0.6,0.4,1.3,0.6,2,0.8c0.6,0.2,1.7,0.3,2,0.8
		c0.1,0.2,0,0.3,0.1,0.4c0.4,1,0.7,2.1,1,3.2c0,0.4,0.1,0.7,0.1,1.1h-8.3c0-0.6,0.1-1.2,0.3-1.7c0.4,0,0.8-0.2,1-0.6
		c0.4-0.5,0.3-1.2-0.1-1.6c-0.6-0.3-1.2-0.1-1.5,0.5c-0.3,0.4-0.3,0.9-0.1,1.3c-0.3,0.7-0.5,1.4-0.4,2.1h-7.5c0,0,0-0.1,0-0.1
		c0,0,0,0,0,0l0,0C229.3,939.1,229.4,939.1,229.4,939.1C229.4,939.1,229.4,939.1,229.4,939.1z M248.7,943.3h-3.4v8.4h-15.1v-8.4
		h-3.4v-2.2h1.1V940h19.8v1.1h1.1L248.7,943.3z"/>
</g>
</svg>
